M48
; DRILL file {KiCad 9.0.7} date 2026-02-19T06:16:07+0100
; FORMAT={-:-/ absolute / metric / decimal}
; #@! TF.CreationDate,2026-02-19T06:16:07+01:00
; #@! TF.GenerationSoftware,Kicad,Pcbnew,9.0.7
; #@! TF.FileFunction,Plated,1,2,PTH
FMAT,2
METRIC
; #@! TA.AperFunction,Plated,PTH,ViaDrill
T1C0.200
; #@! TA.AperFunction,Plated,PTH,ComponentDrill
T2C0.200
; #@! TA.AperFunction,Plated,PTH,ViaDrill
T3C0.300
; #@! TA.AperFunction,Plated,PTH,ComponentDrill
T4C1.000
%
G90
G05
T1
X104.63Y-87.54
X104.63Y-88.54
X104.63Y-89.54
X105.63Y-88.54
X105.63Y-89.54
X105.63Y-92.54
X105.63Y-93.54
X105.63Y-94.54
X105.63Y-95.54
X105.63Y-96.54
X105.63Y-120.54
X105.63Y-121.54
X105.63Y-122.54
X105.63Y-123.54
X105.63Y-124.54
X105.63Y-125.54
X105.63Y-126.54
X105.63Y-127.54
X106.63Y-88.54
X106.63Y-89.54
X106.63Y-94.54
X106.63Y-95.54
X106.63Y-96.54
X106.63Y-120.54
X106.63Y-121.54
X106.63Y-122.54
X106.63Y-123.54
X106.63Y-124.54
X106.63Y-125.54
X106.63Y-126.54
X106.63Y-127.54
X107.63Y-88.54
X107.63Y-89.54
X107.63Y-90.54
X107.63Y-97.54
X107.63Y-98.54
X107.63Y-99.54
X107.63Y-119.54
X107.63Y-128.54
X107.63Y-129.54
X108.63Y-88.54
X108.63Y-89.54
X108.63Y-98.54
X108.63Y-99.54
X108.63Y-119.54
X108.63Y-128.54
X108.63Y-129.54
X108.63Y-130.54
X109.63Y-87.54
X109.63Y-88.54
X109.63Y-98.54
X109.63Y-99.54
X109.63Y-100.54
X109.63Y-101.54
X109.63Y-102.54
X109.63Y-103.54
X109.63Y-104.54
X109.63Y-105.54
X109.63Y-106.54
X109.63Y-107.54
X109.63Y-108.54
X109.63Y-109.54
X109.63Y-110.54
X109.63Y-111.54
X109.63Y-112.54
X109.63Y-113.54
X109.63Y-114.54
X109.63Y-115.54
X109.63Y-116.54
X109.63Y-117.54
X109.63Y-118.54
X109.63Y-128.54
X109.63Y-129.54
X109.63Y-130.54
X110.63Y-99.54
X110.63Y-104.54
X110.63Y-105.54
X110.63Y-106.54
X110.63Y-107.54
X110.63Y-108.54
X110.63Y-113.54
X110.63Y-114.54
X110.63Y-115.54
X110.63Y-126.54
X110.63Y-128.54
X110.63Y-129.54
X110.63Y-130.54
X110.63Y-131.54
X110.63Y-132.54
X110.63Y-133.54
X110.63Y-134.54
X110.63Y-135.54
X111.63Y-104.54
X111.63Y-105.54
X111.63Y-106.54
X111.63Y-107.54
X111.63Y-126.54
X111.63Y-128.54
X111.63Y-129.54
X111.63Y-130.54
X111.63Y-131.54
X111.63Y-132.54
X111.63Y-133.54
X111.63Y-134.54
X111.63Y-135.54
X112.63Y-87.54
X112.63Y-104.54
X112.63Y-120.54
X112.63Y-126.54
X112.63Y-128.54
X112.63Y-129.54
X112.63Y-130.54
X112.63Y-131.54
X112.63Y-132.54
X112.63Y-133.54
X112.63Y-134.54
X112.63Y-135.54
X113.08Y-90.89
X113.405Y-90.565
X113.63Y-87.54
X113.63Y-91.54
X113.63Y-97.54
X113.63Y-119.54
X113.63Y-120.54
X113.63Y-124.54
X113.63Y-125.54
X113.63Y-126.54
X113.63Y-128.54
X113.63Y-129.54
X113.63Y-130.54
X113.63Y-131.54
X113.63Y-132.54
X113.63Y-133.54
X113.63Y-134.54
X113.63Y-135.54
X113.755Y-90.215
X114.38Y-121.16
X114.63Y-90.54
X114.63Y-91.54
X114.63Y-97.54
X114.63Y-114.54
X114.63Y-115.54
X114.63Y-116.54
X114.63Y-117.54
X114.63Y-118.54
X114.63Y-119.54
X114.63Y-125.54
X114.63Y-126.54
X114.63Y-128.54
X114.63Y-129.54
X114.63Y-130.54
X114.63Y-131.54
X114.63Y-132.54
X114.63Y-133.54
X114.63Y-134.54
X114.63Y-135.54
X114.86Y-121.165
X115.34Y-121.165
X115.63Y-97.54
X115.63Y-98.54
X115.63Y-99.54
X115.63Y-116.54
X115.63Y-117.54
X115.63Y-118.54
X115.63Y-119.54
X115.63Y-126.54
X115.63Y-128.54
X115.63Y-129.54
X115.63Y-130.54
X115.63Y-131.54
X115.63Y-132.54
X115.63Y-133.54
X115.63Y-134.54
X115.63Y-135.54
X116.63Y-91.54
X116.63Y-92.54
X116.63Y-93.54
X116.63Y-94.54
X116.63Y-95.54
X116.63Y-96.54
X116.63Y-97.54
X116.63Y-115.54
X116.63Y-116.54
X116.63Y-117.54
X116.63Y-118.54
X116.63Y-119.54
X116.63Y-124.04
X116.63Y-126.54
X116.63Y-128.54
X116.63Y-129.54
X116.63Y-130.54
X116.63Y-131.54
X116.63Y-132.54
X116.63Y-133.54
X116.63Y-134.54
X116.63Y-135.54
X117.63Y-87.54
X117.63Y-91.54
X117.63Y-108.54
X117.63Y-116.54
X117.63Y-117.54
X117.63Y-118.54
X117.63Y-119.54
X117.63Y-124.04
X117.63Y-126.54
X117.63Y-128.54
X117.63Y-129.54
X117.63Y-130.54
X117.63Y-131.54
X117.63Y-132.54
X117.63Y-133.54
X117.63Y-134.54
X117.63Y-135.54
X118.63Y-87.54
X118.63Y-108.54
X118.63Y-109.54
X118.63Y-111.54
X118.63Y-113.54
X118.63Y-115.54
X118.63Y-116.54
X118.63Y-117.54
X118.63Y-118.54
X118.63Y-119.54
X118.63Y-124.04
X118.63Y-126.54
X118.63Y-128.54
X118.63Y-129.54
X118.63Y-130.54
X118.63Y-131.54
X118.63Y-132.54
X118.63Y-133.54
X118.63Y-134.54
X118.63Y-135.54
X119.63Y-87.54
X119.63Y-108.54
X119.63Y-109.54
X119.63Y-111.54
X119.63Y-112.54
X119.63Y-113.54
X119.63Y-115.54
X119.63Y-116.54
X119.63Y-124.04
X119.63Y-126.54
X119.63Y-128.54
X119.63Y-129.54
X119.63Y-130.54
X119.63Y-131.54
X119.63Y-132.54
X119.63Y-133.54
X119.63Y-134.54
X119.63Y-135.54
X120.63Y-87.54
X120.63Y-89.54
X120.63Y-90.54
X120.63Y-91.54
X120.63Y-92.54
X120.63Y-108.54
X120.63Y-109.54
X120.63Y-111.54
X120.63Y-112.54
X120.63Y-113.54
X120.63Y-115.54
X120.63Y-116.54
X120.63Y-119.54
X120.63Y-120.54
X120.63Y-126.54
X120.63Y-128.54
X120.63Y-129.54
X120.63Y-130.54
X120.63Y-131.54
X120.63Y-132.54
X120.63Y-133.54
X120.63Y-134.54
X120.63Y-135.54
X120.88Y-121.805
X121.37Y-121.805
X121.63Y-87.54
X121.63Y-89.54
X121.63Y-90.54
X121.63Y-91.54
X121.63Y-92.54
X121.63Y-106.54
X121.63Y-107.54
X121.63Y-108.54
X121.63Y-109.54
X121.63Y-112.54
X121.63Y-113.54
X121.63Y-115.54
X121.63Y-116.54
X121.63Y-117.54
X121.63Y-118.54
X121.63Y-119.54
X121.63Y-120.54
X121.63Y-123.04
X121.63Y-126.54
X121.63Y-128.54
X121.63Y-129.54
X121.63Y-130.54
X121.63Y-131.54
X121.63Y-132.54
X121.63Y-133.54
X121.63Y-134.54
X121.63Y-135.54
X121.755Y-110.665
X121.84Y-121.8
X122.63Y-87.54
X122.63Y-89.54
X122.63Y-90.54
X122.63Y-91.54
X122.63Y-92.54
X122.63Y-93.54
X122.63Y-94.54
X122.63Y-97.54
X122.63Y-106.54
X122.63Y-107.54
X122.63Y-108.54
X122.63Y-109.54
X122.63Y-113.54
X122.63Y-115.54
X122.63Y-116.54
X122.63Y-117.54
X122.63Y-118.54
X122.63Y-120.54
X122.63Y-123.04
X122.63Y-128.54
X122.63Y-129.54
X122.63Y-130.54
X122.63Y-131.54
X122.63Y-132.54
X122.63Y-133.54
X122.63Y-134.54
X122.63Y-135.54
X123.63Y-87.54
X123.63Y-89.54
X123.63Y-90.54
X123.63Y-91.54
X123.63Y-92.54
X123.63Y-93.54
X123.63Y-94.54
X123.63Y-95.54
X123.63Y-96.54
X123.63Y-97.54
X123.63Y-98.54
X123.63Y-99.54
X123.63Y-100.54
X123.63Y-101.54
X123.63Y-102.54
X123.63Y-103.54
X123.63Y-104.54
X123.63Y-105.54
X123.63Y-106.54
X123.63Y-107.54
X123.63Y-108.54
X123.63Y-109.54
X123.63Y-110.54
X123.63Y-115.54
X123.63Y-116.54
X123.63Y-117.54
X123.63Y-118.54
X123.63Y-120.54
X123.63Y-123.04
X123.63Y-127.54
X123.63Y-128.54
X123.63Y-129.54
X123.63Y-130.54
X123.63Y-131.54
X123.63Y-132.54
X123.63Y-133.54
X123.63Y-134.54
X123.63Y-135.54
X124.15Y-121.8
X124.63Y-87.54
X124.63Y-89.54
X124.63Y-90.54
X124.63Y-91.54
X124.63Y-92.54
X124.63Y-93.54
X124.63Y-94.54
X124.63Y-101.54
X124.63Y-102.54
X124.63Y-103.54
X124.63Y-104.54
X124.63Y-105.54
X124.63Y-106.54
X124.63Y-107.54
X124.63Y-111.54
X124.63Y-115.54
X124.63Y-116.54
X124.63Y-117.54
X124.63Y-118.54
X124.63Y-126.54
X124.63Y-127.54
X124.63Y-128.54
X124.63Y-129.54
X124.63Y-130.54
X124.63Y-131.54
X124.63Y-132.54
X124.63Y-133.54
X124.63Y-134.54
X124.63Y-135.54
X125.58Y-124.24
X125.6Y-118.09
X125.63Y-87.54
X125.63Y-101.54
X125.63Y-102.54
X125.63Y-103.54
X125.63Y-104.54
X125.63Y-105.54
X125.63Y-106.54
X125.63Y-107.54
X125.63Y-111.54
X125.63Y-112.54
X125.63Y-113.54
X125.63Y-116.54
X125.63Y-125.54
X125.63Y-126.54
X125.63Y-127.54
X125.63Y-128.54
X125.63Y-129.54
X125.63Y-130.54
X125.63Y-131.54
X125.63Y-132.54
X125.905Y-123.915
X126.23Y-123.59
X126.53Y-121.2
X126.63Y-87.54
X126.63Y-101.54
X126.63Y-102.54
X126.63Y-103.54
X126.63Y-104.54
X126.63Y-105.54
X126.63Y-106.54
X126.63Y-107.54
X126.63Y-111.54
X126.63Y-112.54
X126.63Y-113.54
X126.63Y-124.54
X126.63Y-131.54
X126.63Y-132.54
X126.93Y-120.75
X126.955Y-114.59
X127.13Y-128.54
X127.63Y-87.54
X127.63Y-101.54
X127.63Y-102.54
X127.63Y-103.54
X127.63Y-104.54
X127.63Y-105.54
X127.63Y-106.54
X127.63Y-107.54
X127.63Y-118.54
X127.63Y-132.54
X128.13Y-111.54
X128.13Y-112.54
X128.13Y-113.54
X128.13Y-115.54
X128.63Y-87.54
X128.63Y-101.54
X128.63Y-102.54
X128.63Y-103.54
X128.63Y-104.54
X128.63Y-105.54
X128.63Y-106.54
X128.63Y-107.54
X128.63Y-117.54
X128.63Y-118.54
X128.63Y-130.54
X128.63Y-133.54
X128.63Y-134.54
X128.63Y-135.54
X129.43Y-116.49
X129.63Y-87.54
X129.63Y-101.54
X129.63Y-102.54
X129.63Y-103.54
X129.63Y-104.54
X129.63Y-105.54
X129.63Y-106.54
X129.63Y-107.54
X129.63Y-111.54
X129.63Y-112.54
X129.63Y-113.54
X129.63Y-117.54
X129.63Y-133.54
X129.63Y-134.54
X129.63Y-135.54
X129.68Y-121.89
X130.63Y-87.54
X130.63Y-101.54
X130.63Y-102.54
X130.63Y-103.54
X130.63Y-104.54
X130.63Y-105.54
X130.63Y-106.54
X130.63Y-107.54
X130.63Y-111.54
X130.63Y-112.54
X130.63Y-113.54
X130.63Y-115.54
X130.63Y-116.54
X130.63Y-133.54
X130.63Y-134.54
X130.63Y-135.54
X131.18Y-114.59
X131.33Y-122.14
X131.63Y-87.54
X131.63Y-102.54
X131.63Y-103.54
X131.63Y-104.54
X131.63Y-105.54
X131.63Y-106.54
X131.63Y-107.54
X131.63Y-111.54
X131.63Y-112.54
X131.63Y-115.54
X131.63Y-124.54
X131.63Y-127.54
X131.63Y-128.54
X131.63Y-129.54
X131.63Y-130.54
X131.63Y-133.54
X131.63Y-134.54
X131.63Y-135.54
X132.63Y-87.54
X132.63Y-95.54
X132.63Y-103.54
X132.63Y-104.54
X132.63Y-124.54
X132.63Y-126.04
X132.63Y-133.54
X132.63Y-134.54
X132.63Y-135.54
X132.98Y-119.09
X133.03Y-121.64
X133.63Y-87.54
X133.63Y-97.54
X133.63Y-124.54
X133.63Y-133.54
X133.63Y-134.54
X133.63Y-135.54
X133.98Y-117.29
X134.43Y-120.45
X134.63Y-87.54
X134.63Y-89.54
X134.63Y-90.54
X134.63Y-91.54
X134.63Y-92.54
X134.63Y-93.54
X134.63Y-96.54
X134.63Y-97.54
X134.63Y-106.54
X134.63Y-107.54
X134.63Y-128.54
X134.63Y-129.54
X134.63Y-130.54
X134.63Y-133.54
X134.63Y-134.54
X134.63Y-135.54
X135.63Y-87.54
X135.63Y-95.54
X135.63Y-96.54
X135.63Y-97.54
X135.63Y-98.54
X135.63Y-99.54
X135.63Y-100.54
X135.63Y-105.54
X135.63Y-106.54
X135.63Y-110.54
X135.63Y-121.54
X135.63Y-127.54
X135.63Y-128.54
X135.63Y-129.54
X135.63Y-130.54
X135.63Y-131.54
X135.63Y-132.54
X135.88Y-88.74
X136.63Y-87.54
X136.63Y-89.54
X136.63Y-90.54
X136.63Y-91.54
X136.63Y-92.54
X136.63Y-93.54
X136.63Y-94.54
X136.63Y-95.54
X136.63Y-96.54
X136.63Y-97.54
X136.63Y-98.54
X136.63Y-99.54
X136.63Y-109.54
X136.63Y-110.54
X136.63Y-114.54
X136.63Y-115.54
X136.63Y-121.54
X136.63Y-126.54
X136.63Y-127.54
X136.63Y-128.54
X136.63Y-129.54
X136.63Y-130.54
X136.63Y-131.54
X136.63Y-132.54
X136.68Y-105.94
X136.93Y-118.39
X137.013Y-106.439
X137.23Y-117.44
X137.38Y-106.84
X137.63Y-108.54
X137.63Y-109.54
X137.63Y-110.54
X137.63Y-113.54
X137.63Y-114.54
X137.63Y-115.54
X137.63Y-121.54
X137.63Y-126.54
X137.63Y-127.54
X137.63Y-128.54
X137.63Y-129.54
X137.63Y-130.54
X137.63Y-131.54
X137.63Y-132.54
X137.93Y-117.94
X138.13Y-87.54
X138.13Y-89.54
X138.13Y-90.54
X138.13Y-91.54
X138.13Y-92.54
X138.13Y-93.54
X138.13Y-94.54
X138.13Y-95.54
X138.13Y-96.54
X138.13Y-97.54
X138.13Y-98.54
X138.13Y-99.54
X138.18Y-102.44
X138.18Y-106.34
X138.63Y-109.54
X138.63Y-110.54
X138.93Y-102.44
X138.93Y-106.84
X139.43Y-111.74
X139.63Y-87.54
X139.63Y-89.54
X139.63Y-90.54
X139.63Y-91.54
X139.63Y-92.54
X139.63Y-93.54
X139.63Y-94.54
X139.63Y-95.54
X139.63Y-96.54
X139.63Y-97.54
X139.63Y-98.54
X139.63Y-99.54
X139.63Y-109.54
X139.63Y-110.54
X139.78Y-100.59
X140.1Y-104.95
X140.23Y-105.89
X140.43Y-100.6
X140.63Y-87.54
X140.63Y-89.54
X140.63Y-90.54
X140.63Y-91.54
X140.63Y-92.54
X140.63Y-93.54
X140.63Y-94.54
X140.63Y-95.54
X140.63Y-96.54
X140.63Y-97.54
X140.63Y-98.54
X140.63Y-99.54
X140.63Y-101.54
X140.63Y-102.54
X140.63Y-121.54
X140.63Y-124.54
X140.98Y-100.6
X141.63Y-87.54
X141.63Y-89.54
X141.63Y-90.54
X141.63Y-91.54
X141.63Y-92.54
X141.63Y-93.54
X141.63Y-94.54
X141.63Y-95.54
X141.63Y-96.54
X141.63Y-97.54
X141.63Y-98.54
X141.63Y-99.54
X141.63Y-101.54
X141.63Y-102.54
X141.63Y-127.54
X141.63Y-128.54
X141.63Y-129.54
X142.15Y-104.95
X142.18Y-105.89
X142.18Y-126.04
X142.63Y-87.54
X142.63Y-89.54
X142.63Y-90.54
X142.63Y-91.54
X142.63Y-92.54
X142.63Y-93.54
X142.63Y-94.54
X142.63Y-95.54
X142.63Y-96.54
X142.63Y-97.54
X142.63Y-98.54
X142.63Y-102.54
X142.63Y-104.04
X142.63Y-108.54
X142.63Y-109.54
X142.63Y-115.54
X142.63Y-116.54
X142.63Y-119.24
X142.63Y-121.54
X142.63Y-122.54
X142.63Y-123.54
X142.63Y-127.54
X142.63Y-128.54
X142.63Y-129.54
X143.38Y-118.39
X143.63Y-87.54
X143.63Y-89.54
X143.63Y-90.54
X143.63Y-91.54
X143.63Y-92.54
X143.63Y-93.54
X143.63Y-108.54
X143.63Y-109.54
X143.63Y-116.54
X143.63Y-119.24
X143.63Y-121.54
X143.63Y-122.54
X143.63Y-123.54
X143.63Y-124.54
X143.63Y-127.54
X143.63Y-128.54
X143.63Y-129.54
X143.88Y-126.84
X144.63Y-87.54
X144.63Y-89.54
X144.63Y-90.54
X144.63Y-91.54
X144.63Y-92.54
X144.63Y-107.54
X144.63Y-108.54
X144.63Y-109.54
X144.63Y-113.54
X144.63Y-121.54
X144.63Y-122.54
X144.63Y-123.54
X144.63Y-124.54
X144.63Y-128.54
X144.63Y-129.54
X144.73Y-117.84
X145.63Y-87.54
X145.63Y-89.54
X145.63Y-90.54
X145.63Y-91.54
X145.63Y-94.54
X145.63Y-95.54
X145.63Y-96.54
X145.63Y-99.54
X145.63Y-100.54
X145.63Y-101.54
X145.63Y-102.54
X145.63Y-104.04
X145.63Y-106.54
X145.63Y-107.54
X145.63Y-108.54
X145.63Y-109.54
X145.63Y-113.54
X145.63Y-114.54
X145.63Y-120.54
X145.63Y-121.54
X145.63Y-122.54
X145.63Y-123.54
X145.63Y-124.54
X145.63Y-125.54
X145.63Y-129.54
X146.63Y-87.54
X146.63Y-89.54
X146.63Y-90.54
X146.63Y-91.54
X146.63Y-93.54
X146.63Y-94.54
X146.63Y-101.54
X146.63Y-102.54
X146.63Y-104.04
X146.63Y-106.54
X146.63Y-107.54
X146.63Y-108.54
X146.63Y-109.54
X146.63Y-113.54
X146.63Y-119.54
X146.63Y-120.54
X146.63Y-121.54
X146.63Y-122.54
X146.63Y-123.54
X146.63Y-124.54
X146.63Y-125.54
X146.63Y-129.54
X147.58Y-118.64
X147.63Y-87.54
X147.63Y-89.54
X147.63Y-90.54
X147.63Y-91.54
X147.63Y-93.54
X147.63Y-101.54
X147.63Y-102.54
X147.63Y-107.54
X147.63Y-108.54
X147.63Y-109.54
X147.63Y-113.54
X147.63Y-124.54
X147.63Y-125.54
X147.63Y-129.54
X148.18Y-105.89
X148.63Y-87.54
X148.63Y-90.54
X148.63Y-91.54
X148.63Y-93.54
X148.63Y-101.54
X148.63Y-102.54
X148.63Y-103.54
X148.63Y-107.54
X148.63Y-108.54
X148.63Y-109.54
X148.63Y-113.54
X148.63Y-117.54
X148.63Y-124.54
X148.63Y-125.54
X148.63Y-129.54
X149.63Y-87.54
X149.63Y-91.54
X149.63Y-101.54
X149.63Y-102.54
X149.63Y-103.54
X149.63Y-104.54
X149.63Y-108.54
X149.63Y-109.54
X149.63Y-113.54
X149.63Y-117.54
X149.63Y-118.54
X149.63Y-124.54
X149.63Y-125.54
X149.63Y-129.54
X150.63Y-87.54
X150.63Y-88.54
X150.63Y-89.54
X150.63Y-99.54
X150.63Y-100.54
X150.63Y-101.54
X150.63Y-102.54
X150.63Y-103.54
X150.63Y-104.54
X150.63Y-108.54
X150.63Y-109.54
X150.63Y-113.54
X150.63Y-117.54
X150.63Y-118.54
X150.63Y-124.54
X150.63Y-125.54
X150.63Y-129.54
X150.83Y-105.89
X151.63Y-87.54
X151.63Y-88.54
X151.63Y-89.54
X151.63Y-90.54
X151.63Y-99.54
X151.63Y-100.54
X151.63Y-101.54
X151.63Y-102.54
X151.63Y-103.54
X151.63Y-104.54
X151.63Y-109.54
X151.63Y-113.54
X151.63Y-117.54
X151.63Y-118.54
X151.63Y-124.54
X151.63Y-125.54
X151.63Y-129.54
X152.63Y-87.54
X152.63Y-88.54
X152.63Y-99.54
X152.63Y-100.54
X152.63Y-101.54
X152.63Y-102.54
X152.63Y-103.54
X152.63Y-104.54
X152.63Y-105.54
X152.63Y-113.54
X152.63Y-117.54
X152.63Y-118.54
X152.63Y-120.54
X152.63Y-121.54
X152.63Y-122.54
X152.63Y-123.54
X152.63Y-124.54
X152.63Y-125.54
X152.63Y-129.54
X153.63Y-87.54
X153.63Y-88.54
X153.63Y-99.54
X153.63Y-100.54
X153.63Y-101.54
X153.63Y-102.54
X153.63Y-103.54
X153.63Y-104.54
X153.63Y-105.54
X153.63Y-108.54
X153.63Y-113.54
X153.63Y-117.54
X153.63Y-118.54
X153.63Y-120.54
X153.63Y-121.54
X153.63Y-122.54
X153.63Y-123.54
X153.63Y-124.54
X153.63Y-125.54
X153.63Y-129.54
X154.63Y-87.54
X154.63Y-88.54
X154.63Y-99.54
X154.63Y-100.54
X154.63Y-101.54
X154.63Y-102.54
X154.63Y-103.54
X154.63Y-104.54
X154.63Y-105.54
X154.63Y-108.54
X154.63Y-109.54
X154.63Y-113.54
X154.63Y-117.54
X154.63Y-118.54
X154.63Y-120.54
X154.63Y-121.54
X154.63Y-122.54
X154.63Y-123.54
X154.63Y-124.54
X154.63Y-125.54
X154.63Y-129.54
X155.63Y-87.54
X155.63Y-88.54
X155.63Y-99.54
X155.63Y-100.54
X155.63Y-101.54
X155.63Y-102.54
X155.63Y-103.54
X155.63Y-104.54
X155.63Y-105.54
X155.63Y-108.54
X155.63Y-109.54
X155.63Y-110.54
X156.63Y-87.54
X156.63Y-88.54
X156.63Y-99.54
X156.63Y-100.54
X156.63Y-101.54
X156.63Y-102.54
X156.63Y-103.54
X156.63Y-104.54
X156.63Y-105.54
X156.63Y-108.54
X156.63Y-109.54
X156.63Y-110.54
X156.63Y-111.54
X157.63Y-87.54
X157.63Y-88.54
X157.63Y-99.54
X157.63Y-100.54
X157.63Y-101.54
X157.63Y-102.54
X157.63Y-103.54
X157.63Y-104.54
X157.63Y-105.54
X157.63Y-108.54
X157.63Y-109.54
X157.63Y-110.54
X157.63Y-111.54
X158.63Y-87.54
X158.63Y-88.54
X158.63Y-89.54
X158.63Y-90.54
X158.63Y-91.54
X158.63Y-92.54
X158.63Y-93.54
X158.63Y-94.54
X158.63Y-95.54
X158.63Y-99.54
X158.63Y-100.54
X158.63Y-101.54
X158.63Y-102.54
X158.63Y-103.54
X158.63Y-108.54
X158.63Y-109.54
X158.63Y-110.54
X158.63Y-111.54
X158.63Y-112.54
X158.63Y-113.54
X158.63Y-114.54
X158.63Y-115.54
X158.63Y-116.54
X158.63Y-117.54
X158.63Y-118.54
X158.63Y-119.54
X158.63Y-120.54
X158.63Y-121.54
X158.63Y-122.54
X158.63Y-123.54
X158.63Y-124.54
X158.63Y-125.54
X159.13Y-130.54
X159.13Y-131.54
X159.13Y-132.54
X159.13Y-133.54
X159.13Y-134.54
X159.13Y-135.54
X159.63Y-87.54
X159.63Y-88.54
X159.63Y-89.54
X159.63Y-90.54
X159.63Y-91.54
X159.63Y-92.54
X159.63Y-93.54
X159.63Y-94.54
X159.63Y-95.54
X159.63Y-99.54
X159.63Y-100.54
X159.63Y-101.54
X159.63Y-102.54
X159.63Y-103.54
X159.63Y-110.54
X159.63Y-111.54
X159.63Y-112.54
X159.63Y-113.54
X159.63Y-114.54
X159.63Y-115.54
X159.63Y-116.54
X159.63Y-117.54
X159.63Y-118.54
X159.63Y-119.54
X159.63Y-120.54
X159.63Y-121.54
X159.63Y-122.54
X159.63Y-123.54
X159.63Y-124.54
X159.63Y-125.54
X160.13Y-131.54
X160.13Y-132.54
X160.13Y-133.54
X160.13Y-134.54
X160.13Y-135.54
X160.63Y-87.54
X160.63Y-88.54
X160.63Y-89.54
X160.63Y-90.54
X160.63Y-91.54
X160.63Y-92.54
X160.63Y-93.54
X160.63Y-94.54
X160.63Y-95.54
X160.63Y-110.54
X160.63Y-111.54
X160.63Y-112.54
X160.63Y-113.54
X160.63Y-114.54
X160.63Y-115.54
X160.63Y-116.54
X160.63Y-117.54
X160.63Y-118.54
X160.63Y-119.54
X160.63Y-124.54
X160.63Y-125.54
X161.13Y-131.54
X161.13Y-132.54
X161.13Y-133.54
X161.13Y-134.54
X161.13Y-135.54
X161.63Y-87.54
X161.63Y-88.54
X161.63Y-89.54
X161.63Y-90.54
X161.63Y-91.54
X161.63Y-92.54
X161.63Y-93.54
X161.63Y-94.54
X161.63Y-95.54
X161.63Y-110.54
X161.63Y-111.54
X161.63Y-112.54
X161.63Y-113.54
X161.63Y-114.54
X161.63Y-115.54
X161.63Y-116.54
X161.63Y-117.54
X161.63Y-118.54
X162.63Y-87.54
X162.63Y-88.54
X162.63Y-89.54
X162.63Y-90.54
X162.63Y-91.54
X162.63Y-92.54
X162.63Y-93.54
X162.63Y-94.54
X162.63Y-95.54
X162.63Y-111.54
X162.63Y-112.54
X162.63Y-113.54
X162.63Y-114.54
X162.63Y-115.54
X162.63Y-116.54
X162.63Y-117.54
X162.63Y-118.54
X162.63Y-124.54
X162.63Y-125.54
X163.63Y-88.54
X163.63Y-89.54
X163.63Y-90.54
X163.63Y-91.54
X163.63Y-92.54
X163.63Y-93.54
X163.63Y-94.54
X163.63Y-95.54
X163.63Y-109.54
X163.63Y-112.54
X163.63Y-113.54
X163.63Y-114.54
X163.63Y-115.54
X163.63Y-116.54
X163.63Y-117.54
X163.63Y-118.54
X163.63Y-119.54
X163.63Y-120.54
X163.63Y-121.54
X163.63Y-122.54
X163.63Y-123.54
X163.63Y-124.54
X163.63Y-125.54
X163.63Y-126.54
X163.63Y-127.54
X163.63Y-128.54
X164.63Y-88.54
X164.63Y-89.54
X164.63Y-90.54
X164.63Y-91.54
X164.63Y-92.54
X164.63Y-93.54
X164.63Y-94.54
X164.63Y-95.54
X164.63Y-107.54
X164.63Y-108.54
X164.63Y-109.54
X164.63Y-110.54
X165.63Y-88.54
X165.63Y-89.54
X165.63Y-90.54
X165.63Y-91.54
X165.63Y-92.54
X165.63Y-93.54
X165.63Y-94.54
X165.63Y-95.54
X165.63Y-96.54
X165.63Y-97.54
X165.63Y-98.54
X165.63Y-99.54
X165.63Y-104.54
X165.63Y-105.54
X165.63Y-106.54
X165.63Y-107.54
X165.63Y-108.54
X165.63Y-109.54
X165.63Y-110.54
X165.63Y-111.54
X165.63Y-129.54
X166.63Y-88.54
X166.63Y-89.54
X166.63Y-90.54
X166.63Y-91.54
X166.63Y-92.54
X166.63Y-93.54
X166.63Y-94.54
X166.63Y-95.54
X166.63Y-96.54
X166.63Y-97.54
X166.63Y-98.54
X166.63Y-99.54
X166.63Y-100.54
X166.63Y-104.54
X166.63Y-105.54
X166.63Y-106.54
X166.63Y-107.54
X166.63Y-108.54
X166.63Y-109.54
X166.63Y-110.54
X166.63Y-111.54
X166.63Y-112.54
X166.63Y-113.54
X166.63Y-114.54
X166.63Y-115.54
X166.63Y-116.54
X166.63Y-117.54
X166.63Y-118.54
X166.63Y-119.54
X166.63Y-120.54
X166.63Y-121.54
X166.63Y-122.54
X166.63Y-123.54
X166.63Y-124.54
X166.63Y-125.54
X166.63Y-126.54
X166.63Y-127.54
X166.63Y-128.54
X166.63Y-129.54
T2
X148.15Y-120.96
X148.15Y-122.36
X148.85Y-120.26
X148.85Y-121.66
X148.85Y-123.06
X149.575Y-120.96
X149.575Y-122.36
X150.25Y-120.26
X150.25Y-121.66
X150.25Y-123.06
X150.95Y-120.96
X150.95Y-122.36
T3
X110.1Y-93.0
X110.1Y-96.75
X112.55Y-95.35
X112.55Y-96.75
X138.06Y-120.01
X145.81Y-118.48
X146.23Y-92.54
X148.53Y-88.84
T4
X112.08Y-83.44
X112.08Y-85.98
X114.62Y-83.44
X114.62Y-85.98
X117.16Y-83.44
X117.16Y-85.98
X119.7Y-83.44
X119.7Y-85.98
X122.24Y-83.44
X122.24Y-85.98
X124.78Y-83.44
X124.78Y-85.98
X127.32Y-83.44
X127.32Y-85.98
X129.86Y-83.44
X129.86Y-85.98
X132.4Y-83.44
X132.4Y-85.98
X134.94Y-83.44
X134.94Y-85.98
X137.48Y-83.44
X137.48Y-85.98
X140.02Y-83.44
X140.02Y-85.98
X142.56Y-83.44
X142.56Y-85.98
X145.1Y-83.44
X145.1Y-85.98
X147.64Y-83.44
X147.64Y-85.98
X150.18Y-83.44
X150.18Y-85.98
X152.72Y-83.44
X152.72Y-85.98
X155.26Y-83.44
X155.26Y-85.98
X157.8Y-83.44
X157.8Y-85.98
X160.34Y-83.44
X160.34Y-85.98
M30
