%TF.GenerationSoftware,KiCad,Pcbnew,9.0.7*%
%TF.CreationDate,2026-02-19T06:16:18+01:00*%
%TF.ProjectId,main,6d61696e-2e6b-4696-9361-645f70636258,rev?*%
%TF.SameCoordinates,Original*%
%TF.FileFunction,Copper,L2,Bot*%
%TF.FilePolarity,Positive*%
%FSLAX46Y46*%
G04 Gerber Fmt 4.6, Leading zero omitted, Abs format (unit mm)*
G04 Created by KiCad (PCBNEW 9.0.7) date 2026-02-19 06:16:18*
%MOMM*%
%LPD*%
G01*
G04 APERTURE LIST*
%TA.AperFunction,HeatsinkPad*%
%ADD10C,0.600000*%
%TD*%
%TA.AperFunction,ComponentPad*%
%ADD11R,1.700000X1.700000*%
%TD*%
%TA.AperFunction,ComponentPad*%
%ADD12C,1.700000*%
%TD*%
%TA.AperFunction,ViaPad*%
%ADD13C,0.500000*%
%TD*%
%TA.AperFunction,ViaPad*%
%ADD14C,0.600000*%
%TD*%
%TA.AperFunction,Conductor*%
%ADD15C,0.300000*%
%TD*%
%TA.AperFunction,Conductor*%
%ADD16C,0.200000*%
%TD*%
%TA.AperFunction,Conductor*%
%ADD17C,0.500000*%
%TD*%
G04 APERTURE END LIST*
D10*
%TO.P,U6,39,GND*%
%TO.N,GND*%
X150950000Y-122360000D03*
X150950000Y-120960000D03*
X150250000Y-123060000D03*
X150250000Y-121660000D03*
X150250000Y-120260000D03*
X149575000Y-122360000D03*
X149575000Y-120960000D03*
X148850000Y-123060000D03*
X148850000Y-121660000D03*
X148850000Y-120260000D03*
X148150000Y-122360000D03*
X148150000Y-120960000D03*
%TD*%
D11*
%TO.P,P1,1,Pin_1*%
%TO.N,Net-(P1-Pin_1)*%
X112080000Y-85980000D03*
D12*
%TO.P,P1,2,Pin_2*%
%TO.N,+5V Ignition*%
X112080000Y-83440000D03*
%TO.P,P1,3,Pin_3*%
%TO.N,SDA*%
X114620000Y-85980000D03*
%TO.P,P1,4,Pin_4*%
%TO.N,+5V Ignition*%
X114620000Y-83440000D03*
%TO.P,P1,5,Pin_5*%
%TO.N,SCL*%
X117160000Y-85980000D03*
%TO.P,P1,6,Pin_6*%
%TO.N,GND*%
X117160000Y-83440000D03*
%TO.P,P1,7,Pin_7*%
%TO.N,unconnected-(P1-Pin_7-Pad7)*%
X119700000Y-85980000D03*
%TO.P,P1,8,Pin_8*%
%TO.N,unconnected-(P1-Pin_8-Pad8)*%
X119700000Y-83440000D03*
%TO.P,P1,9,Pin_9*%
%TO.N,GND*%
X122240000Y-85980000D03*
%TO.P,P1,10,Pin_10*%
%TO.N,unconnected-(P1-Pin_10-Pad10)*%
X122240000Y-83440000D03*
%TO.P,P1,11,Pin_11*%
%TO.N,unconnected-(P1-Pin_11-Pad11)*%
X124780000Y-85980000D03*
%TO.P,P1,12,Pin_12*%
%TO.N,unconnected-(P1-Pin_12-Pad12)*%
X124780000Y-83440000D03*
%TO.P,P1,13,Pin_13*%
%TO.N,unconnected-(P1-Pin_13-Pad13)*%
X127320000Y-85980000D03*
%TO.P,P1,14,Pin_14*%
%TO.N,GND*%
X127320000Y-83440000D03*
%TO.P,P1,15,Pin_15*%
%TO.N,unconnected-(P1-Pin_15-Pad15)*%
X129860000Y-85980000D03*
%TO.P,P1,16,Pin_16*%
%TO.N,unconnected-(P1-Pin_16-Pad16)*%
X129860000Y-83440000D03*
%TO.P,P1,17,Pin_17*%
%TO.N,unconnected-(P1-Pin_17-Pad17)*%
X132400000Y-85980000D03*
%TO.P,P1,18,Pin_18*%
%TO.N,unconnected-(P1-Pin_18-Pad18)*%
X132400000Y-83440000D03*
%TO.P,P1,19,Pin_19*%
%TO.N,unconnected-(P1-Pin_19-Pad19)*%
X134940000Y-85980000D03*
%TO.P,P1,20,Pin_20*%
%TO.N,GND*%
X134940000Y-83440000D03*
%TO.P,P1,21,Pin_21*%
%TO.N,RPi_RX*%
X137480000Y-85980000D03*
%TO.P,P1,22,Pin_22*%
%TO.N,unconnected-(P1-Pin_22-Pad22)*%
X137480000Y-83440000D03*
%TO.P,P1,23,Pin_23*%
%TO.N,unconnected-(P1-Pin_23-Pad23)*%
X140020000Y-85980000D03*
%TO.P,P1,24,Pin_24*%
%TO.N,RPi_TX*%
X140020000Y-83440000D03*
%TO.P,P1,25,Pin_25*%
%TO.N,GND*%
X142560000Y-85980000D03*
%TO.P,P1,26,Pin_26*%
%TO.N,unconnected-(P1-Pin_26-Pad26)*%
X142560000Y-83440000D03*
%TO.P,P1,27,Pin_27*%
%TO.N,unconnected-(P1-Pin_27-Pad27)*%
X145100000Y-85980000D03*
%TO.P,P1,28,Pin_28*%
%TO.N,unconnected-(P1-Pin_28-Pad28)*%
X145100000Y-83440000D03*
%TO.P,P1,29,Pin_29*%
%TO.N,unconnected-(P1-Pin_29-Pad29)*%
X147640000Y-85980000D03*
%TO.P,P1,30,Pin_30*%
%TO.N,GND*%
X147640000Y-83440000D03*
%TO.P,P1,31,Pin_31*%
%TO.N,unconnected-(P1-Pin_31-Pad31)*%
X150180000Y-85980000D03*
%TO.P,P1,32,Pin_32*%
%TO.N,unconnected-(P1-Pin_32-Pad32)*%
X150180000Y-83440000D03*
%TO.P,P1,33,Pin_33*%
%TO.N,unconnected-(P1-Pin_33-Pad33)*%
X152720000Y-85980000D03*
%TO.P,P1,34,Pin_34*%
%TO.N,GND*%
X152720000Y-83440000D03*
%TO.P,P1,35,Pin_35*%
%TO.N,unconnected-(P1-Pin_35-Pad35)*%
X155260000Y-85980000D03*
%TO.P,P1,36,Pin_36*%
%TO.N,unconnected-(P1-Pin_36-Pad36)*%
X155260000Y-83440000D03*
%TO.P,P1,37,Pin_37*%
%TO.N,unconnected-(P1-Pin_37-Pad37)*%
X157800000Y-85980000D03*
%TO.P,P1,38,Pin_38*%
%TO.N,unconnected-(P1-Pin_38-Pad38)*%
X157800000Y-83440000D03*
%TO.P,P1,39,Pin_39*%
%TO.N,GND*%
X160340000Y-85980000D03*
%TO.P,P1,40,Pin_40*%
%TO.N,unconnected-(P1-Pin_40-Pad40)*%
X160340000Y-83440000D03*
%TD*%
D13*
%TO.N,GND*%
X127130000Y-128540000D03*
X121630000Y-135540000D03*
X114630000Y-125540000D03*
X150630000Y-87540000D03*
X132630000Y-134540000D03*
X159130000Y-131540000D03*
X124630000Y-115540000D03*
X153630000Y-100540000D03*
X150630000Y-108540000D03*
X123630000Y-127540000D03*
X152630000Y-118540000D03*
X106630000Y-124540000D03*
X145630000Y-100540000D03*
X133630000Y-97540000D03*
X120630000Y-115540000D03*
X145630000Y-99540000D03*
X116630000Y-116540000D03*
X152630000Y-101540000D03*
X120630000Y-132540000D03*
X120630000Y-87540000D03*
X118630000Y-108540000D03*
X141630000Y-89540000D03*
X121630000Y-106540000D03*
X158630000Y-89540000D03*
X151630000Y-104540000D03*
X163630000Y-119540000D03*
X160630000Y-88540000D03*
X140630000Y-97540000D03*
X147630000Y-101540000D03*
X104630000Y-87540000D03*
X120630000Y-133540000D03*
X117630000Y-130540000D03*
X134630000Y-135540000D03*
X140630000Y-101540000D03*
X162630000Y-118540000D03*
X163630000Y-126540000D03*
X151630000Y-103540000D03*
X105630000Y-124540000D03*
X146630000Y-104040000D03*
X154630000Y-104540000D03*
X127630000Y-107540000D03*
X112630000Y-130540000D03*
X109630000Y-101540000D03*
X163630000Y-93540000D03*
X141630000Y-95540000D03*
X111630000Y-126540000D03*
X143630000Y-92540000D03*
X118630000Y-113540000D03*
X155630000Y-87540000D03*
X123630000Y-92540000D03*
X132630000Y-135540000D03*
X151630000Y-113540000D03*
X134630000Y-107540000D03*
X113630000Y-87540000D03*
X152630000Y-103540000D03*
X153630000Y-102540000D03*
X131630000Y-87540000D03*
X132630000Y-133540000D03*
X146630000Y-109540000D03*
X146630000Y-94540000D03*
X161630000Y-117540000D03*
X161630000Y-89540000D03*
X151630000Y-87540000D03*
X165630000Y-106540000D03*
X121630000Y-109540000D03*
X166630000Y-122540000D03*
X122630000Y-133540000D03*
X158630000Y-118540000D03*
X144630000Y-121540000D03*
X144630000Y-122540000D03*
X145630000Y-102540000D03*
X117630000Y-129540000D03*
X149630000Y-108540000D03*
X105630000Y-94540000D03*
X123630000Y-115540000D03*
X160630000Y-116540000D03*
X141630000Y-129540000D03*
X119630000Y-113540000D03*
X105630000Y-123540000D03*
X164630000Y-90540000D03*
X166630000Y-119540000D03*
X154630000Y-122540000D03*
X131630000Y-127540000D03*
X129630000Y-102540000D03*
X124630000Y-102540000D03*
X145630000Y-104040000D03*
X159630000Y-117540000D03*
X166630000Y-114540000D03*
X145630000Y-89540000D03*
X134630000Y-91540000D03*
X157630000Y-109540000D03*
X161630000Y-116540000D03*
X120630000Y-91540000D03*
X122630000Y-129540000D03*
X161630000Y-91540000D03*
X145630000Y-91540000D03*
X130630000Y-103540000D03*
X111630000Y-132540000D03*
X143630000Y-89540000D03*
X143630000Y-121540000D03*
X121630000Y-113540000D03*
X110630000Y-106540000D03*
X150630000Y-88540000D03*
X142630000Y-123540000D03*
X113630000Y-135540000D03*
X108630000Y-89540000D03*
X123630000Y-96540000D03*
X145630000Y-124540000D03*
X128630000Y-103540000D03*
X115630000Y-135540000D03*
X162630000Y-117540000D03*
X113630000Y-132540000D03*
X142630000Y-127540000D03*
X115630000Y-131540000D03*
X147630000Y-113540000D03*
X116630000Y-126540000D03*
X134630000Y-90540000D03*
X124630000Y-111540000D03*
X162630000Y-92540000D03*
X118630000Y-133540000D03*
X136630000Y-89540000D03*
X163630000Y-89540000D03*
X105630000Y-96540000D03*
X155630000Y-88540000D03*
X123630000Y-90540000D03*
X139630000Y-91540000D03*
X123630000Y-135540000D03*
X159630000Y-125540000D03*
X124630000Y-92540000D03*
X166630000Y-117540000D03*
X141630000Y-92540000D03*
X140630000Y-87540000D03*
X162630000Y-93540000D03*
X146630000Y-124540000D03*
X106630000Y-125540000D03*
X140630000Y-93540000D03*
X142630000Y-109540000D03*
X159130000Y-134540000D03*
X149630000Y-109540000D03*
X164630000Y-108540000D03*
X142630000Y-87540000D03*
X146630000Y-93540000D03*
X112630000Y-133540000D03*
X148630000Y-125540000D03*
X121630000Y-128540000D03*
X144630000Y-128540000D03*
X122630000Y-90540000D03*
X148630000Y-90540000D03*
X139630000Y-98540000D03*
X161630000Y-115540000D03*
X162630000Y-91540000D03*
X153630000Y-113540000D03*
X136630000Y-96540000D03*
X113630000Y-134540000D03*
X137630000Y-121540000D03*
X136630000Y-92540000D03*
X166630000Y-112540000D03*
X118630000Y-131540000D03*
X116630000Y-130540000D03*
X163630000Y-88540000D03*
X109630000Y-129540000D03*
X165630000Y-111540000D03*
X121630000Y-90540000D03*
X139630000Y-97540000D03*
X116630000Y-131540000D03*
X142630000Y-92540000D03*
X116630000Y-96540000D03*
X131630000Y-104540000D03*
X123630000Y-133540000D03*
X164630000Y-89540000D03*
X110630000Y-131540000D03*
X120630000Y-116540000D03*
X158630000Y-120540000D03*
X157630000Y-103540000D03*
X111630000Y-128540000D03*
X166630000Y-89540000D03*
X115630000Y-119540000D03*
X134630000Y-134540000D03*
X122630000Y-135540000D03*
X158630000Y-101540000D03*
X138130000Y-99540000D03*
X145630000Y-96540000D03*
X156630000Y-109540000D03*
X118630000Y-111540000D03*
X153630000Y-123540000D03*
X124630000Y-118540000D03*
X129630000Y-101540000D03*
X164630000Y-109540000D03*
X126630000Y-105540000D03*
X162630000Y-87540000D03*
X123630000Y-95540000D03*
X142630000Y-116540000D03*
X122630000Y-109540000D03*
X109630000Y-118540000D03*
X148630000Y-101540000D03*
X151630000Y-129540000D03*
X160630000Y-124540000D03*
X109630000Y-113540000D03*
X130630000Y-107540000D03*
X121630000Y-89540000D03*
X159630000Y-99540000D03*
X152630000Y-121540000D03*
X120630000Y-113540000D03*
X140630000Y-96540000D03*
X160630000Y-92540000D03*
X145630000Y-129540000D03*
X111630000Y-131540000D03*
X110630000Y-104540000D03*
X158630000Y-99540000D03*
X140630000Y-121540000D03*
X122630000Y-87540000D03*
X124630000Y-130540000D03*
X125630000Y-131540000D03*
X129630000Y-111540000D03*
X152630000Y-125540000D03*
X123630000Y-108540000D03*
X122630000Y-116540000D03*
X135630000Y-98540000D03*
X136630000Y-131540000D03*
X165630000Y-90540000D03*
X115630000Y-97540000D03*
X139630000Y-90540000D03*
X134630000Y-93540000D03*
X142630000Y-89540000D03*
X149630000Y-102540000D03*
X130630000Y-101540000D03*
X166630000Y-107540000D03*
X137630000Y-128540000D03*
X138630000Y-110540000D03*
X121630000Y-92540000D03*
X149630000Y-118540000D03*
X148630000Y-117540000D03*
X120630000Y-130540000D03*
X135630000Y-105540000D03*
X115630000Y-130540000D03*
X115630000Y-116540000D03*
X152630000Y-99540000D03*
X115630000Y-126540000D03*
X134630000Y-92540000D03*
X146630000Y-90540000D03*
X158630000Y-122540000D03*
X138130000Y-94540000D03*
X159630000Y-122540000D03*
X145630000Y-120540000D03*
X122630000Y-117540000D03*
X116630000Y-117540000D03*
X148630000Y-103540000D03*
X128630000Y-118540000D03*
X155630000Y-104540000D03*
X159630000Y-89540000D03*
X158630000Y-94540000D03*
X161130000Y-133540000D03*
X149630000Y-101540000D03*
X121630000Y-115540000D03*
X146630000Y-125540000D03*
X109630000Y-98540000D03*
X143630000Y-91540000D03*
X160130000Y-133540000D03*
X137630000Y-115540000D03*
X111630000Y-105540000D03*
X152630000Y-122540000D03*
X165630000Y-89540000D03*
X109630000Y-106540000D03*
X143630000Y-108540000D03*
X146630000Y-121540000D03*
X117630000Y-128540000D03*
X112630000Y-104540000D03*
X150630000Y-109540000D03*
X107630000Y-98540000D03*
X162630000Y-112540000D03*
X131630000Y-133540000D03*
X160630000Y-91540000D03*
X122630000Y-107540000D03*
X159130000Y-132540000D03*
X166630000Y-93540000D03*
X127630000Y-102540000D03*
X121630000Y-108540000D03*
X110630000Y-115540000D03*
X118630000Y-115540000D03*
X109630000Y-99540000D03*
X163630000Y-109540000D03*
X110630000Y-130540000D03*
X123630000Y-104540000D03*
X113630000Y-128540000D03*
X135630000Y-128540000D03*
X160630000Y-87540000D03*
X107630000Y-99540000D03*
X119630000Y-131540000D03*
X123630000Y-101540000D03*
X162630000Y-113540000D03*
X114630000Y-118540000D03*
X149630000Y-87540000D03*
X147630000Y-129540000D03*
X146630000Y-120540000D03*
X133630000Y-133540000D03*
X156630000Y-111540000D03*
X150630000Y-102540000D03*
X113630000Y-133540000D03*
X116630000Y-93540000D03*
X111630000Y-129540000D03*
X106630000Y-96540000D03*
X117630000Y-117540000D03*
X117630000Y-108540000D03*
X166630000Y-126540000D03*
X135630000Y-87540000D03*
X129630000Y-113540000D03*
X112630000Y-131540000D03*
X158630000Y-112540000D03*
X122630000Y-130540000D03*
X130630000Y-112540000D03*
X138130000Y-96540000D03*
X125630000Y-127540000D03*
X128130000Y-113540000D03*
X127630000Y-103540000D03*
X139630000Y-92540000D03*
X105630000Y-127540000D03*
X120630000Y-92540000D03*
X118630000Y-124040000D03*
X157630000Y-110540000D03*
X124630000Y-116540000D03*
X158630000Y-91540000D03*
X136630000Y-114540000D03*
X148630000Y-102540000D03*
X163630000Y-124540000D03*
X126630000Y-131540000D03*
X127630000Y-132540000D03*
X129630000Y-105540000D03*
X122630000Y-123040000D03*
X137630000Y-126540000D03*
X106630000Y-95540000D03*
X141630000Y-90540000D03*
X162630000Y-111540000D03*
X161630000Y-92540000D03*
X163630000Y-116540000D03*
X160130000Y-135540000D03*
X121630000Y-87540000D03*
X107630000Y-119540000D03*
X159630000Y-112540000D03*
X114630000Y-117540000D03*
X116630000Y-95540000D03*
X124630000Y-105540000D03*
X108630000Y-88540000D03*
X112630000Y-135540000D03*
X148630000Y-107540000D03*
X162630000Y-89540000D03*
X134630000Y-128540000D03*
X136630000Y-87540000D03*
X142630000Y-96540000D03*
X165630000Y-110540000D03*
X112630000Y-134540000D03*
X125630000Y-101540000D03*
X117630000Y-126540000D03*
X136630000Y-98540000D03*
X153630000Y-108540000D03*
X126630000Y-112540000D03*
X104630000Y-88540000D03*
X120630000Y-129540000D03*
X126630000Y-104540000D03*
X123630000Y-120540000D03*
X145630000Y-113540000D03*
X161630000Y-113540000D03*
X134630000Y-129540000D03*
X142630000Y-98540000D03*
X121630000Y-119540000D03*
X135630000Y-99540000D03*
X152630000Y-87540000D03*
X163630000Y-95540000D03*
X123630000Y-132540000D03*
X162630000Y-124540000D03*
X158630000Y-92540000D03*
X148630000Y-91540000D03*
X136630000Y-130540000D03*
X154630000Y-120540000D03*
X153630000Y-118540000D03*
X157630000Y-100540000D03*
X151630000Y-100540000D03*
X131630000Y-112540000D03*
X163630000Y-120540000D03*
X160630000Y-94540000D03*
X159630000Y-113540000D03*
X166630000Y-111540000D03*
X158630000Y-95540000D03*
X166630000Y-127540000D03*
X119630000Y-129540000D03*
X126630000Y-106540000D03*
X128630000Y-87540000D03*
X145630000Y-123540000D03*
X123630000Y-118540000D03*
X106630000Y-121540000D03*
X112630000Y-128540000D03*
X149630000Y-125540000D03*
X114630000Y-132540000D03*
X122630000Y-120540000D03*
X161630000Y-112540000D03*
X166630000Y-90540000D03*
X109630000Y-103540000D03*
X156630000Y-108540000D03*
X136630000Y-93540000D03*
X122630000Y-106540000D03*
X120630000Y-119540000D03*
X114630000Y-131540000D03*
X139630000Y-94540000D03*
X132630000Y-95540000D03*
X140630000Y-98540000D03*
X141630000Y-128540000D03*
X165630000Y-93540000D03*
X105630000Y-89540000D03*
X117630000Y-133540000D03*
X140630000Y-91540000D03*
X106630000Y-94540000D03*
X161630000Y-88540000D03*
X127630000Y-101540000D03*
X164630000Y-88540000D03*
X137630000Y-114540000D03*
X131630000Y-135540000D03*
X128130000Y-112540000D03*
X125630000Y-105540000D03*
X141630000Y-101540000D03*
X129630000Y-117540000D03*
X115630000Y-99540000D03*
X141630000Y-87540000D03*
X121630000Y-130540000D03*
X161130000Y-131540000D03*
X132630000Y-103540000D03*
X107630000Y-97540000D03*
X152630000Y-113540000D03*
X147630000Y-89540000D03*
X116630000Y-132540000D03*
X107630000Y-89540000D03*
X105630000Y-93540000D03*
X110630000Y-132540000D03*
X146630000Y-106540000D03*
X163630000Y-90540000D03*
X160630000Y-111540000D03*
X166630000Y-109540000D03*
X128630000Y-104540000D03*
X115630000Y-132540000D03*
X129630000Y-112540000D03*
X121630000Y-132540000D03*
X113630000Y-125540000D03*
X165630000Y-94540000D03*
X130630000Y-104540000D03*
X162630000Y-114540000D03*
X153630000Y-121540000D03*
X107630000Y-129540000D03*
X159630000Y-88540000D03*
X121630000Y-126540000D03*
X163630000Y-125540000D03*
X151630000Y-101540000D03*
X166630000Y-129540000D03*
X123630000Y-130540000D03*
X154630000Y-124540000D03*
X118630000Y-118540000D03*
X123630000Y-97540000D03*
X109630000Y-130540000D03*
X150630000Y-118540000D03*
X123630000Y-110540000D03*
X116630000Y-128540000D03*
X146630000Y-123540000D03*
X113630000Y-124540000D03*
X111630000Y-135540000D03*
X121630000Y-107540000D03*
X160130000Y-131540000D03*
X106630000Y-123540000D03*
X155630000Y-108540000D03*
X165630000Y-95540000D03*
X130630000Y-135540000D03*
X159630000Y-110540000D03*
X136630000Y-94540000D03*
X159630000Y-87540000D03*
X128630000Y-134540000D03*
X141630000Y-91540000D03*
X157630000Y-88540000D03*
X137630000Y-113540000D03*
X165630000Y-107540000D03*
X123630000Y-102540000D03*
X123630000Y-129540000D03*
X136630000Y-90540000D03*
X109630000Y-115540000D03*
X124630000Y-101540000D03*
X122630000Y-134540000D03*
X116630000Y-118540000D03*
X134630000Y-130540000D03*
X137630000Y-110540000D03*
X127630000Y-118540000D03*
X152630000Y-102540000D03*
X133630000Y-87540000D03*
X128630000Y-106540000D03*
X158630000Y-117540000D03*
X130630000Y-134540000D03*
X166630000Y-115540000D03*
X119630000Y-133540000D03*
X159630000Y-93540000D03*
X163630000Y-92540000D03*
X120630000Y-112540000D03*
X119630000Y-112540000D03*
X123630000Y-94540000D03*
X124630000Y-126540000D03*
X123630000Y-89540000D03*
X166630000Y-104540000D03*
X164630000Y-92540000D03*
X135630000Y-110540000D03*
X140630000Y-99540000D03*
X113630000Y-97540000D03*
X161630000Y-95540000D03*
X125630000Y-107540000D03*
X109630000Y-105540000D03*
X165630000Y-129540000D03*
X161630000Y-90540000D03*
X154630000Y-121540000D03*
X150630000Y-101540000D03*
X166630000Y-100540000D03*
X140630000Y-95540000D03*
X158630000Y-103540000D03*
X150630000Y-99540000D03*
X125630000Y-125540000D03*
X136630000Y-128540000D03*
X162630000Y-95540000D03*
X135630000Y-106540000D03*
X138130000Y-87540000D03*
X123630000Y-128540000D03*
X159630000Y-124540000D03*
X151630000Y-89540000D03*
X148630000Y-109540000D03*
X108630000Y-98540000D03*
X162630000Y-90540000D03*
X161630000Y-94540000D03*
X158630000Y-102540000D03*
X162630000Y-88540000D03*
X134630000Y-97540000D03*
X158630000Y-111540000D03*
X166630000Y-113540000D03*
X142630000Y-102540000D03*
X122630000Y-128540000D03*
X124630000Y-89540000D03*
X121630000Y-133540000D03*
X109630000Y-117540000D03*
X160630000Y-90540000D03*
X166630000Y-99540000D03*
X126630000Y-107540000D03*
X105630000Y-120540000D03*
X156630000Y-105540000D03*
X130630000Y-111540000D03*
X146630000Y-129540000D03*
X146630000Y-102540000D03*
X153630000Y-129540000D03*
X120630000Y-90540000D03*
X145630000Y-90540000D03*
X160630000Y-114540000D03*
X165630000Y-108540000D03*
X116630000Y-129540000D03*
X109630000Y-109540000D03*
X124630000Y-87540000D03*
X150630000Y-89540000D03*
X129630000Y-104540000D03*
X136630000Y-132540000D03*
X150630000Y-100540000D03*
X105630000Y-88540000D03*
X150630000Y-113540000D03*
X146630000Y-87540000D03*
X154630000Y-125540000D03*
X136630000Y-95540000D03*
X121630000Y-129540000D03*
X123630000Y-109540000D03*
X158630000Y-108540000D03*
X120630000Y-111540000D03*
X122630000Y-113540000D03*
X114630000Y-97540000D03*
X158630000Y-90540000D03*
X122630000Y-89540000D03*
X118630000Y-129540000D03*
X128630000Y-133540000D03*
X158630000Y-109540000D03*
X154630000Y-109540000D03*
X131630000Y-106540000D03*
X116630000Y-94540000D03*
X156630000Y-88540000D03*
X165630000Y-88540000D03*
X118630000Y-128540000D03*
X141630000Y-98540000D03*
X158630000Y-110540000D03*
X152630000Y-120540000D03*
X112630000Y-120540000D03*
X119630000Y-108540000D03*
X109630000Y-114540000D03*
X128130000Y-111540000D03*
X113630000Y-130540000D03*
X142630000Y-97540000D03*
X166630000Y-92540000D03*
X152630000Y-129540000D03*
X119630000Y-111540000D03*
X159630000Y-95540000D03*
X110630000Y-129540000D03*
X163630000Y-121540000D03*
X145630000Y-107540000D03*
X125630000Y-103540000D03*
X109630000Y-104540000D03*
X125630000Y-102540000D03*
X105630000Y-95540000D03*
X163630000Y-118540000D03*
X162630000Y-94540000D03*
X104630000Y-89540000D03*
X123630000Y-103540000D03*
X114630000Y-135540000D03*
X124630000Y-103540000D03*
X156630000Y-102540000D03*
X115630000Y-118540000D03*
X123630000Y-87540000D03*
X160630000Y-95540000D03*
X145630000Y-108540000D03*
X122630000Y-115540000D03*
X151630000Y-90540000D03*
X132630000Y-124540000D03*
X165630000Y-91540000D03*
X119630000Y-128540000D03*
X160630000Y-89540000D03*
X111630000Y-134540000D03*
X155630000Y-101540000D03*
X142630000Y-94540000D03*
X158630000Y-87540000D03*
X123630000Y-116540000D03*
X147630000Y-90540000D03*
X113630000Y-126540000D03*
X116630000Y-97540000D03*
X166630000Y-106540000D03*
X114630000Y-128540000D03*
X137630000Y-109540000D03*
X130630000Y-113540000D03*
X145630000Y-95540000D03*
X115630000Y-98540000D03*
X110630000Y-126540000D03*
X124630000Y-91540000D03*
X105630000Y-122540000D03*
X118630000Y-116540000D03*
X121630000Y-116540000D03*
X139630000Y-89540000D03*
X147630000Y-124540000D03*
X149630000Y-104540000D03*
X120630000Y-128540000D03*
X165630000Y-99540000D03*
X166630000Y-128540000D03*
X109630000Y-87540000D03*
X121630000Y-112540000D03*
X124630000Y-93540000D03*
X128130000Y-115540000D03*
X142630000Y-95540000D03*
X144630000Y-87540000D03*
X120630000Y-120540000D03*
X147630000Y-93540000D03*
X158630000Y-115540000D03*
X147630000Y-109540000D03*
X151630000Y-99540000D03*
X159130000Y-133540000D03*
X109630000Y-88540000D03*
X107630000Y-128540000D03*
X159630000Y-90540000D03*
X153630000Y-105540000D03*
X159630000Y-123540000D03*
X143630000Y-93540000D03*
X115630000Y-129540000D03*
X160630000Y-117540000D03*
X166630000Y-123540000D03*
X123630000Y-131540000D03*
X117630000Y-134540000D03*
X158630000Y-125540000D03*
X160630000Y-119540000D03*
X126630000Y-103540000D03*
X144630000Y-89540000D03*
X110630000Y-128540000D03*
X130630000Y-106540000D03*
X159630000Y-94540000D03*
X148630000Y-87540000D03*
X129630000Y-107540000D03*
X121630000Y-118540000D03*
X119630000Y-130540000D03*
X141630000Y-102540000D03*
X154630000Y-118540000D03*
X151630000Y-118540000D03*
X159630000Y-111540000D03*
X156630000Y-87540000D03*
X112630000Y-129540000D03*
X150630000Y-117540000D03*
X110630000Y-134540000D03*
X165630000Y-97540000D03*
X143630000Y-129540000D03*
X152630000Y-124540000D03*
X119630000Y-87540000D03*
X145630000Y-94540000D03*
X128630000Y-117540000D03*
X145630000Y-106540000D03*
X140630000Y-102540000D03*
X135630000Y-100540000D03*
X125630000Y-87540000D03*
X155630000Y-100540000D03*
X145630000Y-87540000D03*
X153630000Y-101540000D03*
X131630000Y-107540000D03*
X142630000Y-121540000D03*
X109630000Y-107540000D03*
X124630000Y-90540000D03*
X159130000Y-135540000D03*
X123630000Y-98540000D03*
X153630000Y-103540000D03*
X158630000Y-124540000D03*
X140630000Y-90540000D03*
X141630000Y-127540000D03*
X161130000Y-132540000D03*
X161130000Y-135540000D03*
X135630000Y-131540000D03*
X108630000Y-129540000D03*
X130630000Y-87540000D03*
X163630000Y-112540000D03*
X159630000Y-115540000D03*
X109630000Y-102540000D03*
X119630000Y-109540000D03*
X136630000Y-97540000D03*
X159630000Y-121540000D03*
X163630000Y-117540000D03*
X133630000Y-124540000D03*
X157630000Y-104540000D03*
X150630000Y-104540000D03*
X128630000Y-102540000D03*
X119630000Y-126540000D03*
X142630000Y-115540000D03*
X141630000Y-96540000D03*
X131630000Y-128540000D03*
X157630000Y-87540000D03*
X143630000Y-123540000D03*
X124630000Y-134540000D03*
X159630000Y-119540000D03*
X154630000Y-113540000D03*
X122630000Y-132540000D03*
X159630000Y-100540000D03*
X158630000Y-119540000D03*
X166630000Y-95540000D03*
X162630000Y-116540000D03*
X112630000Y-126540000D03*
X145630000Y-109540000D03*
X151630000Y-124540000D03*
X147630000Y-125540000D03*
X129630000Y-135540000D03*
X150630000Y-124540000D03*
X135630000Y-129540000D03*
X155630000Y-102540000D03*
X125630000Y-111540000D03*
X154630000Y-129540000D03*
X114630000Y-134540000D03*
X146630000Y-89540000D03*
X139630000Y-99540000D03*
X166630000Y-94540000D03*
X112630000Y-87540000D03*
X121630000Y-134540000D03*
X115630000Y-134540000D03*
X147630000Y-108540000D03*
X120630000Y-109540000D03*
X152630000Y-88540000D03*
X118630000Y-109540000D03*
X146630000Y-113540000D03*
X165630000Y-98540000D03*
X155630000Y-99540000D03*
X157630000Y-102540000D03*
X115630000Y-133540000D03*
X114630000Y-115540000D03*
X109630000Y-112540000D03*
X157630000Y-108540000D03*
X166630000Y-88540000D03*
X131630000Y-129540000D03*
X143630000Y-122540000D03*
X129630000Y-133540000D03*
X124630000Y-106540000D03*
X166630000Y-125540000D03*
X160130000Y-134540000D03*
X124630000Y-133540000D03*
X161630000Y-110540000D03*
X164630000Y-95540000D03*
X145630000Y-122540000D03*
X166630000Y-121540000D03*
X134630000Y-87540000D03*
X110630000Y-133540000D03*
X110630000Y-114540000D03*
X123630000Y-99540000D03*
X140630000Y-92540000D03*
X153630000Y-104540000D03*
X138130000Y-98540000D03*
X163630000Y-113540000D03*
X161630000Y-111540000D03*
X105630000Y-121540000D03*
X157630000Y-105540000D03*
X126630000Y-113540000D03*
X157630000Y-99540000D03*
X141630000Y-93540000D03*
X123630000Y-134540000D03*
X109630000Y-111540000D03*
X163630000Y-91540000D03*
X144630000Y-129540000D03*
X106630000Y-126540000D03*
X137630000Y-131540000D03*
X108630000Y-128540000D03*
X158630000Y-88540000D03*
X120630000Y-126540000D03*
X166630000Y-96540000D03*
X118630000Y-130540000D03*
X131630000Y-130540000D03*
X118630000Y-87540000D03*
X164630000Y-94540000D03*
X166630000Y-120540000D03*
X166630000Y-105540000D03*
X113630000Y-131540000D03*
X140630000Y-89540000D03*
X135630000Y-97540000D03*
X158630000Y-116540000D03*
X148630000Y-129540000D03*
X149630000Y-129540000D03*
X148630000Y-124540000D03*
X145630000Y-121540000D03*
X125630000Y-129540000D03*
X118630000Y-126540000D03*
X136630000Y-127540000D03*
X123630000Y-100540000D03*
X122630000Y-92540000D03*
X153630000Y-99540000D03*
X135630000Y-96540000D03*
X134630000Y-96540000D03*
X116630000Y-133540000D03*
X152630000Y-104540000D03*
X111630000Y-107540000D03*
X105630000Y-125540000D03*
X122630000Y-118540000D03*
X123630000Y-105540000D03*
X143630000Y-87540000D03*
X114630000Y-90540000D03*
X158630000Y-114540000D03*
X116630000Y-115540000D03*
X145630000Y-114540000D03*
X129630000Y-106540000D03*
X117630000Y-116540000D03*
X126630000Y-124540000D03*
X108630000Y-119540000D03*
X159630000Y-118540000D03*
X154630000Y-108540000D03*
X159630000Y-120540000D03*
X128630000Y-105540000D03*
X143630000Y-116540000D03*
X153630000Y-125540000D03*
X138130000Y-90540000D03*
X125630000Y-128540000D03*
X143630000Y-109540000D03*
X163630000Y-122540000D03*
X119630000Y-135540000D03*
X116630000Y-91540000D03*
X117630000Y-131540000D03*
X129630000Y-134540000D03*
X113630000Y-129540000D03*
X115630000Y-117540000D03*
X166630000Y-91540000D03*
X134630000Y-106540000D03*
X136630000Y-109540000D03*
X125630000Y-130540000D03*
X124630000Y-132540000D03*
X139630000Y-93540000D03*
X165630000Y-96540000D03*
X117630000Y-132540000D03*
X145630000Y-101540000D03*
X106630000Y-120540000D03*
X124630000Y-128540000D03*
X131630000Y-124540000D03*
X144630000Y-124540000D03*
X117630000Y-118540000D03*
X161630000Y-87540000D03*
X159630000Y-116540000D03*
X142630000Y-122540000D03*
X114630000Y-133540000D03*
X154630000Y-103540000D03*
X153630000Y-87540000D03*
X139630000Y-95540000D03*
X133630000Y-134540000D03*
X116630000Y-124040000D03*
X137630000Y-108540000D03*
X108630000Y-130540000D03*
X125630000Y-116540000D03*
X144630000Y-90540000D03*
X134630000Y-133540000D03*
X158630000Y-93540000D03*
X157630000Y-111540000D03*
X144630000Y-91540000D03*
X114630000Y-126540000D03*
X160630000Y-115540000D03*
X120630000Y-108540000D03*
X116630000Y-134540000D03*
X136630000Y-99540000D03*
X117630000Y-135540000D03*
X125630000Y-106540000D03*
X147630000Y-107540000D03*
X139630000Y-96540000D03*
X120630000Y-134540000D03*
X119630000Y-124040000D03*
X156630000Y-103540000D03*
X147630000Y-102540000D03*
X142630000Y-129540000D03*
X156630000Y-100540000D03*
X125630000Y-113540000D03*
X138130000Y-91540000D03*
X166630000Y-98540000D03*
X123630000Y-93540000D03*
X165630000Y-105540000D03*
X142630000Y-119240000D03*
X156630000Y-99540000D03*
X119630000Y-115540000D03*
X141630000Y-99540000D03*
X138130000Y-95540000D03*
X152630000Y-117540000D03*
X121630000Y-120540000D03*
X121630000Y-123040000D03*
X155630000Y-103540000D03*
X110630000Y-99540000D03*
X157630000Y-101540000D03*
X146630000Y-108540000D03*
X161630000Y-93540000D03*
X154630000Y-87540000D03*
X107630000Y-90540000D03*
X130630000Y-133540000D03*
X166630000Y-116540000D03*
X147630000Y-91540000D03*
X163630000Y-115540000D03*
X150630000Y-125540000D03*
X106630000Y-89540000D03*
X158630000Y-123540000D03*
X138130000Y-93540000D03*
X113630000Y-120540000D03*
X142630000Y-91540000D03*
X132980000Y-119090000D03*
X123630000Y-106540000D03*
X149630000Y-91540000D03*
X116630000Y-135540000D03*
X146630000Y-101540000D03*
X145630000Y-125540000D03*
X109630000Y-128540000D03*
X119630000Y-132540000D03*
X132630000Y-104540000D03*
X149630000Y-103540000D03*
X150630000Y-129540000D03*
X144630000Y-113540000D03*
X114630000Y-129540000D03*
X122630000Y-91540000D03*
X161630000Y-118540000D03*
X126630000Y-101540000D03*
X114630000Y-114540000D03*
X146630000Y-107540000D03*
X109630000Y-116540000D03*
X118630000Y-134540000D03*
X110630000Y-108540000D03*
X114630000Y-130540000D03*
X131630000Y-111540000D03*
X142630000Y-108540000D03*
X137630000Y-130540000D03*
X149630000Y-117540000D03*
X106630000Y-88540000D03*
X117630000Y-87540000D03*
X129630000Y-103540000D03*
X131630000Y-105540000D03*
X123630000Y-117540000D03*
X147630000Y-87540000D03*
X164630000Y-110540000D03*
X141630000Y-94540000D03*
X160630000Y-125540000D03*
X124630000Y-107540000D03*
X138130000Y-89540000D03*
X137630000Y-129540000D03*
X153630000Y-117540000D03*
X154630000Y-100540000D03*
X160630000Y-118540000D03*
X153630000Y-88540000D03*
X122630000Y-94540000D03*
X140630000Y-94540000D03*
X138130000Y-92540000D03*
X151630000Y-102540000D03*
X131630000Y-134540000D03*
X126630000Y-102540000D03*
X162630000Y-125540000D03*
X159630000Y-91540000D03*
X123630000Y-107540000D03*
X159130000Y-130540000D03*
X124630000Y-117540000D03*
X124630000Y-127540000D03*
X165630000Y-109540000D03*
X121630000Y-117540000D03*
X144630000Y-109540000D03*
X111630000Y-130540000D03*
X160630000Y-93540000D03*
X151630000Y-117540000D03*
X154630000Y-117540000D03*
X119630000Y-116540000D03*
X128630000Y-130540000D03*
X159630000Y-102540000D03*
X161130000Y-134540000D03*
X116630000Y-92540000D03*
X159630000Y-92540000D03*
X136630000Y-121540000D03*
X110630000Y-107540000D03*
X131630000Y-115540000D03*
X160630000Y-110540000D03*
X156630000Y-104540000D03*
X124630000Y-104540000D03*
X158630000Y-100540000D03*
X144630000Y-107540000D03*
X140630000Y-124540000D03*
X137630000Y-127540000D03*
X124630000Y-129540000D03*
X166630000Y-124540000D03*
X136630000Y-110540000D03*
X160630000Y-113540000D03*
X118630000Y-117540000D03*
X148630000Y-93540000D03*
X154630000Y-123540000D03*
X133630000Y-135540000D03*
X118630000Y-132540000D03*
X155630000Y-109540000D03*
X135630000Y-127540000D03*
X122630000Y-108540000D03*
X135630000Y-121540000D03*
X112630000Y-132540000D03*
X161630000Y-114540000D03*
X121630000Y-91540000D03*
X166630000Y-108540000D03*
X136630000Y-115540000D03*
X120630000Y-135540000D03*
X122630000Y-93540000D03*
X159630000Y-101540000D03*
X118630000Y-135540000D03*
X117630000Y-91540000D03*
X109630000Y-110540000D03*
X163630000Y-127540000D03*
X110630000Y-105540000D03*
X106630000Y-127540000D03*
X123630000Y-123040000D03*
X159630000Y-103540000D03*
X129630000Y-87540000D03*
X109630000Y-108540000D03*
X120630000Y-131540000D03*
X164630000Y-107540000D03*
X114630000Y-116540000D03*
X151630000Y-125540000D03*
X146630000Y-91540000D03*
X127630000Y-106540000D03*
X113630000Y-119540000D03*
X166630000Y-118540000D03*
X137630000Y-132540000D03*
X152630000Y-105540000D03*
X115630000Y-128540000D03*
X158630000Y-121540000D03*
X106630000Y-122540000D03*
X134630000Y-89540000D03*
X135630000Y-132540000D03*
X136630000Y-91540000D03*
X111630000Y-133540000D03*
X125630000Y-112540000D03*
X130630000Y-115540000D03*
X149630000Y-124540000D03*
X165630000Y-104540000D03*
X105630000Y-92540000D03*
X156630000Y-110540000D03*
X152630000Y-123540000D03*
X163630000Y-128540000D03*
X138130000Y-97540000D03*
X105630000Y-126540000D03*
X109630000Y-100540000D03*
X136630000Y-129540000D03*
X124630000Y-94540000D03*
X151630000Y-88540000D03*
X131630000Y-102540000D03*
X142630000Y-128540000D03*
X153630000Y-122540000D03*
X155630000Y-105540000D03*
X135630000Y-95540000D03*
X143630000Y-128540000D03*
X166630000Y-110540000D03*
X146630000Y-122540000D03*
X143630000Y-119240000D03*
X122630000Y-97540000D03*
X163630000Y-114540000D03*
X141630000Y-97540000D03*
X114630000Y-119540000D03*
X135630000Y-130540000D03*
X154630000Y-88540000D03*
X117630000Y-124040000D03*
X154630000Y-99540000D03*
X138630000Y-109540000D03*
X154630000Y-101540000D03*
X126630000Y-111540000D03*
X122630000Y-131540000D03*
X123630000Y-91540000D03*
X110630000Y-113540000D03*
X155630000Y-110540000D03*
X166630000Y-97540000D03*
X127630000Y-87540000D03*
X121630000Y-131540000D03*
X144630000Y-92540000D03*
X118630000Y-119540000D03*
X119630000Y-134540000D03*
X146630000Y-119540000D03*
X150630000Y-103540000D03*
X125630000Y-104540000D03*
X120630000Y-89540000D03*
X139630000Y-110540000D03*
X154630000Y-102540000D03*
X111630000Y-106540000D03*
X132630000Y-87540000D03*
X116630000Y-119540000D03*
X114630000Y-91540000D03*
X113630000Y-91540000D03*
X142630000Y-93540000D03*
X159630000Y-114540000D03*
X154630000Y-105540000D03*
X160630000Y-112540000D03*
X148630000Y-108540000D03*
X128630000Y-101540000D03*
X139630000Y-109540000D03*
X128630000Y-135540000D03*
X139630000Y-87540000D03*
X153630000Y-120540000D03*
X124630000Y-131540000D03*
X126630000Y-132540000D03*
X107630000Y-88540000D03*
X156630000Y-101540000D03*
X125630000Y-126540000D03*
X127630000Y-104540000D03*
X143630000Y-90540000D03*
X131630000Y-103540000D03*
X151630000Y-109540000D03*
X136630000Y-126540000D03*
X165630000Y-92540000D03*
X143630000Y-127540000D03*
X160130000Y-132540000D03*
X108630000Y-99540000D03*
X117630000Y-119540000D03*
X127630000Y-105540000D03*
X158630000Y-113540000D03*
X128630000Y-107540000D03*
X162630000Y-115540000D03*
X148630000Y-113540000D03*
X144630000Y-108540000D03*
X163630000Y-123540000D03*
X144630000Y-123540000D03*
X130630000Y-102540000D03*
X152630000Y-100540000D03*
X163630000Y-94540000D03*
X111630000Y-104540000D03*
X149630000Y-113540000D03*
X143630000Y-124540000D03*
X125630000Y-132540000D03*
X164630000Y-91540000D03*
X164630000Y-93540000D03*
X126630000Y-87540000D03*
X130630000Y-105540000D03*
X142630000Y-90540000D03*
X124630000Y-135540000D03*
X130630000Y-116540000D03*
X110630000Y-135540000D03*
X153630000Y-124540000D03*
D14*
%TO.N,+5V Car Battery*%
X148530000Y-88840000D03*
D13*
X113755000Y-90215000D03*
X113080000Y-90890000D03*
X114380000Y-121160000D03*
X124150000Y-121800000D03*
X136680000Y-105940000D03*
X114860000Y-121165000D03*
X121370000Y-121805000D03*
X120880000Y-121805000D03*
X113405000Y-90565000D03*
X137012821Y-106439232D03*
X129680000Y-121890000D03*
X126530000Y-121200000D03*
X137380000Y-106840000D03*
X135880000Y-88740000D03*
X115340000Y-121165000D03*
D14*
X146230000Y-92540000D03*
D13*
X121840000Y-121800000D03*
%TO.N,+3V3 Car Battery*%
X142180000Y-105890000D03*
X150830000Y-105890000D03*
X131330000Y-122140000D03*
X140230000Y-105890000D03*
X143880000Y-126840000D03*
X148180000Y-105890000D03*
%TO.N,+12V Car Battery*%
X125580000Y-124240000D03*
X139780000Y-100590000D03*
X140430000Y-100600000D03*
X140980000Y-100600000D03*
X126230000Y-123590000D03*
X125905000Y-123915000D03*
%TO.N,VAN_RX*%
X126930000Y-120750000D03*
X125600000Y-118090000D03*
D14*
%TO.N,SDA*%
X112550000Y-95350000D03*
X110100000Y-93000000D03*
%TO.N,SCL*%
X112550000Y-96750000D03*
X110100000Y-96750000D03*
D13*
%TO.N,ESP_TSS_SCK*%
X143380000Y-118390000D03*
X136930000Y-118390000D03*
%TO.N,EN*%
X142180000Y-126040000D03*
X132630000Y-126040000D03*
%TO.N,ESP_ADC1_CH5*%
X131180000Y-114590000D03*
X139430000Y-111740000D03*
X147580000Y-118640000D03*
X126955000Y-114590000D03*
%TO.N,5V_Ignition_Regulator_EN*%
X121755000Y-110665000D03*
X137930000Y-117940000D03*
X129430000Y-116490000D03*
X144730000Y-117840000D03*
%TO.N,GPIO0*%
X133980000Y-117290000D03*
X133030000Y-121640000D03*
%TO.N,ESP_TSS_MOSI*%
X142150000Y-104950000D03*
X140100000Y-104950000D03*
%TO.N,RPi_RX*%
X138180000Y-102440000D03*
X138180000Y-106340000D03*
%TO.N,RPi_TX*%
X138930000Y-106840000D03*
X138930000Y-102440000D03*
%TO.N,ESP_TJA_S*%
X134430000Y-120450000D03*
X137230000Y-117440000D03*
D14*
%TO.N,Net-(JP1-A)*%
X138060000Y-120010000D03*
X145810000Y-118480000D03*
D13*
%TO.N,GND*%
X142630000Y-104040000D03*
%TD*%
D15*
%TO.N,+5V Car Battery*%
X135880000Y-88740000D02*
X115230000Y-88740000D01*
X148430000Y-88740000D02*
X148530000Y-88840000D01*
X137380000Y-106840000D02*
X138230000Y-107690000D01*
X147630000Y-88740000D02*
X135880000Y-88740000D01*
X147630000Y-88740000D02*
X148430000Y-88740000D01*
D16*
X115240000Y-121165000D02*
X115340000Y-121165000D01*
X114860000Y-121165000D02*
X114855000Y-121160000D01*
X115430000Y-121140000D02*
X115405000Y-121165000D01*
D15*
X137380000Y-106840000D02*
X136680000Y-106140000D01*
D16*
X115235000Y-121160000D02*
X115240000Y-121165000D01*
X114875000Y-121160000D02*
X115235000Y-121160000D01*
X124750000Y-121200000D02*
X124150000Y-121800000D01*
D15*
X144030000Y-95640000D02*
X144030000Y-94740000D01*
X138230000Y-107690000D02*
X142830000Y-107690000D01*
X142830000Y-107690000D02*
X144030000Y-106490000D01*
D16*
X120880000Y-121805000D02*
X120730000Y-121805000D01*
X121370000Y-121805000D02*
X121835000Y-121805000D01*
X126530000Y-121200000D02*
X124750000Y-121200000D01*
X131080000Y-120790000D02*
X129980000Y-121890000D01*
X120065000Y-121140000D02*
X115430000Y-121140000D01*
D15*
X136680000Y-106140000D02*
X136680000Y-105940000D01*
D16*
X120880000Y-121805000D02*
X121370000Y-121805000D01*
X134480000Y-109740000D02*
X134480000Y-116081479D01*
D15*
X115230000Y-88740000D02*
X113080000Y-90890000D01*
D16*
X114855000Y-121160000D02*
X114380000Y-121160000D01*
X121835000Y-121805000D02*
X121840000Y-121800000D01*
X131080000Y-119481479D02*
X131080000Y-120790000D01*
X129980000Y-121890000D02*
X129680000Y-121890000D01*
X114870000Y-121165000D02*
X114875000Y-121160000D01*
X115405000Y-121165000D02*
X115340000Y-121165000D01*
X120730000Y-121805000D02*
X120065000Y-121140000D01*
X114860000Y-121165000D02*
X114870000Y-121165000D01*
X134480000Y-116081479D02*
X131080000Y-119481479D01*
X137380000Y-106840000D02*
X134480000Y-109740000D01*
D15*
X144030000Y-94740000D02*
X146230000Y-92540000D01*
X144030000Y-106490000D02*
X144030000Y-95640000D01*
D16*
%TO.N,+3V3 Car Battery*%
X131330000Y-122140000D02*
X132180000Y-122990000D01*
X148180000Y-105890000D02*
X150830000Y-105890000D01*
X140030000Y-122990000D02*
X143880000Y-126840000D01*
X132180000Y-122990000D02*
X140030000Y-122990000D01*
X140230000Y-105890000D02*
X142180000Y-105890000D01*
D17*
%TO.N,+12V Car Battery*%
X126680000Y-123140000D02*
X125905000Y-123915000D01*
X137880000Y-100590000D02*
X133130000Y-105340000D01*
X140430000Y-100600000D02*
X140980000Y-100600000D01*
X126680000Y-122040000D02*
X126680000Y-123140000D01*
X133130000Y-115590000D02*
X126680000Y-122040000D01*
X133130000Y-105340000D02*
X133130000Y-115590000D01*
X139780000Y-100590000D02*
X137880000Y-100590000D01*
D16*
X140420000Y-100590000D02*
X140430000Y-100600000D01*
D17*
X139780000Y-100590000D02*
X140420000Y-100590000D01*
D16*
%TO.N,VAN_RX*%
X126930000Y-120750000D02*
X126240000Y-120750000D01*
X125600000Y-120110000D02*
X125600000Y-118090000D01*
X126240000Y-120750000D02*
X125600000Y-120110000D01*
%TO.N,SDA*%
X110100000Y-93000000D02*
X112450000Y-95350000D01*
X112450000Y-95350000D02*
X112550000Y-95350000D01*
%TO.N,SCL*%
X110100000Y-96750000D02*
X112550000Y-96750000D01*
%TO.N,ESP_TSS_SCK*%
X143380000Y-118390000D02*
X136930000Y-118390000D01*
%TO.N,EN*%
X132630000Y-126040000D02*
X142180000Y-126040000D01*
%TO.N,ESP_ADC1_CH5*%
X140680000Y-111740000D02*
X147580000Y-118640000D01*
X131180000Y-114590000D02*
X126955000Y-114590000D01*
X139430000Y-111740000D02*
X140680000Y-111740000D01*
%TO.N,5V_Ignition_Regulator_EN*%
X127580000Y-116490000D02*
X129430000Y-116490000D01*
X121755000Y-110665000D02*
X127580000Y-116490000D01*
X144630000Y-117940000D02*
X137930000Y-117940000D01*
X144730000Y-117840000D02*
X144630000Y-117940000D01*
%TO.N,GPIO0*%
X133980000Y-120690000D02*
X133980000Y-117290000D01*
X133030000Y-121640000D02*
X133980000Y-120690000D01*
%TO.N,ESP_TSS_MOSI*%
X140100000Y-104950000D02*
X142150000Y-104950000D01*
%TO.N,RPi_RX*%
X138180000Y-102440000D02*
X138180000Y-106340000D01*
%TO.N,RPi_TX*%
X138930000Y-102440000D02*
X138930000Y-106840000D01*
%TO.N,ESP_TJA_S*%
X136030000Y-120050000D02*
X136030000Y-118640000D01*
X134440000Y-120440000D02*
X135640000Y-120440000D01*
X134430000Y-120450000D02*
X134440000Y-120440000D01*
X136030000Y-118640000D02*
X137230000Y-117440000D01*
X135640000Y-120440000D02*
X136030000Y-120050000D01*
%TO.N,Net-(JP1-A)*%
X144280000Y-120010000D02*
X145810000Y-118480000D01*
X138060000Y-120010000D02*
X144280000Y-120010000D01*
%TD*%
%TA.AperFunction,Conductor*%
%TO.N,GND*%
G36*
X133298834Y-118214394D02*
G01*
X133354767Y-118256266D01*
X133379184Y-118321730D01*
X133379500Y-118330576D01*
X133379500Y-120389902D01*
X133359815Y-120456941D01*
X133343181Y-120477583D01*
X132951699Y-120869064D01*
X132890376Y-120902549D01*
X132888210Y-120903000D01*
X132811092Y-120918340D01*
X132811084Y-120918342D01*
X132674511Y-120974912D01*
X132674498Y-120974919D01*
X132551584Y-121057048D01*
X132551580Y-121057051D01*
X132447051Y-121161580D01*
X132447048Y-121161584D01*
X132364919Y-121284498D01*
X132364912Y-121284511D01*
X132308343Y-121421082D01*
X132308340Y-121421092D01*
X132279500Y-121566079D01*
X132279500Y-121566082D01*
X132279500Y-121713918D01*
X132279500Y-121713920D01*
X132279499Y-121713920D01*
X132308340Y-121858907D01*
X132308343Y-121858917D01*
X132359831Y-121983221D01*
X132361035Y-121994424D01*
X132366436Y-122004315D01*
X132364703Y-122028540D01*
X132367300Y-122052690D01*
X132362255Y-122062766D01*
X132361452Y-122074007D01*
X132346895Y-122093452D01*
X132336024Y-122115169D01*
X132326333Y-122120918D01*
X132319580Y-122129940D01*
X132296821Y-122138428D01*
X132275935Y-122150821D01*
X132264674Y-122150418D01*
X132254116Y-122154357D01*
X132230382Y-122149193D01*
X132206110Y-122148327D01*
X132195082Y-122141514D01*
X132185843Y-122139505D01*
X132157589Y-122118354D01*
X132100934Y-122061699D01*
X132067449Y-122000376D01*
X132067025Y-121998346D01*
X132051658Y-121921087D01*
X132047273Y-121910500D01*
X131995087Y-121784511D01*
X131995080Y-121784498D01*
X131912951Y-121661584D01*
X131912948Y-121661580D01*
X131808419Y-121557051D01*
X131808415Y-121557048D01*
X131685501Y-121474919D01*
X131685491Y-121474914D01*
X131544989Y-121416716D01*
X131490586Y-121372875D01*
X131468521Y-121306581D01*
X131485800Y-121238881D01*
X131492579Y-121228648D01*
X131498131Y-121221104D01*
X131560520Y-121158716D01*
X131616969Y-121060943D01*
X131639577Y-121021785D01*
X131680501Y-120869057D01*
X131680501Y-120710943D01*
X131680501Y-120703348D01*
X131680500Y-120703330D01*
X131680500Y-119781576D01*
X131700185Y-119714537D01*
X131716819Y-119693895D01*
X133167819Y-118242895D01*
X133229142Y-118209410D01*
X133298834Y-118214394D01*
G37*
%TD.AperFunction*%
%TA.AperFunction,Conductor*%
G36*
X144443518Y-118542126D02*
G01*
X144448597Y-118541210D01*
X144482794Y-118549939D01*
X144511082Y-118561656D01*
X144511087Y-118561658D01*
X144563228Y-118572029D01*
X144590516Y-118577458D01*
X144652427Y-118609843D01*
X144687001Y-118670559D01*
X144683262Y-118740328D01*
X144654006Y-118786756D01*
X144067584Y-119373181D01*
X144006261Y-119406666D01*
X143979903Y-119409500D01*
X138639766Y-119409500D01*
X138572727Y-119389815D01*
X138570875Y-119388602D01*
X138439185Y-119300609D01*
X138439172Y-119300602D01*
X138293501Y-119240264D01*
X138293489Y-119240261D01*
X138272656Y-119236117D01*
X138210745Y-119203732D01*
X138176171Y-119143017D01*
X138179910Y-119073247D01*
X138220776Y-119016575D01*
X138285795Y-118990994D01*
X138296847Y-118990500D01*
X142890233Y-118990500D01*
X142957272Y-119010185D01*
X142959124Y-119011398D01*
X143024498Y-119055080D01*
X143024511Y-119055087D01*
X143137261Y-119101789D01*
X143161087Y-119111658D01*
X143161091Y-119111658D01*
X143161092Y-119111659D01*
X143306079Y-119140500D01*
X143306082Y-119140500D01*
X143453920Y-119140500D01*
X143564944Y-119118415D01*
X143598913Y-119111658D01*
X143735495Y-119055084D01*
X143858416Y-118972951D01*
X143962951Y-118868416D01*
X144045084Y-118745495D01*
X144098289Y-118617047D01*
X144142130Y-118562644D01*
X144208424Y-118540579D01*
X144212850Y-118540500D01*
X144435342Y-118540500D01*
X144443518Y-118542126D01*
G37*
%TD.AperFunction*%
%TA.AperFunction,Conductor*%
G36*
X137348834Y-102285047D02*
G01*
X137404767Y-102326919D01*
X137429184Y-102392383D01*
X137429500Y-102401229D01*
X137429500Y-102513918D01*
X137429500Y-102513920D01*
X137429499Y-102513920D01*
X137458340Y-102658907D01*
X137458343Y-102658917D01*
X137514912Y-102795488D01*
X137514919Y-102795501D01*
X137558602Y-102860876D01*
X137579480Y-102927553D01*
X137579500Y-102929767D01*
X137579500Y-105528030D01*
X137559815Y-105595069D01*
X137507011Y-105640824D01*
X137437853Y-105650768D01*
X137374297Y-105621743D01*
X137348559Y-105589509D01*
X137348469Y-105589570D01*
X137347758Y-105588507D01*
X137346141Y-105586481D01*
X137345085Y-105584506D01*
X137262951Y-105461584D01*
X137262948Y-105461580D01*
X137158419Y-105357051D01*
X137158415Y-105357048D01*
X137035501Y-105274919D01*
X137035488Y-105274912D01*
X136898917Y-105218343D01*
X136898907Y-105218340D01*
X136753920Y-105189500D01*
X136753918Y-105189500D01*
X136606082Y-105189500D01*
X136606080Y-105189500D01*
X136461092Y-105218340D01*
X136461082Y-105218343D01*
X136324511Y-105274912D01*
X136324498Y-105274919D01*
X136201584Y-105357048D01*
X136201580Y-105357051D01*
X136097051Y-105461580D01*
X136097048Y-105461584D01*
X136014919Y-105584498D01*
X136014912Y-105584511D01*
X135958343Y-105721082D01*
X135958340Y-105721092D01*
X135929500Y-105866079D01*
X135929500Y-105866082D01*
X135929500Y-106013918D01*
X135929500Y-106013920D01*
X135929499Y-106013920D01*
X135958340Y-106158907D01*
X135958343Y-106158917D01*
X136014914Y-106295493D01*
X136014916Y-106295497D01*
X136074946Y-106385338D01*
X136086404Y-106406773D01*
X136103533Y-106448123D01*
X136103535Y-106448127D01*
X136174723Y-106554669D01*
X136282889Y-106662835D01*
X136284254Y-106664713D01*
X136285320Y-106665335D01*
X136290365Y-106673120D01*
X136305667Y-106694173D01*
X136307895Y-106698542D01*
X136347737Y-106794727D01*
X136386687Y-106853020D01*
X136390002Y-106859519D01*
X136395171Y-106886981D01*
X136403521Y-106913647D01*
X136401545Y-106920846D01*
X136402927Y-106928183D01*
X136392428Y-106954081D01*
X136385036Y-106981027D01*
X136377795Y-106990178D01*
X136376678Y-106992934D01*
X136374270Y-106994632D01*
X136367222Y-107003541D01*
X134111286Y-109259478D01*
X134092181Y-109278583D01*
X134030858Y-109312068D01*
X133961166Y-109307084D01*
X133905233Y-109265212D01*
X133880816Y-109199748D01*
X133880500Y-109190902D01*
X133880500Y-105702229D01*
X133900185Y-105635190D01*
X133916819Y-105614548D01*
X137217819Y-102313548D01*
X137279142Y-102280063D01*
X137348834Y-102285047D01*
G37*
%TD.AperFunction*%
%TA.AperFunction,Conductor*%
G36*
X121041444Y-84093999D02*
G01*
X121080486Y-84139056D01*
X121084951Y-84147820D01*
X121209890Y-84319786D01*
X121360213Y-84470109D01*
X121532179Y-84595048D01*
X121532181Y-84595049D01*
X121532184Y-84595051D01*
X121541493Y-84599794D01*
X121592290Y-84647766D01*
X121609087Y-84715587D01*
X121586552Y-84781722D01*
X121541505Y-84820760D01*
X121532446Y-84825376D01*
X121532440Y-84825380D01*
X121478282Y-84864727D01*
X121478282Y-84864728D01*
X122110591Y-85497037D01*
X122047007Y-85514075D01*
X121932993Y-85579901D01*
X121839901Y-85672993D01*
X121774075Y-85787007D01*
X121757037Y-85850591D01*
X121124728Y-85218282D01*
X121124727Y-85218282D01*
X121085380Y-85272440D01*
X121085376Y-85272446D01*
X121080760Y-85281505D01*
X121032781Y-85332297D01*
X120964959Y-85349087D01*
X120898826Y-85326543D01*
X120859794Y-85281493D01*
X120855051Y-85272184D01*
X120855049Y-85272181D01*
X120855048Y-85272179D01*
X120730109Y-85100213D01*
X120579786Y-84949890D01*
X120407820Y-84824951D01*
X120399600Y-84820763D01*
X120399054Y-84820485D01*
X120348259Y-84772512D01*
X120331463Y-84704692D01*
X120353999Y-84638556D01*
X120399054Y-84599515D01*
X120407816Y-84595051D01*
X120497554Y-84529853D01*
X120579786Y-84470109D01*
X120579788Y-84470106D01*
X120579792Y-84470104D01*
X120730104Y-84319792D01*
X120730106Y-84319788D01*
X120730109Y-84319786D01*
X120855048Y-84147820D01*
X120855047Y-84147820D01*
X120855051Y-84147816D01*
X120859514Y-84139054D01*
X120907488Y-84088259D01*
X120975308Y-84071463D01*
X121041444Y-84093999D01*
G37*
%TD.AperFunction*%
%TA.AperFunction,Conductor*%
G36*
X141361444Y-84093999D02*
G01*
X141400486Y-84139056D01*
X141404951Y-84147820D01*
X141529890Y-84319786D01*
X141680213Y-84470109D01*
X141852179Y-84595048D01*
X141852181Y-84595049D01*
X141852184Y-84595051D01*
X141861493Y-84599794D01*
X141912290Y-84647766D01*
X141929087Y-84715587D01*
X141906552Y-84781722D01*
X141861505Y-84820760D01*
X141852446Y-84825376D01*
X141852440Y-84825380D01*
X141798282Y-84864727D01*
X141798282Y-84864728D01*
X142430591Y-85497037D01*
X142367007Y-85514075D01*
X142252993Y-85579901D01*
X142159901Y-85672993D01*
X142094075Y-85787007D01*
X142077037Y-85850591D01*
X141444728Y-85218282D01*
X141444727Y-85218282D01*
X141405380Y-85272440D01*
X141405376Y-85272446D01*
X141400760Y-85281505D01*
X141352781Y-85332297D01*
X141284959Y-85349087D01*
X141218826Y-85326543D01*
X141179794Y-85281493D01*
X141175051Y-85272184D01*
X141175049Y-85272181D01*
X141175048Y-85272179D01*
X141050109Y-85100213D01*
X140899786Y-84949890D01*
X140727820Y-84824951D01*
X140719600Y-84820763D01*
X140719054Y-84820485D01*
X140668259Y-84772512D01*
X140651463Y-84704692D01*
X140673999Y-84638556D01*
X140719054Y-84599515D01*
X140727816Y-84595051D01*
X140817554Y-84529853D01*
X140899786Y-84470109D01*
X140899788Y-84470106D01*
X140899792Y-84470104D01*
X141050104Y-84319792D01*
X141050106Y-84319788D01*
X141050109Y-84319786D01*
X141175048Y-84147820D01*
X141175047Y-84147820D01*
X141175051Y-84147816D01*
X141179514Y-84139054D01*
X141227488Y-84088259D01*
X141295308Y-84071463D01*
X141361444Y-84093999D01*
G37*
%TD.AperFunction*%
%TA.AperFunction,Conductor*%
G36*
X159141444Y-84093999D02*
G01*
X159180486Y-84139056D01*
X159184951Y-84147820D01*
X159309890Y-84319786D01*
X159460213Y-84470109D01*
X159632179Y-84595048D01*
X159632181Y-84595049D01*
X159632184Y-84595051D01*
X159641493Y-84599794D01*
X159692290Y-84647766D01*
X159709087Y-84715587D01*
X159686552Y-84781722D01*
X159641505Y-84820760D01*
X159632446Y-84825376D01*
X159632440Y-84825380D01*
X159578282Y-84864727D01*
X159578282Y-84864728D01*
X160210591Y-85497037D01*
X160147007Y-85514075D01*
X160032993Y-85579901D01*
X159939901Y-85672993D01*
X159874075Y-85787007D01*
X159857037Y-85850591D01*
X159224728Y-85218282D01*
X159224727Y-85218282D01*
X159185380Y-85272440D01*
X159185376Y-85272446D01*
X159180760Y-85281505D01*
X159132781Y-85332297D01*
X159064959Y-85349087D01*
X158998826Y-85326543D01*
X158959794Y-85281493D01*
X158955051Y-85272184D01*
X158955049Y-85272181D01*
X158955048Y-85272179D01*
X158830109Y-85100213D01*
X158679786Y-84949890D01*
X158507820Y-84824951D01*
X158499600Y-84820763D01*
X158499054Y-84820485D01*
X158448259Y-84772512D01*
X158431463Y-84704692D01*
X158453999Y-84638556D01*
X158499054Y-84599515D01*
X158507816Y-84595051D01*
X158597554Y-84529853D01*
X158679786Y-84470109D01*
X158679788Y-84470106D01*
X158679792Y-84470104D01*
X158830104Y-84319792D01*
X158830106Y-84319788D01*
X158830109Y-84319786D01*
X158955048Y-84147820D01*
X158955047Y-84147820D01*
X158955051Y-84147816D01*
X158959514Y-84139054D01*
X159007488Y-84088259D01*
X159075308Y-84071463D01*
X159141444Y-84093999D01*
G37*
%TD.AperFunction*%
%TA.AperFunction,Conductor*%
G36*
X123581444Y-84093999D02*
G01*
X123620486Y-84139056D01*
X123624951Y-84147820D01*
X123749890Y-84319786D01*
X123900213Y-84470109D01*
X124072182Y-84595050D01*
X124080946Y-84599516D01*
X124131742Y-84647491D01*
X124148536Y-84715312D01*
X124125998Y-84781447D01*
X124080946Y-84820484D01*
X124072182Y-84824949D01*
X123900213Y-84949890D01*
X123749890Y-85100213D01*
X123624949Y-85272182D01*
X123620202Y-85281499D01*
X123572227Y-85332293D01*
X123504405Y-85349087D01*
X123438271Y-85326548D01*
X123399234Y-85281495D01*
X123394626Y-85272452D01*
X123355270Y-85218282D01*
X122722962Y-85850590D01*
X122705925Y-85787007D01*
X122640099Y-85672993D01*
X122547007Y-85579901D01*
X122432993Y-85514075D01*
X122369409Y-85497037D01*
X123001716Y-84864728D01*
X122947547Y-84825373D01*
X122947547Y-84825372D01*
X122938500Y-84820763D01*
X122887706Y-84772788D01*
X122870912Y-84704966D01*
X122893451Y-84638832D01*
X122938508Y-84599793D01*
X122947816Y-84595051D01*
X123037554Y-84529853D01*
X123119786Y-84470109D01*
X123119788Y-84470106D01*
X123119792Y-84470104D01*
X123270104Y-84319792D01*
X123270106Y-84319788D01*
X123270109Y-84319786D01*
X123395048Y-84147820D01*
X123395047Y-84147820D01*
X123395051Y-84147816D01*
X123399514Y-84139054D01*
X123447488Y-84088259D01*
X123515308Y-84071463D01*
X123581444Y-84093999D01*
G37*
%TD.AperFunction*%
%TA.AperFunction,Conductor*%
G36*
X143901444Y-84093999D02*
G01*
X143940486Y-84139056D01*
X143944951Y-84147820D01*
X144069890Y-84319786D01*
X144220213Y-84470109D01*
X144392182Y-84595050D01*
X144400946Y-84599516D01*
X144451742Y-84647491D01*
X144468536Y-84715312D01*
X144445998Y-84781447D01*
X144400946Y-84820484D01*
X144392182Y-84824949D01*
X144220213Y-84949890D01*
X144069890Y-85100213D01*
X143944949Y-85272182D01*
X143940202Y-85281499D01*
X143892227Y-85332293D01*
X143824405Y-85349087D01*
X143758271Y-85326548D01*
X143719234Y-85281495D01*
X143714626Y-85272452D01*
X143675270Y-85218282D01*
X143675269Y-85218282D01*
X143042962Y-85850590D01*
X143025925Y-85787007D01*
X142960099Y-85672993D01*
X142867007Y-85579901D01*
X142752993Y-85514075D01*
X142689409Y-85497037D01*
X143321716Y-84864728D01*
X143267547Y-84825373D01*
X143267547Y-84825372D01*
X143258500Y-84820763D01*
X143207706Y-84772788D01*
X143190912Y-84704966D01*
X143213451Y-84638832D01*
X143258508Y-84599793D01*
X143267816Y-84595051D01*
X143357554Y-84529853D01*
X143439786Y-84470109D01*
X143439788Y-84470106D01*
X143439792Y-84470104D01*
X143590104Y-84319792D01*
X143590106Y-84319788D01*
X143590109Y-84319786D01*
X143715048Y-84147820D01*
X143715047Y-84147820D01*
X143715051Y-84147816D01*
X143719514Y-84139054D01*
X143767488Y-84088259D01*
X143835308Y-84071463D01*
X143901444Y-84093999D01*
G37*
%TD.AperFunction*%
%TA.AperFunction,Conductor*%
G36*
X116694075Y-83632993D02*
G01*
X116759901Y-83747007D01*
X116852993Y-83840099D01*
X116967007Y-83905925D01*
X117030590Y-83922962D01*
X116398282Y-84555269D01*
X116398282Y-84555270D01*
X116452452Y-84594626D01*
X116452451Y-84594626D01*
X116461495Y-84599234D01*
X116512292Y-84647208D01*
X116529087Y-84715029D01*
X116506550Y-84781164D01*
X116461499Y-84820202D01*
X116452182Y-84824949D01*
X116280213Y-84949890D01*
X116129890Y-85100213D01*
X116004949Y-85272182D01*
X116000484Y-85280946D01*
X115952509Y-85331742D01*
X115884688Y-85348536D01*
X115818553Y-85325998D01*
X115779516Y-85280946D01*
X115775050Y-85272182D01*
X115650109Y-85100213D01*
X115499786Y-84949890D01*
X115327820Y-84824951D01*
X115319600Y-84820763D01*
X115319054Y-84820485D01*
X115268259Y-84772512D01*
X115251463Y-84704692D01*
X115273999Y-84638556D01*
X115319054Y-84599515D01*
X115327816Y-84595051D01*
X115417554Y-84529853D01*
X115499786Y-84470109D01*
X115499788Y-84470106D01*
X115499792Y-84470104D01*
X115650104Y-84319792D01*
X115650106Y-84319788D01*
X115650109Y-84319786D01*
X115735890Y-84201717D01*
X115775051Y-84147816D01*
X115779793Y-84138508D01*
X115827763Y-84087711D01*
X115895583Y-84070911D01*
X115961719Y-84093445D01*
X116000763Y-84138500D01*
X116005373Y-84147547D01*
X116044728Y-84201716D01*
X116677037Y-83569408D01*
X116694075Y-83632993D01*
G37*
%TD.AperFunction*%
%TA.AperFunction,Conductor*%
G36*
X118275270Y-84201717D02*
G01*
X118275270Y-84201716D01*
X118314622Y-84147555D01*
X118319232Y-84138507D01*
X118367205Y-84087709D01*
X118435025Y-84070912D01*
X118501161Y-84093447D01*
X118540204Y-84138504D01*
X118544949Y-84147817D01*
X118669890Y-84319786D01*
X118820213Y-84470109D01*
X118992182Y-84595050D01*
X119000946Y-84599516D01*
X119051742Y-84647491D01*
X119068536Y-84715312D01*
X119045998Y-84781447D01*
X119000946Y-84820484D01*
X118992182Y-84824949D01*
X118820213Y-84949890D01*
X118669890Y-85100213D01*
X118544949Y-85272182D01*
X118540484Y-85280946D01*
X118492509Y-85331742D01*
X118424688Y-85348536D01*
X118358553Y-85325998D01*
X118319516Y-85280946D01*
X118315050Y-85272182D01*
X118190109Y-85100213D01*
X118039786Y-84949890D01*
X117867817Y-84824949D01*
X117858504Y-84820204D01*
X117807707Y-84772230D01*
X117790912Y-84704409D01*
X117813449Y-84638274D01*
X117858507Y-84599232D01*
X117867555Y-84594622D01*
X117921716Y-84555270D01*
X117921717Y-84555270D01*
X117289408Y-83922962D01*
X117352993Y-83905925D01*
X117467007Y-83840099D01*
X117560099Y-83747007D01*
X117625925Y-83632993D01*
X117642962Y-83569408D01*
X118275270Y-84201717D01*
G37*
%TD.AperFunction*%
%TA.AperFunction,Conductor*%
G36*
X126854075Y-83632993D02*
G01*
X126919901Y-83747007D01*
X127012993Y-83840099D01*
X127127007Y-83905925D01*
X127190590Y-83922962D01*
X126558282Y-84555269D01*
X126558282Y-84555270D01*
X126612452Y-84594626D01*
X126612451Y-84594626D01*
X126621495Y-84599234D01*
X126672292Y-84647208D01*
X126689087Y-84715029D01*
X126666550Y-84781164D01*
X126621499Y-84820202D01*
X126612182Y-84824949D01*
X126440213Y-84949890D01*
X126289890Y-85100213D01*
X126164949Y-85272182D01*
X126160484Y-85280946D01*
X126112509Y-85331742D01*
X126044688Y-85348536D01*
X125978553Y-85325998D01*
X125939516Y-85280946D01*
X125935050Y-85272182D01*
X125810109Y-85100213D01*
X125659786Y-84949890D01*
X125487820Y-84824951D01*
X125479600Y-84820763D01*
X125479054Y-84820485D01*
X125428259Y-84772512D01*
X125411463Y-84704692D01*
X125433999Y-84638556D01*
X125479054Y-84599515D01*
X125487816Y-84595051D01*
X125577554Y-84529853D01*
X125659786Y-84470109D01*
X125659788Y-84470106D01*
X125659792Y-84470104D01*
X125810104Y-84319792D01*
X125810106Y-84319788D01*
X125810109Y-84319786D01*
X125895890Y-84201717D01*
X125935051Y-84147816D01*
X125939793Y-84138508D01*
X125987763Y-84087711D01*
X126055583Y-84070911D01*
X126121719Y-84093445D01*
X126160763Y-84138500D01*
X126165373Y-84147547D01*
X126204728Y-84201716D01*
X126837037Y-83569408D01*
X126854075Y-83632993D01*
G37*
%TD.AperFunction*%
%TA.AperFunction,Conductor*%
G36*
X128435270Y-84201717D02*
G01*
X128435270Y-84201716D01*
X128474622Y-84147555D01*
X128479232Y-84138507D01*
X128527205Y-84087709D01*
X128595025Y-84070912D01*
X128661161Y-84093447D01*
X128700204Y-84138504D01*
X128704949Y-84147817D01*
X128829890Y-84319786D01*
X128980213Y-84470109D01*
X129152182Y-84595050D01*
X129160946Y-84599516D01*
X129211742Y-84647491D01*
X129228536Y-84715312D01*
X129205998Y-84781447D01*
X129160946Y-84820484D01*
X129152182Y-84824949D01*
X128980213Y-84949890D01*
X128829890Y-85100213D01*
X128704949Y-85272182D01*
X128700484Y-85280946D01*
X128652509Y-85331742D01*
X128584688Y-85348536D01*
X128518553Y-85325998D01*
X128479516Y-85280946D01*
X128475050Y-85272182D01*
X128350109Y-85100213D01*
X128199786Y-84949890D01*
X128027817Y-84824949D01*
X128018504Y-84820204D01*
X127967707Y-84772230D01*
X127950912Y-84704409D01*
X127973449Y-84638274D01*
X128018507Y-84599232D01*
X128027555Y-84594622D01*
X128081716Y-84555270D01*
X128081717Y-84555270D01*
X127449408Y-83922962D01*
X127512993Y-83905925D01*
X127627007Y-83840099D01*
X127720099Y-83747007D01*
X127785925Y-83632993D01*
X127802962Y-83569409D01*
X128435270Y-84201717D01*
G37*
%TD.AperFunction*%
%TA.AperFunction,Conductor*%
G36*
X134474075Y-83632993D02*
G01*
X134539901Y-83747007D01*
X134632993Y-83840099D01*
X134747007Y-83905925D01*
X134810590Y-83922962D01*
X134178282Y-84555269D01*
X134178282Y-84555270D01*
X134232452Y-84594626D01*
X134232451Y-84594626D01*
X134241495Y-84599234D01*
X134292292Y-84647208D01*
X134309087Y-84715029D01*
X134286550Y-84781164D01*
X134241499Y-84820202D01*
X134232182Y-84824949D01*
X134060213Y-84949890D01*
X133909890Y-85100213D01*
X133784949Y-85272182D01*
X133780484Y-85280946D01*
X133732509Y-85331742D01*
X133664688Y-85348536D01*
X133598553Y-85325998D01*
X133559516Y-85280946D01*
X133555050Y-85272182D01*
X133430109Y-85100213D01*
X133279786Y-84949890D01*
X133107820Y-84824951D01*
X133099600Y-84820763D01*
X133099054Y-84820485D01*
X133048259Y-84772512D01*
X133031463Y-84704692D01*
X133053999Y-84638556D01*
X133099054Y-84599515D01*
X133107816Y-84595051D01*
X133197554Y-84529853D01*
X133279786Y-84470109D01*
X133279788Y-84470106D01*
X133279792Y-84470104D01*
X133430104Y-84319792D01*
X133430106Y-84319788D01*
X133430109Y-84319786D01*
X133515890Y-84201717D01*
X133555051Y-84147816D01*
X133559793Y-84138508D01*
X133607763Y-84087711D01*
X133675583Y-84070911D01*
X133741719Y-84093445D01*
X133780763Y-84138500D01*
X133785373Y-84147547D01*
X133824728Y-84201716D01*
X134457037Y-83569408D01*
X134474075Y-83632993D01*
G37*
%TD.AperFunction*%
%TA.AperFunction,Conductor*%
G36*
X136055270Y-84201717D02*
G01*
X136055270Y-84201716D01*
X136094622Y-84147555D01*
X136099232Y-84138507D01*
X136147205Y-84087709D01*
X136215025Y-84070912D01*
X136281161Y-84093447D01*
X136320204Y-84138504D01*
X136324949Y-84147817D01*
X136449890Y-84319786D01*
X136600213Y-84470109D01*
X136772182Y-84595050D01*
X136780946Y-84599516D01*
X136831742Y-84647491D01*
X136848536Y-84715312D01*
X136825998Y-84781447D01*
X136780946Y-84820484D01*
X136772182Y-84824949D01*
X136600213Y-84949890D01*
X136449890Y-85100213D01*
X136324949Y-85272182D01*
X136320484Y-85280946D01*
X136272509Y-85331742D01*
X136204688Y-85348536D01*
X136138553Y-85325998D01*
X136099516Y-85280946D01*
X136095050Y-85272182D01*
X135970109Y-85100213D01*
X135819786Y-84949890D01*
X135647817Y-84824949D01*
X135638504Y-84820204D01*
X135587707Y-84772230D01*
X135570912Y-84704409D01*
X135593449Y-84638274D01*
X135638507Y-84599232D01*
X135647555Y-84594622D01*
X135701716Y-84555270D01*
X135701717Y-84555270D01*
X135069408Y-83922962D01*
X135132993Y-83905925D01*
X135247007Y-83840099D01*
X135340099Y-83747007D01*
X135405925Y-83632993D01*
X135422962Y-83569408D01*
X136055270Y-84201717D01*
G37*
%TD.AperFunction*%
%TA.AperFunction,Conductor*%
G36*
X147174075Y-83632993D02*
G01*
X147239901Y-83747007D01*
X147332993Y-83840099D01*
X147447007Y-83905925D01*
X147510590Y-83922962D01*
X146878282Y-84555269D01*
X146878282Y-84555270D01*
X146932452Y-84594626D01*
X146932451Y-84594626D01*
X146941495Y-84599234D01*
X146992292Y-84647208D01*
X147009087Y-84715029D01*
X146986550Y-84781164D01*
X146941499Y-84820202D01*
X146932182Y-84824949D01*
X146760213Y-84949890D01*
X146609890Y-85100213D01*
X146484949Y-85272182D01*
X146480484Y-85280946D01*
X146432509Y-85331742D01*
X146364688Y-85348536D01*
X146298553Y-85325998D01*
X146259516Y-85280946D01*
X146255050Y-85272182D01*
X146130109Y-85100213D01*
X145979786Y-84949890D01*
X145807820Y-84824951D01*
X145799600Y-84820763D01*
X145799054Y-84820485D01*
X145748259Y-84772512D01*
X145731463Y-84704692D01*
X145753999Y-84638556D01*
X145799054Y-84599515D01*
X145807816Y-84595051D01*
X145897554Y-84529853D01*
X145979786Y-84470109D01*
X145979788Y-84470106D01*
X145979792Y-84470104D01*
X146130104Y-84319792D01*
X146130106Y-84319788D01*
X146130109Y-84319786D01*
X146215890Y-84201717D01*
X146255051Y-84147816D01*
X146259793Y-84138508D01*
X146307763Y-84087711D01*
X146375583Y-84070911D01*
X146441719Y-84093445D01*
X146480763Y-84138500D01*
X146485373Y-84147547D01*
X146524728Y-84201716D01*
X147157037Y-83569408D01*
X147174075Y-83632993D01*
G37*
%TD.AperFunction*%
%TA.AperFunction,Conductor*%
G36*
X148755270Y-84201717D02*
G01*
X148755270Y-84201716D01*
X148794622Y-84147555D01*
X148799232Y-84138507D01*
X148847205Y-84087709D01*
X148915025Y-84070912D01*
X148981161Y-84093447D01*
X149020204Y-84138504D01*
X149024949Y-84147817D01*
X149149890Y-84319786D01*
X149300213Y-84470109D01*
X149472182Y-84595050D01*
X149480946Y-84599516D01*
X149531742Y-84647491D01*
X149548536Y-84715312D01*
X149525998Y-84781447D01*
X149480946Y-84820484D01*
X149472182Y-84824949D01*
X149300213Y-84949890D01*
X149149890Y-85100213D01*
X149024949Y-85272182D01*
X149020484Y-85280946D01*
X148972509Y-85331742D01*
X148904688Y-85348536D01*
X148838553Y-85325998D01*
X148799516Y-85280946D01*
X148795050Y-85272182D01*
X148670109Y-85100213D01*
X148519786Y-84949890D01*
X148347817Y-84824949D01*
X148338504Y-84820204D01*
X148287707Y-84772230D01*
X148270912Y-84704409D01*
X148293449Y-84638274D01*
X148338507Y-84599232D01*
X148347555Y-84594622D01*
X148401716Y-84555270D01*
X148401717Y-84555270D01*
X147769408Y-83922962D01*
X147832993Y-83905925D01*
X147947007Y-83840099D01*
X148040099Y-83747007D01*
X148105925Y-83632993D01*
X148122962Y-83569409D01*
X148755270Y-84201717D01*
G37*
%TD.AperFunction*%
%TA.AperFunction,Conductor*%
G36*
X152254075Y-83632993D02*
G01*
X152319901Y-83747007D01*
X152412993Y-83840099D01*
X152527007Y-83905925D01*
X152590590Y-83922962D01*
X151958282Y-84555269D01*
X151958282Y-84555270D01*
X152012452Y-84594626D01*
X152012451Y-84594626D01*
X152021495Y-84599234D01*
X152072292Y-84647208D01*
X152089087Y-84715029D01*
X152066550Y-84781164D01*
X152021499Y-84820202D01*
X152012182Y-84824949D01*
X151840213Y-84949890D01*
X151689890Y-85100213D01*
X151564949Y-85272182D01*
X151560484Y-85280946D01*
X151512509Y-85331742D01*
X151444688Y-85348536D01*
X151378553Y-85325998D01*
X151339516Y-85280946D01*
X151335050Y-85272182D01*
X151210109Y-85100213D01*
X151059786Y-84949890D01*
X150887820Y-84824951D01*
X150879600Y-84820763D01*
X150879054Y-84820485D01*
X150828259Y-84772512D01*
X150811463Y-84704692D01*
X150833999Y-84638556D01*
X150879054Y-84599515D01*
X150887816Y-84595051D01*
X150977554Y-84529853D01*
X151059786Y-84470109D01*
X151059788Y-84470106D01*
X151059792Y-84470104D01*
X151210104Y-84319792D01*
X151210106Y-84319788D01*
X151210109Y-84319786D01*
X151295890Y-84201717D01*
X151335051Y-84147816D01*
X151339793Y-84138508D01*
X151387763Y-84087711D01*
X151455583Y-84070911D01*
X151521719Y-84093445D01*
X151560763Y-84138500D01*
X151565373Y-84147547D01*
X151604728Y-84201716D01*
X152237037Y-83569408D01*
X152254075Y-83632993D01*
G37*
%TD.AperFunction*%
%TA.AperFunction,Conductor*%
G36*
X153835270Y-84201717D02*
G01*
X153835270Y-84201716D01*
X153874622Y-84147555D01*
X153879232Y-84138507D01*
X153927205Y-84087709D01*
X153995025Y-84070912D01*
X154061161Y-84093447D01*
X154100204Y-84138504D01*
X154104949Y-84147817D01*
X154229890Y-84319786D01*
X154380213Y-84470109D01*
X154552182Y-84595050D01*
X154560946Y-84599516D01*
X154611742Y-84647491D01*
X154628536Y-84715312D01*
X154605998Y-84781447D01*
X154560946Y-84820484D01*
X154552182Y-84824949D01*
X154380213Y-84949890D01*
X154229890Y-85100213D01*
X154104949Y-85272182D01*
X154100484Y-85280946D01*
X154052509Y-85331742D01*
X153984688Y-85348536D01*
X153918553Y-85325998D01*
X153879516Y-85280946D01*
X153875050Y-85272182D01*
X153750109Y-85100213D01*
X153599786Y-84949890D01*
X153427817Y-84824949D01*
X153418504Y-84820204D01*
X153367707Y-84772230D01*
X153350912Y-84704409D01*
X153373449Y-84638274D01*
X153418507Y-84599232D01*
X153427555Y-84594622D01*
X153481716Y-84555270D01*
X153481717Y-84555270D01*
X152849408Y-83922962D01*
X152912993Y-83905925D01*
X153027007Y-83840099D01*
X153120099Y-83747007D01*
X153185925Y-83632993D01*
X153202962Y-83569408D01*
X153835270Y-84201717D01*
G37*
%TD.AperFunction*%
%TA.AperFunction,Conductor*%
G36*
X163671123Y-81710185D02*
G01*
X163716878Y-81762989D01*
X163726822Y-81832147D01*
X163697797Y-81895703D01*
X163657885Y-81926220D01*
X163653647Y-81928260D01*
X163354025Y-82116526D01*
X163077367Y-82337152D01*
X162827152Y-82587367D01*
X162606526Y-82864025D01*
X162418262Y-83163644D01*
X162264731Y-83482454D01*
X162147860Y-83816454D01*
X162147859Y-83816456D01*
X162069119Y-84161440D01*
X162069116Y-84161454D01*
X162029500Y-84513065D01*
X162029500Y-84866934D01*
X162069116Y-85218545D01*
X162069118Y-85218557D01*
X162069119Y-85218560D01*
X162081417Y-85272440D01*
X162147859Y-85563543D01*
X162147860Y-85563545D01*
X162264731Y-85897545D01*
X162418262Y-86216355D01*
X162418264Y-86216358D01*
X162606527Y-86515976D01*
X162827153Y-86792633D01*
X163077367Y-87042847D01*
X163354024Y-87263473D01*
X163653642Y-87451736D01*
X163972456Y-87605269D01*
X164306456Y-87722140D01*
X164651440Y-87800881D01*
X164651449Y-87800882D01*
X164651454Y-87800883D01*
X164885861Y-87827293D01*
X165003066Y-87840499D01*
X165003069Y-87840500D01*
X165003072Y-87840500D01*
X165356931Y-87840500D01*
X165356932Y-87840499D01*
X165536635Y-87820252D01*
X165708545Y-87800883D01*
X165708548Y-87800882D01*
X165708560Y-87800881D01*
X166053544Y-87722140D01*
X166387544Y-87605269D01*
X166706358Y-87451736D01*
X167005976Y-87263473D01*
X167282633Y-87042847D01*
X167532847Y-86792633D01*
X167753473Y-86515976D01*
X167941736Y-86216358D01*
X167941739Y-86216352D01*
X167943780Y-86212115D01*
X167990602Y-86160255D01*
X168058029Y-86141942D01*
X168124653Y-86162989D01*
X168169321Y-86216715D01*
X168179500Y-86265916D01*
X168179500Y-132114083D01*
X168159815Y-132181122D01*
X168107011Y-132226877D01*
X168037853Y-132236821D01*
X167974297Y-132207796D01*
X167943782Y-132167890D01*
X167941736Y-132163642D01*
X167910596Y-132114083D01*
X167753473Y-131864024D01*
X167532847Y-131587367D01*
X167282633Y-131337153D01*
X167005976Y-131116527D01*
X166706358Y-130928264D01*
X166706355Y-130928262D01*
X166387545Y-130774731D01*
X166053545Y-130657860D01*
X166053543Y-130657859D01*
X165787300Y-130597091D01*
X165708560Y-130579119D01*
X165708557Y-130579118D01*
X165708545Y-130579116D01*
X165356934Y-130539500D01*
X165356928Y-130539500D01*
X165003072Y-130539500D01*
X165003065Y-130539500D01*
X164651454Y-130579116D01*
X164651440Y-130579119D01*
X164306456Y-130657859D01*
X164306454Y-130657860D01*
X163972454Y-130774731D01*
X163653644Y-130928262D01*
X163354025Y-131116526D01*
X163077367Y-131337152D01*
X162827152Y-131587367D01*
X162606526Y-131864025D01*
X162418262Y-132163644D01*
X162264731Y-132482454D01*
X162147860Y-132816454D01*
X162147859Y-132816456D01*
X162069119Y-133161440D01*
X162069116Y-133161454D01*
X162029500Y-133513065D01*
X162029500Y-133866934D01*
X162069116Y-134218545D01*
X162069118Y-134218557D01*
X162069119Y-134218560D01*
X162087091Y-134297300D01*
X162147859Y-134563543D01*
X162147860Y-134563545D01*
X162264731Y-134897545D01*
X162418262Y-135216355D01*
X162418264Y-135216358D01*
X162606527Y-135515976D01*
X162827153Y-135792633D01*
X163077367Y-136042847D01*
X163354024Y-136263473D01*
X163653642Y-136451736D01*
X163653647Y-136451739D01*
X163657885Y-136453780D01*
X163709745Y-136500602D01*
X163728058Y-136568029D01*
X163707011Y-136634653D01*
X163653285Y-136679321D01*
X163604084Y-136689500D01*
X158124500Y-136689500D01*
X158057461Y-136669815D01*
X158011706Y-136617011D01*
X158000500Y-136565500D01*
X158000500Y-130434110D01*
X158000500Y-130434108D01*
X157966392Y-130306814D01*
X157900500Y-130192686D01*
X157807314Y-130099500D01*
X157750250Y-130066554D01*
X157693187Y-130033608D01*
X157629539Y-130016554D01*
X157565892Y-129999500D01*
X138675892Y-129999500D01*
X138544108Y-129999500D01*
X138416812Y-130033608D01*
X138302686Y-130099500D01*
X138302683Y-130099502D01*
X138209502Y-130192683D01*
X138209500Y-130192686D01*
X138143608Y-130306812D01*
X138109500Y-130434108D01*
X138109500Y-136565500D01*
X138089815Y-136632539D01*
X138037011Y-136678294D01*
X137985500Y-136689500D01*
X108755916Y-136689500D01*
X108688877Y-136669815D01*
X108643122Y-136617011D01*
X108633178Y-136547853D01*
X108662203Y-136484297D01*
X108702115Y-136453780D01*
X108706352Y-136451739D01*
X108706352Y-136451738D01*
X108706358Y-136451736D01*
X109005976Y-136263473D01*
X109282633Y-136042847D01*
X109532847Y-135792633D01*
X109753473Y-135515976D01*
X109941736Y-135216358D01*
X110095269Y-134897544D01*
X110212140Y-134563544D01*
X110290881Y-134218560D01*
X110330500Y-133866928D01*
X110330500Y-133513072D01*
X110290881Y-133161440D01*
X110212140Y-132816456D01*
X110095269Y-132482456D01*
X109967435Y-132217006D01*
X109941737Y-132163644D01*
X109910596Y-132114083D01*
X109753473Y-131864024D01*
X109532847Y-131587367D01*
X109282633Y-131337153D01*
X109005976Y-131116527D01*
X108706358Y-130928264D01*
X108706355Y-130928262D01*
X108387545Y-130774731D01*
X108053545Y-130657860D01*
X108053543Y-130657859D01*
X107787300Y-130597091D01*
X107708560Y-130579119D01*
X107708557Y-130579118D01*
X107708545Y-130579116D01*
X107356934Y-130539500D01*
X107356928Y-130539500D01*
X107003072Y-130539500D01*
X107003065Y-130539500D01*
X106651454Y-130579116D01*
X106651440Y-130579119D01*
X106306456Y-130657859D01*
X106306454Y-130657860D01*
X105972454Y-130774731D01*
X105653644Y-130928262D01*
X105354025Y-131116526D01*
X105077367Y-131337152D01*
X104827152Y-131587367D01*
X104606526Y-131864025D01*
X104418263Y-132163642D01*
X104416218Y-132167890D01*
X104369393Y-132219747D01*
X104301965Y-132238057D01*
X104235342Y-132217006D01*
X104190676Y-132163278D01*
X104180500Y-132114083D01*
X104180500Y-121233920D01*
X113629499Y-121233920D01*
X113658340Y-121378907D01*
X113658343Y-121378917D01*
X113714912Y-121515488D01*
X113714919Y-121515501D01*
X113797048Y-121638415D01*
X113797051Y-121638419D01*
X113901580Y-121742948D01*
X113901584Y-121742951D01*
X114024498Y-121825080D01*
X114024511Y-121825087D01*
X114160761Y-121881523D01*
X114161087Y-121881658D01*
X114161091Y-121881658D01*
X114161092Y-121881659D01*
X114306079Y-121910500D01*
X114306082Y-121910500D01*
X114453919Y-121910500D01*
X114485768Y-121904164D01*
X114583966Y-121884631D01*
X114634780Y-121887134D01*
X114635112Y-121885470D01*
X114786079Y-121915500D01*
X114786082Y-121915500D01*
X114933920Y-121915500D01*
X115075808Y-121887276D01*
X115124192Y-121887276D01*
X115266079Y-121915500D01*
X115266082Y-121915500D01*
X115413920Y-121915500D01*
X115511462Y-121896096D01*
X115558913Y-121886658D01*
X115695495Y-121830084D01*
X115739771Y-121800500D01*
X115798292Y-121761398D01*
X115864970Y-121740520D01*
X115867183Y-121740500D01*
X119764903Y-121740500D01*
X119831942Y-121760185D01*
X119852584Y-121776819D01*
X120182381Y-122106616D01*
X120209260Y-122146842D01*
X120214913Y-122160489D01*
X120214919Y-122160501D01*
X120297048Y-122283415D01*
X120297051Y-122283419D01*
X120401580Y-122387948D01*
X120401584Y-122387951D01*
X120524498Y-122470080D01*
X120524511Y-122470087D01*
X120634999Y-122515852D01*
X120661087Y-122526658D01*
X120661091Y-122526658D01*
X120661092Y-122526659D01*
X120806079Y-122555500D01*
X120806082Y-122555500D01*
X120953920Y-122555500D01*
X121100808Y-122526281D01*
X121149192Y-122526281D01*
X121296079Y-122555500D01*
X121296082Y-122555500D01*
X121443919Y-122555500D01*
X121512827Y-122541792D01*
X121588913Y-122526658D01*
X121588914Y-122526657D01*
X121593376Y-122525770D01*
X121641759Y-122525770D01*
X121685422Y-122534455D01*
X121766080Y-122550500D01*
X121766082Y-122550500D01*
X121913920Y-122550500D01*
X122011462Y-122531096D01*
X122058913Y-122521658D01*
X122183434Y-122470080D01*
X122195488Y-122465087D01*
X122195488Y-122465086D01*
X122195495Y-122465084D01*
X122318416Y-122382951D01*
X122422951Y-122278416D01*
X122505084Y-122155495D01*
X122561658Y-122018913D01*
X122587966Y-121886658D01*
X122590500Y-121873920D01*
X123399499Y-121873920D01*
X123428340Y-122018907D01*
X123428343Y-122018917D01*
X123484912Y-122155488D01*
X123484919Y-122155501D01*
X123567048Y-122278415D01*
X123567051Y-122278419D01*
X123671580Y-122382948D01*
X123671584Y-122382951D01*
X123794498Y-122465080D01*
X123794511Y-122465087D01*
X123901689Y-122509481D01*
X123931087Y-122521658D01*
X123931091Y-122521658D01*
X123931092Y-122521659D01*
X124076079Y-122550500D01*
X124076082Y-122550500D01*
X124223920Y-122550500D01*
X124321462Y-122531096D01*
X124368913Y-122521658D01*
X124493434Y-122470080D01*
X124505488Y-122465087D01*
X124505488Y-122465086D01*
X124505495Y-122465084D01*
X124628416Y-122382951D01*
X124732951Y-122278416D01*
X124815084Y-122155495D01*
X124871658Y-122018913D01*
X124886998Y-121941788D01*
X124895763Y-121925032D01*
X124899784Y-121906552D01*
X124918521Y-121881523D01*
X124919381Y-121879880D01*
X124920936Y-121878298D01*
X124962419Y-121836817D01*
X125023743Y-121803333D01*
X125050098Y-121800500D01*
X125811342Y-121800500D01*
X125878381Y-121820185D01*
X125924136Y-121872989D01*
X125934080Y-121942147D01*
X125932959Y-121948693D01*
X125929500Y-121966081D01*
X125929500Y-122777770D01*
X125909815Y-122844809D01*
X125893181Y-122865451D01*
X125322048Y-123436583D01*
X125302301Y-123466137D01*
X125282686Y-123495495D01*
X125247446Y-123548235D01*
X125213235Y-123582446D01*
X125101583Y-123657048D01*
X124997051Y-123761580D01*
X124997048Y-123761584D01*
X124914919Y-123884498D01*
X124914912Y-123884511D01*
X124858343Y-124021082D01*
X124858340Y-124021092D01*
X124829500Y-124166079D01*
X124829500Y-124166082D01*
X124829500Y-124313918D01*
X124829500Y-124313920D01*
X124829499Y-124313920D01*
X124858340Y-124458907D01*
X124858343Y-124458917D01*
X124914912Y-124595488D01*
X124914919Y-124595501D01*
X124997048Y-124718415D01*
X124997051Y-124718419D01*
X125101580Y-124822948D01*
X125101584Y-124822951D01*
X125224498Y-124905080D01*
X125224511Y-124905087D01*
X125361082Y-124961656D01*
X125361087Y-124961658D01*
X125361091Y-124961658D01*
X125361092Y-124961659D01*
X125506079Y-124990500D01*
X125506082Y-124990500D01*
X125653920Y-124990500D01*
X125751462Y-124971096D01*
X125798913Y-124961658D01*
X125935495Y-124905084D01*
X126058416Y-124822951D01*
X126162951Y-124718416D01*
X126237556Y-124606760D01*
X126243448Y-124600868D01*
X126245507Y-124596139D01*
X126271759Y-124572556D01*
X126309729Y-124547186D01*
X126383416Y-124497952D01*
X127262952Y-123618415D01*
X127302314Y-123559505D01*
X127345084Y-123495495D01*
X127370357Y-123434480D01*
X127401659Y-123358912D01*
X127430500Y-123213917D01*
X127430500Y-123066082D01*
X127430500Y-122402228D01*
X127450185Y-122335189D01*
X127466814Y-122314552D01*
X130267819Y-119513546D01*
X130329142Y-119480062D01*
X130398834Y-119485046D01*
X130454767Y-119526918D01*
X130479184Y-119592382D01*
X130479500Y-119601228D01*
X130479500Y-120489902D01*
X130459815Y-120556941D01*
X130443181Y-120577583D01*
X129907002Y-121113761D01*
X129845679Y-121147246D01*
X129795130Y-121147697D01*
X129753922Y-121139500D01*
X129753918Y-121139500D01*
X129606082Y-121139500D01*
X129606080Y-121139500D01*
X129461092Y-121168340D01*
X129461082Y-121168343D01*
X129324511Y-121224912D01*
X129324498Y-121224919D01*
X129201584Y-121307048D01*
X129201580Y-121307051D01*
X129097051Y-121411580D01*
X129097048Y-121411584D01*
X129014919Y-121534498D01*
X129014912Y-121534511D01*
X128958343Y-121671082D01*
X128958340Y-121671092D01*
X128929500Y-121816079D01*
X128929500Y-121816082D01*
X128929500Y-121963918D01*
X128929500Y-121963920D01*
X128929499Y-121963920D01*
X128958340Y-122108907D01*
X128958343Y-122108917D01*
X129014912Y-122245488D01*
X129014919Y-122245501D01*
X129097048Y-122368415D01*
X129097051Y-122368419D01*
X129201580Y-122472948D01*
X129201584Y-122472951D01*
X129324498Y-122555080D01*
X129324511Y-122555087D01*
X129461082Y-122611656D01*
X129461087Y-122611658D01*
X129461091Y-122611658D01*
X129461092Y-122611659D01*
X129606079Y-122640500D01*
X129606082Y-122640500D01*
X129753920Y-122640500D01*
X129864944Y-122618415D01*
X129898913Y-122611658D01*
X130010346Y-122565501D01*
X130035488Y-122555087D01*
X130035488Y-122555086D01*
X130035495Y-122555084D01*
X130158416Y-122472951D01*
X130158416Y-122472950D01*
X130163482Y-122469566D01*
X130163902Y-122470194D01*
X130178235Y-122460969D01*
X130189054Y-122455667D01*
X130211785Y-122449577D01*
X130265887Y-122418341D01*
X130348716Y-122370520D01*
X130404477Y-122314758D01*
X130465796Y-122281276D01*
X130535488Y-122286260D01*
X130591422Y-122328131D01*
X130606716Y-122354989D01*
X130664914Y-122495491D01*
X130664919Y-122495501D01*
X130747048Y-122618415D01*
X130747051Y-122618419D01*
X130851580Y-122722948D01*
X130851584Y-122722951D01*
X130974498Y-122805080D01*
X130974511Y-122805087D01*
X131111082Y-122861656D01*
X131111087Y-122861658D01*
X131188212Y-122876999D01*
X131250119Y-122909382D01*
X131251696Y-122910931D01*
X131811284Y-123470520D01*
X131811286Y-123470521D01*
X131811290Y-123470524D01*
X131948209Y-123549573D01*
X131948216Y-123549577D01*
X132100943Y-123590501D01*
X132100945Y-123590501D01*
X132266654Y-123590501D01*
X132266670Y-123590500D01*
X139729903Y-123590500D01*
X139796942Y-123610185D01*
X139817584Y-123626819D01*
X141418584Y-125227819D01*
X141452069Y-125289142D01*
X141447085Y-125358834D01*
X141405213Y-125414767D01*
X141339749Y-125439184D01*
X141330903Y-125439500D01*
X133119767Y-125439500D01*
X133052728Y-125419815D01*
X133050876Y-125418602D01*
X132985501Y-125374919D01*
X132985488Y-125374912D01*
X132848917Y-125318343D01*
X132848907Y-125318340D01*
X132703920Y-125289500D01*
X132703918Y-125289500D01*
X132556082Y-125289500D01*
X132556080Y-125289500D01*
X132411092Y-125318340D01*
X132411082Y-125318343D01*
X132274511Y-125374912D01*
X132274498Y-125374919D01*
X132151584Y-125457048D01*
X132151580Y-125457051D01*
X132047051Y-125561580D01*
X132047048Y-125561584D01*
X131964919Y-125684498D01*
X131964912Y-125684511D01*
X131908343Y-125821082D01*
X131908340Y-125821092D01*
X131879500Y-125966079D01*
X131879500Y-125966082D01*
X131879500Y-126113918D01*
X131879500Y-126113920D01*
X131879499Y-126113920D01*
X131908340Y-126258907D01*
X131908343Y-126258917D01*
X131964912Y-126395488D01*
X131964919Y-126395501D01*
X132047048Y-126518415D01*
X132047051Y-126518419D01*
X132151580Y-126622948D01*
X132151584Y-126622951D01*
X132274498Y-126705080D01*
X132274511Y-126705087D01*
X132411082Y-126761656D01*
X132411087Y-126761658D01*
X132411091Y-126761658D01*
X132411092Y-126761659D01*
X132556079Y-126790500D01*
X132556082Y-126790500D01*
X132703920Y-126790500D01*
X132801462Y-126771096D01*
X132848913Y-126761658D01*
X132985495Y-126705084D01*
X133050876Y-126661398D01*
X133117553Y-126640520D01*
X133119767Y-126640500D01*
X141690233Y-126640500D01*
X141757272Y-126660185D01*
X141759124Y-126661398D01*
X141824498Y-126705080D01*
X141824511Y-126705087D01*
X141961082Y-126761656D01*
X141961087Y-126761658D01*
X141961091Y-126761658D01*
X141961092Y-126761659D01*
X142106079Y-126790500D01*
X142106082Y-126790500D01*
X142253920Y-126790500D01*
X142351462Y-126771096D01*
X142398913Y-126761658D01*
X142535495Y-126705084D01*
X142600876Y-126661398D01*
X142663481Y-126619567D01*
X142664451Y-126621019D01*
X142721117Y-126596936D01*
X142789988Y-126608711D01*
X142823183Y-126632418D01*
X143109064Y-126918299D01*
X143142549Y-126979622D01*
X143143000Y-126981788D01*
X143158340Y-127058907D01*
X143158343Y-127058917D01*
X143214912Y-127195488D01*
X143214919Y-127195501D01*
X143297048Y-127318415D01*
X143297051Y-127318419D01*
X143401580Y-127422948D01*
X143401584Y-127422951D01*
X143524498Y-127505080D01*
X143524511Y-127505087D01*
X143661082Y-127561656D01*
X143661087Y-127561658D01*
X143661091Y-127561658D01*
X143661092Y-127561659D01*
X143806079Y-127590500D01*
X143806082Y-127590500D01*
X143953920Y-127590500D01*
X144051462Y-127571096D01*
X144098913Y-127561658D01*
X144235495Y-127505084D01*
X144358416Y-127422951D01*
X144462951Y-127318416D01*
X144545084Y-127195495D01*
X144601658Y-127058913D01*
X144611096Y-127011462D01*
X144630500Y-126913920D01*
X144630500Y-126766079D01*
X144601659Y-126621092D01*
X144601658Y-126621091D01*
X144601658Y-126621087D01*
X144591654Y-126596936D01*
X144545087Y-126484511D01*
X144545080Y-126484498D01*
X144462951Y-126361584D01*
X144462948Y-126361580D01*
X144358419Y-126257051D01*
X144358415Y-126257048D01*
X144235501Y-126174919D01*
X144235488Y-126174912D01*
X144098917Y-126118343D01*
X144098907Y-126118340D01*
X144021788Y-126103000D01*
X143959877Y-126070615D01*
X143958299Y-126069064D01*
X140517590Y-122628355D01*
X140517588Y-122628352D01*
X140398717Y-122509481D01*
X140398716Y-122509480D01*
X140294960Y-122449577D01*
X140294959Y-122449576D01*
X140261783Y-122430422D01*
X140205881Y-122415443D01*
X140109057Y-122389499D01*
X139950943Y-122389499D01*
X139943347Y-122389499D01*
X139943331Y-122389500D01*
X133641230Y-122389500D01*
X133574191Y-122369815D01*
X133528436Y-122317011D01*
X133518492Y-122247853D01*
X133547517Y-122184297D01*
X133553549Y-122177819D01*
X133612948Y-122118419D01*
X133612951Y-122118416D01*
X133689354Y-122004071D01*
X161229499Y-122004071D01*
X161254497Y-122129738D01*
X161254499Y-122129744D01*
X161303533Y-122248124D01*
X161303538Y-122248133D01*
X161374723Y-122354668D01*
X161374726Y-122354672D01*
X161465327Y-122445273D01*
X161465331Y-122445276D01*
X161571866Y-122516461D01*
X161571872Y-122516464D01*
X161571873Y-122516465D01*
X161690256Y-122565501D01*
X161690260Y-122565501D01*
X161690261Y-122565502D01*
X161815928Y-122590500D01*
X161815931Y-122590500D01*
X161944071Y-122590500D01*
X162028615Y-122573682D01*
X162069744Y-122565501D01*
X162188127Y-122516465D01*
X162294669Y-122445276D01*
X162385276Y-122354669D01*
X162456465Y-122248127D01*
X162505501Y-122129744D01*
X162519036Y-122061699D01*
X162530500Y-122004071D01*
X162530500Y-121875928D01*
X162505502Y-121750261D01*
X162505501Y-121750260D01*
X162505501Y-121750256D01*
X162467574Y-121658692D01*
X162456466Y-121631875D01*
X162456461Y-121631866D01*
X162385276Y-121525331D01*
X162385273Y-121525327D01*
X162294672Y-121434726D01*
X162294668Y-121434723D01*
X162188133Y-121363538D01*
X162188124Y-121363533D01*
X162069744Y-121314499D01*
X162069738Y-121314497D01*
X161944071Y-121289500D01*
X161944069Y-121289500D01*
X161815931Y-121289500D01*
X161815929Y-121289500D01*
X161690261Y-121314497D01*
X161690255Y-121314499D01*
X161571875Y-121363533D01*
X161571866Y-121363538D01*
X161465331Y-121434723D01*
X161465327Y-121434726D01*
X161374726Y-121525327D01*
X161374723Y-121525331D01*
X161303538Y-121631866D01*
X161303533Y-121631875D01*
X161254499Y-121750255D01*
X161254497Y-121750261D01*
X161229500Y-121875928D01*
X161229500Y-121875931D01*
X161229500Y-122004069D01*
X161229500Y-122004071D01*
X161229499Y-122004071D01*
X133689354Y-122004071D01*
X133695084Y-121995495D01*
X133751658Y-121858913D01*
X133766999Y-121781786D01*
X133799381Y-121719880D01*
X133800878Y-121718355D01*
X134282415Y-121236819D01*
X134343738Y-121203334D01*
X134370096Y-121200500D01*
X134503920Y-121200500D01*
X134601462Y-121181096D01*
X134648913Y-121171658D01*
X134785495Y-121115084D01*
X134787475Y-121113761D01*
X134865842Y-121061398D01*
X134932519Y-121040520D01*
X134934733Y-121040500D01*
X135553331Y-121040500D01*
X135553347Y-121040501D01*
X135560943Y-121040501D01*
X135719054Y-121040501D01*
X135719057Y-121040501D01*
X135871785Y-120999577D01*
X135883265Y-120992948D01*
X135926104Y-120968216D01*
X135926105Y-120968215D01*
X136008716Y-120920520D01*
X136120520Y-120808716D01*
X136120520Y-120808714D01*
X136130724Y-120798511D01*
X136130728Y-120798506D01*
X136388506Y-120540728D01*
X136388511Y-120540724D01*
X136398714Y-120530520D01*
X136398716Y-120530520D01*
X136510520Y-120418716D01*
X136568595Y-120318127D01*
X136589577Y-120281785D01*
X136630500Y-120129058D01*
X136630500Y-119970943D01*
X136630500Y-119246723D01*
X136650185Y-119179684D01*
X136702989Y-119133929D01*
X136772147Y-119123985D01*
X136778692Y-119125106D01*
X136856079Y-119140500D01*
X136856082Y-119140500D01*
X137003920Y-119140500D01*
X137114944Y-119118415D01*
X137148913Y-119111658D01*
X137285495Y-119055084D01*
X137350876Y-119011398D01*
X137417553Y-118990520D01*
X137419767Y-118990500D01*
X137823153Y-118990500D01*
X137890192Y-119010185D01*
X137935947Y-119062989D01*
X137945891Y-119132147D01*
X137916866Y-119195703D01*
X137858088Y-119233477D01*
X137847344Y-119236117D01*
X137826510Y-119240261D01*
X137826498Y-119240264D01*
X137680827Y-119300602D01*
X137680814Y-119300609D01*
X137549711Y-119388210D01*
X137549707Y-119388213D01*
X137438213Y-119499707D01*
X137438210Y-119499711D01*
X137350609Y-119630814D01*
X137350602Y-119630827D01*
X137290264Y-119776498D01*
X137290261Y-119776510D01*
X137259500Y-119931153D01*
X137259500Y-120088846D01*
X137290261Y-120243489D01*
X137290264Y-120243501D01*
X137350602Y-120389172D01*
X137350609Y-120389185D01*
X137438210Y-120520288D01*
X137438213Y-120520292D01*
X137549707Y-120631786D01*
X137549711Y-120631789D01*
X137680814Y-120719390D01*
X137680827Y-120719397D01*
X137826498Y-120779735D01*
X137826503Y-120779737D01*
X137972174Y-120808713D01*
X137981153Y-120810499D01*
X137981156Y-120810500D01*
X137981158Y-120810500D01*
X138138844Y-120810500D01*
X138138845Y-120810499D01*
X138293497Y-120779737D01*
X138438969Y-120719481D01*
X138439172Y-120719397D01*
X138439172Y-120719396D01*
X138439179Y-120719394D01*
X138463194Y-120703348D01*
X138570875Y-120631398D01*
X138637553Y-120610520D01*
X138639766Y-120610500D01*
X144193331Y-120610500D01*
X144193347Y-120610501D01*
X144200943Y-120610501D01*
X144359054Y-120610501D01*
X144359057Y-120610501D01*
X144511785Y-120569577D01*
X144590868Y-120523918D01*
X144648716Y-120490520D01*
X144760520Y-120378716D01*
X144760520Y-120378714D01*
X144770724Y-120368511D01*
X144770727Y-120368506D01*
X145824664Y-119314571D01*
X145885985Y-119281088D01*
X145888152Y-119280637D01*
X145888841Y-119280500D01*
X145888842Y-119280500D01*
X146043497Y-119249737D01*
X146189179Y-119189394D01*
X146320289Y-119101789D01*
X146431789Y-118990289D01*
X146519394Y-118859179D01*
X146574482Y-118726182D01*
X146595070Y-118700634D01*
X146614731Y-118674372D01*
X146616880Y-118673570D01*
X146618320Y-118671784D01*
X146649450Y-118661422D01*
X146680195Y-118649955D01*
X146682436Y-118650442D01*
X146684614Y-118649718D01*
X146716404Y-118657831D01*
X146748468Y-118664807D01*
X146750917Y-118666640D01*
X146752313Y-118666997D01*
X146776722Y-118685958D01*
X146809064Y-118718300D01*
X146842549Y-118779623D01*
X146843000Y-118781789D01*
X146858340Y-118858907D01*
X146858342Y-118858915D01*
X146914912Y-118995488D01*
X146914919Y-118995501D01*
X146997048Y-119118415D01*
X146997051Y-119118419D01*
X147101580Y-119222948D01*
X147101584Y-119222951D01*
X147224498Y-119305080D01*
X147224511Y-119305087D01*
X147361082Y-119361656D01*
X147361087Y-119361658D01*
X147361091Y-119361658D01*
X147361092Y-119361659D01*
X147506079Y-119390500D01*
X147506082Y-119390500D01*
X147653920Y-119390500D01*
X147751462Y-119371096D01*
X147798913Y-119361658D01*
X147904547Y-119317902D01*
X147935488Y-119305087D01*
X147935488Y-119305086D01*
X147935495Y-119305084D01*
X148058416Y-119222951D01*
X148162951Y-119118416D01*
X148245084Y-118995495D01*
X148301658Y-118858913D01*
X148324219Y-118745495D01*
X148330500Y-118713920D01*
X148330500Y-118566079D01*
X148301659Y-118421092D01*
X148301658Y-118421091D01*
X148301658Y-118421087D01*
X148296326Y-118408215D01*
X148245087Y-118284511D01*
X148245080Y-118284498D01*
X148162951Y-118161584D01*
X148162948Y-118161580D01*
X148058419Y-118057051D01*
X148058415Y-118057048D01*
X147935501Y-117974919D01*
X147935488Y-117974912D01*
X147798915Y-117918342D01*
X147798907Y-117918340D01*
X147721789Y-117903000D01*
X147659878Y-117870615D01*
X147658300Y-117869064D01*
X141167590Y-111378355D01*
X141167588Y-111378352D01*
X141048717Y-111259481D01*
X141048716Y-111259480D01*
X140961904Y-111209360D01*
X140961904Y-111209359D01*
X140961900Y-111209358D01*
X140911785Y-111180423D01*
X140759057Y-111139499D01*
X140600943Y-111139499D01*
X140593347Y-111139499D01*
X140593331Y-111139500D01*
X139919767Y-111139500D01*
X139852728Y-111119815D01*
X139850876Y-111118602D01*
X139785501Y-111074919D01*
X139785488Y-111074912D01*
X139648917Y-111018343D01*
X139648907Y-111018340D01*
X139503920Y-110989500D01*
X139503918Y-110989500D01*
X139356082Y-110989500D01*
X139356080Y-110989500D01*
X139211092Y-111018340D01*
X139211082Y-111018343D01*
X139074511Y-111074912D01*
X139074498Y-111074919D01*
X138951584Y-111157048D01*
X138951580Y-111157051D01*
X138847051Y-111261580D01*
X138847048Y-111261584D01*
X138764919Y-111384498D01*
X138764912Y-111384511D01*
X138708343Y-111521082D01*
X138708340Y-111521092D01*
X138679500Y-111666079D01*
X138679500Y-111666082D01*
X138679500Y-111813918D01*
X138679500Y-111813920D01*
X138679499Y-111813920D01*
X138708340Y-111958907D01*
X138708343Y-111958917D01*
X138764912Y-112095488D01*
X138764919Y-112095501D01*
X138847048Y-112218415D01*
X138847051Y-112218419D01*
X138951580Y-112322948D01*
X138951584Y-112322951D01*
X139074498Y-112405080D01*
X139074511Y-112405087D01*
X139211082Y-112461656D01*
X139211087Y-112461658D01*
X139211091Y-112461658D01*
X139211092Y-112461659D01*
X139356079Y-112490500D01*
X139356082Y-112490500D01*
X139503920Y-112490500D01*
X139601462Y-112471096D01*
X139648913Y-112461658D01*
X139785495Y-112405084D01*
X139850876Y-112361398D01*
X139917553Y-112340520D01*
X139919767Y-112340500D01*
X140379903Y-112340500D01*
X140446942Y-112360185D01*
X140467584Y-112376819D01*
X144984666Y-116893902D01*
X145018151Y-116955225D01*
X145013167Y-117024917D01*
X144971295Y-117080850D01*
X144905831Y-117105267D01*
X144872793Y-117103200D01*
X144803920Y-117089500D01*
X144803918Y-117089500D01*
X144656082Y-117089500D01*
X144656080Y-117089500D01*
X144511092Y-117118340D01*
X144511082Y-117118343D01*
X144374511Y-117174912D01*
X144374498Y-117174919D01*
X144251584Y-117257048D01*
X144251580Y-117257051D01*
X144205453Y-117303180D01*
X144144130Y-117336666D01*
X144117771Y-117339500D01*
X138419767Y-117339500D01*
X138352728Y-117319815D01*
X138350876Y-117318602D01*
X138285501Y-117274919D01*
X138285488Y-117274912D01*
X138148917Y-117218343D01*
X138148907Y-117218340D01*
X137997943Y-117188311D01*
X137998493Y-117185541D01*
X137944913Y-117163868D01*
X137907353Y-117114126D01*
X137895084Y-117084505D01*
X137886118Y-117071087D01*
X137812954Y-116961588D01*
X137812948Y-116961580D01*
X137708419Y-116857051D01*
X137708415Y-116857048D01*
X137585501Y-116774919D01*
X137585488Y-116774912D01*
X137448917Y-116718343D01*
X137448907Y-116718340D01*
X137303920Y-116689500D01*
X137303918Y-116689500D01*
X137156082Y-116689500D01*
X137156080Y-116689500D01*
X137011092Y-116718340D01*
X137011082Y-116718343D01*
X136874511Y-116774912D01*
X136874498Y-116774919D01*
X136751584Y-116857048D01*
X136751580Y-116857051D01*
X136647051Y-116961580D01*
X136647048Y-116961584D01*
X136564919Y-117084498D01*
X136564912Y-117084511D01*
X136508342Y-117221084D01*
X136508340Y-117221092D01*
X136493000Y-117298210D01*
X136460615Y-117360121D01*
X136459064Y-117361699D01*
X135664585Y-118156178D01*
X135664578Y-118156185D01*
X135661286Y-118159478D01*
X135661284Y-118159480D01*
X135549480Y-118271284D01*
X135522269Y-118318416D01*
X135470423Y-118408215D01*
X135429499Y-118560943D01*
X135429499Y-118560945D01*
X135429499Y-118729046D01*
X135429500Y-118729059D01*
X135429500Y-119715500D01*
X135409815Y-119782539D01*
X135357011Y-119828294D01*
X135305500Y-119839500D01*
X134904801Y-119839500D01*
X134892615Y-119836669D01*
X134883721Y-119837695D01*
X134865220Y-119830306D01*
X134850148Y-119826806D01*
X134842755Y-119823176D01*
X134785495Y-119784916D01*
X134653400Y-119730200D01*
X134649847Y-119728456D01*
X134626895Y-119707412D01*
X134602644Y-119687870D01*
X134601354Y-119683996D01*
X134598347Y-119681239D01*
X134590415Y-119651129D01*
X134580579Y-119621576D01*
X134580500Y-119617150D01*
X134580500Y-117779767D01*
X134600185Y-117712728D01*
X134601398Y-117710876D01*
X134645080Y-117645501D01*
X134645080Y-117645500D01*
X134645084Y-117645495D01*
X134701658Y-117508913D01*
X134718366Y-117424919D01*
X134730500Y-117363920D01*
X134730500Y-117216079D01*
X134701659Y-117071092D01*
X134701658Y-117071091D01*
X134701658Y-117071087D01*
X134645084Y-116934505D01*
X134633979Y-116917885D01*
X134613100Y-116851211D01*
X134631583Y-116783830D01*
X134649395Y-116761317D01*
X134838506Y-116572207D01*
X134838511Y-116572203D01*
X134848714Y-116561999D01*
X134848716Y-116561999D01*
X134960520Y-116450195D01*
X135023852Y-116340500D01*
X135039577Y-116313264D01*
X135080500Y-116160536D01*
X135080500Y-116002422D01*
X135080500Y-115233809D01*
X135100185Y-115166770D01*
X135152989Y-115121015D01*
X135222147Y-115111071D01*
X135273391Y-115130707D01*
X135341866Y-115176461D01*
X135341872Y-115176464D01*
X135341873Y-115176465D01*
X135460256Y-115225501D01*
X135460260Y-115225501D01*
X135460261Y-115225502D01*
X135585928Y-115250500D01*
X135585931Y-115250500D01*
X135714071Y-115250500D01*
X135828342Y-115227769D01*
X135839744Y-115225501D01*
X135958127Y-115176465D01*
X136064669Y-115105276D01*
X136155276Y-115014669D01*
X136226465Y-114908127D01*
X136275501Y-114789744D01*
X136300500Y-114664069D01*
X136300500Y-114535931D01*
X136300500Y-114535928D01*
X136275502Y-114410261D01*
X136275501Y-114410260D01*
X136275501Y-114410256D01*
X136226465Y-114291873D01*
X136226464Y-114291872D01*
X136226461Y-114291866D01*
X136155276Y-114185331D01*
X136155273Y-114185327D01*
X136064672Y-114094726D01*
X136064668Y-114094723D01*
X135958133Y-114023538D01*
X135958124Y-114023533D01*
X135839744Y-113974499D01*
X135839738Y-113974497D01*
X135714071Y-113949500D01*
X135714069Y-113949500D01*
X135585931Y-113949500D01*
X135585929Y-113949500D01*
X135460261Y-113974497D01*
X135460255Y-113974499D01*
X135341875Y-114023533D01*
X135341868Y-114023537D01*
X135273390Y-114069293D01*
X135206713Y-114090170D01*
X135139333Y-114071685D01*
X135092643Y-114019706D01*
X135080500Y-113966190D01*
X135080500Y-110040096D01*
X135100185Y-109973057D01*
X135116814Y-109952420D01*
X137256964Y-107812269D01*
X137318285Y-107778786D01*
X137387977Y-107783770D01*
X137432324Y-107812271D01*
X137815325Y-108195272D01*
X137815331Y-108195277D01*
X137921874Y-108266466D01*
X137991221Y-108295189D01*
X138040256Y-108315501D01*
X138040259Y-108315501D01*
X138040260Y-108315502D01*
X138165928Y-108340500D01*
X138165931Y-108340500D01*
X142894071Y-108340500D01*
X142978615Y-108323682D01*
X143019744Y-108315501D01*
X143138127Y-108266465D01*
X143244669Y-108195277D01*
X144535276Y-106904670D01*
X144606465Y-106798127D01*
X144655501Y-106679744D01*
X144657237Y-106671016D01*
X144680500Y-106554069D01*
X144680500Y-105963920D01*
X147429499Y-105963920D01*
X147458340Y-106108907D01*
X147458343Y-106108917D01*
X147514912Y-106245488D01*
X147514919Y-106245501D01*
X147597048Y-106368415D01*
X147597051Y-106368419D01*
X147701580Y-106472948D01*
X147701584Y-106472951D01*
X147824498Y-106555080D01*
X147824511Y-106555087D01*
X147926329Y-106597261D01*
X147961087Y-106611658D01*
X147961091Y-106611658D01*
X147961092Y-106611659D01*
X148106079Y-106640500D01*
X148106082Y-106640500D01*
X148253920Y-106640500D01*
X148351511Y-106621087D01*
X148398913Y-106611658D01*
X148535495Y-106555084D01*
X148600876Y-106511398D01*
X148667553Y-106490520D01*
X148669767Y-106490500D01*
X150340233Y-106490500D01*
X150407272Y-106510185D01*
X150409124Y-106511398D01*
X150474498Y-106555080D01*
X150474511Y-106555087D01*
X150576329Y-106597261D01*
X150611087Y-106611658D01*
X150611091Y-106611658D01*
X150611092Y-106611659D01*
X150756079Y-106640500D01*
X150756082Y-106640500D01*
X150903920Y-106640500D01*
X151001511Y-106621087D01*
X151048913Y-106611658D01*
X151185495Y-106555084D01*
X151308416Y-106472951D01*
X151412951Y-106368416D01*
X151495084Y-106245495D01*
X151551658Y-106108913D01*
X151580500Y-105963918D01*
X151580500Y-105816082D01*
X151580500Y-105816079D01*
X151551659Y-105671092D01*
X151551658Y-105671091D01*
X151551658Y-105671087D01*
X151528239Y-105614548D01*
X151495087Y-105534511D01*
X151495080Y-105534498D01*
X151412951Y-105411584D01*
X151412948Y-105411580D01*
X151308419Y-105307051D01*
X151308415Y-105307048D01*
X151185501Y-105224919D01*
X151185488Y-105224912D01*
X151048917Y-105168343D01*
X151048907Y-105168340D01*
X150903920Y-105139500D01*
X150903918Y-105139500D01*
X150756082Y-105139500D01*
X150756080Y-105139500D01*
X150611092Y-105168340D01*
X150611082Y-105168343D01*
X150474511Y-105224912D01*
X150474498Y-105224919D01*
X150409124Y-105268602D01*
X150342447Y-105289480D01*
X150340233Y-105289500D01*
X148669767Y-105289500D01*
X148602728Y-105269815D01*
X148600876Y-105268602D01*
X148535501Y-105224919D01*
X148535488Y-105224912D01*
X148398917Y-105168343D01*
X148398907Y-105168340D01*
X148253920Y-105139500D01*
X148253918Y-105139500D01*
X148106082Y-105139500D01*
X148106080Y-105139500D01*
X147961092Y-105168340D01*
X147961082Y-105168343D01*
X147824511Y-105224912D01*
X147824498Y-105224919D01*
X147701584Y-105307048D01*
X147701580Y-105307051D01*
X147597051Y-105411580D01*
X147597048Y-105411584D01*
X147514919Y-105534498D01*
X147514912Y-105534511D01*
X147458343Y-105671082D01*
X147458340Y-105671092D01*
X147429500Y-105816079D01*
X147429500Y-105816082D01*
X147429500Y-105963918D01*
X147429500Y-105963920D01*
X147429499Y-105963920D01*
X144680500Y-105963920D01*
X144680500Y-95575931D01*
X144680500Y-95060807D01*
X144700185Y-94993768D01*
X144716814Y-94973131D01*
X146332931Y-93357013D01*
X146394252Y-93323530D01*
X146396317Y-93323099D01*
X146463497Y-93309737D01*
X146609179Y-93249394D01*
X146740289Y-93161789D01*
X146851789Y-93050289D01*
X146939394Y-92919179D01*
X146999737Y-92773497D01*
X147030500Y-92618842D01*
X147030500Y-92461158D01*
X147030500Y-92461155D01*
X147030499Y-92461153D01*
X147014001Y-92378213D01*
X146999737Y-92306503D01*
X146968157Y-92230261D01*
X146939397Y-92160827D01*
X146939390Y-92160814D01*
X146851789Y-92029711D01*
X146851786Y-92029707D01*
X146740292Y-91918213D01*
X146740288Y-91918210D01*
X146609185Y-91830609D01*
X146609172Y-91830602D01*
X146463501Y-91770264D01*
X146463489Y-91770261D01*
X146308845Y-91739500D01*
X146308842Y-91739500D01*
X146151158Y-91739500D01*
X146151155Y-91739500D01*
X145996510Y-91770261D01*
X145996498Y-91770264D01*
X145850827Y-91830602D01*
X145850814Y-91830609D01*
X145719711Y-91918210D01*
X145719707Y-91918213D01*
X145608213Y-92029707D01*
X145608210Y-92029711D01*
X145520609Y-92160814D01*
X145520602Y-92160827D01*
X145460264Y-92306498D01*
X145460261Y-92306508D01*
X145446920Y-92373579D01*
X145414535Y-92435490D01*
X145412984Y-92437068D01*
X143524726Y-94325326D01*
X143453534Y-94431874D01*
X143404499Y-94550255D01*
X143404497Y-94550261D01*
X143379500Y-94675928D01*
X143379500Y-106169192D01*
X143359815Y-106236231D01*
X143343181Y-106256873D01*
X142596873Y-107003181D01*
X142535550Y-107036666D01*
X142509192Y-107039500D01*
X139804500Y-107039500D01*
X139737461Y-107019815D01*
X139691706Y-106967011D01*
X139680500Y-106915500D01*
X139680500Y-106766079D01*
X139660762Y-106666853D01*
X139666989Y-106597261D01*
X139709852Y-106542084D01*
X139775741Y-106518839D01*
X139843738Y-106534907D01*
X139851271Y-106539560D01*
X139874496Y-106555079D01*
X139874511Y-106555087D01*
X139976329Y-106597261D01*
X140011087Y-106611658D01*
X140011091Y-106611658D01*
X140011092Y-106611659D01*
X140156079Y-106640500D01*
X140156082Y-106640500D01*
X140303920Y-106640500D01*
X140401511Y-106621087D01*
X140448913Y-106611658D01*
X140585495Y-106555084D01*
X140650876Y-106511398D01*
X140717553Y-106490520D01*
X140719767Y-106490500D01*
X141690233Y-106490500D01*
X141757272Y-106510185D01*
X141759124Y-106511398D01*
X141824498Y-106555080D01*
X141824511Y-106555087D01*
X141926329Y-106597261D01*
X141961087Y-106611658D01*
X141961091Y-106611658D01*
X141961092Y-106611659D01*
X142106079Y-106640500D01*
X142106082Y-106640500D01*
X142253920Y-106640500D01*
X142351511Y-106621087D01*
X142398913Y-106611658D01*
X142535495Y-106555084D01*
X142658416Y-106472951D01*
X142762951Y-106368416D01*
X142845084Y-106245495D01*
X142901658Y-106108913D01*
X142930500Y-105963918D01*
X142930500Y-105816082D01*
X142930500Y-105816079D01*
X142901659Y-105671092D01*
X142901658Y-105671091D01*
X142901658Y-105671087D01*
X142878239Y-105614548D01*
X142845087Y-105534511D01*
X142845077Y-105534493D01*
X142799606Y-105466440D01*
X142778728Y-105399763D01*
X142797213Y-105332383D01*
X142799592Y-105328679D01*
X142815084Y-105305495D01*
X142871658Y-105168913D01*
X142900500Y-105023918D01*
X142900500Y-104876082D01*
X142900500Y-104876079D01*
X142871659Y-104731092D01*
X142871658Y-104731091D01*
X142871658Y-104731087D01*
X142871656Y-104731082D01*
X142815087Y-104594511D01*
X142815080Y-104594498D01*
X142732951Y-104471584D01*
X142732948Y-104471580D01*
X142628419Y-104367051D01*
X142628415Y-104367048D01*
X142505501Y-104284919D01*
X142505488Y-104284912D01*
X142368917Y-104228343D01*
X142368907Y-104228340D01*
X142223920Y-104199500D01*
X142223918Y-104199500D01*
X142076082Y-104199500D01*
X142076080Y-104199500D01*
X141931092Y-104228340D01*
X141931082Y-104228343D01*
X141794511Y-104284912D01*
X141794498Y-104284919D01*
X141729124Y-104328602D01*
X141662447Y-104349480D01*
X141660233Y-104349500D01*
X140589767Y-104349500D01*
X140522728Y-104329815D01*
X140520876Y-104328602D01*
X140455501Y-104284919D01*
X140455488Y-104284912D01*
X140318917Y-104228343D01*
X140318907Y-104228340D01*
X140173920Y-104199500D01*
X140173918Y-104199500D01*
X140026082Y-104199500D01*
X140026080Y-104199500D01*
X139881092Y-104228340D01*
X139881082Y-104228343D01*
X139744511Y-104284912D01*
X139744500Y-104284918D01*
X139723390Y-104299024D01*
X139656712Y-104319901D01*
X139589332Y-104301416D01*
X139542643Y-104249437D01*
X139530500Y-104195921D01*
X139530500Y-102929767D01*
X139550185Y-102862728D01*
X139551398Y-102860876D01*
X139595080Y-102795501D01*
X139595080Y-102795500D01*
X139595084Y-102795495D01*
X139651658Y-102658913D01*
X139680500Y-102513918D01*
X139680500Y-102366082D01*
X139680500Y-102366079D01*
X139651659Y-102221092D01*
X139651658Y-102221091D01*
X139651658Y-102221087D01*
X139651656Y-102221082D01*
X139595087Y-102084511D01*
X139595080Y-102084498D01*
X139512951Y-101961584D01*
X139512948Y-101961580D01*
X139408419Y-101857051D01*
X139408415Y-101857048D01*
X139285501Y-101774919D01*
X139285488Y-101774912D01*
X139148917Y-101718343D01*
X139148907Y-101718340D01*
X139003920Y-101689500D01*
X139003918Y-101689500D01*
X138856082Y-101689500D01*
X138856080Y-101689500D01*
X138711092Y-101718340D01*
X138711082Y-101718343D01*
X138602452Y-101763339D01*
X138532983Y-101770808D01*
X138507548Y-101763339D01*
X138398917Y-101718343D01*
X138398907Y-101718340D01*
X138253920Y-101689500D01*
X138253918Y-101689500D01*
X138141229Y-101689500D01*
X138119983Y-101683261D01*
X138097895Y-101681682D01*
X138087111Y-101673609D01*
X138074190Y-101669815D01*
X138059690Y-101653081D01*
X138041962Y-101639810D01*
X138037254Y-101627189D01*
X138028435Y-101617011D01*
X138025283Y-101595093D01*
X138017545Y-101574346D01*
X138020407Y-101561185D01*
X138018491Y-101547853D01*
X138027690Y-101527709D01*
X138032397Y-101506073D01*
X138045665Y-101488347D01*
X138047516Y-101484297D01*
X138053548Y-101477819D01*
X138154548Y-101376819D01*
X138215871Y-101343334D01*
X138242229Y-101340500D01*
X139706082Y-101340500D01*
X140293597Y-101340500D01*
X140317790Y-101342883D01*
X140356081Y-101350500D01*
X140356082Y-101350500D01*
X141053920Y-101350500D01*
X141151462Y-101331096D01*
X141198913Y-101321658D01*
X141335495Y-101265084D01*
X141458416Y-101182951D01*
X141562951Y-101078416D01*
X141645084Y-100955495D01*
X141701658Y-100818913D01*
X141727301Y-100690000D01*
X141730500Y-100673920D01*
X141730500Y-100526079D01*
X141701659Y-100381092D01*
X141701658Y-100381091D01*
X141701658Y-100381087D01*
X141701656Y-100381082D01*
X141645087Y-100244511D01*
X141645080Y-100244498D01*
X141562951Y-100121584D01*
X141562948Y-100121580D01*
X141458419Y-100017051D01*
X141458415Y-100017048D01*
X141335501Y-99934919D01*
X141335488Y-99934912D01*
X141198917Y-99878343D01*
X141198907Y-99878340D01*
X141053920Y-99849500D01*
X141053918Y-99849500D01*
X140556403Y-99849500D01*
X140532210Y-99847117D01*
X140493919Y-99839500D01*
X140493918Y-99839500D01*
X139853918Y-99839500D01*
X137953917Y-99839500D01*
X137806082Y-99839500D01*
X137806080Y-99839500D01*
X137661092Y-99868340D01*
X137661082Y-99868343D01*
X137524511Y-99924912D01*
X137524498Y-99924919D01*
X137401584Y-100007048D01*
X137401580Y-100007051D01*
X132547050Y-104861580D01*
X132547044Y-104861588D01*
X132497812Y-104935268D01*
X132497813Y-104935269D01*
X132464921Y-104984496D01*
X132464914Y-104984508D01*
X132408342Y-105121086D01*
X132408340Y-105121092D01*
X132379500Y-105266079D01*
X132379500Y-115227769D01*
X132359815Y-115294808D01*
X132343181Y-115315450D01*
X127530228Y-120128402D01*
X127468905Y-120161887D01*
X127399213Y-120156903D01*
X127373656Y-120143823D01*
X127285501Y-120084919D01*
X127285488Y-120084912D01*
X127148917Y-120028343D01*
X127148907Y-120028340D01*
X127003920Y-119999500D01*
X127003918Y-119999500D01*
X126856082Y-119999500D01*
X126856080Y-119999500D01*
X126711092Y-120028340D01*
X126711082Y-120028343D01*
X126574506Y-120084914D01*
X126568985Y-120088604D01*
X126538685Y-120098090D01*
X126508943Y-120109184D01*
X126505585Y-120108453D01*
X126502308Y-120109480D01*
X126471693Y-120101080D01*
X126440670Y-120094332D01*
X126436953Y-120091549D01*
X126434928Y-120090994D01*
X126412416Y-120073181D01*
X126338735Y-119999500D01*
X126236819Y-119897583D01*
X126203334Y-119836260D01*
X126200500Y-119809902D01*
X126200500Y-118579767D01*
X126220185Y-118512728D01*
X126221398Y-118510876D01*
X126265080Y-118445501D01*
X126265080Y-118445500D01*
X126265084Y-118445495D01*
X126321658Y-118308913D01*
X126334790Y-118242895D01*
X126350500Y-118163920D01*
X126350500Y-118016079D01*
X126321659Y-117871092D01*
X126321658Y-117871091D01*
X126321658Y-117871087D01*
X126321656Y-117871082D01*
X126265087Y-117734511D01*
X126265080Y-117734498D01*
X126182951Y-117611584D01*
X126182948Y-117611580D01*
X126078419Y-117507051D01*
X126078415Y-117507048D01*
X125955501Y-117424919D01*
X125955488Y-117424912D01*
X125818917Y-117368343D01*
X125818907Y-117368340D01*
X125673920Y-117339500D01*
X125673918Y-117339500D01*
X125526082Y-117339500D01*
X125526080Y-117339500D01*
X125381092Y-117368340D01*
X125381082Y-117368343D01*
X125244511Y-117424912D01*
X125244498Y-117424919D01*
X125121584Y-117507048D01*
X125121580Y-117507051D01*
X125017051Y-117611580D01*
X125017048Y-117611584D01*
X124934919Y-117734498D01*
X124934912Y-117734511D01*
X124878343Y-117871082D01*
X124878340Y-117871092D01*
X124849500Y-118016079D01*
X124849500Y-118016082D01*
X124849500Y-118163918D01*
X124849500Y-118163920D01*
X124849499Y-118163920D01*
X124878340Y-118308907D01*
X124878343Y-118308917D01*
X124934912Y-118445488D01*
X124934919Y-118445501D01*
X124978602Y-118510876D01*
X124999480Y-118577553D01*
X124999500Y-118579767D01*
X124999500Y-120023330D01*
X124999499Y-120023348D01*
X124999499Y-120189054D01*
X124999498Y-120189054D01*
X125040423Y-120341787D01*
X125040425Y-120341790D01*
X125061745Y-120378716D01*
X125063228Y-120381284D01*
X125079518Y-120409500D01*
X125081828Y-120413500D01*
X125098301Y-120481400D01*
X125075449Y-120547427D01*
X125020527Y-120590618D01*
X124974441Y-120599500D01*
X124670943Y-120599500D01*
X124518214Y-120640423D01*
X124485208Y-120659480D01*
X124485207Y-120659480D01*
X124381287Y-120719477D01*
X124381282Y-120719481D01*
X124269478Y-120831286D01*
X124071699Y-121029064D01*
X124010376Y-121062549D01*
X124008210Y-121063000D01*
X123931092Y-121078340D01*
X123931084Y-121078342D01*
X123794511Y-121134912D01*
X123794498Y-121134919D01*
X123671584Y-121217048D01*
X123671580Y-121217051D01*
X123567051Y-121321580D01*
X123567048Y-121321584D01*
X123484919Y-121444498D01*
X123484912Y-121444511D01*
X123428343Y-121581082D01*
X123428340Y-121581092D01*
X123399500Y-121726079D01*
X123399500Y-121726082D01*
X123399500Y-121873918D01*
X123399500Y-121873920D01*
X123399499Y-121873920D01*
X122590500Y-121873920D01*
X122590500Y-121726079D01*
X122561659Y-121581092D01*
X122561658Y-121581091D01*
X122561658Y-121581087D01*
X122555443Y-121566082D01*
X122505087Y-121444511D01*
X122505080Y-121444498D01*
X122422951Y-121321584D01*
X122422948Y-121321580D01*
X122318419Y-121217051D01*
X122318415Y-121217048D01*
X122195501Y-121134919D01*
X122195488Y-121134912D01*
X122058917Y-121078343D01*
X122058907Y-121078340D01*
X121913920Y-121049500D01*
X121913918Y-121049500D01*
X121766082Y-121049500D01*
X121766080Y-121049500D01*
X121616624Y-121079229D01*
X121568241Y-121079229D01*
X121443921Y-121054500D01*
X121443918Y-121054500D01*
X121296082Y-121054500D01*
X121296079Y-121054500D01*
X121149191Y-121083718D01*
X121145990Y-121083826D01*
X121144422Y-121084571D01*
X121131530Y-121084318D01*
X121109131Y-121085081D01*
X121100387Y-121083952D01*
X121098913Y-121083342D01*
X120953918Y-121054500D01*
X120872133Y-121054500D01*
X120864228Y-121053480D01*
X120839242Y-121042503D01*
X120813058Y-121034815D01*
X120802651Y-121026428D01*
X120800259Y-121025378D01*
X120799009Y-121023494D01*
X120792416Y-121018181D01*
X120552590Y-120778355D01*
X120552588Y-120778352D01*
X120433716Y-120659480D01*
X120433709Y-120659475D01*
X120340087Y-120605423D01*
X120340085Y-120605422D01*
X120296790Y-120580425D01*
X120296789Y-120580424D01*
X120284190Y-120577048D01*
X120144057Y-120539499D01*
X119985943Y-120539499D01*
X119978347Y-120539499D01*
X119978331Y-120539500D01*
X115792351Y-120539500D01*
X115725312Y-120519815D01*
X115723544Y-120518658D01*
X115695495Y-120499916D01*
X115695491Y-120499914D01*
X115695489Y-120499913D01*
X115558917Y-120443343D01*
X115558907Y-120443340D01*
X115413920Y-120414500D01*
X115413918Y-120414500D01*
X115266082Y-120414500D01*
X115266080Y-120414500D01*
X115124192Y-120442724D01*
X115075808Y-120442724D01*
X114933920Y-120414500D01*
X114933918Y-120414500D01*
X114786082Y-120414500D01*
X114786079Y-120414500D01*
X114656033Y-120440368D01*
X114605216Y-120437872D01*
X114604887Y-120439530D01*
X114453920Y-120409500D01*
X114453918Y-120409500D01*
X114306082Y-120409500D01*
X114306080Y-120409500D01*
X114161092Y-120438340D01*
X114161082Y-120438343D01*
X114024511Y-120494912D01*
X114024498Y-120494919D01*
X113901584Y-120577048D01*
X113901580Y-120577051D01*
X113797051Y-120681580D01*
X113797048Y-120681584D01*
X113714919Y-120804498D01*
X113714912Y-120804511D01*
X113658343Y-120941082D01*
X113658340Y-120941092D01*
X113629500Y-121086079D01*
X113629500Y-121086082D01*
X113629500Y-121233918D01*
X113629500Y-121233920D01*
X113629499Y-121233920D01*
X104180500Y-121233920D01*
X104180500Y-118814500D01*
X104200185Y-118747461D01*
X104252989Y-118701706D01*
X104304500Y-118690500D01*
X108267528Y-118690500D01*
X108267532Y-118690500D01*
X108439938Y-118660101D01*
X108604445Y-118600225D01*
X108756055Y-118512692D01*
X108890163Y-118400163D01*
X109002692Y-118266055D01*
X109090225Y-118114445D01*
X109150101Y-117949938D01*
X109180500Y-117777532D01*
X109180500Y-117690000D01*
X109180500Y-117624108D01*
X109180500Y-110738920D01*
X121004499Y-110738920D01*
X121033340Y-110883907D01*
X121033343Y-110883917D01*
X121089912Y-111020488D01*
X121089919Y-111020501D01*
X121172048Y-111143415D01*
X121172051Y-111143419D01*
X121276580Y-111247948D01*
X121276584Y-111247951D01*
X121399498Y-111330080D01*
X121399511Y-111330087D01*
X121536082Y-111386656D01*
X121536087Y-111386658D01*
X121613212Y-111401999D01*
X121675119Y-111434382D01*
X121676699Y-111435934D01*
X127095139Y-116854374D01*
X127095149Y-116854385D01*
X127099479Y-116858715D01*
X127099480Y-116858716D01*
X127211284Y-116970520D01*
X127298095Y-117020639D01*
X127298097Y-117020641D01*
X127336151Y-117042611D01*
X127348215Y-117049577D01*
X127500943Y-117090501D01*
X127500946Y-117090501D01*
X127666653Y-117090501D01*
X127666669Y-117090500D01*
X128940233Y-117090500D01*
X129007272Y-117110185D01*
X129009124Y-117111398D01*
X129074498Y-117155080D01*
X129074511Y-117155087D01*
X129211082Y-117211656D01*
X129211087Y-117211658D01*
X129211091Y-117211658D01*
X129211092Y-117211659D01*
X129356079Y-117240500D01*
X129356082Y-117240500D01*
X129503920Y-117240500D01*
X129615321Y-117218340D01*
X129648913Y-117211658D01*
X129785495Y-117155084D01*
X129908416Y-117072951D01*
X130012951Y-116968416D01*
X130095084Y-116845495D01*
X130151658Y-116708913D01*
X130161096Y-116661462D01*
X130180500Y-116563920D01*
X130180500Y-116416079D01*
X130151659Y-116271092D01*
X130151658Y-116271091D01*
X130151658Y-116271087D01*
X130151656Y-116271082D01*
X130095087Y-116134511D01*
X130095080Y-116134498D01*
X130012951Y-116011584D01*
X130012948Y-116011580D01*
X129908419Y-115907051D01*
X129908415Y-115907048D01*
X129785501Y-115824919D01*
X129785488Y-115824912D01*
X129648917Y-115768343D01*
X129648907Y-115768340D01*
X129503920Y-115739500D01*
X129503918Y-115739500D01*
X129356082Y-115739500D01*
X129356080Y-115739500D01*
X129211092Y-115768340D01*
X129211082Y-115768343D01*
X129074511Y-115824912D01*
X129074498Y-115824919D01*
X129009124Y-115868602D01*
X128942447Y-115889480D01*
X128940233Y-115889500D01*
X127880097Y-115889500D01*
X127813058Y-115869815D01*
X127792416Y-115853181D01*
X127347692Y-115408457D01*
X127337593Y-115389962D01*
X127323513Y-115374285D01*
X127321185Y-115359913D01*
X127314207Y-115347134D01*
X127315710Y-115326114D01*
X127312341Y-115305315D01*
X127318152Y-115291966D01*
X127319191Y-115277442D01*
X127331820Y-115260571D01*
X127340231Y-115241253D01*
X127358701Y-115224663D01*
X127361063Y-115221509D01*
X127366461Y-115217688D01*
X127375883Y-115211392D01*
X127442562Y-115190520D01*
X127444767Y-115190500D01*
X130690233Y-115190500D01*
X130757272Y-115210185D01*
X130759124Y-115211398D01*
X130824498Y-115255080D01*
X130824511Y-115255087D01*
X130961082Y-115311656D01*
X130961087Y-115311658D01*
X130961091Y-115311658D01*
X130961092Y-115311659D01*
X131106079Y-115340500D01*
X131106082Y-115340500D01*
X131253920Y-115340500D01*
X131351462Y-115321096D01*
X131398913Y-115311658D01*
X131535495Y-115255084D01*
X131658416Y-115172951D01*
X131762951Y-115068416D01*
X131845084Y-114945495D01*
X131901658Y-114808913D01*
X131930500Y-114663918D01*
X131930500Y-114516082D01*
X131930500Y-114516079D01*
X131901659Y-114371092D01*
X131901658Y-114371091D01*
X131901658Y-114371087D01*
X131879111Y-114316653D01*
X131845087Y-114234511D01*
X131845080Y-114234498D01*
X131762951Y-114111584D01*
X131762948Y-114111580D01*
X131658419Y-114007051D01*
X131658415Y-114007048D01*
X131535501Y-113924919D01*
X131535488Y-113924912D01*
X131398917Y-113868343D01*
X131398907Y-113868340D01*
X131253920Y-113839500D01*
X131253918Y-113839500D01*
X131106082Y-113839500D01*
X131106080Y-113839500D01*
X130961092Y-113868340D01*
X130961082Y-113868343D01*
X130824511Y-113924912D01*
X130824498Y-113924919D01*
X130759124Y-113968602D01*
X130692447Y-113989480D01*
X130690233Y-113989500D01*
X127444767Y-113989500D01*
X127377728Y-113969815D01*
X127375876Y-113968602D01*
X127310501Y-113924919D01*
X127310488Y-113924912D01*
X127173917Y-113868343D01*
X127173907Y-113868340D01*
X127028920Y-113839500D01*
X127028918Y-113839500D01*
X126881082Y-113839500D01*
X126881080Y-113839500D01*
X126736092Y-113868340D01*
X126736082Y-113868343D01*
X126599511Y-113924912D01*
X126599498Y-113924919D01*
X126476584Y-114007048D01*
X126476580Y-114007051D01*
X126372051Y-114111580D01*
X126372048Y-114111584D01*
X126327325Y-114178517D01*
X126273712Y-114223322D01*
X126204387Y-114232029D01*
X126141360Y-114201874D01*
X126136542Y-114197307D01*
X122525934Y-110586699D01*
X122492449Y-110525376D01*
X122492025Y-110523346D01*
X122476658Y-110446087D01*
X122476656Y-110446082D01*
X122420087Y-110309511D01*
X122420080Y-110309498D01*
X122337951Y-110186584D01*
X122337948Y-110186580D01*
X122233419Y-110082051D01*
X122233415Y-110082048D01*
X122110501Y-109999919D01*
X122110488Y-109999912D01*
X121973917Y-109943343D01*
X121973907Y-109943340D01*
X121828920Y-109914500D01*
X121828918Y-109914500D01*
X121681082Y-109914500D01*
X121681080Y-109914500D01*
X121536092Y-109943340D01*
X121536082Y-109943343D01*
X121399511Y-109999912D01*
X121399498Y-109999919D01*
X121276584Y-110082048D01*
X121276580Y-110082051D01*
X121172051Y-110186580D01*
X121172048Y-110186584D01*
X121089919Y-110309498D01*
X121089912Y-110309511D01*
X121033343Y-110446082D01*
X121033340Y-110446092D01*
X121004500Y-110591079D01*
X121004500Y-110591082D01*
X121004500Y-110738918D01*
X121004500Y-110738920D01*
X121004499Y-110738920D01*
X109180500Y-110738920D01*
X109180500Y-101624108D01*
X109180500Y-101602468D01*
X109150101Y-101430062D01*
X109090225Y-101265555D01*
X109002692Y-101113945D01*
X109002691Y-101113943D01*
X109002690Y-101113942D01*
X108890163Y-100979836D01*
X108756057Y-100867309D01*
X108604446Y-100779775D01*
X108439937Y-100719898D01*
X108267534Y-100689500D01*
X108267532Y-100689500D01*
X108245892Y-100689500D01*
X104304500Y-100689500D01*
X104237461Y-100669815D01*
X104191706Y-100617011D01*
X104180500Y-100565500D01*
X104180500Y-92921153D01*
X109299500Y-92921153D01*
X109299500Y-93078846D01*
X109330261Y-93233489D01*
X109330264Y-93233501D01*
X109390602Y-93379172D01*
X109390609Y-93379185D01*
X109478210Y-93510288D01*
X109478213Y-93510292D01*
X109589707Y-93621786D01*
X109589711Y-93621789D01*
X109720814Y-93709390D01*
X109720827Y-93709397D01*
X109866498Y-93769735D01*
X109866503Y-93769737D01*
X109931147Y-93782595D01*
X110021849Y-93800638D01*
X110083760Y-93833023D01*
X110085339Y-93834574D01*
X111740256Y-95489491D01*
X111773741Y-95550814D01*
X111774192Y-95552980D01*
X111780261Y-95583491D01*
X111780263Y-95583499D01*
X111840602Y-95729172D01*
X111840609Y-95729185D01*
X111928210Y-95860288D01*
X111928213Y-95860292D01*
X112005740Y-95937819D01*
X112039225Y-95999142D01*
X112034241Y-96068834D01*
X111992369Y-96124767D01*
X111926905Y-96149184D01*
X111918059Y-96149500D01*
X110679766Y-96149500D01*
X110612727Y-96129815D01*
X110610875Y-96128602D01*
X110479185Y-96040609D01*
X110479172Y-96040602D01*
X110333501Y-95980264D01*
X110333489Y-95980261D01*
X110178845Y-95949500D01*
X110178842Y-95949500D01*
X110021158Y-95949500D01*
X110021155Y-95949500D01*
X109866510Y-95980261D01*
X109866498Y-95980264D01*
X109720827Y-96040602D01*
X109720814Y-96040609D01*
X109589711Y-96128210D01*
X109589707Y-96128213D01*
X109478213Y-96239707D01*
X109478210Y-96239711D01*
X109390609Y-96370814D01*
X109390602Y-96370827D01*
X109330264Y-96516498D01*
X109330261Y-96516510D01*
X109299500Y-96671153D01*
X109299500Y-96828846D01*
X109330261Y-96983489D01*
X109330264Y-96983501D01*
X109390602Y-97129172D01*
X109390609Y-97129185D01*
X109478210Y-97260288D01*
X109478213Y-97260292D01*
X109589707Y-97371786D01*
X109589711Y-97371789D01*
X109720814Y-97459390D01*
X109720827Y-97459397D01*
X109866498Y-97519735D01*
X109866503Y-97519737D01*
X110021153Y-97550499D01*
X110021156Y-97550500D01*
X110021158Y-97550500D01*
X110178844Y-97550500D01*
X110178845Y-97550499D01*
X110333497Y-97519737D01*
X110479179Y-97459394D01*
X110479185Y-97459390D01*
X110610875Y-97371398D01*
X110677553Y-97350520D01*
X110679766Y-97350500D01*
X111970234Y-97350500D01*
X112037273Y-97370185D01*
X112039125Y-97371398D01*
X112170814Y-97459390D01*
X112170827Y-97459397D01*
X112316498Y-97519735D01*
X112316503Y-97519737D01*
X112471153Y-97550499D01*
X112471156Y-97550500D01*
X112471158Y-97550500D01*
X112628844Y-97550500D01*
X112628845Y-97550499D01*
X112783497Y-97519737D01*
X112929179Y-97459394D01*
X113060289Y-97371789D01*
X113171789Y-97260289D01*
X113259394Y-97129179D01*
X113319737Y-96983497D01*
X113350500Y-96828842D01*
X113350500Y-96671158D01*
X113350500Y-96671155D01*
X113350499Y-96671153D01*
X113319738Y-96516510D01*
X113319737Y-96516503D01*
X113319735Y-96516498D01*
X113259397Y-96370827D01*
X113259390Y-96370814D01*
X113171789Y-96239711D01*
X113171786Y-96239707D01*
X113069760Y-96137681D01*
X113036275Y-96076358D01*
X113041259Y-96006666D01*
X113069760Y-95962319D01*
X113171786Y-95860292D01*
X113171789Y-95860289D01*
X113259394Y-95729179D01*
X113319737Y-95583497D01*
X113350500Y-95428842D01*
X113350500Y-95271158D01*
X113350500Y-95271155D01*
X113350499Y-95271153D01*
X113319738Y-95116510D01*
X113319737Y-95116503D01*
X113260349Y-94973126D01*
X113259397Y-94970827D01*
X113259390Y-94970814D01*
X113171789Y-94839711D01*
X113171786Y-94839707D01*
X113060292Y-94728213D01*
X113060288Y-94728210D01*
X112929185Y-94640609D01*
X112929172Y-94640602D01*
X112783501Y-94580264D01*
X112783489Y-94580261D01*
X112628845Y-94549500D01*
X112628842Y-94549500D01*
X112550097Y-94549500D01*
X112483058Y-94529815D01*
X112462416Y-94513181D01*
X110934574Y-92985339D01*
X110901089Y-92924016D01*
X110900638Y-92921849D01*
X110871128Y-92773497D01*
X110869737Y-92766503D01*
X110869735Y-92766498D01*
X110809397Y-92620827D01*
X110809390Y-92620814D01*
X110721789Y-92489711D01*
X110721786Y-92489707D01*
X110610292Y-92378213D01*
X110610288Y-92378210D01*
X110479185Y-92290609D01*
X110479172Y-92290602D01*
X110333501Y-92230264D01*
X110333489Y-92230261D01*
X110178845Y-92199500D01*
X110178842Y-92199500D01*
X110021158Y-92199500D01*
X110021155Y-92199500D01*
X109866510Y-92230261D01*
X109866498Y-92230264D01*
X109720827Y-92290602D01*
X109720814Y-92290609D01*
X109589711Y-92378210D01*
X109589707Y-92378213D01*
X109478213Y-92489707D01*
X109478210Y-92489711D01*
X109390609Y-92620814D01*
X109390602Y-92620827D01*
X109330264Y-92766498D01*
X109330261Y-92766510D01*
X109299500Y-92921153D01*
X104180500Y-92921153D01*
X104180500Y-90963920D01*
X112329499Y-90963920D01*
X112358340Y-91108907D01*
X112358343Y-91108917D01*
X112414912Y-91245488D01*
X112414919Y-91245501D01*
X112497048Y-91368415D01*
X112497051Y-91368419D01*
X112601580Y-91472948D01*
X112601584Y-91472951D01*
X112724498Y-91555080D01*
X112724511Y-91555087D01*
X112861082Y-91611656D01*
X112861087Y-91611658D01*
X112861091Y-91611658D01*
X112861092Y-91611659D01*
X113006079Y-91640500D01*
X113006082Y-91640500D01*
X113153920Y-91640500D01*
X113251462Y-91621096D01*
X113298913Y-91611658D01*
X113435495Y-91555084D01*
X113558416Y-91472951D01*
X113662951Y-91368416D01*
X113737556Y-91256760D01*
X113771760Y-91222556D01*
X113883416Y-91147951D01*
X113987951Y-91043416D01*
X114070084Y-90920495D01*
X114070085Y-90920491D01*
X114072566Y-90916779D01*
X114106779Y-90882566D01*
X114110491Y-90880085D01*
X114110495Y-90880084D01*
X114233416Y-90797951D01*
X114337951Y-90693416D01*
X114420084Y-90570495D01*
X114476658Y-90433913D01*
X114476658Y-90433912D01*
X114478989Y-90428285D01*
X114479852Y-90428642D01*
X114507600Y-90382344D01*
X115463126Y-89426819D01*
X115524449Y-89393334D01*
X115550807Y-89390500D01*
X135466160Y-89390500D01*
X135518520Y-89403614D01*
X135518878Y-89402753D01*
X135524504Y-89405083D01*
X135524505Y-89405084D01*
X135661087Y-89461658D01*
X135661091Y-89461658D01*
X135661092Y-89461659D01*
X135806079Y-89490500D01*
X135806082Y-89490500D01*
X135953920Y-89490500D01*
X136051462Y-89471096D01*
X136098913Y-89461658D01*
X136235495Y-89405084D01*
X136235496Y-89405083D01*
X136241122Y-89402753D01*
X136241479Y-89403614D01*
X136293840Y-89390500D01*
X147565931Y-89390500D01*
X147897060Y-89390500D01*
X147964099Y-89410185D01*
X147984742Y-89426820D01*
X148019707Y-89461786D01*
X148019711Y-89461789D01*
X148150814Y-89549390D01*
X148150827Y-89549397D01*
X148296498Y-89609735D01*
X148296503Y-89609737D01*
X148451153Y-89640499D01*
X148451156Y-89640500D01*
X148451158Y-89640500D01*
X148608844Y-89640500D01*
X148608845Y-89640499D01*
X148763497Y-89609737D01*
X148909179Y-89549394D01*
X149040289Y-89461789D01*
X149151789Y-89350289D01*
X149239394Y-89219179D01*
X149299737Y-89073497D01*
X149330500Y-88918842D01*
X149330500Y-88761158D01*
X149330500Y-88761155D01*
X149330499Y-88761153D01*
X149299738Y-88606510D01*
X149299737Y-88606503D01*
X149299735Y-88606498D01*
X149239397Y-88460827D01*
X149239390Y-88460814D01*
X149151789Y-88329711D01*
X149151786Y-88329707D01*
X149040292Y-88218213D01*
X149040288Y-88218210D01*
X148909185Y-88130609D01*
X148909172Y-88130602D01*
X148763501Y-88070264D01*
X148763489Y-88070261D01*
X148608845Y-88039500D01*
X148608842Y-88039500D01*
X148451158Y-88039500D01*
X148451155Y-88039500D01*
X148296511Y-88070260D01*
X148296506Y-88070262D01*
X148296504Y-88070262D01*
X148296503Y-88070263D01*
X148272844Y-88080062D01*
X148225396Y-88089500D01*
X136293840Y-88089500D01*
X136241479Y-88076385D01*
X136241122Y-88077247D01*
X136235495Y-88074916D01*
X136098913Y-88018342D01*
X136098907Y-88018340D01*
X135953920Y-87989500D01*
X135953918Y-87989500D01*
X135806082Y-87989500D01*
X135806080Y-87989500D01*
X135661092Y-88018340D01*
X135661086Y-88018342D01*
X135610007Y-88039500D01*
X135535739Y-88070263D01*
X135518878Y-88077247D01*
X135518520Y-88076385D01*
X135466160Y-88089500D01*
X115165929Y-88089500D01*
X115040261Y-88114497D01*
X115040255Y-88114499D01*
X114921875Y-88163533D01*
X114921866Y-88163538D01*
X114815331Y-88234723D01*
X114815327Y-88234726D01*
X113587654Y-89462398D01*
X113541357Y-89490149D01*
X113541714Y-89491011D01*
X113399507Y-89549914D01*
X113399498Y-89549919D01*
X113276584Y-89632048D01*
X113276580Y-89632051D01*
X113172051Y-89736580D01*
X113172048Y-89736584D01*
X113087432Y-89863221D01*
X113053221Y-89897432D01*
X112926584Y-89982048D01*
X112926580Y-89982051D01*
X112822048Y-90086583D01*
X112747446Y-90198235D01*
X112713235Y-90232446D01*
X112601583Y-90307048D01*
X112497051Y-90411580D01*
X112497048Y-90411584D01*
X112414919Y-90534498D01*
X112414912Y-90534511D01*
X112358343Y-90671082D01*
X112358340Y-90671092D01*
X112329500Y-90816079D01*
X112329500Y-90816082D01*
X112329500Y-90963918D01*
X112329500Y-90963920D01*
X112329499Y-90963920D01*
X104180500Y-90963920D01*
X104180500Y-86265916D01*
X104200185Y-86198877D01*
X104252989Y-86153122D01*
X104322147Y-86143178D01*
X104385703Y-86172203D01*
X104416220Y-86212115D01*
X104418260Y-86216352D01*
X104418264Y-86216358D01*
X104606527Y-86515976D01*
X104827153Y-86792633D01*
X105077367Y-87042847D01*
X105354024Y-87263473D01*
X105653642Y-87451736D01*
X105972456Y-87605269D01*
X106306456Y-87722140D01*
X106651440Y-87800881D01*
X106651449Y-87800882D01*
X106651454Y-87800883D01*
X106885861Y-87827293D01*
X107003066Y-87840499D01*
X107003069Y-87840500D01*
X107003072Y-87840500D01*
X107356931Y-87840500D01*
X107356932Y-87840499D01*
X107536635Y-87820252D01*
X107708545Y-87800883D01*
X107708548Y-87800882D01*
X107708560Y-87800881D01*
X108053544Y-87722140D01*
X108387544Y-87605269D01*
X108706358Y-87451736D01*
X109005976Y-87263473D01*
X109282633Y-87042847D01*
X109532847Y-86792633D01*
X109753473Y-86515976D01*
X109941736Y-86216358D01*
X110095269Y-85897544D01*
X110212140Y-85563544D01*
X110290881Y-85218560D01*
X110290913Y-85218282D01*
X110310252Y-85046635D01*
X110330500Y-84866928D01*
X110330500Y-84513072D01*
X110290881Y-84161440D01*
X110212140Y-83816456D01*
X110095269Y-83482456D01*
X110074824Y-83440001D01*
X110047202Y-83382642D01*
X110023639Y-83333713D01*
X110729500Y-83333713D01*
X110729500Y-83546287D01*
X110762754Y-83756243D01*
X110782318Y-83816456D01*
X110828444Y-83958414D01*
X110924951Y-84147820D01*
X111049890Y-84319786D01*
X111163430Y-84433326D01*
X111196915Y-84494649D01*
X111191931Y-84564341D01*
X111150059Y-84620274D01*
X111119083Y-84637189D01*
X110987669Y-84686203D01*
X110987664Y-84686206D01*
X110872455Y-84772452D01*
X110872452Y-84772455D01*
X110786206Y-84887664D01*
X110786202Y-84887671D01*
X110735908Y-85022517D01*
X110729501Y-85082116D01*
X110729500Y-85082135D01*
X110729500Y-86877870D01*
X110729501Y-86877876D01*
X110735908Y-86937483D01*
X110786202Y-87072328D01*
X110786206Y-87072335D01*
X110872452Y-87187544D01*
X110872455Y-87187547D01*
X110987664Y-87273793D01*
X110987671Y-87273797D01*
X111122517Y-87324091D01*
X111122516Y-87324091D01*
X111129444Y-87324835D01*
X111182127Y-87330500D01*
X112977872Y-87330499D01*
X113037483Y-87324091D01*
X113172331Y-87273796D01*
X113287546Y-87187546D01*
X113373796Y-87072331D01*
X113422810Y-86940916D01*
X113464681Y-86884984D01*
X113530145Y-86860566D01*
X113598418Y-86875417D01*
X113626673Y-86896569D01*
X113740213Y-87010109D01*
X113912179Y-87135048D01*
X113912181Y-87135049D01*
X113912184Y-87135051D01*
X114101588Y-87231557D01*
X114303757Y-87297246D01*
X114513713Y-87330500D01*
X114513714Y-87330500D01*
X114726286Y-87330500D01*
X114726287Y-87330500D01*
X114936243Y-87297246D01*
X115138412Y-87231557D01*
X115327816Y-87135051D01*
X115414138Y-87072335D01*
X115499786Y-87010109D01*
X115499788Y-87010106D01*
X115499792Y-87010104D01*
X115650104Y-86859792D01*
X115650106Y-86859788D01*
X115650109Y-86859786D01*
X115775048Y-86687820D01*
X115775047Y-86687820D01*
X115775051Y-86687816D01*
X115779514Y-86679054D01*
X115827488Y-86628259D01*
X115895308Y-86611463D01*
X115961444Y-86633999D01*
X116000486Y-86679056D01*
X116004951Y-86687820D01*
X116129890Y-86859786D01*
X116280213Y-87010109D01*
X116452179Y-87135048D01*
X116452181Y-87135049D01*
X116452184Y-87135051D01*
X116641588Y-87231557D01*
X116843757Y-87297246D01*
X117053713Y-87330500D01*
X117053714Y-87330500D01*
X117266286Y-87330500D01*
X117266287Y-87330500D01*
X117476243Y-87297246D01*
X117678412Y-87231557D01*
X117867816Y-87135051D01*
X117954138Y-87072335D01*
X118039786Y-87010109D01*
X118039788Y-87010106D01*
X118039792Y-87010104D01*
X118190104Y-86859792D01*
X118190106Y-86859788D01*
X118190109Y-86859786D01*
X118315048Y-86687820D01*
X118315047Y-86687820D01*
X118315051Y-86687816D01*
X118319514Y-86679054D01*
X118367488Y-86628259D01*
X118435308Y-86611463D01*
X118501444Y-86633999D01*
X118540486Y-86679056D01*
X118544951Y-86687820D01*
X118669890Y-86859786D01*
X118820213Y-87010109D01*
X118992179Y-87135048D01*
X118992181Y-87135049D01*
X118992184Y-87135051D01*
X119181588Y-87231557D01*
X119383757Y-87297246D01*
X119593713Y-87330500D01*
X119593714Y-87330500D01*
X119806286Y-87330500D01*
X119806287Y-87330500D01*
X120016243Y-87297246D01*
X120218412Y-87231557D01*
X120407816Y-87135051D01*
X120494138Y-87072335D01*
X120579786Y-87010109D01*
X120579788Y-87010106D01*
X120579792Y-87010104D01*
X120730104Y-86859792D01*
X120730106Y-86859788D01*
X120730109Y-86859786D01*
X120815890Y-86741717D01*
X120855051Y-86687816D01*
X120859793Y-86678508D01*
X120907763Y-86627711D01*
X120975583Y-86610911D01*
X121041719Y-86633445D01*
X121080763Y-86678500D01*
X121085373Y-86687547D01*
X121124728Y-86741716D01*
X121757037Y-86109408D01*
X121774075Y-86172993D01*
X121839901Y-86287007D01*
X121932993Y-86380099D01*
X122047007Y-86445925D01*
X122110590Y-86462962D01*
X121478282Y-87095269D01*
X121478282Y-87095270D01*
X121532449Y-87134624D01*
X121721782Y-87231095D01*
X121923870Y-87296757D01*
X122133754Y-87330000D01*
X122346246Y-87330000D01*
X122556127Y-87296757D01*
X122556130Y-87296757D01*
X122758217Y-87231095D01*
X122947554Y-87134622D01*
X123001716Y-87095270D01*
X123001717Y-87095270D01*
X122369408Y-86462962D01*
X122432993Y-86445925D01*
X122547007Y-86380099D01*
X122640099Y-86287007D01*
X122705925Y-86172993D01*
X122722962Y-86109408D01*
X123355270Y-86741717D01*
X123355270Y-86741716D01*
X123394622Y-86687555D01*
X123399232Y-86678507D01*
X123447205Y-86627709D01*
X123515025Y-86610912D01*
X123581161Y-86633447D01*
X123620204Y-86678504D01*
X123624949Y-86687817D01*
X123749890Y-86859786D01*
X123900213Y-87010109D01*
X124072179Y-87135048D01*
X124072181Y-87135049D01*
X124072184Y-87135051D01*
X124261588Y-87231557D01*
X124463757Y-87297246D01*
X124673713Y-87330500D01*
X124673714Y-87330500D01*
X124886286Y-87330500D01*
X124886287Y-87330500D01*
X125096243Y-87297246D01*
X125298412Y-87231557D01*
X125487816Y-87135051D01*
X125574138Y-87072335D01*
X125659786Y-87010109D01*
X125659788Y-87010106D01*
X125659792Y-87010104D01*
X125810104Y-86859792D01*
X125810106Y-86859788D01*
X125810109Y-86859786D01*
X125935048Y-86687820D01*
X125935047Y-86687820D01*
X125935051Y-86687816D01*
X125939514Y-86679054D01*
X125987488Y-86628259D01*
X126055308Y-86611463D01*
X126121444Y-86633999D01*
X126160486Y-86679056D01*
X126164951Y-86687820D01*
X126289890Y-86859786D01*
X126440213Y-87010109D01*
X126612179Y-87135048D01*
X126612181Y-87135049D01*
X126612184Y-87135051D01*
X126801588Y-87231557D01*
X127003757Y-87297246D01*
X127213713Y-87330500D01*
X127213714Y-87330500D01*
X127426286Y-87330500D01*
X127426287Y-87330500D01*
X127636243Y-87297246D01*
X127838412Y-87231557D01*
X128027816Y-87135051D01*
X128114138Y-87072335D01*
X128199786Y-87010109D01*
X128199788Y-87010106D01*
X128199792Y-87010104D01*
X128350104Y-86859792D01*
X128350106Y-86859788D01*
X128350109Y-86859786D01*
X128475048Y-86687820D01*
X128475047Y-86687820D01*
X128475051Y-86687816D01*
X128479514Y-86679054D01*
X128527488Y-86628259D01*
X128595308Y-86611463D01*
X128661444Y-86633999D01*
X128700486Y-86679056D01*
X128704951Y-86687820D01*
X128829890Y-86859786D01*
X128980213Y-87010109D01*
X129152179Y-87135048D01*
X129152181Y-87135049D01*
X129152184Y-87135051D01*
X129341588Y-87231557D01*
X129543757Y-87297246D01*
X129753713Y-87330500D01*
X129753714Y-87330500D01*
X129966286Y-87330500D01*
X129966287Y-87330500D01*
X130176243Y-87297246D01*
X130378412Y-87231557D01*
X130567816Y-87135051D01*
X130654138Y-87072335D01*
X130739786Y-87010109D01*
X130739788Y-87010106D01*
X130739792Y-87010104D01*
X130890104Y-86859792D01*
X130890106Y-86859788D01*
X130890109Y-86859786D01*
X131015048Y-86687820D01*
X131015047Y-86687820D01*
X131015051Y-86687816D01*
X131019514Y-86679054D01*
X131067488Y-86628259D01*
X131135308Y-86611463D01*
X131201444Y-86633999D01*
X131240486Y-86679056D01*
X131244951Y-86687820D01*
X131369890Y-86859786D01*
X131520213Y-87010109D01*
X131692179Y-87135048D01*
X131692181Y-87135049D01*
X131692184Y-87135051D01*
X131881588Y-87231557D01*
X132083757Y-87297246D01*
X132293713Y-87330500D01*
X132293714Y-87330500D01*
X132506286Y-87330500D01*
X132506287Y-87330500D01*
X132716243Y-87297246D01*
X132918412Y-87231557D01*
X133107816Y-87135051D01*
X133194138Y-87072335D01*
X133279786Y-87010109D01*
X133279788Y-87010106D01*
X133279792Y-87010104D01*
X133430104Y-86859792D01*
X133430106Y-86859788D01*
X133430109Y-86859786D01*
X133555048Y-86687820D01*
X133555047Y-86687820D01*
X133555051Y-86687816D01*
X133559514Y-86679054D01*
X133607488Y-86628259D01*
X133675308Y-86611463D01*
X133741444Y-86633999D01*
X133780486Y-86679056D01*
X133784951Y-86687820D01*
X133909890Y-86859786D01*
X134060213Y-87010109D01*
X134232179Y-87135048D01*
X134232181Y-87135049D01*
X134232184Y-87135051D01*
X134421588Y-87231557D01*
X134623757Y-87297246D01*
X134833713Y-87330500D01*
X134833714Y-87330500D01*
X135046286Y-87330500D01*
X135046287Y-87330500D01*
X135256243Y-87297246D01*
X135458412Y-87231557D01*
X135647816Y-87135051D01*
X135734138Y-87072335D01*
X135819786Y-87010109D01*
X135819788Y-87010106D01*
X135819792Y-87010104D01*
X135970104Y-86859792D01*
X135970106Y-86859788D01*
X135970109Y-86859786D01*
X136095048Y-86687820D01*
X136095047Y-86687820D01*
X136095051Y-86687816D01*
X136099514Y-86679054D01*
X136147488Y-86628259D01*
X136215308Y-86611463D01*
X136281444Y-86633999D01*
X136320486Y-86679056D01*
X136324951Y-86687820D01*
X136449890Y-86859786D01*
X136600213Y-87010109D01*
X136772179Y-87135048D01*
X136772181Y-87135049D01*
X136772184Y-87135051D01*
X136961588Y-87231557D01*
X137163757Y-87297246D01*
X137373713Y-87330500D01*
X137373714Y-87330500D01*
X137586286Y-87330500D01*
X137586287Y-87330500D01*
X137796243Y-87297246D01*
X137998412Y-87231557D01*
X138187816Y-87135051D01*
X138274138Y-87072335D01*
X138359786Y-87010109D01*
X138359788Y-87010106D01*
X138359792Y-87010104D01*
X138510104Y-86859792D01*
X138510106Y-86859788D01*
X138510109Y-86859786D01*
X138635048Y-86687820D01*
X138635047Y-86687820D01*
X138635051Y-86687816D01*
X138639514Y-86679054D01*
X138687488Y-86628259D01*
X138755308Y-86611463D01*
X138821444Y-86633999D01*
X138860486Y-86679056D01*
X138864951Y-86687820D01*
X138989890Y-86859786D01*
X139140213Y-87010109D01*
X139312179Y-87135048D01*
X139312181Y-87135049D01*
X139312184Y-87135051D01*
X139501588Y-87231557D01*
X139703757Y-87297246D01*
X139913713Y-87330500D01*
X139913714Y-87330500D01*
X140126286Y-87330500D01*
X140126287Y-87330500D01*
X140336243Y-87297246D01*
X140538412Y-87231557D01*
X140727816Y-87135051D01*
X140814138Y-87072335D01*
X140899786Y-87010109D01*
X140899788Y-87010106D01*
X140899792Y-87010104D01*
X141050104Y-86859792D01*
X141050106Y-86859788D01*
X141050109Y-86859786D01*
X141135890Y-86741717D01*
X141175051Y-86687816D01*
X141179793Y-86678508D01*
X141227763Y-86627711D01*
X141295583Y-86610911D01*
X141361719Y-86633445D01*
X141400763Y-86678500D01*
X141405373Y-86687547D01*
X141444728Y-86741716D01*
X142077037Y-86109408D01*
X142094075Y-86172993D01*
X142159901Y-86287007D01*
X142252993Y-86380099D01*
X142367007Y-86445925D01*
X142430590Y-86462962D01*
X141798282Y-87095269D01*
X141798282Y-87095270D01*
X141852449Y-87134624D01*
X142041782Y-87231095D01*
X142243870Y-87296757D01*
X142453754Y-87330000D01*
X142666246Y-87330000D01*
X142876127Y-87296757D01*
X142876130Y-87296757D01*
X143078217Y-87231095D01*
X143267554Y-87134622D01*
X143321716Y-87095270D01*
X143321717Y-87095270D01*
X142689408Y-86462962D01*
X142752993Y-86445925D01*
X142867007Y-86380099D01*
X142960099Y-86287007D01*
X143025925Y-86172993D01*
X143042962Y-86109409D01*
X143675270Y-86741717D01*
X143675270Y-86741716D01*
X143714622Y-86687555D01*
X143719232Y-86678507D01*
X143767205Y-86627709D01*
X143835025Y-86610912D01*
X143901161Y-86633447D01*
X143940204Y-86678504D01*
X143944949Y-86687817D01*
X144069890Y-86859786D01*
X144220213Y-87010109D01*
X144392179Y-87135048D01*
X144392181Y-87135049D01*
X144392184Y-87135051D01*
X144581588Y-87231557D01*
X144783757Y-87297246D01*
X144993713Y-87330500D01*
X144993714Y-87330500D01*
X145206286Y-87330500D01*
X145206287Y-87330500D01*
X145416243Y-87297246D01*
X145618412Y-87231557D01*
X145807816Y-87135051D01*
X145894138Y-87072335D01*
X145979786Y-87010109D01*
X145979788Y-87010106D01*
X145979792Y-87010104D01*
X146130104Y-86859792D01*
X146130106Y-86859788D01*
X146130109Y-86859786D01*
X146255048Y-86687820D01*
X146255047Y-86687820D01*
X146255051Y-86687816D01*
X146259514Y-86679054D01*
X146307488Y-86628259D01*
X146375308Y-86611463D01*
X146441444Y-86633999D01*
X146480486Y-86679056D01*
X146484951Y-86687820D01*
X146609890Y-86859786D01*
X146760213Y-87010109D01*
X146932179Y-87135048D01*
X146932181Y-87135049D01*
X146932184Y-87135051D01*
X147121588Y-87231557D01*
X147323757Y-87297246D01*
X147533713Y-87330500D01*
X147533714Y-87330500D01*
X147746286Y-87330500D01*
X147746287Y-87330500D01*
X147956243Y-87297246D01*
X148158412Y-87231557D01*
X148347816Y-87135051D01*
X148434138Y-87072335D01*
X148519786Y-87010109D01*
X148519788Y-87010106D01*
X148519792Y-87010104D01*
X148670104Y-86859792D01*
X148670106Y-86859788D01*
X148670109Y-86859786D01*
X148795048Y-86687820D01*
X148795047Y-86687820D01*
X148795051Y-86687816D01*
X148799514Y-86679054D01*
X148847488Y-86628259D01*
X148915308Y-86611463D01*
X148981444Y-86633999D01*
X149020486Y-86679056D01*
X149024951Y-86687820D01*
X149149890Y-86859786D01*
X149300213Y-87010109D01*
X149472179Y-87135048D01*
X149472181Y-87135049D01*
X149472184Y-87135051D01*
X149661588Y-87231557D01*
X149863757Y-87297246D01*
X150073713Y-87330500D01*
X150073714Y-87330500D01*
X150286286Y-87330500D01*
X150286287Y-87330500D01*
X150496243Y-87297246D01*
X150698412Y-87231557D01*
X150887816Y-87135051D01*
X150974138Y-87072335D01*
X151059786Y-87010109D01*
X151059788Y-87010106D01*
X151059792Y-87010104D01*
X151210104Y-86859792D01*
X151210106Y-86859788D01*
X151210109Y-86859786D01*
X151335048Y-86687820D01*
X151335047Y-86687820D01*
X151335051Y-86687816D01*
X151339514Y-86679054D01*
X151387488Y-86628259D01*
X151455308Y-86611463D01*
X151521444Y-86633999D01*
X151560486Y-86679056D01*
X151564951Y-86687820D01*
X151689890Y-86859786D01*
X151840213Y-87010109D01*
X152012179Y-87135048D01*
X152012181Y-87135049D01*
X152012184Y-87135051D01*
X152201588Y-87231557D01*
X152403757Y-87297246D01*
X152613713Y-87330500D01*
X152613714Y-87330500D01*
X152826286Y-87330500D01*
X152826287Y-87330500D01*
X153036243Y-87297246D01*
X153238412Y-87231557D01*
X153427816Y-87135051D01*
X153514138Y-87072335D01*
X153599786Y-87010109D01*
X153599788Y-87010106D01*
X153599792Y-87010104D01*
X153750104Y-86859792D01*
X153750106Y-86859788D01*
X153750109Y-86859786D01*
X153875048Y-86687820D01*
X153875047Y-86687820D01*
X153875051Y-86687816D01*
X153879514Y-86679054D01*
X153927488Y-86628259D01*
X153995308Y-86611463D01*
X154061444Y-86633999D01*
X154100486Y-86679056D01*
X154104951Y-86687820D01*
X154229890Y-86859786D01*
X154380213Y-87010109D01*
X154552179Y-87135048D01*
X154552181Y-87135049D01*
X154552184Y-87135051D01*
X154741588Y-87231557D01*
X154943757Y-87297246D01*
X155153713Y-87330500D01*
X155153714Y-87330500D01*
X155366286Y-87330500D01*
X155366287Y-87330500D01*
X155576243Y-87297246D01*
X155778412Y-87231557D01*
X155967816Y-87135051D01*
X156054138Y-87072335D01*
X156139786Y-87010109D01*
X156139788Y-87010106D01*
X156139792Y-87010104D01*
X156290104Y-86859792D01*
X156290106Y-86859788D01*
X156290109Y-86859786D01*
X156415048Y-86687820D01*
X156415047Y-86687820D01*
X156415051Y-86687816D01*
X156419514Y-86679054D01*
X156467488Y-86628259D01*
X156535308Y-86611463D01*
X156601444Y-86633999D01*
X156640486Y-86679056D01*
X156644951Y-86687820D01*
X156769890Y-86859786D01*
X156920213Y-87010109D01*
X157092179Y-87135048D01*
X157092181Y-87135049D01*
X157092184Y-87135051D01*
X157281588Y-87231557D01*
X157483757Y-87297246D01*
X157693713Y-87330500D01*
X157693714Y-87330500D01*
X157906286Y-87330500D01*
X157906287Y-87330500D01*
X158116243Y-87297246D01*
X158318412Y-87231557D01*
X158507816Y-87135051D01*
X158594138Y-87072335D01*
X158679786Y-87010109D01*
X158679788Y-87010106D01*
X158679792Y-87010104D01*
X158830104Y-86859792D01*
X158830106Y-86859788D01*
X158830109Y-86859786D01*
X158915890Y-86741717D01*
X158955051Y-86687816D01*
X158959793Y-86678508D01*
X159007763Y-86627711D01*
X159075583Y-86610911D01*
X159141719Y-86633445D01*
X159180763Y-86678500D01*
X159185373Y-86687547D01*
X159224728Y-86741716D01*
X159857037Y-86109408D01*
X159874075Y-86172993D01*
X159939901Y-86287007D01*
X160032993Y-86380099D01*
X160147007Y-86445925D01*
X160210590Y-86462962D01*
X159578282Y-87095269D01*
X159578282Y-87095270D01*
X159632449Y-87134624D01*
X159821782Y-87231095D01*
X160023870Y-87296757D01*
X160233754Y-87330000D01*
X160446246Y-87330000D01*
X160656127Y-87296757D01*
X160656130Y-87296757D01*
X160858217Y-87231095D01*
X161047554Y-87134622D01*
X161101716Y-87095270D01*
X161101717Y-87095270D01*
X160469408Y-86462962D01*
X160532993Y-86445925D01*
X160647007Y-86380099D01*
X160740099Y-86287007D01*
X160805925Y-86172993D01*
X160822962Y-86109408D01*
X161455270Y-86741717D01*
X161455270Y-86741716D01*
X161494622Y-86687554D01*
X161591095Y-86498217D01*
X161656757Y-86296130D01*
X161656757Y-86296127D01*
X161690000Y-86086246D01*
X161690000Y-85873753D01*
X161656757Y-85663872D01*
X161656757Y-85663869D01*
X161591095Y-85461782D01*
X161494624Y-85272449D01*
X161455270Y-85218282D01*
X161455269Y-85218282D01*
X160822962Y-85850590D01*
X160805925Y-85787007D01*
X160740099Y-85672993D01*
X160647007Y-85579901D01*
X160532993Y-85514075D01*
X160469409Y-85497037D01*
X161101716Y-84864728D01*
X161047547Y-84825373D01*
X161047547Y-84825372D01*
X161038500Y-84820763D01*
X160987706Y-84772788D01*
X160970912Y-84704966D01*
X160993451Y-84638832D01*
X161038508Y-84599793D01*
X161047816Y-84595051D01*
X161137554Y-84529853D01*
X161219786Y-84470109D01*
X161219788Y-84470106D01*
X161219792Y-84470104D01*
X161370104Y-84319792D01*
X161370106Y-84319788D01*
X161370109Y-84319786D01*
X161495048Y-84147820D01*
X161495047Y-84147820D01*
X161495051Y-84147816D01*
X161591557Y-83958412D01*
X161657246Y-83756243D01*
X161690500Y-83546287D01*
X161690500Y-83333713D01*
X161657246Y-83123757D01*
X161591557Y-82921588D01*
X161495051Y-82732184D01*
X161495049Y-82732181D01*
X161495048Y-82732179D01*
X161370109Y-82560213D01*
X161219786Y-82409890D01*
X161047820Y-82284951D01*
X160858414Y-82188444D01*
X160858413Y-82188443D01*
X160858412Y-82188443D01*
X160656243Y-82122754D01*
X160656241Y-82122753D01*
X160656240Y-82122753D01*
X160494957Y-82097208D01*
X160446287Y-82089500D01*
X160233713Y-82089500D01*
X160185042Y-82097208D01*
X160023760Y-82122753D01*
X159821585Y-82188444D01*
X159632179Y-82284951D01*
X159460213Y-82409890D01*
X159309890Y-82560213D01*
X159184949Y-82732182D01*
X159180484Y-82740946D01*
X159132509Y-82791742D01*
X159064688Y-82808536D01*
X158998553Y-82785998D01*
X158959516Y-82740946D01*
X158955050Y-82732182D01*
X158830109Y-82560213D01*
X158679786Y-82409890D01*
X158507820Y-82284951D01*
X158318414Y-82188444D01*
X158318413Y-82188443D01*
X158318412Y-82188443D01*
X158116243Y-82122754D01*
X158116241Y-82122753D01*
X158116240Y-82122753D01*
X157954957Y-82097208D01*
X157906287Y-82089500D01*
X157693713Y-82089500D01*
X157645042Y-82097208D01*
X157483760Y-82122753D01*
X157281585Y-82188444D01*
X157092179Y-82284951D01*
X156920213Y-82409890D01*
X156769890Y-82560213D01*
X156644949Y-82732182D01*
X156640484Y-82740946D01*
X156592509Y-82791742D01*
X156524688Y-82808536D01*
X156458553Y-82785998D01*
X156419516Y-82740946D01*
X156415050Y-82732182D01*
X156290109Y-82560213D01*
X156139786Y-82409890D01*
X155967820Y-82284951D01*
X155778414Y-82188444D01*
X155778413Y-82188443D01*
X155778412Y-82188443D01*
X155576243Y-82122754D01*
X155576241Y-82122753D01*
X155576240Y-82122753D01*
X155414957Y-82097208D01*
X155366287Y-82089500D01*
X155153713Y-82089500D01*
X155105042Y-82097208D01*
X154943760Y-82122753D01*
X154741585Y-82188444D01*
X154552179Y-82284951D01*
X154380213Y-82409890D01*
X154229890Y-82560213D01*
X154104949Y-82732182D01*
X154100202Y-82741499D01*
X154052227Y-82792293D01*
X153984405Y-82809087D01*
X153918271Y-82786548D01*
X153879234Y-82741495D01*
X153874626Y-82732452D01*
X153835270Y-82678282D01*
X153202962Y-83310590D01*
X153185925Y-83247007D01*
X153120099Y-83132993D01*
X153027007Y-83039901D01*
X152912993Y-82974075D01*
X152849409Y-82957037D01*
X153481716Y-82324728D01*
X153427550Y-82285375D01*
X153238217Y-82188904D01*
X153036129Y-82123242D01*
X152826246Y-82090000D01*
X152613754Y-82090000D01*
X152403872Y-82123242D01*
X152403869Y-82123242D01*
X152201782Y-82188904D01*
X152012439Y-82285380D01*
X151958282Y-82324727D01*
X151958282Y-82324728D01*
X152590591Y-82957037D01*
X152527007Y-82974075D01*
X152412993Y-83039901D01*
X152319901Y-83132993D01*
X152254075Y-83247007D01*
X152237037Y-83310591D01*
X151604728Y-82678282D01*
X151604727Y-82678282D01*
X151565380Y-82732440D01*
X151565376Y-82732446D01*
X151560760Y-82741505D01*
X151512781Y-82792297D01*
X151444959Y-82809087D01*
X151378826Y-82786543D01*
X151339794Y-82741493D01*
X151335051Y-82732184D01*
X151335049Y-82732181D01*
X151335048Y-82732179D01*
X151210109Y-82560213D01*
X151059786Y-82409890D01*
X150887820Y-82284951D01*
X150698414Y-82188444D01*
X150698413Y-82188443D01*
X150698412Y-82188443D01*
X150496243Y-82122754D01*
X150496241Y-82122753D01*
X150496240Y-82122753D01*
X150334957Y-82097208D01*
X150286287Y-82089500D01*
X150073713Y-82089500D01*
X150025042Y-82097208D01*
X149863760Y-82122753D01*
X149661585Y-82188444D01*
X149472179Y-82284951D01*
X149300213Y-82409890D01*
X149149890Y-82560213D01*
X149024949Y-82732182D01*
X149020202Y-82741499D01*
X148972227Y-82792293D01*
X148904405Y-82809087D01*
X148838271Y-82786548D01*
X148799234Y-82741495D01*
X148794626Y-82732452D01*
X148755270Y-82678282D01*
X148122962Y-83310590D01*
X148105925Y-83247007D01*
X148040099Y-83132993D01*
X147947007Y-83039901D01*
X147832993Y-82974075D01*
X147769409Y-82957037D01*
X148401716Y-82324728D01*
X148347550Y-82285375D01*
X148158217Y-82188904D01*
X147956129Y-82123242D01*
X147746246Y-82090000D01*
X147533754Y-82090000D01*
X147323872Y-82123242D01*
X147323869Y-82123242D01*
X147121782Y-82188904D01*
X146932439Y-82285380D01*
X146878282Y-82324727D01*
X146878282Y-82324728D01*
X147510591Y-82957037D01*
X147447007Y-82974075D01*
X147332993Y-83039901D01*
X147239901Y-83132993D01*
X147174075Y-83247007D01*
X147157037Y-83310591D01*
X146524728Y-82678282D01*
X146524727Y-82678282D01*
X146485380Y-82732440D01*
X146485376Y-82732446D01*
X146480760Y-82741505D01*
X146432781Y-82792297D01*
X146364959Y-82809087D01*
X146298826Y-82786543D01*
X146259794Y-82741493D01*
X146255051Y-82732184D01*
X146255049Y-82732181D01*
X146255048Y-82732179D01*
X146130109Y-82560213D01*
X145979786Y-82409890D01*
X145807820Y-82284951D01*
X145618414Y-82188444D01*
X145618413Y-82188443D01*
X145618412Y-82188443D01*
X145416243Y-82122754D01*
X145416241Y-82122753D01*
X145416240Y-82122753D01*
X145254957Y-82097208D01*
X145206287Y-82089500D01*
X144993713Y-82089500D01*
X144945042Y-82097208D01*
X144783760Y-82122753D01*
X144581585Y-82188444D01*
X144392179Y-82284951D01*
X144220213Y-82409890D01*
X144069890Y-82560213D01*
X143944949Y-82732182D01*
X143940484Y-82740946D01*
X143892509Y-82791742D01*
X143824688Y-82808536D01*
X143758553Y-82785998D01*
X143719516Y-82740946D01*
X143715050Y-82732182D01*
X143590109Y-82560213D01*
X143439786Y-82409890D01*
X143267820Y-82284951D01*
X143078414Y-82188444D01*
X143078413Y-82188443D01*
X143078412Y-82188443D01*
X142876243Y-82122754D01*
X142876241Y-82122753D01*
X142876240Y-82122753D01*
X142714957Y-82097208D01*
X142666287Y-82089500D01*
X142453713Y-82089500D01*
X142405042Y-82097208D01*
X142243760Y-82122753D01*
X142041585Y-82188444D01*
X141852179Y-82284951D01*
X141680213Y-82409890D01*
X141529890Y-82560213D01*
X141404949Y-82732182D01*
X141400484Y-82740946D01*
X141352509Y-82791742D01*
X141284688Y-82808536D01*
X141218553Y-82785998D01*
X141179516Y-82740946D01*
X141175050Y-82732182D01*
X141050109Y-82560213D01*
X140899786Y-82409890D01*
X140727820Y-82284951D01*
X140538414Y-82188444D01*
X140538413Y-82188443D01*
X140538412Y-82188443D01*
X140336243Y-82122754D01*
X140336241Y-82122753D01*
X140336240Y-82122753D01*
X140174957Y-82097208D01*
X140126287Y-82089500D01*
X139913713Y-82089500D01*
X139865042Y-82097208D01*
X139703760Y-82122753D01*
X139501585Y-82188444D01*
X139312179Y-82284951D01*
X139140213Y-82409890D01*
X138989890Y-82560213D01*
X138864949Y-82732182D01*
X138860484Y-82740946D01*
X138812509Y-82791742D01*
X138744688Y-82808536D01*
X138678553Y-82785998D01*
X138639516Y-82740946D01*
X138635050Y-82732182D01*
X138510109Y-82560213D01*
X138359786Y-82409890D01*
X138187820Y-82284951D01*
X137998414Y-82188444D01*
X137998413Y-82188443D01*
X137998412Y-82188443D01*
X137796243Y-82122754D01*
X137796241Y-82122753D01*
X137796240Y-82122753D01*
X137634957Y-82097208D01*
X137586287Y-82089500D01*
X137373713Y-82089500D01*
X137325042Y-82097208D01*
X137163760Y-82122753D01*
X136961585Y-82188444D01*
X136772179Y-82284951D01*
X136600213Y-82409890D01*
X136449890Y-82560213D01*
X136324949Y-82732182D01*
X136320202Y-82741499D01*
X136272227Y-82792293D01*
X136204405Y-82809087D01*
X136138271Y-82786548D01*
X136099234Y-82741495D01*
X136094626Y-82732452D01*
X136055270Y-82678282D01*
X136055269Y-82678282D01*
X135422962Y-83310590D01*
X135405925Y-83247007D01*
X135340099Y-83132993D01*
X135247007Y-83039901D01*
X135132993Y-82974075D01*
X135069409Y-82957037D01*
X135701716Y-82324728D01*
X135647550Y-82285375D01*
X135458217Y-82188904D01*
X135256129Y-82123242D01*
X135046246Y-82090000D01*
X134833754Y-82090000D01*
X134623872Y-82123242D01*
X134623869Y-82123242D01*
X134421782Y-82188904D01*
X134232439Y-82285380D01*
X134178282Y-82324727D01*
X134178282Y-82324728D01*
X134810591Y-82957037D01*
X134747007Y-82974075D01*
X134632993Y-83039901D01*
X134539901Y-83132993D01*
X134474075Y-83247007D01*
X134457037Y-83310591D01*
X133824728Y-82678282D01*
X133824727Y-82678282D01*
X133785380Y-82732440D01*
X133785376Y-82732446D01*
X133780760Y-82741505D01*
X133732781Y-82792297D01*
X133664959Y-82809087D01*
X133598826Y-82786543D01*
X133559794Y-82741493D01*
X133555051Y-82732184D01*
X133555049Y-82732181D01*
X133555048Y-82732179D01*
X133430109Y-82560213D01*
X133279786Y-82409890D01*
X133107820Y-82284951D01*
X132918414Y-82188444D01*
X132918413Y-82188443D01*
X132918412Y-82188443D01*
X132716243Y-82122754D01*
X132716241Y-82122753D01*
X132716240Y-82122753D01*
X132554957Y-82097208D01*
X132506287Y-82089500D01*
X132293713Y-82089500D01*
X132245042Y-82097208D01*
X132083760Y-82122753D01*
X131881585Y-82188444D01*
X131692179Y-82284951D01*
X131520213Y-82409890D01*
X131369890Y-82560213D01*
X131244949Y-82732182D01*
X131240484Y-82740946D01*
X131192509Y-82791742D01*
X131124688Y-82808536D01*
X131058553Y-82785998D01*
X131019516Y-82740946D01*
X131015050Y-82732182D01*
X130890109Y-82560213D01*
X130739786Y-82409890D01*
X130567820Y-82284951D01*
X130378414Y-82188444D01*
X130378413Y-82188443D01*
X130378412Y-82188443D01*
X130176243Y-82122754D01*
X130176241Y-82122753D01*
X130176240Y-82122753D01*
X130014957Y-82097208D01*
X129966287Y-82089500D01*
X129753713Y-82089500D01*
X129705042Y-82097208D01*
X129543760Y-82122753D01*
X129341585Y-82188444D01*
X129152179Y-82284951D01*
X128980213Y-82409890D01*
X128829890Y-82560213D01*
X128704949Y-82732182D01*
X128700202Y-82741499D01*
X128652227Y-82792293D01*
X128584405Y-82809087D01*
X128518271Y-82786548D01*
X128479234Y-82741495D01*
X128474626Y-82732452D01*
X128435270Y-82678282D01*
X128435269Y-82678282D01*
X127802962Y-83310590D01*
X127785925Y-83247007D01*
X127720099Y-83132993D01*
X127627007Y-83039901D01*
X127512993Y-82974075D01*
X127449409Y-82957037D01*
X128081716Y-82324728D01*
X128027550Y-82285375D01*
X127838217Y-82188904D01*
X127636129Y-82123242D01*
X127426246Y-82090000D01*
X127213754Y-82090000D01*
X127003872Y-82123242D01*
X127003869Y-82123242D01*
X126801782Y-82188904D01*
X126612439Y-82285380D01*
X126558282Y-82324727D01*
X126558282Y-82324728D01*
X127190591Y-82957037D01*
X127127007Y-82974075D01*
X127012993Y-83039901D01*
X126919901Y-83132993D01*
X126854075Y-83247007D01*
X126837037Y-83310591D01*
X126204728Y-82678282D01*
X126204727Y-82678282D01*
X126165380Y-82732440D01*
X126165376Y-82732446D01*
X126160760Y-82741505D01*
X126112781Y-82792297D01*
X126044959Y-82809087D01*
X125978826Y-82786543D01*
X125939794Y-82741493D01*
X125935051Y-82732184D01*
X125935049Y-82732181D01*
X125935048Y-82732179D01*
X125810109Y-82560213D01*
X125659786Y-82409890D01*
X125487820Y-82284951D01*
X125298414Y-82188444D01*
X125298413Y-82188443D01*
X125298412Y-82188443D01*
X125096243Y-82122754D01*
X125096241Y-82122753D01*
X125096240Y-82122753D01*
X124934957Y-82097208D01*
X124886287Y-82089500D01*
X124673713Y-82089500D01*
X124625042Y-82097208D01*
X124463760Y-82122753D01*
X124261585Y-82188444D01*
X124072179Y-82284951D01*
X123900213Y-82409890D01*
X123749890Y-82560213D01*
X123624949Y-82732182D01*
X123620484Y-82740946D01*
X123572509Y-82791742D01*
X123504688Y-82808536D01*
X123438553Y-82785998D01*
X123399516Y-82740946D01*
X123395050Y-82732182D01*
X123270109Y-82560213D01*
X123119786Y-82409890D01*
X122947820Y-82284951D01*
X122758414Y-82188444D01*
X122758413Y-82188443D01*
X122758412Y-82188443D01*
X122556243Y-82122754D01*
X122556241Y-82122753D01*
X122556240Y-82122753D01*
X122394957Y-82097208D01*
X122346287Y-82089500D01*
X122133713Y-82089500D01*
X122085042Y-82097208D01*
X121923760Y-82122753D01*
X121721585Y-82188444D01*
X121532179Y-82284951D01*
X121360213Y-82409890D01*
X121209890Y-82560213D01*
X121084949Y-82732182D01*
X121080484Y-82740946D01*
X121032509Y-82791742D01*
X120964688Y-82808536D01*
X120898553Y-82785998D01*
X120859516Y-82740946D01*
X120855050Y-82732182D01*
X120730109Y-82560213D01*
X120579786Y-82409890D01*
X120407820Y-82284951D01*
X120218414Y-82188444D01*
X120218413Y-82188443D01*
X120218412Y-82188443D01*
X120016243Y-82122754D01*
X120016241Y-82122753D01*
X120016240Y-82122753D01*
X119854957Y-82097208D01*
X119806287Y-82089500D01*
X119593713Y-82089500D01*
X119545042Y-82097208D01*
X119383760Y-82122753D01*
X119181585Y-82188444D01*
X118992179Y-82284951D01*
X118820213Y-82409890D01*
X118669890Y-82560213D01*
X118544949Y-82732182D01*
X118540202Y-82741499D01*
X118492227Y-82792293D01*
X118424405Y-82809087D01*
X118358271Y-82786548D01*
X118319234Y-82741495D01*
X118314626Y-82732452D01*
X118275270Y-82678282D01*
X118275269Y-82678282D01*
X117642962Y-83310590D01*
X117625925Y-83247007D01*
X117560099Y-83132993D01*
X117467007Y-83039901D01*
X117352993Y-82974075D01*
X117289409Y-82957037D01*
X117921716Y-82324728D01*
X117867550Y-82285375D01*
X117678217Y-82188904D01*
X117476129Y-82123242D01*
X117266246Y-82090000D01*
X117053754Y-82090000D01*
X116843872Y-82123242D01*
X116843869Y-82123242D01*
X116641782Y-82188904D01*
X116452439Y-82285380D01*
X116398282Y-82324727D01*
X116398282Y-82324728D01*
X117030591Y-82957037D01*
X116967007Y-82974075D01*
X116852993Y-83039901D01*
X116759901Y-83132993D01*
X116694075Y-83247007D01*
X116677037Y-83310591D01*
X116044728Y-82678282D01*
X116044727Y-82678282D01*
X116005380Y-82732440D01*
X116005376Y-82732446D01*
X116000760Y-82741505D01*
X115952781Y-82792297D01*
X115884959Y-82809087D01*
X115818826Y-82786543D01*
X115779794Y-82741493D01*
X115775051Y-82732184D01*
X115775049Y-82732181D01*
X115775048Y-82732179D01*
X115650109Y-82560213D01*
X115499786Y-82409890D01*
X115327820Y-82284951D01*
X115138414Y-82188444D01*
X115138413Y-82188443D01*
X115138412Y-82188443D01*
X114936243Y-82122754D01*
X114936241Y-82122753D01*
X114936240Y-82122753D01*
X114774957Y-82097208D01*
X114726287Y-82089500D01*
X114513713Y-82089500D01*
X114465042Y-82097208D01*
X114303760Y-82122753D01*
X114101585Y-82188444D01*
X113912179Y-82284951D01*
X113740213Y-82409890D01*
X113589890Y-82560213D01*
X113464949Y-82732182D01*
X113460484Y-82740946D01*
X113412509Y-82791742D01*
X113344688Y-82808536D01*
X113278553Y-82785998D01*
X113239516Y-82740946D01*
X113235050Y-82732182D01*
X113110109Y-82560213D01*
X112959786Y-82409890D01*
X112787820Y-82284951D01*
X112598414Y-82188444D01*
X112598413Y-82188443D01*
X112598412Y-82188443D01*
X112396243Y-82122754D01*
X112396241Y-82122753D01*
X112396240Y-82122753D01*
X112234957Y-82097208D01*
X112186287Y-82089500D01*
X111973713Y-82089500D01*
X111925042Y-82097208D01*
X111763760Y-82122753D01*
X111561585Y-82188444D01*
X111372179Y-82284951D01*
X111200213Y-82409890D01*
X111049890Y-82560213D01*
X110924951Y-82732179D01*
X110828444Y-82921585D01*
X110762753Y-83123760D01*
X110756436Y-83163644D01*
X110729500Y-83333713D01*
X110023639Y-83333713D01*
X109941737Y-83163644D01*
X109916676Y-83123760D01*
X109753473Y-82864024D01*
X109532847Y-82587367D01*
X109282633Y-82337153D01*
X109005976Y-82116527D01*
X108706358Y-81928264D01*
X108706359Y-81928264D01*
X108706352Y-81928260D01*
X108702115Y-81926220D01*
X108650255Y-81879398D01*
X108631942Y-81811971D01*
X108652989Y-81745347D01*
X108706715Y-81700679D01*
X108755916Y-81690500D01*
X163604084Y-81690500D01*
X163671123Y-81710185D01*
G37*
%TD.AperFunction*%
%TD*%
M02*
