%TF.GenerationSoftware,KiCad,Pcbnew,9.0.7*%
%TF.CreationDate,2026-02-19T06:16:18+01:00*%
%TF.ProjectId,main,6d61696e-2e6b-4696-9361-645f70636258,rev?*%
%TF.SameCoordinates,Original*%
%TF.FileFunction,Paste,Top*%
%TF.FilePolarity,Positive*%
%FSLAX46Y46*%
G04 Gerber Fmt 4.6, Leading zero omitted, Abs format (unit mm)*
G04 Created by KiCad (PCBNEW 9.0.7) date 2026-02-19 06:16:18*
%MOMM*%
%LPD*%
G01*
G04 APERTURE LIST*
G04 Aperture macros list*
%AMRoundRect*
0 Rectangle with rounded corners*
0 $1 Rounding radius*
0 $2 $3 $4 $5 $6 $7 $8 $9 X,Y pos of 4 corners*
0 Add a 4 corners polygon primitive as box body*
4,1,4,$2,$3,$4,$5,$6,$7,$8,$9,$2,$3,0*
0 Add four circle primitives for the rounded corners*
1,1,$1+$1,$2,$3*
1,1,$1+$1,$4,$5*
1,1,$1+$1,$6,$7*
1,1,$1+$1,$8,$9*
0 Add four rect primitives between the rounded corners*
20,1,$1+$1,$2,$3,$4,$5,0*
20,1,$1+$1,$4,$5,$6,$7,0*
20,1,$1+$1,$6,$7,$8,$9,0*
20,1,$1+$1,$8,$9,$2,$3,0*%
G04 Aperture macros list end*
%ADD10RoundRect,0.250000X0.475000X-0.250000X0.475000X0.250000X-0.475000X0.250000X-0.475000X-0.250000X0*%
%ADD11RoundRect,0.150000X0.825000X0.150000X-0.825000X0.150000X-0.825000X-0.150000X0.825000X-0.150000X0*%
%ADD12RoundRect,0.250000X0.250000X0.475000X-0.250000X0.475000X-0.250000X-0.475000X0.250000X-0.475000X0*%
%ADD13RoundRect,0.250000X-0.450000X0.262500X-0.450000X-0.262500X0.450000X-0.262500X0.450000X0.262500X0*%
%ADD14RoundRect,0.250000X-0.250000X-0.475000X0.250000X-0.475000X0.250000X0.475000X-0.250000X0.475000X0*%
%ADD15RoundRect,0.250000X-0.475000X0.250000X-0.475000X-0.250000X0.475000X-0.250000X0.475000X0.250000X0*%
%ADD16R,1.700000X0.900000*%
%ADD17R,0.690000X0.200000*%
%ADD18R,0.200000X0.690000*%
%ADD19RoundRect,0.150000X-0.700000X0.150000X-0.700000X-0.150000X0.700000X-0.150000X0.700000X0.150000X0*%
%ADD20RoundRect,0.250000X-1.100000X0.250000X-1.100000X-0.250000X1.100000X-0.250000X1.100000X0.250000X0*%
%ADD21RoundRect,0.150000X-0.512500X-0.150000X0.512500X-0.150000X0.512500X0.150000X-0.512500X0.150000X0*%
%ADD22RoundRect,0.250000X1.175000X0.575000X-1.175000X0.575000X-1.175000X-0.575000X1.175000X-0.575000X0*%
%ADD23RoundRect,0.125000X-0.125000X0.175000X-0.125000X-0.175000X0.125000X-0.175000X0.125000X0.175000X0*%
%ADD24RoundRect,0.250000X0.475000X-0.337500X0.475000X0.337500X-0.475000X0.337500X-0.475000X-0.337500X0*%
%ADD25RoundRect,0.250000X-0.300000X-0.800000X0.300000X-0.800000X0.300000X0.800000X-0.300000X0.800000X0*%
%ADD26RoundRect,0.250000X-0.262500X-0.450000X0.262500X-0.450000X0.262500X0.450000X-0.262500X0.450000X0*%
%ADD27R,0.660400X2.032000*%
%ADD28RoundRect,0.125000X0.125000X-0.175000X0.125000X0.175000X-0.125000X0.175000X-0.125000X-0.175000X0*%
%ADD29RoundRect,0.160000X0.160000X-0.197500X0.160000X0.197500X-0.160000X0.197500X-0.160000X-0.197500X0*%
%ADD30RoundRect,0.250000X0.450000X-0.262500X0.450000X0.262500X-0.450000X0.262500X-0.450000X-0.262500X0*%
%ADD31RoundRect,0.150000X-0.150000X-0.700000X0.150000X-0.700000X0.150000X0.700000X-0.150000X0.700000X0*%
%ADD32RoundRect,0.250000X-0.250000X-1.100000X0.250000X-1.100000X0.250000X1.100000X-0.250000X1.100000X0*%
%ADD33RoundRect,0.250000X0.262500X0.450000X-0.262500X0.450000X-0.262500X-0.450000X0.262500X-0.450000X0*%
%ADD34RoundRect,0.160000X-0.160000X0.197500X-0.160000X-0.197500X0.160000X-0.197500X0.160000X0.197500X0*%
%ADD35R,1.500000X0.900000*%
%ADD36R,0.900000X1.500000*%
%ADD37R,0.900000X0.900000*%
%ADD38RoundRect,0.160000X0.160000X0.325000X-0.160000X0.325000X-0.160000X-0.325000X0.160000X-0.325000X0*%
%ADD39RoundRect,0.075000X0.350000X0.075000X-0.350000X0.075000X-0.350000X-0.075000X0.350000X-0.075000X0*%
%ADD40R,0.406400X0.812800*%
%ADD41R,2.489200X1.600200*%
G04 APERTURE END LIST*
D10*
%TO.C,C15*%
X157160000Y-91270000D03*
X157160000Y-89370000D03*
%TD*%
D11*
%TO.C,U7*%
X118875000Y-96605000D03*
X118875000Y-95335000D03*
X118875000Y-94065000D03*
X118875000Y-92795000D03*
X113925000Y-92795000D03*
X113925000Y-94065000D03*
X113925000Y-95335000D03*
X113925000Y-96605000D03*
%TD*%
D12*
%TO.C,C12*%
X160630000Y-105740000D03*
X158730000Y-105740000D03*
%TD*%
D13*
%TO.C,R7*%
X121430000Y-94052500D03*
X121430000Y-95877500D03*
%TD*%
D14*
%TO.C,C19*%
X120505000Y-104290000D03*
X122405000Y-104290000D03*
%TD*%
D10*
%TO.C,C14*%
X155085000Y-91270000D03*
X155085000Y-89370000D03*
%TD*%
D12*
%TO.C,C7*%
X131055000Y-96740000D03*
X129155000Y-96740000D03*
%TD*%
D13*
%TO.C,R1*%
X149630000Y-94552500D03*
X149630000Y-96377500D03*
%TD*%
D15*
%TO.C,C4*%
X149405000Y-98290000D03*
X149405000Y-100190000D03*
%TD*%
D16*
%TO.C,SW1*%
X161880000Y-123640000D03*
X161880000Y-120240000D03*
%TD*%
D17*
%TO.C,U10*%
X139223800Y-105160000D03*
X139223800Y-104760000D03*
X139223800Y-104360000D03*
X139223800Y-103960000D03*
X139223800Y-103560000D03*
D18*
X138523800Y-103560000D03*
D17*
X137823800Y-103560000D03*
X137823800Y-103960000D03*
X137823800Y-104360000D03*
X137823800Y-104760000D03*
X137823800Y-105160000D03*
D18*
X138523800Y-105160000D03*
%TD*%
D14*
%TO.C,C21*%
X120505000Y-99690000D03*
X122405000Y-99690000D03*
%TD*%
D19*
%TO.C,J2*%
X108780000Y-121290000D03*
X108780000Y-122540000D03*
X108780000Y-123790000D03*
X108780000Y-125040000D03*
X108780000Y-126290000D03*
X108780000Y-127540000D03*
D20*
X105580000Y-119440000D03*
X105580000Y-129390000D03*
%TD*%
D10*
%TO.C,C2*%
X161890000Y-128720000D03*
X161890000Y-126820000D03*
%TD*%
D21*
%TO.C,U4*%
X151530000Y-96390000D03*
X151530000Y-97340000D03*
X151530000Y-98290000D03*
X153805000Y-98290000D03*
X153805000Y-97340000D03*
X153805000Y-96390000D03*
%TD*%
D22*
%TO.C,U8*%
X131655000Y-90915000D03*
X127005000Y-90915000D03*
X127005000Y-93765000D03*
X131655000Y-93765000D03*
%TD*%
D21*
%TO.C,U5*%
X113755000Y-105940000D03*
X113755000Y-106890000D03*
X113755000Y-107840000D03*
X116030000Y-107840000D03*
X116030000Y-106890000D03*
X116030000Y-105940000D03*
%TD*%
D13*
%TO.C,R12*%
X159780000Y-126827500D03*
X159780000Y-128652500D03*
%TD*%
D10*
%TO.C,C13*%
X161810000Y-98640000D03*
X161810000Y-96740000D03*
%TD*%
D23*
%TO.C,Q1*%
X130750000Y-126050000D03*
X129750000Y-126050000D03*
X130250000Y-127350000D03*
%TD*%
D14*
%TO.C,C10*%
X162330000Y-105735000D03*
X164230000Y-105735000D03*
%TD*%
%TO.C,C18*%
X116030000Y-103590000D03*
X117930000Y-103590000D03*
%TD*%
D24*
%TO.C,C3*%
X122900000Y-121797500D03*
X122900000Y-119722500D03*
%TD*%
D15*
%TO.C,C11*%
X164110000Y-96740000D03*
X164110000Y-98640000D03*
%TD*%
D25*
%TO.C,L2*%
X117950000Y-106880000D03*
X119350000Y-106880000D03*
%TD*%
D19*
%TO.C,J3*%
X108780000Y-93000000D03*
X108780000Y-94250000D03*
X108780000Y-95500000D03*
X108780000Y-96750000D03*
D20*
X105580000Y-91150000D03*
X105580000Y-98600000D03*
%TD*%
D26*
%TO.C,R122*%
X115817500Y-110190000D03*
X117642500Y-110190000D03*
%TD*%
D14*
%TO.C,C8*%
X125305000Y-96740000D03*
X127205000Y-96740000D03*
%TD*%
D15*
%TO.C,C1*%
X147230000Y-98290000D03*
X147230000Y-100190000D03*
%TD*%
D27*
%TO.C,U3*%
X133930000Y-99697800D03*
X132660000Y-99697800D03*
X131390000Y-99697800D03*
X130120000Y-99697800D03*
X128850000Y-99697800D03*
X127580000Y-99697800D03*
X126310000Y-99697800D03*
X125040000Y-99697800D03*
X125040000Y-109502200D03*
X126310000Y-109502200D03*
X127580000Y-109502200D03*
X128850000Y-109502200D03*
X130120000Y-109502200D03*
X131390000Y-109502200D03*
X132660000Y-109502200D03*
X133930000Y-109502200D03*
%TD*%
D17*
%TO.C,U11*%
X129900000Y-121200000D03*
X129900000Y-120800000D03*
X129900000Y-120400000D03*
X129900000Y-120000000D03*
X129900000Y-119600000D03*
D18*
X129200000Y-119600000D03*
D17*
X128500000Y-119600000D03*
X128500000Y-120000000D03*
X128500000Y-120400000D03*
X128500000Y-120800000D03*
X128500000Y-121200000D03*
D18*
X129200000Y-121200000D03*
%TD*%
D16*
%TO.C,SW2*%
X135650000Y-112900000D03*
X135650000Y-116300000D03*
%TD*%
D28*
%TO.C,Q2*%
X127250000Y-127350000D03*
X128250000Y-127350000D03*
X127750000Y-126050000D03*
%TD*%
D29*
%TO.C,R19*%
X112730000Y-89687500D03*
X112730000Y-88492500D03*
%TD*%
D26*
%TO.C,R2*%
X115817500Y-112390000D03*
X117642500Y-112390000D03*
%TD*%
D30*
%TO.C,R8*%
X111255000Y-103077500D03*
X111255000Y-101252500D03*
%TD*%
D31*
%TO.C,J7*%
X128601200Y-131840000D03*
X129851200Y-131840000D03*
X131101200Y-131840000D03*
X132351200Y-131840000D03*
X133601200Y-131840000D03*
X134851200Y-131840000D03*
D32*
X126751200Y-135040000D03*
X136701200Y-135040000D03*
%TD*%
D14*
%TO.C,C5*%
X153805000Y-93815000D03*
X155705000Y-93815000D03*
%TD*%
D33*
%TO.C,R3*%
X117642500Y-114590000D03*
X115817500Y-114590000D03*
%TD*%
D13*
%TO.C,R6*%
X117455000Y-99402500D03*
X117455000Y-101227500D03*
%TD*%
%TO.C,R5*%
X113755000Y-101252500D03*
X113755000Y-103077500D03*
%TD*%
D34*
%TO.C,R13*%
X111380000Y-88492500D03*
X111380000Y-89687500D03*
%TD*%
D33*
%TO.C,R22*%
X130162500Y-129050000D03*
X128337500Y-129050000D03*
%TD*%
D26*
%TO.C,C9*%
X117075000Y-90000000D03*
X118900000Y-90000000D03*
%TD*%
D30*
%TO.C,R4*%
X147605000Y-96377500D03*
X147605000Y-94552500D03*
%TD*%
D35*
%TO.C,U6*%
X156800000Y-129380000D03*
X156800000Y-128110000D03*
X156800000Y-126840000D03*
X156800000Y-125570000D03*
X156800000Y-124300000D03*
X156800000Y-123030000D03*
X156800000Y-121760000D03*
X156800000Y-120490000D03*
X156800000Y-119220000D03*
X156800000Y-117950000D03*
X156800000Y-116680000D03*
X156800000Y-115410000D03*
X156800000Y-114140000D03*
X156800000Y-112870000D03*
D36*
X153760000Y-111620000D03*
X152490000Y-111620000D03*
X151220000Y-111620000D03*
X149950000Y-111620000D03*
X148680000Y-111620000D03*
X147410000Y-111620000D03*
X146140000Y-111620000D03*
X144870000Y-111620000D03*
X143600000Y-111620000D03*
X142330000Y-111620000D03*
D35*
X139300000Y-112870000D03*
X139300000Y-114140000D03*
X139300000Y-115410000D03*
X139300000Y-116680000D03*
X139300000Y-117950000D03*
X139300000Y-119220000D03*
X139300000Y-120490000D03*
X139300000Y-121760000D03*
X139300000Y-123030000D03*
X139300000Y-124300000D03*
X139300000Y-125570000D03*
X139300000Y-126840000D03*
X139300000Y-128110000D03*
X139300000Y-129380000D03*
D37*
X150950000Y-123060000D03*
X150950000Y-121660000D03*
X150950000Y-120260000D03*
X149550000Y-123060000D03*
X149550000Y-121660000D03*
X149550000Y-120260000D03*
X148150000Y-123060000D03*
X148150000Y-121660000D03*
X148150000Y-120260000D03*
%TD*%
D10*
%TO.C,C6*%
X153035000Y-91270000D03*
X153035000Y-89370000D03*
%TD*%
D26*
%TO.C,R20*%
X127937500Y-124350000D03*
X129762500Y-124350000D03*
%TD*%
D25*
%TO.C,L1*%
X155760000Y-97350000D03*
X157160000Y-97350000D03*
%TD*%
D38*
%TO.C,U1*%
X117930000Y-122740000D03*
X117930000Y-121540000D03*
X117130000Y-122740000D03*
X117130000Y-121540000D03*
D39*
X118980000Y-123115000D03*
X118980000Y-122465000D03*
X118980000Y-121815000D03*
X118980000Y-121165000D03*
X116080000Y-121165000D03*
X116080000Y-121815000D03*
X116080000Y-122465000D03*
X116080000Y-123115000D03*
%TD*%
D12*
%TO.C,C16*%
X112880000Y-109990000D03*
X110980000Y-109990000D03*
%TD*%
%TO.C,C17*%
X112880000Y-112340000D03*
X110980000Y-112340000D03*
%TD*%
D40*
%TO.C,U2*%
X162930001Y-100903000D03*
X161980000Y-100903000D03*
X161029999Y-100903000D03*
X161029999Y-103697000D03*
X161980000Y-103697000D03*
X162930001Y-103697000D03*
D41*
X161980000Y-102300000D03*
%TD*%
D14*
%TO.C,C20*%
X120505000Y-101990000D03*
X122405000Y-101990000D03*
%TD*%
M02*
