%TF.GenerationSoftware,KiCad,Pcbnew,9.0.7*%
%TF.CreationDate,2026-02-19T06:16:18+01:00*%
%TF.ProjectId,main,6d61696e-2e6b-4696-9361-645f70636258,rev?*%
%TF.SameCoordinates,Original*%
%TF.FileFunction,Legend,Top*%
%TF.FilePolarity,Positive*%
%FSLAX46Y46*%
G04 Gerber Fmt 4.6, Leading zero omitted, Abs format (unit mm)*
G04 Created by KiCad (PCBNEW 9.0.7) date 2026-02-19 06:16:18*
%MOMM*%
%LPD*%
G01*
G04 APERTURE LIST*
%ADD10C,0.125000*%
%ADD11C,0.150000*%
%ADD12C,0.120000*%
%ADD13C,0.250000*%
%ADD14C,0.152400*%
%ADD15C,0.000000*%
G04 APERTURE END LIST*
D10*
X161100331Y-118737309D02*
X161433664Y-118737309D01*
X161576521Y-119261119D02*
X161100331Y-119261119D01*
X161100331Y-119261119D02*
X161100331Y-118261119D01*
X161100331Y-118261119D02*
X161576521Y-118261119D01*
X162005093Y-119261119D02*
X162005093Y-118261119D01*
X162005093Y-118261119D02*
X162576521Y-119261119D01*
X162576521Y-119261119D02*
X162576521Y-118261119D01*
D11*
X121868095Y-125084819D02*
X122439523Y-125084819D01*
X122153809Y-126084819D02*
X122153809Y-125084819D01*
X122772857Y-126084819D02*
X122772857Y-125084819D01*
X122772857Y-125084819D02*
X123153809Y-125084819D01*
X123153809Y-125084819D02*
X123249047Y-125132438D01*
X123249047Y-125132438D02*
X123296666Y-125180057D01*
X123296666Y-125180057D02*
X123344285Y-125275295D01*
X123344285Y-125275295D02*
X123344285Y-125418152D01*
X123344285Y-125418152D02*
X123296666Y-125513390D01*
X123296666Y-125513390D02*
X123249047Y-125561009D01*
X123249047Y-125561009D02*
X123153809Y-125608628D01*
X123153809Y-125608628D02*
X122772857Y-125608628D01*
X123915714Y-125513390D02*
X123820476Y-125465771D01*
X123820476Y-125465771D02*
X123772857Y-125418152D01*
X123772857Y-125418152D02*
X123725238Y-125322914D01*
X123725238Y-125322914D02*
X123725238Y-125275295D01*
X123725238Y-125275295D02*
X123772857Y-125180057D01*
X123772857Y-125180057D02*
X123820476Y-125132438D01*
X123820476Y-125132438D02*
X123915714Y-125084819D01*
X123915714Y-125084819D02*
X124106190Y-125084819D01*
X124106190Y-125084819D02*
X124201428Y-125132438D01*
X124201428Y-125132438D02*
X124249047Y-125180057D01*
X124249047Y-125180057D02*
X124296666Y-125275295D01*
X124296666Y-125275295D02*
X124296666Y-125322914D01*
X124296666Y-125322914D02*
X124249047Y-125418152D01*
X124249047Y-125418152D02*
X124201428Y-125465771D01*
X124201428Y-125465771D02*
X124106190Y-125513390D01*
X124106190Y-125513390D02*
X123915714Y-125513390D01*
X123915714Y-125513390D02*
X123820476Y-125561009D01*
X123820476Y-125561009D02*
X123772857Y-125608628D01*
X123772857Y-125608628D02*
X123725238Y-125703866D01*
X123725238Y-125703866D02*
X123725238Y-125894342D01*
X123725238Y-125894342D02*
X123772857Y-125989580D01*
X123772857Y-125989580D02*
X123820476Y-126037200D01*
X123820476Y-126037200D02*
X123915714Y-126084819D01*
X123915714Y-126084819D02*
X124106190Y-126084819D01*
X124106190Y-126084819D02*
X124201428Y-126037200D01*
X124201428Y-126037200D02*
X124249047Y-125989580D01*
X124249047Y-125989580D02*
X124296666Y-125894342D01*
X124296666Y-125894342D02*
X124296666Y-125703866D01*
X124296666Y-125703866D02*
X124249047Y-125608628D01*
X124249047Y-125608628D02*
X124201428Y-125561009D01*
X124201428Y-125561009D02*
X124106190Y-125513390D01*
X118888095Y-116096819D02*
X119459523Y-116096819D01*
X119173809Y-117096819D02*
X119173809Y-116096819D01*
X119792857Y-117096819D02*
X119792857Y-116096819D01*
X119792857Y-116096819D02*
X120173809Y-116096819D01*
X120173809Y-116096819D02*
X120269047Y-116144438D01*
X120269047Y-116144438D02*
X120316666Y-116192057D01*
X120316666Y-116192057D02*
X120364285Y-116287295D01*
X120364285Y-116287295D02*
X120364285Y-116430152D01*
X120364285Y-116430152D02*
X120316666Y-116525390D01*
X120316666Y-116525390D02*
X120269047Y-116573009D01*
X120269047Y-116573009D02*
X120173809Y-116620628D01*
X120173809Y-116620628D02*
X119792857Y-116620628D01*
X120840476Y-117096819D02*
X121030952Y-117096819D01*
X121030952Y-117096819D02*
X121126190Y-117049200D01*
X121126190Y-117049200D02*
X121173809Y-117001580D01*
X121173809Y-117001580D02*
X121269047Y-116858723D01*
X121269047Y-116858723D02*
X121316666Y-116668247D01*
X121316666Y-116668247D02*
X121316666Y-116287295D01*
X121316666Y-116287295D02*
X121269047Y-116192057D01*
X121269047Y-116192057D02*
X121221428Y-116144438D01*
X121221428Y-116144438D02*
X121126190Y-116096819D01*
X121126190Y-116096819D02*
X120935714Y-116096819D01*
X120935714Y-116096819D02*
X120840476Y-116144438D01*
X120840476Y-116144438D02*
X120792857Y-116192057D01*
X120792857Y-116192057D02*
X120745238Y-116287295D01*
X120745238Y-116287295D02*
X120745238Y-116525390D01*
X120745238Y-116525390D02*
X120792857Y-116620628D01*
X120792857Y-116620628D02*
X120840476Y-116668247D01*
X120840476Y-116668247D02*
X120935714Y-116715866D01*
X120935714Y-116715866D02*
X121126190Y-116715866D01*
X121126190Y-116715866D02*
X121221428Y-116668247D01*
X121221428Y-116668247D02*
X121269047Y-116620628D01*
X121269047Y-116620628D02*
X121316666Y-116525390D01*
X141138095Y-98606819D02*
X141709523Y-98606819D01*
X141423809Y-99606819D02*
X141423809Y-98606819D01*
X142042857Y-99606819D02*
X142042857Y-98606819D01*
X142042857Y-98606819D02*
X142423809Y-98606819D01*
X142423809Y-98606819D02*
X142519047Y-98654438D01*
X142519047Y-98654438D02*
X142566666Y-98702057D01*
X142566666Y-98702057D02*
X142614285Y-98797295D01*
X142614285Y-98797295D02*
X142614285Y-98940152D01*
X142614285Y-98940152D02*
X142566666Y-99035390D01*
X142566666Y-99035390D02*
X142519047Y-99083009D01*
X142519047Y-99083009D02*
X142423809Y-99130628D01*
X142423809Y-99130628D02*
X142042857Y-99130628D01*
X143471428Y-98940152D02*
X143471428Y-99606819D01*
X143233333Y-98559200D02*
X142995238Y-99273485D01*
X142995238Y-99273485D02*
X143614285Y-99273485D01*
X110728095Y-119816819D02*
X111299523Y-119816819D01*
X111013809Y-120816819D02*
X111013809Y-119816819D01*
X111632857Y-120816819D02*
X111632857Y-119816819D01*
X111632857Y-119816819D02*
X112013809Y-119816819D01*
X112013809Y-119816819D02*
X112109047Y-119864438D01*
X112109047Y-119864438D02*
X112156666Y-119912057D01*
X112156666Y-119912057D02*
X112204285Y-120007295D01*
X112204285Y-120007295D02*
X112204285Y-120150152D01*
X112204285Y-120150152D02*
X112156666Y-120245390D01*
X112156666Y-120245390D02*
X112109047Y-120293009D01*
X112109047Y-120293009D02*
X112013809Y-120340628D01*
X112013809Y-120340628D02*
X111632857Y-120340628D01*
X113061428Y-119816819D02*
X112870952Y-119816819D01*
X112870952Y-119816819D02*
X112775714Y-119864438D01*
X112775714Y-119864438D02*
X112728095Y-119912057D01*
X112728095Y-119912057D02*
X112632857Y-120054914D01*
X112632857Y-120054914D02*
X112585238Y-120245390D01*
X112585238Y-120245390D02*
X112585238Y-120626342D01*
X112585238Y-120626342D02*
X112632857Y-120721580D01*
X112632857Y-120721580D02*
X112680476Y-120769200D01*
X112680476Y-120769200D02*
X112775714Y-120816819D01*
X112775714Y-120816819D02*
X112966190Y-120816819D01*
X112966190Y-120816819D02*
X113061428Y-120769200D01*
X113061428Y-120769200D02*
X113109047Y-120721580D01*
X113109047Y-120721580D02*
X113156666Y-120626342D01*
X113156666Y-120626342D02*
X113156666Y-120388247D01*
X113156666Y-120388247D02*
X113109047Y-120293009D01*
X113109047Y-120293009D02*
X113061428Y-120245390D01*
X113061428Y-120245390D02*
X112966190Y-120197771D01*
X112966190Y-120197771D02*
X112775714Y-120197771D01*
X112775714Y-120197771D02*
X112680476Y-120245390D01*
X112680476Y-120245390D02*
X112632857Y-120293009D01*
X112632857Y-120293009D02*
X112585238Y-120388247D01*
X112438095Y-97396819D02*
X113009523Y-97396819D01*
X112723809Y-98396819D02*
X112723809Y-97396819D01*
X113342857Y-98396819D02*
X113342857Y-97396819D01*
X113342857Y-97396819D02*
X113723809Y-97396819D01*
X113723809Y-97396819D02*
X113819047Y-97444438D01*
X113819047Y-97444438D02*
X113866666Y-97492057D01*
X113866666Y-97492057D02*
X113914285Y-97587295D01*
X113914285Y-97587295D02*
X113914285Y-97730152D01*
X113914285Y-97730152D02*
X113866666Y-97825390D01*
X113866666Y-97825390D02*
X113819047Y-97873009D01*
X113819047Y-97873009D02*
X113723809Y-97920628D01*
X113723809Y-97920628D02*
X113342857Y-97920628D01*
X114295238Y-97492057D02*
X114342857Y-97444438D01*
X114342857Y-97444438D02*
X114438095Y-97396819D01*
X114438095Y-97396819D02*
X114676190Y-97396819D01*
X114676190Y-97396819D02*
X114771428Y-97444438D01*
X114771428Y-97444438D02*
X114819047Y-97492057D01*
X114819047Y-97492057D02*
X114866666Y-97587295D01*
X114866666Y-97587295D02*
X114866666Y-97682533D01*
X114866666Y-97682533D02*
X114819047Y-97825390D01*
X114819047Y-97825390D02*
X114247619Y-98396819D01*
X114247619Y-98396819D02*
X114866666Y-98396819D01*
X135636666Y-121474819D02*
X135636666Y-122189104D01*
X135636666Y-122189104D02*
X135589047Y-122331961D01*
X135589047Y-122331961D02*
X135493809Y-122427200D01*
X135493809Y-122427200D02*
X135350952Y-122474819D01*
X135350952Y-122474819D02*
X135255714Y-122474819D01*
X136112857Y-122474819D02*
X136112857Y-121474819D01*
X136112857Y-121474819D02*
X136493809Y-121474819D01*
X136493809Y-121474819D02*
X136589047Y-121522438D01*
X136589047Y-121522438D02*
X136636666Y-121570057D01*
X136636666Y-121570057D02*
X136684285Y-121665295D01*
X136684285Y-121665295D02*
X136684285Y-121808152D01*
X136684285Y-121808152D02*
X136636666Y-121903390D01*
X136636666Y-121903390D02*
X136589047Y-121951009D01*
X136589047Y-121951009D02*
X136493809Y-121998628D01*
X136493809Y-121998628D02*
X136112857Y-121998628D01*
X137636666Y-122474819D02*
X137065238Y-122474819D01*
X137350952Y-122474819D02*
X137350952Y-121474819D01*
X137350952Y-121474819D02*
X137255714Y-121617676D01*
X137255714Y-121617676D02*
X137160476Y-121712914D01*
X137160476Y-121712914D02*
X137065238Y-121760533D01*
X110748095Y-123036819D02*
X111319523Y-123036819D01*
X111033809Y-124036819D02*
X111033809Y-123036819D01*
X111652857Y-124036819D02*
X111652857Y-123036819D01*
X111652857Y-123036819D02*
X112033809Y-123036819D01*
X112033809Y-123036819D02*
X112129047Y-123084438D01*
X112129047Y-123084438D02*
X112176666Y-123132057D01*
X112176666Y-123132057D02*
X112224285Y-123227295D01*
X112224285Y-123227295D02*
X112224285Y-123370152D01*
X112224285Y-123370152D02*
X112176666Y-123465390D01*
X112176666Y-123465390D02*
X112129047Y-123513009D01*
X112129047Y-123513009D02*
X112033809Y-123560628D01*
X112033809Y-123560628D02*
X111652857Y-123560628D01*
X112557619Y-123036819D02*
X113224285Y-123036819D01*
X113224285Y-123036819D02*
X112795714Y-124036819D01*
X164788095Y-103444819D02*
X165359523Y-103444819D01*
X165073809Y-104444819D02*
X165073809Y-103444819D01*
X165692857Y-104444819D02*
X165692857Y-103444819D01*
X165692857Y-103444819D02*
X166073809Y-103444819D01*
X166073809Y-103444819D02*
X166169047Y-103492438D01*
X166169047Y-103492438D02*
X166216666Y-103540057D01*
X166216666Y-103540057D02*
X166264285Y-103635295D01*
X166264285Y-103635295D02*
X166264285Y-103778152D01*
X166264285Y-103778152D02*
X166216666Y-103873390D01*
X166216666Y-103873390D02*
X166169047Y-103921009D01*
X166169047Y-103921009D02*
X166073809Y-103968628D01*
X166073809Y-103968628D02*
X165692857Y-103968628D01*
X166597619Y-103444819D02*
X167216666Y-103444819D01*
X167216666Y-103444819D02*
X166883333Y-103825771D01*
X166883333Y-103825771D02*
X167026190Y-103825771D01*
X167026190Y-103825771D02*
X167121428Y-103873390D01*
X167121428Y-103873390D02*
X167169047Y-103921009D01*
X167169047Y-103921009D02*
X167216666Y-104016247D01*
X167216666Y-104016247D02*
X167216666Y-104254342D01*
X167216666Y-104254342D02*
X167169047Y-104349580D01*
X167169047Y-104349580D02*
X167121428Y-104397200D01*
X167121428Y-104397200D02*
X167026190Y-104444819D01*
X167026190Y-104444819D02*
X166740476Y-104444819D01*
X166740476Y-104444819D02*
X166645238Y-104397200D01*
X166645238Y-104397200D02*
X166597619Y-104349580D01*
X160268095Y-109474819D02*
X160839523Y-109474819D01*
X160553809Y-110474819D02*
X160553809Y-109474819D01*
X161172857Y-110474819D02*
X161172857Y-109474819D01*
X161172857Y-109474819D02*
X161553809Y-109474819D01*
X161553809Y-109474819D02*
X161649047Y-109522438D01*
X161649047Y-109522438D02*
X161696666Y-109570057D01*
X161696666Y-109570057D02*
X161744285Y-109665295D01*
X161744285Y-109665295D02*
X161744285Y-109808152D01*
X161744285Y-109808152D02*
X161696666Y-109903390D01*
X161696666Y-109903390D02*
X161649047Y-109951009D01*
X161649047Y-109951009D02*
X161553809Y-109998628D01*
X161553809Y-109998628D02*
X161172857Y-109998628D01*
X162649047Y-109474819D02*
X162172857Y-109474819D01*
X162172857Y-109474819D02*
X162125238Y-109951009D01*
X162125238Y-109951009D02*
X162172857Y-109903390D01*
X162172857Y-109903390D02*
X162268095Y-109855771D01*
X162268095Y-109855771D02*
X162506190Y-109855771D01*
X162506190Y-109855771D02*
X162601428Y-109903390D01*
X162601428Y-109903390D02*
X162649047Y-109951009D01*
X162649047Y-109951009D02*
X162696666Y-110046247D01*
X162696666Y-110046247D02*
X162696666Y-110284342D01*
X162696666Y-110284342D02*
X162649047Y-110379580D01*
X162649047Y-110379580D02*
X162601428Y-110427200D01*
X162601428Y-110427200D02*
X162506190Y-110474819D01*
X162506190Y-110474819D02*
X162268095Y-110474819D01*
X162268095Y-110474819D02*
X162172857Y-110427200D01*
X162172857Y-110427200D02*
X162125238Y-110379580D01*
X110728095Y-116156819D02*
X111299523Y-116156819D01*
X111013809Y-117156819D02*
X111013809Y-116156819D01*
X111632857Y-117156819D02*
X111632857Y-116156819D01*
X111632857Y-116156819D02*
X112013809Y-116156819D01*
X112013809Y-116156819D02*
X112109047Y-116204438D01*
X112109047Y-116204438D02*
X112156666Y-116252057D01*
X112156666Y-116252057D02*
X112204285Y-116347295D01*
X112204285Y-116347295D02*
X112204285Y-116490152D01*
X112204285Y-116490152D02*
X112156666Y-116585390D01*
X112156666Y-116585390D02*
X112109047Y-116633009D01*
X112109047Y-116633009D02*
X112013809Y-116680628D01*
X112013809Y-116680628D02*
X111632857Y-116680628D01*
X113156666Y-117156819D02*
X112585238Y-117156819D01*
X112870952Y-117156819D02*
X112870952Y-116156819D01*
X112870952Y-116156819D02*
X112775714Y-116299676D01*
X112775714Y-116299676D02*
X112680476Y-116394914D01*
X112680476Y-116394914D02*
X112585238Y-116442533D01*
D12*
%TO.C,C15*%
X156425000Y-90581252D02*
X156425000Y-90058748D01*
X157895000Y-90581252D02*
X157895000Y-90058748D01*
%TO.C,U7*%
X116400000Y-92140000D02*
X114450000Y-92140000D01*
X116400000Y-92140000D02*
X118350000Y-92140000D01*
X116400000Y-97260000D02*
X114450000Y-97260000D01*
X116400000Y-97260000D02*
X118350000Y-97260000D01*
X119340000Y-97495000D02*
X118860000Y-97495000D01*
X119100000Y-97165000D01*
X119340000Y-97495000D01*
G36*
X119340000Y-97495000D02*
G01*
X118860000Y-97495000D01*
X119100000Y-97165000D01*
X119340000Y-97495000D01*
G37*
%TO.C,C12*%
X159941252Y-105005000D02*
X159418748Y-105005000D01*
X159941252Y-106475000D02*
X159418748Y-106475000D01*
%TO.C,R7*%
X120695000Y-94737936D02*
X120695000Y-95192064D01*
X122165000Y-94737936D02*
X122165000Y-95192064D01*
%TO.C,C19*%
X121193748Y-103555000D02*
X121716252Y-103555000D01*
X121193748Y-105025000D02*
X121716252Y-105025000D01*
%TO.C,C14*%
X154350000Y-90581252D02*
X154350000Y-90058748D01*
X155820000Y-90581252D02*
X155820000Y-90058748D01*
%TO.C,C7*%
X130366252Y-96005000D02*
X129843748Y-96005000D01*
X130366252Y-97475000D02*
X129843748Y-97475000D01*
%TO.C,R1*%
X148895000Y-95237936D02*
X148895000Y-95692064D01*
X150365000Y-95237936D02*
X150365000Y-95692064D01*
%TO.C,C4*%
X148670000Y-98978748D02*
X148670000Y-99501252D01*
X150140000Y-98978748D02*
X150140000Y-99501252D01*
%TO.C,SW1*%
X160480000Y-120290000D02*
X160780000Y-120290000D01*
X160480000Y-123590000D02*
X160480000Y-120290000D01*
X160780000Y-123590000D02*
X160480000Y-123590000D01*
X162980000Y-123590000D02*
X163280000Y-123590000D01*
X163280000Y-120290000D02*
X162980000Y-120290000D01*
X163280000Y-123590000D02*
X163280000Y-120290000D01*
D13*
%TO.C,U10*%
X137523800Y-102960000D02*
X139523800Y-102960000D01*
X137523800Y-103220000D02*
X137523800Y-102960000D01*
X137523800Y-105760000D02*
X137523800Y-105500000D01*
X137523800Y-105760000D02*
X139523800Y-105760000D01*
X139523800Y-102960000D02*
X139523800Y-103220000D01*
X139523800Y-105550000D02*
X139523800Y-105760000D01*
X140103800Y-105200000D02*
G75*
G02*
X139843800Y-105200000I-130000J0D01*
G01*
X139843800Y-105200000D02*
G75*
G02*
X140103800Y-105200000I130000J0D01*
G01*
D12*
%TO.C,C21*%
X121193748Y-98955000D02*
X121716252Y-98955000D01*
X121193748Y-100425000D02*
X121716252Y-100425000D01*
%TO.C,J2*%
X104370000Y-120200000D02*
X104370000Y-128630000D01*
X107190000Y-118930000D02*
X108640000Y-118930000D01*
X107190000Y-129900000D02*
X108640000Y-129900000D01*
X108640000Y-118930000D02*
X108640000Y-120730000D01*
X108640000Y-120730000D02*
X109630000Y-120730000D01*
X108640000Y-129900000D02*
X108640000Y-128100000D01*
%TO.C,C2*%
X161155000Y-128031252D02*
X161155000Y-127508748D01*
X162625000Y-128031252D02*
X162625000Y-127508748D01*
%TO.C,U4*%
X151757500Y-95780000D02*
X153577500Y-95780000D01*
X151757500Y-95830000D02*
X151757500Y-95780000D01*
X151757500Y-98900000D02*
X151757500Y-98850000D01*
X153577500Y-95780000D02*
X153577500Y-95830000D01*
X153577500Y-98850000D02*
X153577500Y-98900000D01*
X153577500Y-98900000D02*
X151757500Y-98900000D01*
X151217500Y-95830000D02*
X150977500Y-95500000D01*
X151457500Y-95500000D01*
X151217500Y-95830000D01*
G36*
X151217500Y-95830000D02*
G01*
X150977500Y-95500000D01*
X151457500Y-95500000D01*
X151217500Y-95830000D01*
G37*
%TO.C,U8*%
X126570000Y-92680000D02*
X126570000Y-92000000D01*
X128690000Y-90480000D02*
X129970000Y-90480000D01*
X129970000Y-90480000D02*
X129970000Y-89830000D01*
X129970000Y-94200000D02*
X128690000Y-94200000D01*
X132090000Y-92000000D02*
X132090000Y-92680000D01*
X133340000Y-92000000D02*
X132090000Y-92000000D01*
%TO.C,TP8*%
X123830000Y-123940000D02*
G75*
G02*
X122430000Y-123940000I-700000J0D01*
G01*
X122430000Y-123940000D02*
G75*
G02*
X123830000Y-123940000I700000J0D01*
G01*
%TO.C,U5*%
X113982500Y-105330000D02*
X115802500Y-105330000D01*
X113982500Y-105380000D02*
X113982500Y-105330000D01*
X113982500Y-108450000D02*
X113982500Y-108400000D01*
X115802500Y-105330000D02*
X115802500Y-105380000D01*
X115802500Y-108400000D02*
X115802500Y-108450000D01*
X115802500Y-108450000D02*
X113982500Y-108450000D01*
X113442500Y-105380000D02*
X113202500Y-105050000D01*
X113682500Y-105050000D01*
X113442500Y-105380000D01*
G36*
X113442500Y-105380000D02*
G01*
X113202500Y-105050000D01*
X113682500Y-105050000D01*
X113442500Y-105380000D01*
G37*
%TO.C,R12*%
X159045000Y-127512936D02*
X159045000Y-127967064D01*
X160515000Y-127512936D02*
X160515000Y-127967064D01*
%TO.C,C13*%
X161075000Y-97951252D02*
X161075000Y-97428748D01*
X162545000Y-97951252D02*
X162545000Y-97428748D01*
%TO.C,TP9*%
X120850000Y-118090000D02*
G75*
G02*
X119450000Y-118090000I-700000J0D01*
G01*
X119450000Y-118090000D02*
G75*
G02*
X120850000Y-118090000I700000J0D01*
G01*
%TO.C,Q1*%
X129290000Y-127210000D02*
X129290000Y-126050000D01*
X129290000Y-127210000D02*
X129600000Y-127210000D01*
X131210000Y-127210000D02*
X130900000Y-127210000D01*
X131210000Y-127210000D02*
X131210000Y-126050000D01*
D11*
X130825000Y-125400000D02*
G75*
G02*
X130675000Y-125400000I-75000J0D01*
G01*
X130675000Y-125400000D02*
G75*
G02*
X130825000Y-125400000I75000J0D01*
G01*
D12*
%TO.C,C10*%
X163018748Y-105000000D02*
X163541252Y-105000000D01*
X163018748Y-106470000D02*
X163541252Y-106470000D01*
%TO.C,C18*%
X116718748Y-102855000D02*
X117241252Y-102855000D01*
X116718748Y-104325000D02*
X117241252Y-104325000D01*
%TO.C,TP4*%
X143100000Y-100600000D02*
G75*
G02*
X141700000Y-100600000I-700000J0D01*
G01*
X141700000Y-100600000D02*
G75*
G02*
X143100000Y-100600000I700000J0D01*
G01*
%TO.C,C3*%
X122165000Y-121021252D02*
X122165000Y-120498748D01*
X123635000Y-121021252D02*
X123635000Y-120498748D01*
%TO.C,C11*%
X163375000Y-97428748D02*
X163375000Y-97951252D01*
X164845000Y-97428748D02*
X164845000Y-97951252D01*
%TO.C,TP6*%
X112690000Y-121810000D02*
G75*
G02*
X111290000Y-121810000I-700000J0D01*
G01*
X111290000Y-121810000D02*
G75*
G02*
X112690000Y-121810000I700000J0D01*
G01*
%TO.C,L2*%
X117540000Y-105570000D02*
X119760000Y-105570000D01*
X119760000Y-108190000D02*
X117540000Y-108190000D01*
%TO.C,J3*%
X104370000Y-91910000D02*
X104370000Y-97840000D01*
X107190000Y-90640000D02*
X108640000Y-90640000D01*
X107190000Y-99110000D02*
X108640000Y-99110000D01*
X108640000Y-90640000D02*
X108640000Y-92440000D01*
X108640000Y-92440000D02*
X109630000Y-92440000D01*
X108640000Y-99110000D02*
X108640000Y-97310000D01*
%TO.C,R122*%
X116502936Y-109455000D02*
X116957064Y-109455000D01*
X116502936Y-110925000D02*
X116957064Y-110925000D01*
%TO.C,C8*%
X125993748Y-96005000D02*
X126516252Y-96005000D01*
X125993748Y-97475000D02*
X126516252Y-97475000D01*
%TO.C,C1*%
X146495000Y-98978748D02*
X146495000Y-99501252D01*
X147965000Y-98978748D02*
X147965000Y-99501252D01*
D14*
%TO.C,U3*%
X123908000Y-101247200D02*
X123908000Y-107952800D01*
X134311000Y-100866200D02*
X124239687Y-100866200D01*
X134311000Y-108333800D02*
X124239687Y-108333800D01*
X134692000Y-107952800D02*
X134692000Y-101247200D01*
X123908000Y-101247200D02*
G75*
G02*
X124289000Y-100866200I381000J0D01*
G01*
X124289000Y-108333800D02*
G75*
G02*
X123908000Y-107952800I0J381000D01*
G01*
X134311000Y-100866200D02*
G75*
G02*
X134692000Y-101247200I1J-380999D01*
G01*
X134692000Y-105870000D02*
G75*
G02*
X134692000Y-103330000I0J1270000D01*
G01*
X134692000Y-107952800D02*
G75*
G02*
X134311000Y-108333800I-380999J-1D01*
G01*
D15*
G36*
X125294000Y-100866200D02*
G01*
X124786000Y-100866200D01*
X124786000Y-100739200D01*
X125294000Y-100739200D01*
X125294000Y-100866200D01*
G37*
G36*
X125294000Y-108460800D02*
G01*
X124786000Y-108460800D01*
X124786000Y-108333800D01*
X125294000Y-108333800D01*
X125294000Y-108460800D01*
G37*
G36*
X126564000Y-100866200D02*
G01*
X126056000Y-100866200D01*
X126056000Y-100739200D01*
X126564000Y-100739200D01*
X126564000Y-100866200D01*
G37*
G36*
X126564000Y-108460800D02*
G01*
X126056000Y-108460800D01*
X126056000Y-108333800D01*
X126564000Y-108333800D01*
X126564000Y-108460800D01*
G37*
G36*
X127834000Y-100866200D02*
G01*
X127326000Y-100866200D01*
X127326000Y-100739200D01*
X127834000Y-100739200D01*
X127834000Y-100866200D01*
G37*
G36*
X127834000Y-108460800D02*
G01*
X127326000Y-108460800D01*
X127326000Y-108333800D01*
X127834000Y-108333800D01*
X127834000Y-108460800D01*
G37*
G36*
X129104000Y-100866200D02*
G01*
X128596000Y-100866200D01*
X128596000Y-100739200D01*
X129104000Y-100739200D01*
X129104000Y-100866200D01*
G37*
G36*
X129104000Y-108460800D02*
G01*
X128596000Y-108460800D01*
X128596000Y-108333800D01*
X129104000Y-108333800D01*
X129104000Y-108460800D01*
G37*
G36*
X130374000Y-100866200D02*
G01*
X129866000Y-100866200D01*
X129866000Y-100739200D01*
X130374000Y-100739200D01*
X130374000Y-100866200D01*
G37*
G36*
X130374000Y-108460800D02*
G01*
X129866000Y-108460800D01*
X129866000Y-108333800D01*
X130374000Y-108333800D01*
X130374000Y-108460800D01*
G37*
G36*
X131644000Y-100866200D02*
G01*
X131136000Y-100866200D01*
X131136000Y-100739200D01*
X131644000Y-100739200D01*
X131644000Y-100866200D01*
G37*
G36*
X131644000Y-108460800D02*
G01*
X131136000Y-108460800D01*
X131136000Y-108333800D01*
X131644000Y-108333800D01*
X131644000Y-108460800D01*
G37*
G36*
X132914000Y-100866200D02*
G01*
X132406000Y-100866200D01*
X132406000Y-100739200D01*
X132914000Y-100739200D01*
X132914000Y-100866200D01*
G37*
G36*
X132914000Y-108460800D02*
G01*
X132406000Y-108460800D01*
X132406000Y-108333800D01*
X132914000Y-108333800D01*
X132914000Y-108460800D01*
G37*
G36*
X134184000Y-100866200D02*
G01*
X133676000Y-100866200D01*
X133676000Y-100739200D01*
X134184000Y-100739200D01*
X134184000Y-100866200D01*
G37*
G36*
X134184000Y-108460800D02*
G01*
X133676000Y-108460800D01*
X133676000Y-108333800D01*
X134184000Y-108333800D01*
X134184000Y-108460800D01*
G37*
D13*
%TO.C,U11*%
X128200000Y-119000000D02*
X130200000Y-119000000D01*
X128200000Y-119260000D02*
X128200000Y-119000000D01*
X128200000Y-121800000D02*
X128200000Y-121540000D01*
X128200000Y-121800000D02*
X130200000Y-121800000D01*
X130200000Y-119000000D02*
X130200000Y-119260000D01*
X130200000Y-121590000D02*
X130200000Y-121800000D01*
X130780000Y-121240000D02*
G75*
G02*
X130520000Y-121240000I-130000J0D01*
G01*
X130520000Y-121240000D02*
G75*
G02*
X130780000Y-121240000I130000J0D01*
G01*
D12*
%TO.C,SW2*%
X134250000Y-112950000D02*
X134250000Y-116250000D01*
X134250000Y-116250000D02*
X134550000Y-116250000D01*
X134550000Y-112950000D02*
X134250000Y-112950000D01*
X136750000Y-112950000D02*
X137050000Y-112950000D01*
X137050000Y-112950000D02*
X137050000Y-116250000D01*
X137050000Y-116250000D02*
X136750000Y-116250000D01*
%TO.C,Q2*%
X126790000Y-126190000D02*
X126790000Y-127350000D01*
X126790000Y-126190000D02*
X127100000Y-126190000D01*
X128710000Y-126190000D02*
X128400000Y-126190000D01*
X128710000Y-126190000D02*
X128710000Y-127350000D01*
D11*
X127325000Y-128000000D02*
G75*
G02*
X127175000Y-128000000I-75000J0D01*
G01*
X127175000Y-128000000D02*
G75*
G02*
X127325000Y-128000000I75000J0D01*
G01*
D12*
%TO.C,R19*%
X112350000Y-89257621D02*
X112350000Y-88922379D01*
X113110000Y-89257621D02*
X113110000Y-88922379D01*
%TO.C,R2*%
X116502936Y-111655000D02*
X116957064Y-111655000D01*
X116502936Y-113125000D02*
X116957064Y-113125000D01*
%TO.C,R8*%
X110520000Y-102392064D02*
X110520000Y-101937936D01*
X111990000Y-102392064D02*
X111990000Y-101937936D01*
%TO.C,J7*%
X126241200Y-131980000D02*
X128041200Y-131980000D01*
X126241200Y-133430000D02*
X126241200Y-131980000D01*
X127511200Y-136250000D02*
X135941200Y-136250000D01*
X128041200Y-131980000D02*
X128041200Y-130990000D01*
X137211200Y-131980000D02*
X135411200Y-131980000D01*
X137211200Y-133430000D02*
X137211200Y-131980000D01*
%TO.C,C5*%
X154493748Y-93080000D02*
X155016252Y-93080000D01*
X154493748Y-94550000D02*
X155016252Y-94550000D01*
%TO.C,R3*%
X116957064Y-113855000D02*
X116502936Y-113855000D01*
X116957064Y-115325000D02*
X116502936Y-115325000D01*
%TO.C,R6*%
X116720000Y-100087936D02*
X116720000Y-100542064D01*
X118190000Y-100087936D02*
X118190000Y-100542064D01*
%TO.C,R5*%
X113020000Y-101937936D02*
X113020000Y-102392064D01*
X114490000Y-101937936D02*
X114490000Y-102392064D01*
%TO.C,R13*%
X111000000Y-88922379D02*
X111000000Y-89257621D01*
X111760000Y-88922379D02*
X111760000Y-89257621D01*
%TO.C,TP2*%
X114400000Y-99390000D02*
G75*
G02*
X113000000Y-99390000I-700000J0D01*
G01*
X113000000Y-99390000D02*
G75*
G02*
X114400000Y-99390000I700000J0D01*
G01*
%TO.C,JP1*%
X135080000Y-119010000D02*
X137880000Y-119010000D01*
X135080000Y-121010000D02*
X135080000Y-119010000D01*
X137880000Y-119010000D02*
X137880000Y-121010000D01*
X137880000Y-121010000D02*
X135080000Y-121010000D01*
%TO.C,R22*%
X129477064Y-128315000D02*
X129022936Y-128315000D01*
X129477064Y-129785000D02*
X129022936Y-129785000D01*
%TO.C,TP7*%
X112710000Y-125030000D02*
G75*
G02*
X111310000Y-125030000I-700000J0D01*
G01*
X111310000Y-125030000D02*
G75*
G02*
X112710000Y-125030000I700000J0D01*
G01*
%TO.C,C9*%
X117760436Y-89265000D02*
X118214564Y-89265000D01*
X117760436Y-90735000D02*
X118214564Y-90735000D01*
%TO.C,TP3*%
X166130000Y-102040000D02*
G75*
G02*
X164730000Y-102040000I-700000J0D01*
G01*
X164730000Y-102040000D02*
G75*
G02*
X166130000Y-102040000I700000J0D01*
G01*
%TO.C,R4*%
X146870000Y-95692064D02*
X146870000Y-95237936D01*
X148340000Y-95692064D02*
X148340000Y-95237936D01*
%TO.C,U6*%
X138930000Y-111250000D02*
X139930000Y-111250000D01*
X138930000Y-112030000D02*
X138930000Y-111250000D01*
X138930000Y-136990000D02*
X138930000Y-130575000D01*
X157170000Y-111250000D02*
X156170000Y-111250000D01*
X157170000Y-112030000D02*
X157170000Y-111250000D01*
X157170000Y-136990000D02*
X138930000Y-136990000D01*
X157170000Y-136990000D02*
X157170000Y-130830000D01*
X157175000Y-130605000D02*
X157175000Y-130105000D01*
X157675000Y-130105000D01*
X157175000Y-130605000D01*
G36*
X157175000Y-130605000D02*
G01*
X157175000Y-130105000D01*
X157675000Y-130105000D01*
X157175000Y-130605000D01*
G37*
%TO.C,C6*%
X152300000Y-90581252D02*
X152300000Y-90058748D01*
X153770000Y-90581252D02*
X153770000Y-90058748D01*
%TO.C,TP5*%
X162180000Y-108040000D02*
G75*
G02*
X160780000Y-108040000I-700000J0D01*
G01*
X160780000Y-108040000D02*
G75*
G02*
X162180000Y-108040000I700000J0D01*
G01*
%TO.C,R20*%
X128622936Y-123615000D02*
X129077064Y-123615000D01*
X128622936Y-125085000D02*
X129077064Y-125085000D01*
%TO.C,TP1*%
X112690000Y-118150000D02*
G75*
G02*
X111290000Y-118150000I-700000J0D01*
G01*
X111290000Y-118150000D02*
G75*
G02*
X112690000Y-118150000I700000J0D01*
G01*
%TO.C,L1*%
X155350000Y-96040000D02*
X157570000Y-96040000D01*
X157570000Y-98660000D02*
X155350000Y-98660000D01*
%TO.C,U1*%
X115920000Y-120530000D02*
X119140000Y-120530000D01*
X115920000Y-120755000D02*
X115920000Y-120530000D01*
X115920000Y-123750000D02*
X115920000Y-123525000D01*
X119140000Y-120530000D02*
X119140000Y-120755000D01*
X119140000Y-123525000D02*
X119140000Y-123750000D01*
X119140000Y-123750000D02*
X115920000Y-123750000D01*
X120000000Y-123360000D02*
X119670000Y-123120000D01*
X120000000Y-122880000D01*
X120000000Y-123360000D01*
G36*
X120000000Y-123360000D02*
G01*
X119670000Y-123120000D01*
X120000000Y-122880000D01*
X120000000Y-123360000D01*
G37*
%TO.C,C16*%
X112191252Y-109255000D02*
X111668748Y-109255000D01*
X112191252Y-110725000D02*
X111668748Y-110725000D01*
%TO.C,C17*%
X112191252Y-111605000D02*
X111668748Y-111605000D01*
X112191252Y-113075000D02*
X111668748Y-113075000D01*
D14*
%TO.C,U2*%
X160354400Y-100674400D02*
X160354400Y-103925600D01*
X163605600Y-103925600D02*
X163605600Y-100674400D01*
D12*
%TO.C,C20*%
X121193748Y-101255000D02*
X121716252Y-101255000D01*
X121193748Y-102725000D02*
X121716252Y-102725000D01*
%TD*%
M02*
