%TF.GenerationSoftware,KiCad,Pcbnew,(6.0.7)*%
%TF.CreationDate,2022-09-16T22:58:04+02:00*%
%TF.ProjectId,peugeot_projekt,70657567-656f-4745-9f70-726f6a656b74,rev?*%
%TF.SameCoordinates,Original*%
%TF.FileFunction,Legend,Bot*%
%TF.FilePolarity,Positive*%
%FSLAX46Y46*%
G04 Gerber Fmt 4.6, Leading zero omitted, Abs format (unit mm)*
G04 Created by KiCad (PCBNEW (6.0.7)) date 2022-09-16 22:58:04*
%MOMM*%
%LPD*%
G01*
G04 APERTURE LIST*
%TA.AperFunction,Profile*%
%ADD10C,0.100000*%
%TD*%
%ADD11C,0.150000*%
%ADD12C,0.120000*%
G04 APERTURE END LIST*
D10*
X265000000Y-149286000D02*
X265024000Y-131458000D01*
X268579958Y-97003320D02*
G75*
G03*
X265532000Y-94003320I-3000358J20D01*
G01*
X204500000Y-130500000D02*
X200499127Y-130500001D01*
X200000000Y-131000000D02*
X200000000Y-149286000D01*
X205000000Y-114000000D02*
X205000000Y-130000000D01*
X265532000Y-94003320D02*
X203000000Y-94000000D01*
X200499127Y-130500001D02*
G75*
G03*
X200000000Y-131000000I873J-499999D01*
G01*
X204500000Y-130500000D02*
G75*
G03*
X205000000Y-130000000I0J500000D01*
G01*
X203000000Y-152286000D02*
X262000000Y-152286000D01*
X203000000Y-94000000D02*
G75*
G03*
X200000000Y-97000000I0J-3000000D01*
G01*
X200000000Y-113000000D02*
G75*
G03*
X200500000Y-113500000I500000J0D01*
G01*
X266040000Y-130442000D02*
X267564000Y-130442000D01*
X200000000Y-149286000D02*
G75*
G03*
X203000000Y-152286000I3000000J0D01*
G01*
X205000000Y-114000000D02*
G75*
G03*
X204500000Y-113500000I-500000J0D01*
G01*
X262000000Y-152286000D02*
G75*
G03*
X265000000Y-149286000I0J3000000D01*
G01*
X268580000Y-129426000D02*
X268580000Y-97003320D01*
X266040000Y-130442000D02*
G75*
G03*
X265024000Y-131458000I0J-1016000D01*
G01*
X267564000Y-130442000D02*
G75*
G03*
X268580000Y-129426000I0J1016000D01*
G01*
X200000000Y-97000000D02*
X200000000Y-113000000D01*
X200500000Y-113500000D02*
X204500000Y-113500000D01*
D11*
X207596095Y-101430380D02*
X207596095Y-100430380D01*
X207215142Y-100430380D01*
X207119904Y-100478000D01*
X207072285Y-100525619D01*
X207024666Y-100620857D01*
X207024666Y-100763714D01*
X207072285Y-100858952D01*
X207119904Y-100906571D01*
X207215142Y-100954190D01*
X207596095Y-100954190D01*
X206072285Y-101430380D02*
X206643714Y-101430380D01*
X206358000Y-101430380D02*
X206358000Y-100430380D01*
X206453238Y-100573238D01*
X206548476Y-100668476D01*
X206643714Y-100716095D01*
X212738380Y-137895333D02*
X212262190Y-137562000D01*
X212738380Y-137323904D02*
X211738380Y-137323904D01*
X211738380Y-137704857D01*
X211786000Y-137800095D01*
X211833619Y-137847714D01*
X211928857Y-137895333D01*
X212071714Y-137895333D01*
X212166952Y-137847714D01*
X212214571Y-137800095D01*
X212262190Y-137704857D01*
X212262190Y-137323904D01*
X211738380Y-138752476D02*
X211738380Y-138562000D01*
X211786000Y-138466761D01*
X211833619Y-138419142D01*
X211976476Y-138323904D01*
X212166952Y-138276285D01*
X212547904Y-138276285D01*
X212643142Y-138323904D01*
X212690761Y-138371523D01*
X212738380Y-138466761D01*
X212738380Y-138657238D01*
X212690761Y-138752476D01*
X212643142Y-138800095D01*
X212547904Y-138847714D01*
X212309809Y-138847714D01*
X212214571Y-138800095D01*
X212166952Y-138752476D01*
X212119333Y-138657238D01*
X212119333Y-138466761D01*
X212166952Y-138371523D01*
X212214571Y-138323904D01*
X212309809Y-138276285D01*
X264992380Y-103166666D02*
X265706666Y-103166666D01*
X265849523Y-103119047D01*
X265944761Y-103023809D01*
X265992380Y-102880952D01*
X265992380Y-102785714D01*
X264992380Y-103547619D02*
X264992380Y-104214285D01*
X265992380Y-103785714D01*
X212738380Y-133323333D02*
X212262190Y-132990000D01*
X212738380Y-132751904D02*
X211738380Y-132751904D01*
X211738380Y-133132857D01*
X211786000Y-133228095D01*
X211833619Y-133275714D01*
X211928857Y-133323333D01*
X212071714Y-133323333D01*
X212166952Y-133275714D01*
X212214571Y-133228095D01*
X212262190Y-133132857D01*
X212262190Y-132751904D01*
X211738380Y-134228095D02*
X211738380Y-133751904D01*
X212214571Y-133704285D01*
X212166952Y-133751904D01*
X212119333Y-133847142D01*
X212119333Y-134085238D01*
X212166952Y-134180476D01*
X212214571Y-134228095D01*
X212309809Y-134275714D01*
X212547904Y-134275714D01*
X212643142Y-134228095D01*
X212690761Y-134180476D01*
X212738380Y-134085238D01*
X212738380Y-133847142D01*
X212690761Y-133751904D01*
X212643142Y-133704285D01*
D12*
X209640000Y-100100000D02*
X257960000Y-100100000D01*
X207040000Y-100100000D02*
X208370000Y-100100000D01*
X207040000Y-94900000D02*
X257960000Y-94900000D01*
X207040000Y-98770000D02*
X207040000Y-100100000D01*
X209640000Y-97500000D02*
X209640000Y-100100000D01*
X257960000Y-94900000D02*
X257960000Y-100100000D01*
X207040000Y-94900000D02*
X207040000Y-97500000D01*
X207040000Y-97500000D02*
X209640000Y-97500000D01*
X213193500Y-137807276D02*
X213193500Y-138316724D01*
X214238500Y-137807276D02*
X214238500Y-138316724D01*
X258900000Y-104830000D02*
X258900000Y-102170000D01*
X264100000Y-102170000D02*
X262770000Y-102170000D01*
X264100000Y-103500000D02*
X264100000Y-102170000D01*
X261500000Y-102170000D02*
X258900000Y-102170000D01*
X261500000Y-104830000D02*
X258900000Y-104830000D01*
X261500000Y-104830000D02*
X261500000Y-102170000D01*
X213193500Y-133235276D02*
X213193500Y-133744724D01*
X214238500Y-133235276D02*
X214238500Y-133744724D01*
M02*
