%TF.GenerationSoftware,KiCad,Pcbnew,(6.0.7)*%
%TF.CreationDate,2022-09-16T22:58:09+02:00*%
%TF.ProjectId,peugeot_projekt,70657567-656f-4745-9f70-726f6a656b74,rev?*%
%TF.SameCoordinates,Original*%
%TF.FileFunction,Plated,1,2,PTH,Drill*%
%TF.FilePolarity,Positive*%
%FSLAX46Y46*%
G04 Gerber Fmt 4.6, Leading zero omitted, Abs format (unit mm)*
G04 Created by KiCad (PCBNEW (6.0.7)) date 2022-09-16 22:58:09*
%MOMM*%
%LPD*%
G01*
G04 APERTURE LIST*
%TA.AperFunction,ViaDrill*%
%ADD10C,0.200000*%
%TD*%
%TA.AperFunction,ViaDrill*%
%ADD11C,0.600000*%
%TD*%
%TA.AperFunction,ComponentDrill*%
%ADD12C,0.800000*%
%TD*%
%TA.AperFunction,ComponentDrill*%
%ADD13C,1.000000*%
%TD*%
%TA.AperFunction,ComponentDrill*%
%ADD14C,1.100000*%
%TD*%
G04 APERTURE END LIST*
D10*
X204826000Y-103010000D03*
X205826703Y-134756257D03*
X209906000Y-108598000D03*
X210160000Y-134760000D03*
X211938000Y-122568000D03*
X214986000Y-126886000D03*
X215494000Y-135522000D03*
X219536194Y-114175931D03*
X219558000Y-128410000D03*
X225400000Y-130188000D03*
X225400000Y-132220000D03*
X225654000Y-124600000D03*
X225908000Y-135268000D03*
X227940000Y-100724000D03*
X228194000Y-140348000D03*
X228448000Y-108598000D03*
X228956000Y-128410000D03*
X230480000Y-128410000D03*
X233274000Y-100724000D03*
X235560000Y-126632000D03*
X236576000Y-131458000D03*
X236830000Y-126632000D03*
X237592000Y-122314000D03*
X256642000Y-105550000D03*
X257150000Y-112154000D03*
D11*
X211684000Y-104280000D03*
D12*
%TO.C,Y1*%
X233454000Y-147714000D03*
X238354000Y-147714000D03*
D13*
%TO.C,J3*%
X201835000Y-133480000D03*
X201835000Y-136020000D03*
X201835000Y-138560000D03*
X201835000Y-141100000D03*
%TO.C,J4*%
X202540000Y-103010000D03*
X202540000Y-105550000D03*
%TO.C,J2*%
X202540000Y-110630000D03*
%TO.C,P1*%
X208370000Y-96230000D03*
X208370000Y-98770000D03*
X210910000Y-96230000D03*
X210910000Y-98770000D03*
%TO.C,U1*%
X211430000Y-116980000D03*
X211430000Y-142380000D03*
%TO.C,P1*%
X213450000Y-96230000D03*
X213450000Y-98770000D03*
%TO.C,U1*%
X213970000Y-116980000D03*
X213970000Y-142380000D03*
%TO.C,P1*%
X215990000Y-96230000D03*
X215990000Y-98770000D03*
%TO.C,U1*%
X216510000Y-116980000D03*
X216510000Y-142380000D03*
%TO.C,P1*%
X218530000Y-96230000D03*
X218530000Y-98770000D03*
%TO.C,U1*%
X219050000Y-116980000D03*
X219050000Y-142380000D03*
%TO.C,P1*%
X221070000Y-96230000D03*
X221070000Y-98770000D03*
%TO.C,U1*%
X221590000Y-116980000D03*
X221590000Y-142380000D03*
%TO.C,P1*%
X223610000Y-96230000D03*
X223610000Y-98770000D03*
%TO.C,U1*%
X224130000Y-116980000D03*
X224130000Y-142380000D03*
%TO.C,P1*%
X226150000Y-96230000D03*
X226150000Y-98770000D03*
%TO.C,U1*%
X226670000Y-116980000D03*
X226670000Y-142380000D03*
%TO.C,P1*%
X228690000Y-96230000D03*
X228690000Y-98770000D03*
%TO.C,U2*%
X229210000Y-104026000D03*
X229210000Y-114186000D03*
%TO.C,U1*%
X229210000Y-116980000D03*
X229210000Y-142380000D03*
%TO.C,P1*%
X231230000Y-96230000D03*
X231230000Y-98770000D03*
%TO.C,U2*%
X231750000Y-104026000D03*
X231750000Y-114186000D03*
%TO.C,U1*%
X231750000Y-116980000D03*
X231750000Y-142380000D03*
%TO.C,P1*%
X233770000Y-96230000D03*
X233770000Y-98770000D03*
%TO.C,U2*%
X234290000Y-104026000D03*
X234290000Y-114186000D03*
%TO.C,U1*%
X234290000Y-116980000D03*
X234290000Y-142380000D03*
%TO.C,P1*%
X236310000Y-96230000D03*
X236310000Y-98770000D03*
%TO.C,U2*%
X236830000Y-104026000D03*
X236830000Y-114186000D03*
%TO.C,U1*%
X236830000Y-116980000D03*
X236830000Y-142380000D03*
%TO.C,P1*%
X238850000Y-96230000D03*
X238850000Y-98770000D03*
%TO.C,U2*%
X239370000Y-104026000D03*
X239370000Y-114186000D03*
%TO.C,U1*%
X239370000Y-116980000D03*
X239370000Y-142380000D03*
%TO.C,P1*%
X241390000Y-96230000D03*
X241390000Y-98770000D03*
%TO.C,U2*%
X241910000Y-104026000D03*
X241910000Y-114186000D03*
%TO.C,U1*%
X241910000Y-116980000D03*
X241910000Y-142380000D03*
%TO.C,P1*%
X243930000Y-96230000D03*
X243930000Y-98770000D03*
%TO.C,U1*%
X244450000Y-116980000D03*
X244450000Y-142380000D03*
%TO.C,P1*%
X246470000Y-96230000D03*
X246470000Y-98770000D03*
%TO.C,U1*%
X246990000Y-116980000D03*
X246990000Y-142380000D03*
%TO.C,P1*%
X249010000Y-96230000D03*
X249010000Y-98770000D03*
%TO.C,J1*%
X251054000Y-107836000D03*
%TO.C,P1*%
X251550000Y-96230000D03*
X251550000Y-98770000D03*
%TO.C,J1*%
X253594000Y-107836000D03*
%TO.C,P1*%
X254090000Y-96230000D03*
X254090000Y-98770000D03*
%TO.C,J1*%
X256134000Y-107836000D03*
%TO.C,P1*%
X256630000Y-96230000D03*
X256630000Y-98770000D03*
%TO.C,J7*%
X260230000Y-103500000D03*
X262770000Y-103500000D03*
D14*
%TO.C,U5*%
X219304000Y-104209000D03*
X221844000Y-104209000D03*
X224384000Y-104209000D03*
M02*
