%TF.GenerationSoftware,KiCad,Pcbnew,(6.0.7)*%
%TF.CreationDate,2022-09-16T22:58:04+02:00*%
%TF.ProjectId,peugeot_projekt,70657567-656f-4745-9f70-726f6a656b74,rev?*%
%TF.SameCoordinates,Original*%
%TF.FileFunction,Copper,L2,Bot*%
%TF.FilePolarity,Positive*%
%FSLAX46Y46*%
G04 Gerber Fmt 4.6, Leading zero omitted, Abs format (unit mm)*
G04 Created by KiCad (PCBNEW (6.0.7)) date 2022-09-16 22:58:04*
%MOMM*%
%LPD*%
G01*
G04 APERTURE LIST*
G04 Aperture macros list*
%AMRoundRect*
0 Rectangle with rounded corners*
0 $1 Rounding radius*
0 $2 $3 $4 $5 $6 $7 $8 $9 X,Y pos of 4 corners*
0 Add a 4 corners polygon primitive as box body*
4,1,4,$2,$3,$4,$5,$6,$7,$8,$9,$2,$3,0*
0 Add four circle primitives for the rounded corners*
1,1,$1+$1,$2,$3*
1,1,$1+$1,$4,$5*
1,1,$1+$1,$6,$7*
1,1,$1+$1,$8,$9*
0 Add four rect primitives between the rounded corners*
20,1,$1+$1,$2,$3,$4,$5,0*
20,1,$1+$1,$4,$5,$6,$7,0*
20,1,$1+$1,$6,$7,$8,$9,0*
20,1,$1+$1,$8,$9,$2,$3,0*%
G04 Aperture macros list end*
%TA.AperFunction,Profile*%
%ADD10C,0.100000*%
%TD*%
%TA.AperFunction,ComponentPad*%
%ADD11R,1.905000X2.000000*%
%TD*%
%TA.AperFunction,ComponentPad*%
%ADD12O,1.905000X2.000000*%
%TD*%
%TA.AperFunction,ComponentPad*%
%ADD13C,1.700000*%
%TD*%
%TA.AperFunction,ComponentPad*%
%ADD14O,1.700000X1.700000*%
%TD*%
%TA.AperFunction,ComponentPad*%
%ADD15R,1.700000X1.700000*%
%TD*%
%TA.AperFunction,ComponentPad*%
%ADD16C,1.500000*%
%TD*%
%TA.AperFunction,SMDPad,CuDef*%
%ADD17RoundRect,0.237500X-0.237500X0.250000X-0.237500X-0.250000X0.237500X-0.250000X0.237500X0.250000X0*%
%TD*%
%TA.AperFunction,ViaPad*%
%ADD18C,0.450000*%
%TD*%
%TA.AperFunction,ViaPad*%
%ADD19C,0.900000*%
%TD*%
%TA.AperFunction,Conductor*%
%ADD20C,0.600000*%
%TD*%
%TA.AperFunction,Conductor*%
%ADD21C,0.200000*%
%TD*%
%TA.AperFunction,Conductor*%
%ADD22C,0.400000*%
%TD*%
G04 APERTURE END LIST*
D10*
X265000000Y-149286000D02*
X265024000Y-131458000D01*
X268579958Y-97003320D02*
G75*
G03*
X265532000Y-94003320I-3000358J20D01*
G01*
X204500000Y-130500000D02*
X200499127Y-130500001D01*
X200000000Y-131000000D02*
X200000000Y-149286000D01*
X205000000Y-114000000D02*
X205000000Y-130000000D01*
X265532000Y-94003320D02*
X203000000Y-94000000D01*
X200499127Y-130500001D02*
G75*
G03*
X200000000Y-131000000I873J-499999D01*
G01*
X204500000Y-130500000D02*
G75*
G03*
X205000000Y-130000000I0J500000D01*
G01*
X203000000Y-152286000D02*
X262000000Y-152286000D01*
X203000000Y-94000000D02*
G75*
G03*
X200000000Y-97000000I0J-3000000D01*
G01*
X200000000Y-113000000D02*
G75*
G03*
X200500000Y-113500000I500000J0D01*
G01*
X266040000Y-130442000D02*
X267564000Y-130442000D01*
X200000000Y-149286000D02*
G75*
G03*
X203000000Y-152286000I3000000J0D01*
G01*
X205000000Y-114000000D02*
G75*
G03*
X204500000Y-113500000I-500000J0D01*
G01*
X262000000Y-152286000D02*
G75*
G03*
X265000000Y-149286000I0J3000000D01*
G01*
X268580000Y-129426000D02*
X268580000Y-97003320D01*
X266040000Y-130442000D02*
G75*
G03*
X265024000Y-131458000I0J-1016000D01*
G01*
X267564000Y-130442000D02*
G75*
G03*
X268580000Y-129426000I0J1016000D01*
G01*
X200000000Y-97000000D02*
X200000000Y-113000000D01*
X200500000Y-113500000D02*
X204500000Y-113500000D01*
D11*
X219304000Y-104209000D03*
D12*
X221844000Y-104209000D03*
X224384000Y-104209000D03*
D13*
X211430000Y-142380000D03*
X213970000Y-142380000D03*
X216510000Y-142380000D03*
X219050000Y-142380000D03*
X221590000Y-142380000D03*
X224130000Y-142380000D03*
X226670000Y-142380000D03*
X229210000Y-142380000D03*
X231750000Y-142380000D03*
X234290000Y-142380000D03*
X236830000Y-142380000D03*
X239370000Y-142380000D03*
X241910000Y-142380000D03*
X244450000Y-142380000D03*
X246990000Y-142380000D03*
X211430000Y-116980000D03*
X213970000Y-116980000D03*
X216510000Y-116980000D03*
X219050000Y-116980000D03*
X221590000Y-116980000D03*
D14*
X224130000Y-116980000D03*
D13*
X226670000Y-116980000D03*
X229210000Y-116980000D03*
X231750000Y-116980000D03*
X234290000Y-116980000D03*
X236830000Y-116980000D03*
X239370000Y-116980000D03*
X241910000Y-116980000D03*
X244450000Y-116980000D03*
D15*
X246990000Y-116980000D03*
X251054000Y-107836000D03*
D14*
X253594000Y-107836000D03*
X256134000Y-107836000D03*
D15*
X202540000Y-110630000D03*
X201835000Y-141100000D03*
D14*
X201835000Y-138560000D03*
X201835000Y-136020000D03*
X201835000Y-133480000D03*
D15*
X202540000Y-103010000D03*
D14*
X202540000Y-105550000D03*
D13*
X241910000Y-104026000D03*
X239370000Y-104026000D03*
X236830000Y-104026000D03*
X234290000Y-104026000D03*
X231750000Y-104026000D03*
X229210000Y-104026000D03*
D15*
X241910000Y-114186000D03*
D13*
X239370000Y-114186000D03*
X236830000Y-114186000D03*
X234290000Y-114186000D03*
X231750000Y-114186000D03*
X229210000Y-114186000D03*
D16*
X238354000Y-147714000D03*
X233454000Y-147714000D03*
D15*
X208370000Y-98770000D03*
D14*
X208370000Y-96230000D03*
X210910000Y-98770000D03*
X210910000Y-96230000D03*
X213450000Y-98770000D03*
X213450000Y-96230000D03*
X215990000Y-98770000D03*
X215990000Y-96230000D03*
X218530000Y-98770000D03*
X218530000Y-96230000D03*
X221070000Y-98770000D03*
X221070000Y-96230000D03*
X223610000Y-98770000D03*
X223610000Y-96230000D03*
X226150000Y-98770000D03*
X226150000Y-96230000D03*
X228690000Y-98770000D03*
X228690000Y-96230000D03*
X231230000Y-98770000D03*
X231230000Y-96230000D03*
X233770000Y-98770000D03*
X233770000Y-96230000D03*
X236310000Y-98770000D03*
X236310000Y-96230000D03*
X238850000Y-98770000D03*
X238850000Y-96230000D03*
X241390000Y-98770000D03*
X241390000Y-96230000D03*
X243930000Y-98770000D03*
X243930000Y-96230000D03*
X246470000Y-98770000D03*
X246470000Y-96230000D03*
X249010000Y-98770000D03*
X249010000Y-96230000D03*
X251550000Y-98770000D03*
X251550000Y-96230000D03*
X254090000Y-98770000D03*
X254090000Y-96230000D03*
X256630000Y-98770000D03*
X256630000Y-96230000D03*
D17*
X213716000Y-137149500D03*
X213716000Y-138974500D03*
D15*
X262770000Y-103500000D03*
D14*
X260230000Y-103500000D03*
D17*
X213716000Y-132577500D03*
X213716000Y-134402500D03*
D18*
X236830000Y-126632000D03*
X230480000Y-128410000D03*
X228448000Y-108598000D03*
X228956000Y-128410000D03*
X225400000Y-132220000D03*
X235560000Y-126632000D03*
X237592000Y-122314000D03*
X233274000Y-100724000D03*
X257150000Y-112154000D03*
X225400000Y-130188000D03*
X225654000Y-124600000D03*
X256642000Y-105550000D03*
X211938000Y-122568000D03*
X228194000Y-140348000D03*
X209906000Y-108598000D03*
X225908000Y-135268000D03*
X204826000Y-103010000D03*
X227940000Y-100724000D03*
X219558000Y-128410000D03*
X236576000Y-131458000D03*
X219536194Y-114175931D03*
X215494000Y-135522000D03*
X214986000Y-126886000D03*
X205826703Y-134756257D03*
X210160000Y-134760000D03*
D19*
X211684000Y-104280000D03*
D20*
X201835000Y-133480000D02*
X240650000Y-133480000D01*
X251054000Y-123076000D02*
X251054000Y-107836000D01*
X240650000Y-133480000D02*
X251054000Y-123076000D01*
D21*
X215360489Y-114560489D02*
X214840489Y-114040489D01*
X214840489Y-114040489D02*
X214840489Y-97379511D01*
X228108855Y-130204510D02*
X215360489Y-117456144D01*
X233511489Y-130204511D02*
X228108855Y-130204510D01*
X234290000Y-116980000D02*
X234290000Y-129426000D01*
X234290000Y-129426000D02*
X233511489Y-130204511D01*
X214840489Y-97379511D02*
X215990000Y-96230000D01*
X215360489Y-117456144D02*
X215360489Y-114560489D01*
X230717000Y-129443000D02*
X231750000Y-128410000D01*
X231750000Y-128410000D02*
X231750000Y-116980000D01*
X228465000Y-129443000D02*
X230717000Y-129443000D01*
X217380489Y-116224834D02*
X217659511Y-116503856D01*
X217659511Y-116503856D02*
X217659511Y-118637511D01*
X217659511Y-118637511D02*
X228465000Y-129443000D01*
X217380489Y-97379511D02*
X217380489Y-116224834D01*
X218530000Y-96230000D02*
X217380489Y-97379511D01*
X235052000Y-115456000D02*
X233020000Y-115456000D01*
X233020000Y-115456000D02*
X231750000Y-114186000D01*
X235680000Y-116084000D02*
X235052000Y-115456000D01*
X235680000Y-120402000D02*
X235680000Y-116084000D01*
X236830000Y-121552000D02*
X235680000Y-120402000D01*
X236830000Y-126632000D02*
X236830000Y-121552000D01*
D22*
X239370000Y-104026000D02*
X238080000Y-105316000D01*
X238080000Y-115730000D02*
X236830000Y-116980000D01*
X238080000Y-105316000D02*
X238080000Y-115730000D01*
D21*
X230480000Y-128410000D02*
X229210000Y-127140000D01*
X229210000Y-127140000D02*
X229210000Y-116980000D01*
X229210000Y-111900000D02*
X224130000Y-116980000D01*
X229210000Y-104026000D02*
X229210000Y-111900000D01*
X221590000Y-115456000D02*
X221590000Y-116980000D01*
X228448000Y-108598000D02*
X221590000Y-115456000D01*
D22*
X260230000Y-124060000D02*
X260230000Y-103500000D01*
X241910000Y-142380000D02*
X260230000Y-124060000D01*
D20*
X213716000Y-136030000D02*
X213716000Y-137149500D01*
X218899500Y-137149500D02*
X224130000Y-142380000D01*
X213716000Y-134402500D02*
X213716000Y-136030000D01*
X213716000Y-137149500D02*
X218899500Y-137149500D01*
D21*
X228956000Y-128410000D02*
X227940000Y-127394000D01*
X227940000Y-127394000D02*
X227940000Y-115456000D01*
X227940000Y-115456000D02*
X229210000Y-114186000D01*
X235560000Y-126632000D02*
X235560000Y-131204000D01*
X235560000Y-131204000D02*
X234544000Y-132220000D01*
X234544000Y-132220000D02*
X225400000Y-132220000D01*
D20*
X208636000Y-127497500D02*
X213716000Y-132577500D01*
X205080000Y-110630000D02*
X208636000Y-114186000D01*
X205080000Y-110630000D02*
X211430000Y-104280000D01*
X205080000Y-110630000D02*
X202540000Y-110630000D01*
X211430000Y-104280000D02*
X211684000Y-104280000D01*
X208636000Y-114186000D02*
X208636000Y-127497500D01*
%TA.AperFunction,Conductor*%
G36*
X233266231Y-94510107D02*
G01*
X265487652Y-94511818D01*
X265505052Y-94513026D01*
X265524983Y-94515806D01*
X265524985Y-94515806D01*
X265533874Y-94517046D01*
X265551719Y-94514424D01*
X265575173Y-94513190D01*
X265814959Y-94522979D01*
X265829147Y-94524366D01*
X266093946Y-94565507D01*
X266107890Y-94568491D01*
X266366336Y-94639313D01*
X266379866Y-94643859D01*
X266628631Y-94743451D01*
X266641559Y-94749497D01*
X266877472Y-94876586D01*
X266889634Y-94884056D01*
X266932414Y-94913795D01*
X267022199Y-94976209D01*
X267109661Y-95037009D01*
X267120888Y-95045797D01*
X267322213Y-95222658D01*
X267332384Y-95232670D01*
X267512409Y-95431157D01*
X267521383Y-95442255D01*
X267677803Y-95659823D01*
X267685462Y-95671860D01*
X267816279Y-95905733D01*
X267822526Y-95918556D01*
X267845988Y-95974570D01*
X267908484Y-96123773D01*
X267926056Y-96165726D01*
X267930810Y-96179166D01*
X268005725Y-96436462D01*
X268008929Y-96450357D01*
X268053033Y-96707290D01*
X268054264Y-96714464D01*
X268055878Y-96728642D01*
X268056321Y-96736453D01*
X268069066Y-96961155D01*
X268067767Y-96987679D01*
X268066309Y-96997041D01*
X268067473Y-97005944D01*
X268067473Y-97005951D01*
X268070436Y-97028611D01*
X268071500Y-97044947D01*
X268071500Y-129376633D01*
X268070000Y-129396018D01*
X268066309Y-129419724D01*
X268067473Y-129428626D01*
X268067489Y-129428750D01*
X268067760Y-129459192D01*
X268067006Y-129465885D01*
X268060365Y-129524825D01*
X268054088Y-129552327D01*
X268025930Y-129632798D01*
X268013690Y-129658215D01*
X267968330Y-129730404D01*
X267950738Y-129752462D01*
X267890462Y-129812738D01*
X267868405Y-129830329D01*
X267837646Y-129849657D01*
X267796215Y-129875690D01*
X267770798Y-129887930D01*
X267690327Y-129916088D01*
X267662824Y-129922365D01*
X267603774Y-129929018D01*
X267588132Y-129928923D01*
X267588121Y-129929800D01*
X267579149Y-129929690D01*
X267570276Y-129928309D01*
X267561374Y-129929473D01*
X267561372Y-129929473D01*
X267550385Y-129930910D01*
X267538714Y-129932436D01*
X267522379Y-129933500D01*
X266093250Y-129933500D01*
X266072345Y-129931754D01*
X266057344Y-129929230D01*
X266057341Y-129929230D01*
X266052552Y-129928424D01*
X266046313Y-129928348D01*
X266044860Y-129928330D01*
X266044857Y-129928330D01*
X266040000Y-129928271D01*
X266035182Y-129928961D01*
X266025803Y-129930304D01*
X266016930Y-129931256D01*
X265943567Y-129936503D01*
X265822487Y-129945163D01*
X265818083Y-129946121D01*
X265613809Y-129990558D01*
X265613805Y-129990559D01*
X265609402Y-129991517D01*
X265605185Y-129993090D01*
X265605181Y-129993091D01*
X265462546Y-130046291D01*
X265405082Y-130067724D01*
X265213688Y-130172233D01*
X265039115Y-130302917D01*
X264884917Y-130457115D01*
X264754233Y-130631688D01*
X264747771Y-130643523D01*
X264654635Y-130814089D01*
X264649724Y-130823082D01*
X264648153Y-130827294D01*
X264578617Y-131013729D01*
X264573517Y-131027402D01*
X264572559Y-131031805D01*
X264572558Y-131031809D01*
X264570184Y-131042723D01*
X264527163Y-131240487D01*
X264526842Y-131244979D01*
X264513911Y-131425764D01*
X264512733Y-131436153D01*
X264510309Y-131451724D01*
X264511473Y-131460626D01*
X264511473Y-131460629D01*
X264514380Y-131482857D01*
X264515444Y-131499362D01*
X264495214Y-146526880D01*
X264491566Y-149236380D01*
X264490066Y-149255595D01*
X264486309Y-149279724D01*
X264488558Y-149296919D01*
X264489391Y-149320863D01*
X264473794Y-149578710D01*
X264471960Y-149593814D01*
X264420477Y-149874754D01*
X264416836Y-149889527D01*
X264331859Y-150162227D01*
X264326466Y-150176445D01*
X264209243Y-150436906D01*
X264202172Y-150450379D01*
X264054405Y-150694813D01*
X264045762Y-150707334D01*
X263869615Y-150932171D01*
X263859525Y-150943560D01*
X263657560Y-151145525D01*
X263646171Y-151155615D01*
X263421334Y-151331762D01*
X263408813Y-151340405D01*
X263164379Y-151488172D01*
X263150908Y-151495242D01*
X262890445Y-151612466D01*
X262876231Y-151617858D01*
X262603527Y-151702836D01*
X262588760Y-151706475D01*
X262379786Y-151744771D01*
X262307814Y-151757960D01*
X262292710Y-151759794D01*
X262042096Y-151774953D01*
X262015284Y-151773692D01*
X262015148Y-151773690D01*
X262006276Y-151772309D01*
X261997374Y-151773473D01*
X261997372Y-151773473D01*
X261982707Y-151775391D01*
X261974714Y-151776436D01*
X261958379Y-151777500D01*
X203049367Y-151777500D01*
X203029982Y-151776000D01*
X203015149Y-151773690D01*
X203015145Y-151773690D01*
X203006276Y-151772309D01*
X202989077Y-151774558D01*
X202965137Y-151775391D01*
X202707290Y-151759794D01*
X202692186Y-151757960D01*
X202620214Y-151744771D01*
X202411240Y-151706475D01*
X202396473Y-151702836D01*
X202123769Y-151617858D01*
X202109555Y-151612466D01*
X201849092Y-151495242D01*
X201835621Y-151488172D01*
X201591187Y-151340405D01*
X201578666Y-151331762D01*
X201353829Y-151155615D01*
X201342440Y-151145525D01*
X201140475Y-150943560D01*
X201130385Y-150932171D01*
X200954238Y-150707334D01*
X200945595Y-150694813D01*
X200797828Y-150450379D01*
X200790757Y-150436906D01*
X200673534Y-150176445D01*
X200668141Y-150162227D01*
X200583164Y-149889527D01*
X200579523Y-149874754D01*
X200528040Y-149593814D01*
X200526206Y-149578710D01*
X200511269Y-149331768D01*
X200512520Y-149308216D01*
X200512334Y-149308199D01*
X200512769Y-149303350D01*
X200513576Y-149298552D01*
X200513729Y-149286000D01*
X200509773Y-149258376D01*
X200508500Y-149240514D01*
X200508500Y-146542277D01*
X201637009Y-146542277D01*
X201662625Y-146810769D01*
X201663710Y-146815203D01*
X201663711Y-146815209D01*
X201725645Y-147068312D01*
X201726731Y-147072750D01*
X201827985Y-147322733D01*
X201964265Y-147555482D01*
X201967118Y-147559049D01*
X202084686Y-147706060D01*
X202132716Y-147766119D01*
X202329809Y-147950234D01*
X202551416Y-148103968D01*
X202555499Y-148105999D01*
X202555502Y-148106001D01*
X202625381Y-148140765D01*
X202792894Y-148224101D01*
X202797228Y-148225522D01*
X202797231Y-148225523D01*
X203044853Y-148306698D01*
X203044859Y-148306699D01*
X203049186Y-148308118D01*
X203053677Y-148308898D01*
X203053678Y-148308898D01*
X203311140Y-148353601D01*
X203311148Y-148353602D01*
X203314921Y-148354257D01*
X203318758Y-148354448D01*
X203398578Y-148358422D01*
X203398586Y-148358422D01*
X203400149Y-148358500D01*
X203568512Y-148358500D01*
X203570780Y-148358335D01*
X203570792Y-148358335D01*
X203701884Y-148348823D01*
X203769004Y-148343953D01*
X203773459Y-148342969D01*
X203773462Y-148342969D01*
X204027912Y-148286791D01*
X204027916Y-148286790D01*
X204032372Y-148285806D01*
X204158480Y-148238028D01*
X204280318Y-148191868D01*
X204280321Y-148191867D01*
X204284588Y-148190250D01*
X204520368Y-148059286D01*
X204685356Y-147933371D01*
X204731141Y-147898429D01*
X204731142Y-147898428D01*
X204734773Y-147895657D01*
X204912355Y-147714000D01*
X232190693Y-147714000D01*
X232209885Y-147933371D01*
X232266880Y-148146076D01*
X232269205Y-148151061D01*
X232357618Y-148340666D01*
X232357621Y-148340671D01*
X232359944Y-148345653D01*
X232363100Y-148350160D01*
X232363101Y-148350162D01*
X232368940Y-148358500D01*
X232486251Y-148526038D01*
X232641962Y-148681749D01*
X232822346Y-148808056D01*
X233021924Y-148901120D01*
X233234629Y-148958115D01*
X233454000Y-148977307D01*
X233673371Y-148958115D01*
X233886076Y-148901120D01*
X234085654Y-148808056D01*
X234266038Y-148681749D01*
X234421749Y-148526038D01*
X234539061Y-148358500D01*
X234544899Y-148350162D01*
X234544900Y-148350160D01*
X234548056Y-148345653D01*
X234550379Y-148340671D01*
X234550382Y-148340666D01*
X234638795Y-148151061D01*
X234641120Y-148146076D01*
X234698115Y-147933371D01*
X234717307Y-147714000D01*
X237090693Y-147714000D01*
X237109885Y-147933371D01*
X237166880Y-148146076D01*
X237169205Y-148151061D01*
X237257618Y-148340666D01*
X237257621Y-148340671D01*
X237259944Y-148345653D01*
X237263100Y-148350160D01*
X237263101Y-148350162D01*
X237268940Y-148358500D01*
X237386251Y-148526038D01*
X237541962Y-148681749D01*
X237722346Y-148808056D01*
X237921924Y-148901120D01*
X238134629Y-148958115D01*
X238354000Y-148977307D01*
X238573371Y-148958115D01*
X238786076Y-148901120D01*
X238985654Y-148808056D01*
X239166038Y-148681749D01*
X239321749Y-148526038D01*
X239439061Y-148358500D01*
X239444899Y-148350162D01*
X239444900Y-148350160D01*
X239448056Y-148345653D01*
X239450379Y-148340671D01*
X239450382Y-148340666D01*
X239538795Y-148151061D01*
X239541120Y-148146076D01*
X239598115Y-147933371D01*
X239617307Y-147714000D01*
X239598115Y-147494629D01*
X239541120Y-147281924D01*
X239497585Y-147188562D01*
X239450382Y-147087334D01*
X239450379Y-147087329D01*
X239448056Y-147082347D01*
X239438229Y-147068312D01*
X239324908Y-146906473D01*
X239324906Y-146906470D01*
X239321749Y-146901962D01*
X239166038Y-146746251D01*
X239145075Y-146731572D01*
X239086759Y-146690739D01*
X238985654Y-146619944D01*
X238819095Y-146542277D01*
X259637009Y-146542277D01*
X259662625Y-146810769D01*
X259663710Y-146815203D01*
X259663711Y-146815209D01*
X259725645Y-147068312D01*
X259726731Y-147072750D01*
X259827985Y-147322733D01*
X259964265Y-147555482D01*
X259967118Y-147559049D01*
X260084686Y-147706060D01*
X260132716Y-147766119D01*
X260329809Y-147950234D01*
X260551416Y-148103968D01*
X260555499Y-148105999D01*
X260555502Y-148106001D01*
X260625381Y-148140765D01*
X260792894Y-148224101D01*
X260797228Y-148225522D01*
X260797231Y-148225523D01*
X261044853Y-148306698D01*
X261044859Y-148306699D01*
X261049186Y-148308118D01*
X261053677Y-148308898D01*
X261053678Y-148308898D01*
X261311140Y-148353601D01*
X261311148Y-148353602D01*
X261314921Y-148354257D01*
X261318758Y-148354448D01*
X261398578Y-148358422D01*
X261398586Y-148358422D01*
X261400149Y-148358500D01*
X261568512Y-148358500D01*
X261570780Y-148358335D01*
X261570792Y-148358335D01*
X261701884Y-148348823D01*
X261769004Y-148343953D01*
X261773459Y-148342969D01*
X261773462Y-148342969D01*
X262027912Y-148286791D01*
X262027916Y-148286790D01*
X262032372Y-148285806D01*
X262158480Y-148238028D01*
X262280318Y-148191868D01*
X262280321Y-148191867D01*
X262284588Y-148190250D01*
X262520368Y-148059286D01*
X262685356Y-147933371D01*
X262731141Y-147898429D01*
X262731142Y-147898428D01*
X262734773Y-147895657D01*
X262923312Y-147702792D01*
X263082034Y-147484730D01*
X263165190Y-147326676D01*
X263205490Y-147250079D01*
X263205493Y-147250073D01*
X263207615Y-147246039D01*
X263267014Y-147077838D01*
X263295902Y-146996033D01*
X263295902Y-146996032D01*
X263297425Y-146991720D01*
X263333987Y-146806217D01*
X263348700Y-146731572D01*
X263348701Y-146731566D01*
X263349581Y-146727100D01*
X263349808Y-146722544D01*
X263362764Y-146462292D01*
X263362764Y-146462286D01*
X263362991Y-146457723D01*
X263337375Y-146189231D01*
X263292042Y-146003967D01*
X263274355Y-145931688D01*
X263273269Y-145927250D01*
X263172015Y-145677267D01*
X263035735Y-145444518D01*
X262917928Y-145297208D01*
X262870136Y-145237447D01*
X262870135Y-145237445D01*
X262867284Y-145233881D01*
X262670191Y-145049766D01*
X262448584Y-144896032D01*
X262444501Y-144894001D01*
X262444498Y-144893999D01*
X262279606Y-144811967D01*
X262207106Y-144775899D01*
X262202772Y-144774478D01*
X262202769Y-144774477D01*
X261955147Y-144693302D01*
X261955141Y-144693301D01*
X261950814Y-144691882D01*
X261946322Y-144691102D01*
X261688860Y-144646399D01*
X261688852Y-144646398D01*
X261685079Y-144645743D01*
X261673817Y-144645182D01*
X261601422Y-144641578D01*
X261601414Y-144641578D01*
X261599851Y-144641500D01*
X261431488Y-144641500D01*
X261429220Y-144641665D01*
X261429208Y-144641665D01*
X261298116Y-144651177D01*
X261230996Y-144656047D01*
X261226541Y-144657031D01*
X261226538Y-144657031D01*
X260972088Y-144713209D01*
X260972084Y-144713210D01*
X260967628Y-144714194D01*
X260841520Y-144761972D01*
X260719682Y-144808132D01*
X260719679Y-144808133D01*
X260715412Y-144809750D01*
X260479632Y-144940714D01*
X260265227Y-145104343D01*
X260076688Y-145297208D01*
X259917966Y-145515270D01*
X259915844Y-145519304D01*
X259794510Y-145749921D01*
X259794507Y-145749927D01*
X259792385Y-145753961D01*
X259790865Y-145758266D01*
X259790863Y-145758270D01*
X259704098Y-146003967D01*
X259702575Y-146008280D01*
X259650419Y-146272900D01*
X259650192Y-146277453D01*
X259650192Y-146277456D01*
X259637660Y-146529205D01*
X259637009Y-146542277D01*
X238819095Y-146542277D01*
X238786076Y-146526880D01*
X238573371Y-146469885D01*
X238354000Y-146450693D01*
X238134629Y-146469885D01*
X237921924Y-146526880D01*
X237879135Y-146546833D01*
X237727334Y-146617618D01*
X237727329Y-146617621D01*
X237722347Y-146619944D01*
X237717840Y-146623100D01*
X237717838Y-146623101D01*
X237546473Y-146743092D01*
X237546470Y-146743094D01*
X237541962Y-146746251D01*
X237386251Y-146901962D01*
X237383094Y-146906470D01*
X237383092Y-146906473D01*
X237269771Y-147068312D01*
X237259944Y-147082347D01*
X237257621Y-147087329D01*
X237257618Y-147087334D01*
X237210415Y-147188562D01*
X237166880Y-147281924D01*
X237109885Y-147494629D01*
X237090693Y-147714000D01*
X234717307Y-147714000D01*
X234698115Y-147494629D01*
X234641120Y-147281924D01*
X234597585Y-147188562D01*
X234550382Y-147087334D01*
X234550379Y-147087329D01*
X234548056Y-147082347D01*
X234538229Y-147068312D01*
X234424908Y-146906473D01*
X234424906Y-146906470D01*
X234421749Y-146901962D01*
X234266038Y-146746251D01*
X234245075Y-146731572D01*
X234186759Y-146690739D01*
X234085654Y-146619944D01*
X233886076Y-146526880D01*
X233673371Y-146469885D01*
X233454000Y-146450693D01*
X233234629Y-146469885D01*
X233021924Y-146526880D01*
X232979135Y-146546833D01*
X232827334Y-146617618D01*
X232827329Y-146617621D01*
X232822347Y-146619944D01*
X232817840Y-146623100D01*
X232817838Y-146623101D01*
X232646473Y-146743092D01*
X232646470Y-146743094D01*
X232641962Y-146746251D01*
X232486251Y-146901962D01*
X232483094Y-146906470D01*
X232483092Y-146906473D01*
X232369771Y-147068312D01*
X232359944Y-147082347D01*
X232357621Y-147087329D01*
X232357618Y-147087334D01*
X232310415Y-147188562D01*
X232266880Y-147281924D01*
X232209885Y-147494629D01*
X232190693Y-147714000D01*
X204912355Y-147714000D01*
X204923312Y-147702792D01*
X205082034Y-147484730D01*
X205165190Y-147326676D01*
X205205490Y-147250079D01*
X205205493Y-147250073D01*
X205207615Y-147246039D01*
X205267014Y-147077838D01*
X205295902Y-146996033D01*
X205295902Y-146996032D01*
X205297425Y-146991720D01*
X205333987Y-146806217D01*
X205348700Y-146731572D01*
X205348701Y-146731566D01*
X205349581Y-146727100D01*
X205349808Y-146722544D01*
X205362764Y-146462292D01*
X205362764Y-146462286D01*
X205362991Y-146457723D01*
X205337375Y-146189231D01*
X205292042Y-146003967D01*
X205274355Y-145931688D01*
X205273269Y-145927250D01*
X205172015Y-145677267D01*
X205035735Y-145444518D01*
X204917928Y-145297208D01*
X204870136Y-145237447D01*
X204870135Y-145237445D01*
X204867284Y-145233881D01*
X204670191Y-145049766D01*
X204448584Y-144896032D01*
X204444501Y-144894001D01*
X204444498Y-144893999D01*
X204279606Y-144811967D01*
X204207106Y-144775899D01*
X204202772Y-144774478D01*
X204202769Y-144774477D01*
X203955147Y-144693302D01*
X203955141Y-144693301D01*
X203950814Y-144691882D01*
X203946322Y-144691102D01*
X203688860Y-144646399D01*
X203688852Y-144646398D01*
X203685079Y-144645743D01*
X203673817Y-144645182D01*
X203601422Y-144641578D01*
X203601414Y-144641578D01*
X203599851Y-144641500D01*
X203431488Y-144641500D01*
X203429220Y-144641665D01*
X203429208Y-144641665D01*
X203298116Y-144651177D01*
X203230996Y-144656047D01*
X203226541Y-144657031D01*
X203226538Y-144657031D01*
X202972088Y-144713209D01*
X202972084Y-144713210D01*
X202967628Y-144714194D01*
X202841520Y-144761972D01*
X202719682Y-144808132D01*
X202719679Y-144808133D01*
X202715412Y-144809750D01*
X202479632Y-144940714D01*
X202265227Y-145104343D01*
X202076688Y-145297208D01*
X201917966Y-145515270D01*
X201915844Y-145519304D01*
X201794510Y-145749921D01*
X201794507Y-145749927D01*
X201792385Y-145753961D01*
X201790865Y-145758266D01*
X201790863Y-145758270D01*
X201704098Y-146003967D01*
X201702575Y-146008280D01*
X201650419Y-146272900D01*
X201650192Y-146277453D01*
X201650192Y-146277456D01*
X201637660Y-146529205D01*
X201637009Y-146542277D01*
X200508500Y-146542277D01*
X200508500Y-142479659D01*
X200528502Y-142411538D01*
X200582158Y-142365045D01*
X200652432Y-142354941D01*
X200710064Y-142378832D01*
X200731352Y-142394787D01*
X200746946Y-142403324D01*
X200867394Y-142448478D01*
X200882649Y-142452105D01*
X200933514Y-142457631D01*
X200940328Y-142458000D01*
X201562885Y-142458000D01*
X201578124Y-142453525D01*
X201579329Y-142452135D01*
X201581000Y-142444452D01*
X201581000Y-142439884D01*
X202089000Y-142439884D01*
X202093475Y-142455123D01*
X202094865Y-142456328D01*
X202102548Y-142457999D01*
X202729669Y-142457999D01*
X202736490Y-142457629D01*
X202787352Y-142452105D01*
X202802604Y-142448479D01*
X202923054Y-142403324D01*
X202938649Y-142394786D01*
X203040724Y-142318285D01*
X203053285Y-142305724D01*
X203129786Y-142203649D01*
X203138324Y-142188054D01*
X203183478Y-142067606D01*
X203187105Y-142052351D01*
X203192631Y-142001486D01*
X203193000Y-141994672D01*
X203193000Y-141372115D01*
X203188525Y-141356876D01*
X203187135Y-141355671D01*
X203179452Y-141354000D01*
X202107115Y-141354000D01*
X202091876Y-141358475D01*
X202090671Y-141359865D01*
X202089000Y-141367548D01*
X202089000Y-142439884D01*
X201581000Y-142439884D01*
X201581000Y-140972000D01*
X201601002Y-140903879D01*
X201654658Y-140857386D01*
X201707000Y-140846000D01*
X203174884Y-140846000D01*
X203190123Y-140841525D01*
X203191328Y-140840135D01*
X203192999Y-140832452D01*
X203192999Y-140205331D01*
X203192629Y-140198510D01*
X203187105Y-140147648D01*
X203183479Y-140132396D01*
X203138324Y-140011946D01*
X203129786Y-139996351D01*
X203053285Y-139894276D01*
X203040724Y-139881715D01*
X202938649Y-139805214D01*
X202923054Y-139796676D01*
X202812813Y-139755348D01*
X202756049Y-139712706D01*
X202731349Y-139646145D01*
X202746557Y-139576796D01*
X202768104Y-139548115D01*
X202869430Y-139447144D01*
X202869440Y-139447132D01*
X202873096Y-139443489D01*
X202925090Y-139371132D01*
X202997209Y-139270766D01*
X212733000Y-139270766D01*
X212733337Y-139277282D01*
X212743075Y-139371132D01*
X212745968Y-139384528D01*
X212796488Y-139535953D01*
X212802653Y-139549115D01*
X212886426Y-139684492D01*
X212895460Y-139695890D01*
X213008129Y-139808363D01*
X213019540Y-139817375D01*
X213155063Y-139900912D01*
X213168241Y-139907056D01*
X213319766Y-139957315D01*
X213333132Y-139960181D01*
X213425770Y-139969672D01*
X213432185Y-139970000D01*
X213443885Y-139970000D01*
X213459124Y-139965525D01*
X213460329Y-139964135D01*
X213462000Y-139956452D01*
X213462000Y-139951885D01*
X213970000Y-139951885D01*
X213974475Y-139967124D01*
X213975865Y-139968329D01*
X213983548Y-139970000D01*
X213999766Y-139970000D01*
X214006282Y-139969663D01*
X214100132Y-139959925D01*
X214113528Y-139957032D01*
X214264953Y-139906512D01*
X214278115Y-139900347D01*
X214413492Y-139816574D01*
X214424890Y-139807540D01*
X214537363Y-139694871D01*
X214546375Y-139683460D01*
X214629912Y-139547937D01*
X214636056Y-139534759D01*
X214686315Y-139383234D01*
X214689181Y-139369868D01*
X214698672Y-139277230D01*
X214699000Y-139270815D01*
X214699000Y-139246615D01*
X214694525Y-139231376D01*
X214693135Y-139230171D01*
X214685452Y-139228500D01*
X213988115Y-139228500D01*
X213972876Y-139232975D01*
X213971671Y-139234365D01*
X213970000Y-139242048D01*
X213970000Y-139951885D01*
X213462000Y-139951885D01*
X213462000Y-139246615D01*
X213457525Y-139231376D01*
X213456135Y-139230171D01*
X213448452Y-139228500D01*
X212751115Y-139228500D01*
X212735876Y-139232975D01*
X212734671Y-139234365D01*
X212733000Y-139242048D01*
X212733000Y-139270766D01*
X202997209Y-139270766D01*
X203000435Y-139266277D01*
X203003453Y-139262077D01*
X203018627Y-139231376D01*
X203100136Y-139066453D01*
X203100137Y-139066451D01*
X203102430Y-139061811D01*
X203167370Y-138848069D01*
X203196529Y-138626590D01*
X203197689Y-138579132D01*
X203198074Y-138563365D01*
X203198074Y-138563361D01*
X203198156Y-138560000D01*
X203179852Y-138337361D01*
X203125431Y-138120702D01*
X203036354Y-137915840D01*
X202915014Y-137728277D01*
X202764670Y-137563051D01*
X202760619Y-137559852D01*
X202760615Y-137559848D01*
X202593414Y-137427800D01*
X202593410Y-137427798D01*
X202589359Y-137424598D01*
X202548053Y-137401796D01*
X202498084Y-137351364D01*
X202483312Y-137281921D01*
X202508428Y-137215516D01*
X202535780Y-137188909D01*
X202579603Y-137157650D01*
X202714860Y-137061173D01*
X202873096Y-136903489D01*
X203003453Y-136722077D01*
X203069210Y-136589028D01*
X203100136Y-136526453D01*
X203100137Y-136526451D01*
X203102430Y-136521811D01*
X203167370Y-136308069D01*
X203196529Y-136086590D01*
X203198156Y-136020000D01*
X203179852Y-135797361D01*
X203125431Y-135580702D01*
X203036354Y-135375840D01*
X202915014Y-135188277D01*
X202764670Y-135023051D01*
X202760619Y-135019852D01*
X202760615Y-135019848D01*
X202593414Y-134887800D01*
X202593410Y-134887798D01*
X202589359Y-134884598D01*
X202548053Y-134861796D01*
X202498084Y-134811364D01*
X202483312Y-134741921D01*
X202508428Y-134675516D01*
X202535780Y-134648909D01*
X202579603Y-134617650D01*
X202714860Y-134521173D01*
X202873096Y-134363489D01*
X202885391Y-134346379D01*
X202889276Y-134340973D01*
X202945271Y-134297326D01*
X202991598Y-134288500D01*
X212606500Y-134288500D01*
X212674621Y-134308502D01*
X212721114Y-134362158D01*
X212732500Y-134414500D01*
X212732500Y-134702072D01*
X212732837Y-134705318D01*
X212732837Y-134705322D01*
X212740237Y-134776638D01*
X212743293Y-134806093D01*
X212745474Y-134812629D01*
X212745474Y-134812631D01*
X212789768Y-134945395D01*
X212798346Y-134971107D01*
X212818932Y-135004373D01*
X212888644Y-135117027D01*
X212907500Y-135183330D01*
X212907500Y-136368386D01*
X212888760Y-136434501D01*
X212874301Y-136457958D01*
X212836679Y-136518993D01*
X212797791Y-136582080D01*
X212743026Y-136747191D01*
X212742326Y-136754027D01*
X212742325Y-136754030D01*
X212739070Y-136785799D01*
X212732500Y-136849928D01*
X212732500Y-137449072D01*
X212743293Y-137553093D01*
X212745474Y-137559629D01*
X212745474Y-137559631D01*
X212746615Y-137563051D01*
X212798346Y-137718107D01*
X212889884Y-137866031D01*
X212997141Y-137973101D01*
X213031220Y-138035382D01*
X213026217Y-138106202D01*
X212997296Y-138151291D01*
X212894637Y-138254129D01*
X212885625Y-138265540D01*
X212802088Y-138401063D01*
X212795944Y-138414241D01*
X212745685Y-138565766D01*
X212742819Y-138579132D01*
X212733328Y-138671770D01*
X212733000Y-138678185D01*
X212733000Y-138702385D01*
X212737475Y-138717624D01*
X212738865Y-138718829D01*
X212746548Y-138720500D01*
X214680885Y-138720500D01*
X214696124Y-138716025D01*
X214697329Y-138714635D01*
X214699000Y-138706952D01*
X214699000Y-138678234D01*
X214698663Y-138671718D01*
X214688925Y-138577868D01*
X214686032Y-138564472D01*
X214635512Y-138413047D01*
X214629347Y-138399885D01*
X214545574Y-138264508D01*
X214536540Y-138253110D01*
X214456464Y-138173173D01*
X214422385Y-138110890D01*
X214427388Y-138040070D01*
X214469885Y-137983197D01*
X214536384Y-137958329D01*
X214545482Y-137958000D01*
X218512418Y-137958000D01*
X218580539Y-137978002D01*
X218601513Y-137994905D01*
X221433276Y-140826668D01*
X221467302Y-140888980D01*
X221462237Y-140959795D01*
X221419690Y-141016631D01*
X221363240Y-141040313D01*
X221328260Y-141045666D01*
X221274091Y-141053955D01*
X221061756Y-141123357D01*
X220863607Y-141226507D01*
X220859474Y-141229610D01*
X220859471Y-141229612D01*
X220689100Y-141357530D01*
X220684965Y-141360635D01*
X220530629Y-141522138D01*
X220423201Y-141679621D01*
X220368293Y-141724621D01*
X220297768Y-141732792D01*
X220234021Y-141701538D01*
X220213324Y-141677054D01*
X220132822Y-141552617D01*
X220132820Y-141552614D01*
X220130014Y-141548277D01*
X219979670Y-141383051D01*
X219975619Y-141379852D01*
X219975615Y-141379848D01*
X219808414Y-141247800D01*
X219808410Y-141247798D01*
X219804359Y-141244598D01*
X219608789Y-141136638D01*
X219603920Y-141134914D01*
X219603916Y-141134912D01*
X219403087Y-141063795D01*
X219403083Y-141063794D01*
X219398212Y-141062069D01*
X219393119Y-141061162D01*
X219393116Y-141061161D01*
X219183373Y-141023800D01*
X219183367Y-141023799D01*
X219178284Y-141022894D01*
X219104452Y-141021992D01*
X218960081Y-141020228D01*
X218960079Y-141020228D01*
X218954911Y-141020165D01*
X218734091Y-141053955D01*
X218521756Y-141123357D01*
X218323607Y-141226507D01*
X218319474Y-141229610D01*
X218319471Y-141229612D01*
X218149100Y-141357530D01*
X218144965Y-141360635D01*
X217990629Y-141522138D01*
X217883201Y-141679621D01*
X217828293Y-141724621D01*
X217757768Y-141732792D01*
X217694021Y-141701538D01*
X217673324Y-141677054D01*
X217592822Y-141552617D01*
X217592820Y-141552614D01*
X217590014Y-141548277D01*
X217439670Y-141383051D01*
X217435619Y-141379852D01*
X217435615Y-141379848D01*
X217268414Y-141247800D01*
X217268410Y-141247798D01*
X217264359Y-141244598D01*
X217068789Y-141136638D01*
X217063920Y-141134914D01*
X217063916Y-141134912D01*
X216863087Y-141063795D01*
X216863083Y-141063794D01*
X216858212Y-141062069D01*
X216853119Y-141061162D01*
X216853116Y-141061161D01*
X216643373Y-141023800D01*
X216643367Y-141023799D01*
X216638284Y-141022894D01*
X216564452Y-141021992D01*
X216420081Y-141020228D01*
X216420079Y-141020228D01*
X216414911Y-141020165D01*
X216194091Y-141053955D01*
X215981756Y-141123357D01*
X215783607Y-141226507D01*
X215779474Y-141229610D01*
X215779471Y-141229612D01*
X215609100Y-141357530D01*
X215604965Y-141360635D01*
X215450629Y-141522138D01*
X215343201Y-141679621D01*
X215288293Y-141724621D01*
X215217768Y-141732792D01*
X215154021Y-141701538D01*
X215133324Y-141677054D01*
X215052822Y-141552617D01*
X215052820Y-141552614D01*
X215050014Y-141548277D01*
X214899670Y-141383051D01*
X214895619Y-141379852D01*
X214895615Y-141379848D01*
X214728414Y-141247800D01*
X214728410Y-141247798D01*
X214724359Y-141244598D01*
X214528789Y-141136638D01*
X214523920Y-141134914D01*
X214523916Y-141134912D01*
X214323087Y-141063795D01*
X214323083Y-141063794D01*
X214318212Y-141062069D01*
X214313119Y-141061162D01*
X214313116Y-141061161D01*
X214103373Y-141023800D01*
X214103367Y-141023799D01*
X214098284Y-141022894D01*
X214024452Y-141021992D01*
X213880081Y-141020228D01*
X213880079Y-141020228D01*
X213874911Y-141020165D01*
X213654091Y-141053955D01*
X213441756Y-141123357D01*
X213243607Y-141226507D01*
X213239474Y-141229610D01*
X213239471Y-141229612D01*
X213069100Y-141357530D01*
X213064965Y-141360635D01*
X212910629Y-141522138D01*
X212803201Y-141679621D01*
X212748293Y-141724621D01*
X212677768Y-141732792D01*
X212614021Y-141701538D01*
X212593324Y-141677054D01*
X212512822Y-141552617D01*
X212512820Y-141552614D01*
X212510014Y-141548277D01*
X212359670Y-141383051D01*
X212355619Y-141379852D01*
X212355615Y-141379848D01*
X212188414Y-141247800D01*
X212188410Y-141247798D01*
X212184359Y-141244598D01*
X211988789Y-141136638D01*
X211983920Y-141134914D01*
X211983916Y-141134912D01*
X211783087Y-141063795D01*
X211783083Y-141063794D01*
X211778212Y-141062069D01*
X211773119Y-141061162D01*
X211773116Y-141061161D01*
X211563373Y-141023800D01*
X211563367Y-141023799D01*
X211558284Y-141022894D01*
X211484452Y-141021992D01*
X211340081Y-141020228D01*
X211340079Y-141020228D01*
X211334911Y-141020165D01*
X211114091Y-141053955D01*
X210901756Y-141123357D01*
X210703607Y-141226507D01*
X210699474Y-141229610D01*
X210699471Y-141229612D01*
X210529100Y-141357530D01*
X210524965Y-141360635D01*
X210370629Y-141522138D01*
X210244743Y-141706680D01*
X210150688Y-141909305D01*
X210090989Y-142124570D01*
X210067251Y-142346695D01*
X210067548Y-142351848D01*
X210067548Y-142351851D01*
X210079812Y-142564547D01*
X210080110Y-142569715D01*
X210081247Y-142574761D01*
X210081248Y-142574767D01*
X210101119Y-142662939D01*
X210129222Y-142787639D01*
X210213266Y-142994616D01*
X210264019Y-143077438D01*
X210327291Y-143180688D01*
X210329987Y-143185088D01*
X210476250Y-143353938D01*
X210648126Y-143496632D01*
X210841000Y-143609338D01*
X211049692Y-143689030D01*
X211054760Y-143690061D01*
X211054763Y-143690062D01*
X211159604Y-143711392D01*
X211268597Y-143733567D01*
X211273772Y-143733757D01*
X211273774Y-143733757D01*
X211486673Y-143741564D01*
X211486677Y-143741564D01*
X211491837Y-143741753D01*
X211496957Y-143741097D01*
X211496959Y-143741097D01*
X211708288Y-143714025D01*
X211708289Y-143714025D01*
X211713416Y-143713368D01*
X211718366Y-143711883D01*
X211922429Y-143650661D01*
X211922434Y-143650659D01*
X211927384Y-143649174D01*
X212127994Y-143550896D01*
X212309860Y-143421173D01*
X212468096Y-143263489D01*
X212527594Y-143180689D01*
X212598453Y-143082077D01*
X212599776Y-143083028D01*
X212646645Y-143039857D01*
X212716580Y-143027625D01*
X212782026Y-143055144D01*
X212809875Y-143086994D01*
X212869987Y-143185088D01*
X213016250Y-143353938D01*
X213188126Y-143496632D01*
X213381000Y-143609338D01*
X213589692Y-143689030D01*
X213594760Y-143690061D01*
X213594763Y-143690062D01*
X213699604Y-143711392D01*
X213808597Y-143733567D01*
X213813772Y-143733757D01*
X213813774Y-143733757D01*
X214026673Y-143741564D01*
X214026677Y-143741564D01*
X214031837Y-143741753D01*
X214036957Y-143741097D01*
X214036959Y-143741097D01*
X214248288Y-143714025D01*
X214248289Y-143714025D01*
X214253416Y-143713368D01*
X214258366Y-143711883D01*
X214462429Y-143650661D01*
X214462434Y-143650659D01*
X214467384Y-143649174D01*
X214667994Y-143550896D01*
X214849860Y-143421173D01*
X215008096Y-143263489D01*
X215067594Y-143180689D01*
X215138453Y-143082077D01*
X215139776Y-143083028D01*
X215186645Y-143039857D01*
X215256580Y-143027625D01*
X215322026Y-143055144D01*
X215349875Y-143086994D01*
X215409987Y-143185088D01*
X215556250Y-143353938D01*
X215728126Y-143496632D01*
X215921000Y-143609338D01*
X216129692Y-143689030D01*
X216134760Y-143690061D01*
X216134763Y-143690062D01*
X216239604Y-143711392D01*
X216348597Y-143733567D01*
X216353772Y-143733757D01*
X216353774Y-143733757D01*
X216566673Y-143741564D01*
X216566677Y-143741564D01*
X216571837Y-143741753D01*
X216576957Y-143741097D01*
X216576959Y-143741097D01*
X216788288Y-143714025D01*
X216788289Y-143714025D01*
X216793416Y-143713368D01*
X216798366Y-143711883D01*
X217002429Y-143650661D01*
X217002434Y-143650659D01*
X217007384Y-143649174D01*
X217207994Y-143550896D01*
X217389860Y-143421173D01*
X217548096Y-143263489D01*
X217607594Y-143180689D01*
X217678453Y-143082077D01*
X217679776Y-143083028D01*
X217726645Y-143039857D01*
X217796580Y-143027625D01*
X217862026Y-143055144D01*
X217889875Y-143086994D01*
X217949987Y-143185088D01*
X218096250Y-143353938D01*
X218268126Y-143496632D01*
X218461000Y-143609338D01*
X218669692Y-143689030D01*
X218674760Y-143690061D01*
X218674763Y-143690062D01*
X218779604Y-143711392D01*
X218888597Y-143733567D01*
X218893772Y-143733757D01*
X218893774Y-143733757D01*
X219106673Y-143741564D01*
X219106677Y-143741564D01*
X219111837Y-143741753D01*
X219116957Y-143741097D01*
X219116959Y-143741097D01*
X219328288Y-143714025D01*
X219328289Y-143714025D01*
X219333416Y-143713368D01*
X219338366Y-143711883D01*
X219542429Y-143650661D01*
X219542434Y-143650659D01*
X219547384Y-143649174D01*
X219747994Y-143550896D01*
X219929860Y-143421173D01*
X220088096Y-143263489D01*
X220147594Y-143180689D01*
X220218453Y-143082077D01*
X220219776Y-143083028D01*
X220266645Y-143039857D01*
X220336580Y-143027625D01*
X220402026Y-143055144D01*
X220429875Y-143086994D01*
X220489987Y-143185088D01*
X220636250Y-143353938D01*
X220808126Y-143496632D01*
X221001000Y-143609338D01*
X221209692Y-143689030D01*
X221214760Y-143690061D01*
X221214763Y-143690062D01*
X221319604Y-143711392D01*
X221428597Y-143733567D01*
X221433772Y-143733757D01*
X221433774Y-143733757D01*
X221646673Y-143741564D01*
X221646677Y-143741564D01*
X221651837Y-143741753D01*
X221656957Y-143741097D01*
X221656959Y-143741097D01*
X221868288Y-143714025D01*
X221868289Y-143714025D01*
X221873416Y-143713368D01*
X221878366Y-143711883D01*
X222082429Y-143650661D01*
X222082434Y-143650659D01*
X222087384Y-143649174D01*
X222287994Y-143550896D01*
X222469860Y-143421173D01*
X222628096Y-143263489D01*
X222687594Y-143180689D01*
X222758453Y-143082077D01*
X222759776Y-143083028D01*
X222806645Y-143039857D01*
X222876580Y-143027625D01*
X222942026Y-143055144D01*
X222969875Y-143086994D01*
X223029987Y-143185088D01*
X223176250Y-143353938D01*
X223348126Y-143496632D01*
X223541000Y-143609338D01*
X223749692Y-143689030D01*
X223754760Y-143690061D01*
X223754763Y-143690062D01*
X223859604Y-143711392D01*
X223968597Y-143733567D01*
X223973772Y-143733757D01*
X223973774Y-143733757D01*
X224186673Y-143741564D01*
X224186677Y-143741564D01*
X224191837Y-143741753D01*
X224196957Y-143741097D01*
X224196959Y-143741097D01*
X224408288Y-143714025D01*
X224408289Y-143714025D01*
X224413416Y-143713368D01*
X224418366Y-143711883D01*
X224622429Y-143650661D01*
X224622434Y-143650659D01*
X224627384Y-143649174D01*
X224827994Y-143550896D01*
X225009860Y-143421173D01*
X225168096Y-143263489D01*
X225227594Y-143180689D01*
X225298453Y-143082077D01*
X225299776Y-143083028D01*
X225346645Y-143039857D01*
X225416580Y-143027625D01*
X225482026Y-143055144D01*
X225509875Y-143086994D01*
X225569987Y-143185088D01*
X225716250Y-143353938D01*
X225888126Y-143496632D01*
X226081000Y-143609338D01*
X226289692Y-143689030D01*
X226294760Y-143690061D01*
X226294763Y-143690062D01*
X226399604Y-143711392D01*
X226508597Y-143733567D01*
X226513772Y-143733757D01*
X226513774Y-143733757D01*
X226726673Y-143741564D01*
X226726677Y-143741564D01*
X226731837Y-143741753D01*
X226736957Y-143741097D01*
X226736959Y-143741097D01*
X226948288Y-143714025D01*
X226948289Y-143714025D01*
X226953416Y-143713368D01*
X226958366Y-143711883D01*
X227162429Y-143650661D01*
X227162434Y-143650659D01*
X227167384Y-143649174D01*
X227367994Y-143550896D01*
X227549860Y-143421173D01*
X227708096Y-143263489D01*
X227767594Y-143180689D01*
X227838453Y-143082077D01*
X227839776Y-143083028D01*
X227886645Y-143039857D01*
X227956580Y-143027625D01*
X228022026Y-143055144D01*
X228049875Y-143086994D01*
X228109987Y-143185088D01*
X228256250Y-143353938D01*
X228428126Y-143496632D01*
X228621000Y-143609338D01*
X228829692Y-143689030D01*
X228834760Y-143690061D01*
X228834763Y-143690062D01*
X228939604Y-143711392D01*
X229048597Y-143733567D01*
X229053772Y-143733757D01*
X229053774Y-143733757D01*
X229266673Y-143741564D01*
X229266677Y-143741564D01*
X229271837Y-143741753D01*
X229276957Y-143741097D01*
X229276959Y-143741097D01*
X229488288Y-143714025D01*
X229488289Y-143714025D01*
X229493416Y-143713368D01*
X229498366Y-143711883D01*
X229702429Y-143650661D01*
X229702434Y-143650659D01*
X229707384Y-143649174D01*
X229907994Y-143550896D01*
X230089860Y-143421173D01*
X230248096Y-143263489D01*
X230307594Y-143180689D01*
X230378453Y-143082077D01*
X230379776Y-143083028D01*
X230426645Y-143039857D01*
X230496580Y-143027625D01*
X230562026Y-143055144D01*
X230589875Y-143086994D01*
X230649987Y-143185088D01*
X230796250Y-143353938D01*
X230968126Y-143496632D01*
X231161000Y-143609338D01*
X231369692Y-143689030D01*
X231374760Y-143690061D01*
X231374763Y-143690062D01*
X231479604Y-143711392D01*
X231588597Y-143733567D01*
X231593772Y-143733757D01*
X231593774Y-143733757D01*
X231806673Y-143741564D01*
X231806677Y-143741564D01*
X231811837Y-143741753D01*
X231816957Y-143741097D01*
X231816959Y-143741097D01*
X232028288Y-143714025D01*
X232028289Y-143714025D01*
X232033416Y-143713368D01*
X232038366Y-143711883D01*
X232242429Y-143650661D01*
X232242434Y-143650659D01*
X232247384Y-143649174D01*
X232447994Y-143550896D01*
X232629860Y-143421173D01*
X232788096Y-143263489D01*
X232847594Y-143180689D01*
X232918453Y-143082077D01*
X232919776Y-143083028D01*
X232966645Y-143039857D01*
X233036580Y-143027625D01*
X233102026Y-143055144D01*
X233129875Y-143086994D01*
X233189987Y-143185088D01*
X233336250Y-143353938D01*
X233508126Y-143496632D01*
X233701000Y-143609338D01*
X233909692Y-143689030D01*
X233914760Y-143690061D01*
X233914763Y-143690062D01*
X234019604Y-143711392D01*
X234128597Y-143733567D01*
X234133772Y-143733757D01*
X234133774Y-143733757D01*
X234346673Y-143741564D01*
X234346677Y-143741564D01*
X234351837Y-143741753D01*
X234356957Y-143741097D01*
X234356959Y-143741097D01*
X234568288Y-143714025D01*
X234568289Y-143714025D01*
X234573416Y-143713368D01*
X234578366Y-143711883D01*
X234782429Y-143650661D01*
X234782434Y-143650659D01*
X234787384Y-143649174D01*
X234987994Y-143550896D01*
X235169860Y-143421173D01*
X235328096Y-143263489D01*
X235387594Y-143180689D01*
X235458453Y-143082077D01*
X235459776Y-143083028D01*
X235506645Y-143039857D01*
X235576580Y-143027625D01*
X235642026Y-143055144D01*
X235669875Y-143086994D01*
X235729987Y-143185088D01*
X235876250Y-143353938D01*
X236048126Y-143496632D01*
X236241000Y-143609338D01*
X236449692Y-143689030D01*
X236454760Y-143690061D01*
X236454763Y-143690062D01*
X236559604Y-143711392D01*
X236668597Y-143733567D01*
X236673772Y-143733757D01*
X236673774Y-143733757D01*
X236886673Y-143741564D01*
X236886677Y-143741564D01*
X236891837Y-143741753D01*
X236896957Y-143741097D01*
X236896959Y-143741097D01*
X237108288Y-143714025D01*
X237108289Y-143714025D01*
X237113416Y-143713368D01*
X237118366Y-143711883D01*
X237322429Y-143650661D01*
X237322434Y-143650659D01*
X237327384Y-143649174D01*
X237527994Y-143550896D01*
X237709860Y-143421173D01*
X237868096Y-143263489D01*
X237927594Y-143180689D01*
X237998453Y-143082077D01*
X237999776Y-143083028D01*
X238046645Y-143039857D01*
X238116580Y-143027625D01*
X238182026Y-143055144D01*
X238209875Y-143086994D01*
X238269987Y-143185088D01*
X238416250Y-143353938D01*
X238588126Y-143496632D01*
X238781000Y-143609338D01*
X238989692Y-143689030D01*
X238994760Y-143690061D01*
X238994763Y-143690062D01*
X239099604Y-143711392D01*
X239208597Y-143733567D01*
X239213772Y-143733757D01*
X239213774Y-143733757D01*
X239426673Y-143741564D01*
X239426677Y-143741564D01*
X239431837Y-143741753D01*
X239436957Y-143741097D01*
X239436959Y-143741097D01*
X239648288Y-143714025D01*
X239648289Y-143714025D01*
X239653416Y-143713368D01*
X239658366Y-143711883D01*
X239862429Y-143650661D01*
X239862434Y-143650659D01*
X239867384Y-143649174D01*
X240067994Y-143550896D01*
X240249860Y-143421173D01*
X240408096Y-143263489D01*
X240467594Y-143180689D01*
X240538453Y-143082077D01*
X240539776Y-143083028D01*
X240586645Y-143039857D01*
X240656580Y-143027625D01*
X240722026Y-143055144D01*
X240749875Y-143086994D01*
X240809987Y-143185088D01*
X240956250Y-143353938D01*
X241128126Y-143496632D01*
X241321000Y-143609338D01*
X241529692Y-143689030D01*
X241534760Y-143690061D01*
X241534763Y-143690062D01*
X241639604Y-143711392D01*
X241748597Y-143733567D01*
X241753772Y-143733757D01*
X241753774Y-143733757D01*
X241966673Y-143741564D01*
X241966677Y-143741564D01*
X241971837Y-143741753D01*
X241976957Y-143741097D01*
X241976959Y-143741097D01*
X242188288Y-143714025D01*
X242188289Y-143714025D01*
X242193416Y-143713368D01*
X242198366Y-143711883D01*
X242402429Y-143650661D01*
X242402434Y-143650659D01*
X242407384Y-143649174D01*
X242607994Y-143550896D01*
X242672544Y-143504853D01*
X243689977Y-143504853D01*
X243695258Y-143511907D01*
X243856756Y-143606279D01*
X243866042Y-143610729D01*
X244065001Y-143686703D01*
X244074899Y-143689579D01*
X244283595Y-143732038D01*
X244293823Y-143733257D01*
X244506650Y-143741062D01*
X244516936Y-143740595D01*
X244728185Y-143713534D01*
X244738262Y-143711392D01*
X244942255Y-143650191D01*
X244951842Y-143646433D01*
X245143098Y-143552738D01*
X245151944Y-143547465D01*
X245199247Y-143513723D01*
X245207648Y-143503023D01*
X245200660Y-143489870D01*
X244462812Y-142752022D01*
X244448868Y-142744408D01*
X244447035Y-142744539D01*
X244440420Y-142748790D01*
X243696737Y-143492473D01*
X243689977Y-143504853D01*
X242672544Y-143504853D01*
X242789860Y-143421173D01*
X242948096Y-143263489D01*
X243007594Y-143180689D01*
X243078453Y-143082077D01*
X243079640Y-143082930D01*
X243126960Y-143039362D01*
X243196897Y-143027145D01*
X243262338Y-143054678D01*
X243290166Y-143086512D01*
X243316459Y-143129419D01*
X243326916Y-143138880D01*
X243335694Y-143135096D01*
X244089658Y-142381132D01*
X244814408Y-142381132D01*
X244814539Y-142382965D01*
X244818790Y-142389580D01*
X245560474Y-143131264D01*
X245572484Y-143137823D01*
X245584223Y-143128855D01*
X245618022Y-143081819D01*
X245619277Y-143082721D01*
X245666391Y-143039355D01*
X245736330Y-143027148D01*
X245801767Y-143054691D01*
X245829580Y-143086513D01*
X245887287Y-143180683D01*
X245887291Y-143180688D01*
X245889987Y-143185088D01*
X246036250Y-143353938D01*
X246208126Y-143496632D01*
X246401000Y-143609338D01*
X246609692Y-143689030D01*
X246614760Y-143690061D01*
X246614763Y-143690062D01*
X246719604Y-143711392D01*
X246828597Y-143733567D01*
X246833772Y-143733757D01*
X246833774Y-143733757D01*
X247046673Y-143741564D01*
X247046677Y-143741564D01*
X247051837Y-143741753D01*
X247056957Y-143741097D01*
X247056959Y-143741097D01*
X247268288Y-143714025D01*
X247268289Y-143714025D01*
X247273416Y-143713368D01*
X247278366Y-143711883D01*
X247482429Y-143650661D01*
X247482434Y-143650659D01*
X247487384Y-143649174D01*
X247687994Y-143550896D01*
X247869860Y-143421173D01*
X248028096Y-143263489D01*
X248087594Y-143180689D01*
X248155435Y-143086277D01*
X248158453Y-143082077D01*
X248171995Y-143054678D01*
X248255136Y-142886453D01*
X248255137Y-142886451D01*
X248257430Y-142881811D01*
X248322370Y-142668069D01*
X248351529Y-142446590D01*
X248351693Y-142439884D01*
X248353074Y-142383365D01*
X248353074Y-142383361D01*
X248353156Y-142380000D01*
X248334852Y-142157361D01*
X248280431Y-141940702D01*
X248191354Y-141735840D01*
X248070014Y-141548277D01*
X247919670Y-141383051D01*
X247915619Y-141379852D01*
X247915615Y-141379848D01*
X247748414Y-141247800D01*
X247748410Y-141247798D01*
X247744359Y-141244598D01*
X247548789Y-141136638D01*
X247543920Y-141134914D01*
X247543916Y-141134912D01*
X247343087Y-141063795D01*
X247343083Y-141063794D01*
X247338212Y-141062069D01*
X247333119Y-141061162D01*
X247333116Y-141061161D01*
X247123373Y-141023800D01*
X247123367Y-141023799D01*
X247118284Y-141022894D01*
X247044452Y-141021992D01*
X246900081Y-141020228D01*
X246900079Y-141020228D01*
X246894911Y-141020165D01*
X246674091Y-141053955D01*
X246461756Y-141123357D01*
X246263607Y-141226507D01*
X246259474Y-141229610D01*
X246259471Y-141229612D01*
X246089100Y-141357530D01*
X246084965Y-141360635D01*
X245930629Y-141522138D01*
X245823204Y-141679618D01*
X245822898Y-141680066D01*
X245767987Y-141725069D01*
X245697462Y-141733240D01*
X245633715Y-141701986D01*
X245613017Y-141677501D01*
X245583062Y-141631197D01*
X245572377Y-141621995D01*
X245562812Y-141626398D01*
X244822022Y-142367188D01*
X244814408Y-142381132D01*
X244089658Y-142381132D01*
X245203389Y-141267401D01*
X245210410Y-141254544D01*
X245203611Y-141245213D01*
X245199554Y-141242518D01*
X245013117Y-141139599D01*
X245003705Y-141135369D01*
X244802959Y-141064280D01*
X244792989Y-141061646D01*
X244583327Y-141024301D01*
X244573071Y-141023331D01*
X244571298Y-141023309D01*
X244570611Y-141023098D01*
X244567914Y-141022843D01*
X244567967Y-141022286D01*
X244503427Y-141002473D01*
X244457595Y-140948252D01*
X244448354Y-140877859D01*
X244478636Y-140813645D01*
X244483747Y-140808223D01*
X252112514Y-133179457D01*
X260710528Y-124581443D01*
X260716793Y-124575589D01*
X260754664Y-124542552D01*
X260754665Y-124542551D01*
X260760385Y-124537561D01*
X260797136Y-124485271D01*
X260801028Y-124480029D01*
X260840476Y-124429718D01*
X260843600Y-124422799D01*
X260844988Y-124420507D01*
X260853357Y-124405835D01*
X260854622Y-124403475D01*
X260858990Y-124397261D01*
X260882203Y-124337723D01*
X260884759Y-124331642D01*
X260907918Y-124280352D01*
X260911045Y-124273427D01*
X260912430Y-124265954D01*
X260913234Y-124263388D01*
X260917855Y-124247165D01*
X260918520Y-124244573D01*
X260921282Y-124237491D01*
X260929622Y-124174139D01*
X260930654Y-124167623D01*
X260940911Y-124112281D01*
X260942295Y-124104814D01*
X260938709Y-124042620D01*
X260938500Y-124035367D01*
X260938500Y-104728297D01*
X260958502Y-104660176D01*
X260991332Y-104625718D01*
X261105656Y-104544172D01*
X261105659Y-104544170D01*
X261109860Y-104541173D01*
X261114866Y-104536185D01*
X261218479Y-104432933D01*
X261280851Y-104399017D01*
X261351658Y-104404205D01*
X261408419Y-104446851D01*
X261425401Y-104477954D01*
X261466676Y-104588054D01*
X261475214Y-104603649D01*
X261551715Y-104705724D01*
X261564276Y-104718285D01*
X261666351Y-104794786D01*
X261681946Y-104803324D01*
X261802394Y-104848478D01*
X261817649Y-104852105D01*
X261868514Y-104857631D01*
X261875328Y-104858000D01*
X262497885Y-104858000D01*
X262513124Y-104853525D01*
X262514329Y-104852135D01*
X262516000Y-104844452D01*
X262516000Y-104839884D01*
X263024000Y-104839884D01*
X263028475Y-104855123D01*
X263029865Y-104856328D01*
X263037548Y-104857999D01*
X263664669Y-104857999D01*
X263671490Y-104857629D01*
X263722352Y-104852105D01*
X263737604Y-104848479D01*
X263858054Y-104803324D01*
X263873649Y-104794786D01*
X263975724Y-104718285D01*
X263988285Y-104705724D01*
X264064786Y-104603649D01*
X264073324Y-104588054D01*
X264118478Y-104467606D01*
X264122105Y-104452351D01*
X264127631Y-104401486D01*
X264128000Y-104394672D01*
X264128000Y-103772115D01*
X264123525Y-103756876D01*
X264122135Y-103755671D01*
X264114452Y-103754000D01*
X263042115Y-103754000D01*
X263026876Y-103758475D01*
X263025671Y-103759865D01*
X263024000Y-103767548D01*
X263024000Y-104839884D01*
X262516000Y-104839884D01*
X262516000Y-103227885D01*
X263024000Y-103227885D01*
X263028475Y-103243124D01*
X263029865Y-103244329D01*
X263037548Y-103246000D01*
X264109884Y-103246000D01*
X264125123Y-103241525D01*
X264126328Y-103240135D01*
X264127999Y-103232452D01*
X264127999Y-102605331D01*
X264127629Y-102598510D01*
X264122105Y-102547648D01*
X264118479Y-102532396D01*
X264073324Y-102411946D01*
X264064786Y-102396351D01*
X263988285Y-102294276D01*
X263975724Y-102281715D01*
X263873649Y-102205214D01*
X263858054Y-102196676D01*
X263737606Y-102151522D01*
X263722351Y-102147895D01*
X263671486Y-102142369D01*
X263664672Y-102142000D01*
X263042115Y-102142000D01*
X263026876Y-102146475D01*
X263025671Y-102147865D01*
X263024000Y-102155548D01*
X263024000Y-103227885D01*
X262516000Y-103227885D01*
X262516000Y-102160116D01*
X262511525Y-102144877D01*
X262510135Y-102143672D01*
X262502452Y-102142001D01*
X261875331Y-102142001D01*
X261868510Y-102142371D01*
X261817648Y-102147895D01*
X261802396Y-102151521D01*
X261681946Y-102196676D01*
X261666351Y-102205214D01*
X261564276Y-102281715D01*
X261551715Y-102294276D01*
X261475214Y-102396351D01*
X261466676Y-102411946D01*
X261425297Y-102522322D01*
X261382655Y-102579087D01*
X261316093Y-102603786D01*
X261246744Y-102588578D01*
X261214121Y-102562891D01*
X261163151Y-102506876D01*
X261163148Y-102506873D01*
X261159670Y-102503051D01*
X261155619Y-102499852D01*
X261155615Y-102499848D01*
X260988414Y-102367800D01*
X260988410Y-102367798D01*
X260984359Y-102364598D01*
X260788789Y-102256638D01*
X260783920Y-102254914D01*
X260783916Y-102254912D01*
X260583087Y-102183795D01*
X260583083Y-102183794D01*
X260578212Y-102182069D01*
X260573119Y-102181162D01*
X260573116Y-102181161D01*
X260363373Y-102143800D01*
X260363367Y-102143799D01*
X260358284Y-102142894D01*
X260284452Y-102141992D01*
X260140081Y-102140228D01*
X260140079Y-102140228D01*
X260134911Y-102140165D01*
X259914091Y-102173955D01*
X259701756Y-102243357D01*
X259503607Y-102346507D01*
X259499474Y-102349610D01*
X259499471Y-102349612D01*
X259416450Y-102411946D01*
X259324965Y-102480635D01*
X259285128Y-102522322D01*
X259191785Y-102620000D01*
X259170629Y-102642138D01*
X259167715Y-102646410D01*
X259167714Y-102646411D01*
X259113181Y-102726353D01*
X259044743Y-102826680D01*
X258950688Y-103029305D01*
X258890989Y-103244570D01*
X258867251Y-103466695D01*
X258867548Y-103471848D01*
X258867548Y-103471851D01*
X258879056Y-103671433D01*
X258880110Y-103689715D01*
X258881247Y-103694761D01*
X258881248Y-103694767D01*
X258905304Y-103801508D01*
X258929222Y-103907639D01*
X258990673Y-104058976D01*
X259005670Y-104095908D01*
X259013266Y-104114616D01*
X259015965Y-104119020D01*
X259118172Y-104285807D01*
X259129987Y-104305088D01*
X259276250Y-104473938D01*
X259448126Y-104616632D01*
X259459070Y-104623027D01*
X259507793Y-104674664D01*
X259521500Y-104731815D01*
X259521500Y-123714340D01*
X259501498Y-123782461D01*
X259484595Y-123803435D01*
X242277316Y-141010714D01*
X242215004Y-141044740D01*
X242166125Y-141045666D01*
X242043373Y-141023800D01*
X242043367Y-141023799D01*
X242038284Y-141022894D01*
X241964452Y-141021992D01*
X241820081Y-141020228D01*
X241820079Y-141020228D01*
X241814911Y-141020165D01*
X241594091Y-141053955D01*
X241381756Y-141123357D01*
X241183607Y-141226507D01*
X241179474Y-141229610D01*
X241179471Y-141229612D01*
X241009100Y-141357530D01*
X241004965Y-141360635D01*
X240850629Y-141522138D01*
X240743201Y-141679621D01*
X240688293Y-141724621D01*
X240617768Y-141732792D01*
X240554021Y-141701538D01*
X240533324Y-141677054D01*
X240452822Y-141552617D01*
X240452820Y-141552614D01*
X240450014Y-141548277D01*
X240299670Y-141383051D01*
X240295619Y-141379852D01*
X240295615Y-141379848D01*
X240128414Y-141247800D01*
X240128410Y-141247798D01*
X240124359Y-141244598D01*
X239928789Y-141136638D01*
X239923920Y-141134914D01*
X239923916Y-141134912D01*
X239723087Y-141063795D01*
X239723083Y-141063794D01*
X239718212Y-141062069D01*
X239713119Y-141061162D01*
X239713116Y-141061161D01*
X239503373Y-141023800D01*
X239503367Y-141023799D01*
X239498284Y-141022894D01*
X239424452Y-141021992D01*
X239280081Y-141020228D01*
X239280079Y-141020228D01*
X239274911Y-141020165D01*
X239054091Y-141053955D01*
X238841756Y-141123357D01*
X238643607Y-141226507D01*
X238639474Y-141229610D01*
X238639471Y-141229612D01*
X238469100Y-141357530D01*
X238464965Y-141360635D01*
X238310629Y-141522138D01*
X238203201Y-141679621D01*
X238148293Y-141724621D01*
X238077768Y-141732792D01*
X238014021Y-141701538D01*
X237993324Y-141677054D01*
X237912822Y-141552617D01*
X237912820Y-141552614D01*
X237910014Y-141548277D01*
X237759670Y-141383051D01*
X237755619Y-141379852D01*
X237755615Y-141379848D01*
X237588414Y-141247800D01*
X237588410Y-141247798D01*
X237584359Y-141244598D01*
X237388789Y-141136638D01*
X237383920Y-141134914D01*
X237383916Y-141134912D01*
X237183087Y-141063795D01*
X237183083Y-141063794D01*
X237178212Y-141062069D01*
X237173119Y-141061162D01*
X237173116Y-141061161D01*
X236963373Y-141023800D01*
X236963367Y-141023799D01*
X236958284Y-141022894D01*
X236884452Y-141021992D01*
X236740081Y-141020228D01*
X236740079Y-141020228D01*
X236734911Y-141020165D01*
X236514091Y-141053955D01*
X236301756Y-141123357D01*
X236103607Y-141226507D01*
X236099474Y-141229610D01*
X236099471Y-141229612D01*
X235929100Y-141357530D01*
X235924965Y-141360635D01*
X235770629Y-141522138D01*
X235663201Y-141679621D01*
X235608293Y-141724621D01*
X235537768Y-141732792D01*
X235474021Y-141701538D01*
X235453324Y-141677054D01*
X235372822Y-141552617D01*
X235372820Y-141552614D01*
X235370014Y-141548277D01*
X235219670Y-141383051D01*
X235215619Y-141379852D01*
X235215615Y-141379848D01*
X235048414Y-141247800D01*
X235048410Y-141247798D01*
X235044359Y-141244598D01*
X234848789Y-141136638D01*
X234843920Y-141134914D01*
X234843916Y-141134912D01*
X234643087Y-141063795D01*
X234643083Y-141063794D01*
X234638212Y-141062069D01*
X234633119Y-141061162D01*
X234633116Y-141061161D01*
X234423373Y-141023800D01*
X234423367Y-141023799D01*
X234418284Y-141022894D01*
X234344452Y-141021992D01*
X234200081Y-141020228D01*
X234200079Y-141020228D01*
X234194911Y-141020165D01*
X233974091Y-141053955D01*
X233761756Y-141123357D01*
X233563607Y-141226507D01*
X233559474Y-141229610D01*
X233559471Y-141229612D01*
X233389100Y-141357530D01*
X233384965Y-141360635D01*
X233230629Y-141522138D01*
X233123201Y-141679621D01*
X233068293Y-141724621D01*
X232997768Y-141732792D01*
X232934021Y-141701538D01*
X232913324Y-141677054D01*
X232832822Y-141552617D01*
X232832820Y-141552614D01*
X232830014Y-141548277D01*
X232679670Y-141383051D01*
X232675619Y-141379852D01*
X232675615Y-141379848D01*
X232508414Y-141247800D01*
X232508410Y-141247798D01*
X232504359Y-141244598D01*
X232308789Y-141136638D01*
X232303920Y-141134914D01*
X232303916Y-141134912D01*
X232103087Y-141063795D01*
X232103083Y-141063794D01*
X232098212Y-141062069D01*
X232093119Y-141061162D01*
X232093116Y-141061161D01*
X231883373Y-141023800D01*
X231883367Y-141023799D01*
X231878284Y-141022894D01*
X231804452Y-141021992D01*
X231660081Y-141020228D01*
X231660079Y-141020228D01*
X231654911Y-141020165D01*
X231434091Y-141053955D01*
X231221756Y-141123357D01*
X231023607Y-141226507D01*
X231019474Y-141229610D01*
X231019471Y-141229612D01*
X230849100Y-141357530D01*
X230844965Y-141360635D01*
X230690629Y-141522138D01*
X230583201Y-141679621D01*
X230528293Y-141724621D01*
X230457768Y-141732792D01*
X230394021Y-141701538D01*
X230373324Y-141677054D01*
X230292822Y-141552617D01*
X230292820Y-141552614D01*
X230290014Y-141548277D01*
X230139670Y-141383051D01*
X230135619Y-141379852D01*
X230135615Y-141379848D01*
X229968414Y-141247800D01*
X229968410Y-141247798D01*
X229964359Y-141244598D01*
X229768789Y-141136638D01*
X229763920Y-141134914D01*
X229763916Y-141134912D01*
X229563087Y-141063795D01*
X229563083Y-141063794D01*
X229558212Y-141062069D01*
X229553119Y-141061162D01*
X229553116Y-141061161D01*
X229343373Y-141023800D01*
X229343367Y-141023799D01*
X229338284Y-141022894D01*
X229264452Y-141021992D01*
X229120081Y-141020228D01*
X229120079Y-141020228D01*
X229114911Y-141020165D01*
X228894091Y-141053955D01*
X228681756Y-141123357D01*
X228483607Y-141226507D01*
X228479474Y-141229610D01*
X228479471Y-141229612D01*
X228309100Y-141357530D01*
X228304965Y-141360635D01*
X228150629Y-141522138D01*
X228043201Y-141679621D01*
X227988293Y-141724621D01*
X227917768Y-141732792D01*
X227854021Y-141701538D01*
X227833324Y-141677054D01*
X227752822Y-141552617D01*
X227752820Y-141552614D01*
X227750014Y-141548277D01*
X227599670Y-141383051D01*
X227595619Y-141379852D01*
X227595615Y-141379848D01*
X227428414Y-141247800D01*
X227428410Y-141247798D01*
X227424359Y-141244598D01*
X227228789Y-141136638D01*
X227223920Y-141134914D01*
X227223916Y-141134912D01*
X227023087Y-141063795D01*
X227023083Y-141063794D01*
X227018212Y-141062069D01*
X227013119Y-141061162D01*
X227013116Y-141061161D01*
X226803373Y-141023800D01*
X226803367Y-141023799D01*
X226798284Y-141022894D01*
X226724452Y-141021992D01*
X226580081Y-141020228D01*
X226580079Y-141020228D01*
X226574911Y-141020165D01*
X226354091Y-141053955D01*
X226141756Y-141123357D01*
X225943607Y-141226507D01*
X225939474Y-141229610D01*
X225939471Y-141229612D01*
X225769100Y-141357530D01*
X225764965Y-141360635D01*
X225610629Y-141522138D01*
X225503201Y-141679621D01*
X225448293Y-141724621D01*
X225377768Y-141732792D01*
X225314021Y-141701538D01*
X225293324Y-141677054D01*
X225212822Y-141552617D01*
X225212820Y-141552614D01*
X225210014Y-141548277D01*
X225059670Y-141383051D01*
X225055619Y-141379852D01*
X225055615Y-141379848D01*
X224888414Y-141247800D01*
X224888410Y-141247798D01*
X224884359Y-141244598D01*
X224688789Y-141136638D01*
X224683920Y-141134914D01*
X224683916Y-141134912D01*
X224483087Y-141063795D01*
X224483083Y-141063794D01*
X224478212Y-141062069D01*
X224473119Y-141061162D01*
X224473116Y-141061161D01*
X224263373Y-141023800D01*
X224263367Y-141023799D01*
X224258284Y-141022894D01*
X224187770Y-141022033D01*
X224040082Y-141020228D01*
X224040080Y-141020228D01*
X224034911Y-141020165D01*
X224021050Y-141022286D01*
X223992712Y-141026622D01*
X223922349Y-141017154D01*
X223884559Y-140991167D01*
X219477734Y-136584342D01*
X219476806Y-136583405D01*
X219418657Y-136524025D01*
X219418656Y-136524024D01*
X219413729Y-136518993D01*
X219377279Y-136495502D01*
X219366954Y-136488083D01*
X219333057Y-136461024D01*
X219302862Y-136446427D01*
X219289445Y-136438898D01*
X219281840Y-136433997D01*
X219261262Y-136420735D01*
X219254645Y-136418327D01*
X219254640Y-136418324D01*
X219220527Y-136405908D01*
X219208784Y-136400947D01*
X219176097Y-136385146D01*
X219176092Y-136385144D01*
X219169751Y-136382079D01*
X219162893Y-136380496D01*
X219162891Y-136380495D01*
X219137074Y-136374535D01*
X219122331Y-136370168D01*
X219090815Y-136358697D01*
X219083825Y-136357814D01*
X219083817Y-136357812D01*
X219047799Y-136353262D01*
X219035247Y-136351026D01*
X218999886Y-136342862D01*
X218999883Y-136342862D01*
X218993015Y-136341276D01*
X218985969Y-136341251D01*
X218985966Y-136341251D01*
X218952444Y-136341134D01*
X218951562Y-136341105D01*
X218950731Y-136341000D01*
X218914081Y-136341000D01*
X218913641Y-136340999D01*
X218815157Y-136340655D01*
X218815152Y-136340655D01*
X218811630Y-136340643D01*
X218810430Y-136340911D01*
X218808793Y-136341000D01*
X214650500Y-136341000D01*
X214582379Y-136320998D01*
X214535886Y-136267342D01*
X214524500Y-136215000D01*
X214524500Y-135183614D01*
X214543240Y-135117498D01*
X214543531Y-135117027D01*
X214599104Y-135026870D01*
X214630369Y-134976150D01*
X214630370Y-134976148D01*
X214634209Y-134969920D01*
X214688974Y-134804809D01*
X214699500Y-134702072D01*
X214699500Y-134414500D01*
X214719502Y-134346379D01*
X214773158Y-134299886D01*
X214825500Y-134288500D01*
X240640786Y-134288500D01*
X240642106Y-134288507D01*
X240732221Y-134289451D01*
X240774597Y-134280289D01*
X240787163Y-134278231D01*
X240830255Y-134273397D01*
X240836906Y-134271081D01*
X240836910Y-134271080D01*
X240861930Y-134262367D01*
X240876742Y-134258204D01*
X240902619Y-134252609D01*
X240909510Y-134251119D01*
X240948813Y-134232792D01*
X240960589Y-134228010D01*
X241001552Y-134213745D01*
X241007527Y-134210011D01*
X241007530Y-134210010D01*
X241029995Y-134195973D01*
X241043512Y-134188634D01*
X241067514Y-134177441D01*
X241067515Y-134177440D01*
X241073902Y-134174462D01*
X241108153Y-134147894D01*
X241118612Y-134140598D01*
X241149404Y-134121358D01*
X241149407Y-134121356D01*
X241155376Y-134117626D01*
X241184179Y-134089024D01*
X241184804Y-134088439D01*
X241185470Y-134087922D01*
X241211460Y-134061932D01*
X241284082Y-133989815D01*
X241284740Y-133988778D01*
X241285843Y-133987549D01*
X251619158Y-123654234D01*
X251620095Y-123653306D01*
X251679475Y-123595157D01*
X251679476Y-123595156D01*
X251684507Y-123590229D01*
X251707998Y-123553779D01*
X251715417Y-123543454D01*
X251742476Y-123509557D01*
X251757073Y-123479362D01*
X251764602Y-123465945D01*
X251778948Y-123443684D01*
X251782765Y-123437762D01*
X251785173Y-123431145D01*
X251785176Y-123431140D01*
X251797592Y-123397027D01*
X251802553Y-123385284D01*
X251818353Y-123352600D01*
X251818356Y-123352591D01*
X251821421Y-123346251D01*
X251828966Y-123313572D01*
X251833334Y-123298825D01*
X251844803Y-123267315D01*
X251845685Y-123260330D01*
X251845687Y-123260323D01*
X251850237Y-123224308D01*
X251852472Y-123211757D01*
X251860640Y-123176378D01*
X251862225Y-123169515D01*
X251862367Y-123128928D01*
X251862396Y-123128058D01*
X251862500Y-123127231D01*
X251862500Y-123090590D01*
X251862857Y-122988130D01*
X251862589Y-122986930D01*
X251862500Y-122985292D01*
X251862500Y-109317291D01*
X251882502Y-109249170D01*
X251936158Y-109202677D01*
X251974892Y-109192028D01*
X251987086Y-109190703D01*
X252014316Y-109187745D01*
X252150705Y-109136615D01*
X252267261Y-109049261D01*
X252354615Y-108932705D01*
X252376799Y-108873529D01*
X252398598Y-108815382D01*
X252441240Y-108758618D01*
X252507802Y-108733918D01*
X252577150Y-108749126D01*
X252611817Y-108777114D01*
X252640250Y-108809938D01*
X252812126Y-108952632D01*
X253005000Y-109065338D01*
X253213692Y-109145030D01*
X253218760Y-109146061D01*
X253218763Y-109146062D01*
X253326017Y-109167883D01*
X253432597Y-109189567D01*
X253437772Y-109189757D01*
X253437774Y-109189757D01*
X253650673Y-109197564D01*
X253650677Y-109197564D01*
X253655837Y-109197753D01*
X253660957Y-109197097D01*
X253660959Y-109197097D01*
X253872288Y-109170025D01*
X253872289Y-109170025D01*
X253877416Y-109169368D01*
X253882366Y-109167883D01*
X254086429Y-109106661D01*
X254086434Y-109106659D01*
X254091384Y-109105174D01*
X254291994Y-109006896D01*
X254473860Y-108877173D01*
X254632096Y-108719489D01*
X254762453Y-108538077D01*
X254763776Y-108539028D01*
X254810645Y-108495857D01*
X254880580Y-108483625D01*
X254946026Y-108511144D01*
X254973875Y-108542994D01*
X255033987Y-108641088D01*
X255180250Y-108809938D01*
X255352126Y-108952632D01*
X255545000Y-109065338D01*
X255753692Y-109145030D01*
X255758760Y-109146061D01*
X255758763Y-109146062D01*
X255866017Y-109167883D01*
X255972597Y-109189567D01*
X255977772Y-109189757D01*
X255977774Y-109189757D01*
X256190673Y-109197564D01*
X256190677Y-109197564D01*
X256195837Y-109197753D01*
X256200957Y-109197097D01*
X256200959Y-109197097D01*
X256412288Y-109170025D01*
X256412289Y-109170025D01*
X256417416Y-109169368D01*
X256422366Y-109167883D01*
X256626429Y-109106661D01*
X256626434Y-109106659D01*
X256631384Y-109105174D01*
X256831994Y-109006896D01*
X257013860Y-108877173D01*
X257172096Y-108719489D01*
X257302453Y-108538077D01*
X257323320Y-108495857D01*
X257399136Y-108342453D01*
X257399137Y-108342451D01*
X257401430Y-108337811D01*
X257462321Y-108137396D01*
X257464865Y-108129023D01*
X257464865Y-108129021D01*
X257466370Y-108124069D01*
X257495529Y-107902590D01*
X257496097Y-107879348D01*
X257497074Y-107839365D01*
X257497074Y-107839361D01*
X257497156Y-107836000D01*
X257478852Y-107613361D01*
X257424431Y-107396702D01*
X257335354Y-107191840D01*
X257214014Y-107004277D01*
X257063670Y-106839051D01*
X257059619Y-106835852D01*
X257059615Y-106835848D01*
X256892414Y-106703800D01*
X256892410Y-106703798D01*
X256888359Y-106700598D01*
X256692789Y-106592638D01*
X256687920Y-106590914D01*
X256687916Y-106590912D01*
X256487087Y-106519795D01*
X256487083Y-106519794D01*
X256482212Y-106518069D01*
X256477119Y-106517162D01*
X256477116Y-106517161D01*
X256267373Y-106479800D01*
X256267367Y-106479799D01*
X256262284Y-106478894D01*
X256188452Y-106477992D01*
X256044081Y-106476228D01*
X256044079Y-106476228D01*
X256038911Y-106476165D01*
X255818091Y-106509955D01*
X255605756Y-106579357D01*
X255577299Y-106594171D01*
X255438103Y-106666632D01*
X255407607Y-106682507D01*
X255403474Y-106685610D01*
X255403471Y-106685612D01*
X255282112Y-106776731D01*
X255228965Y-106816635D01*
X255189203Y-106858243D01*
X255117729Y-106933037D01*
X255074629Y-106978138D01*
X254967201Y-107135621D01*
X254912293Y-107180621D01*
X254841768Y-107188792D01*
X254778021Y-107157538D01*
X254757324Y-107133054D01*
X254676822Y-107008617D01*
X254676820Y-107008614D01*
X254674014Y-107004277D01*
X254523670Y-106839051D01*
X254519619Y-106835852D01*
X254519615Y-106835848D01*
X254352414Y-106703800D01*
X254352410Y-106703798D01*
X254348359Y-106700598D01*
X254152789Y-106592638D01*
X254147920Y-106590914D01*
X254147916Y-106590912D01*
X253947087Y-106519795D01*
X253947083Y-106519794D01*
X253942212Y-106518069D01*
X253937119Y-106517162D01*
X253937116Y-106517161D01*
X253727373Y-106479800D01*
X253727367Y-106479799D01*
X253722284Y-106478894D01*
X253648452Y-106477992D01*
X253504081Y-106476228D01*
X253504079Y-106476228D01*
X253498911Y-106476165D01*
X253278091Y-106509955D01*
X253065756Y-106579357D01*
X253037299Y-106594171D01*
X252898103Y-106666632D01*
X252867607Y-106682507D01*
X252863474Y-106685610D01*
X252863471Y-106685612D01*
X252742112Y-106776731D01*
X252688965Y-106816635D01*
X252625194Y-106883368D01*
X252608283Y-106901064D01*
X252546759Y-106936494D01*
X252475846Y-106933037D01*
X252418060Y-106891791D01*
X252399207Y-106858243D01*
X252357767Y-106747703D01*
X252354615Y-106739295D01*
X252267261Y-106622739D01*
X252150705Y-106535385D01*
X252014316Y-106484255D01*
X251952134Y-106477500D01*
X250155866Y-106477500D01*
X250093684Y-106484255D01*
X249957295Y-106535385D01*
X249840739Y-106622739D01*
X249753385Y-106739295D01*
X249702255Y-106875684D01*
X249695500Y-106937866D01*
X249695500Y-108734134D01*
X249702255Y-108796316D01*
X249753385Y-108932705D01*
X249840739Y-109049261D01*
X249957295Y-109136615D01*
X250093684Y-109187745D01*
X250120914Y-109190703D01*
X250133108Y-109192028D01*
X250198670Y-109219270D01*
X250239096Y-109277634D01*
X250245500Y-109317291D01*
X250245500Y-122688918D01*
X250225498Y-122757039D01*
X250208595Y-122778013D01*
X240352013Y-132634595D01*
X240289701Y-132668621D01*
X240262918Y-132671500D01*
X235257239Y-132671500D01*
X235189118Y-132651498D01*
X235142625Y-132597842D01*
X235132521Y-132527568D01*
X235162015Y-132462988D01*
X235168144Y-132456405D01*
X235956234Y-131668315D01*
X235968625Y-131657448D01*
X235987437Y-131643013D01*
X235993987Y-131637987D01*
X236018474Y-131606075D01*
X236018480Y-131606069D01*
X236086496Y-131517429D01*
X236086497Y-131517427D01*
X236091524Y-131510876D01*
X236152838Y-131362851D01*
X236160172Y-131307139D01*
X236168500Y-131243885D01*
X236168500Y-131243880D01*
X236173750Y-131204000D01*
X236169578Y-131172307D01*
X236168500Y-131155864D01*
X236168500Y-127308798D01*
X236188502Y-127240677D01*
X236242158Y-127194184D01*
X236312432Y-127184080D01*
X236363493Y-127203366D01*
X236388838Y-127219951D01*
X236497189Y-127290854D01*
X236651428Y-127348215D01*
X236658409Y-127349146D01*
X236658411Y-127349147D01*
X236807561Y-127369048D01*
X236807565Y-127369048D01*
X236814542Y-127369979D01*
X236821553Y-127369341D01*
X236821557Y-127369341D01*
X236971403Y-127355704D01*
X236971404Y-127355704D01*
X236978424Y-127355065D01*
X237007062Y-127345760D01*
X237128230Y-127306390D01*
X237128233Y-127306389D01*
X237134929Y-127304213D01*
X237276279Y-127219951D01*
X237395449Y-127106468D01*
X237411458Y-127082373D01*
X237482614Y-126975275D01*
X237482615Y-126975273D01*
X237486515Y-126969403D01*
X237544951Y-126815568D01*
X237567853Y-126652610D01*
X237568141Y-126632000D01*
X237549798Y-126468466D01*
X237495680Y-126313060D01*
X237490473Y-126304726D01*
X237457646Y-126252193D01*
X237438500Y-126185423D01*
X237438500Y-121600144D01*
X237439578Y-121583698D01*
X237442673Y-121560188D01*
X237443751Y-121552000D01*
X237422838Y-121393149D01*
X237361524Y-121245124D01*
X237288478Y-121149929D01*
X237288474Y-121149925D01*
X237288471Y-121149921D01*
X237269016Y-121124566D01*
X237269013Y-121124563D01*
X237263987Y-121118013D01*
X237257432Y-121112983D01*
X237238621Y-121098548D01*
X237226230Y-121087681D01*
X236325405Y-120186856D01*
X236291379Y-120124544D01*
X236288500Y-120097761D01*
X236288500Y-118409574D01*
X236308502Y-118341453D01*
X236362158Y-118294960D01*
X236432432Y-118284856D01*
X236447009Y-118288006D01*
X236449692Y-118289030D01*
X236454762Y-118290061D01*
X236454767Y-118290063D01*
X236582882Y-118316128D01*
X236668597Y-118333567D01*
X236673772Y-118333757D01*
X236673774Y-118333757D01*
X236886673Y-118341564D01*
X236886677Y-118341564D01*
X236891837Y-118341753D01*
X236896957Y-118341097D01*
X236896959Y-118341097D01*
X237108288Y-118314025D01*
X237108289Y-118314025D01*
X237113416Y-118313368D01*
X237118366Y-118311883D01*
X237322429Y-118250661D01*
X237322434Y-118250659D01*
X237327384Y-118249174D01*
X237527994Y-118150896D01*
X237709860Y-118021173D01*
X237868096Y-117863489D01*
X237927594Y-117780689D01*
X237998453Y-117682077D01*
X237999776Y-117683028D01*
X238046645Y-117639857D01*
X238116580Y-117627625D01*
X238182026Y-117655144D01*
X238209875Y-117686994D01*
X238269987Y-117785088D01*
X238416250Y-117953938D01*
X238588126Y-118096632D01*
X238781000Y-118209338D01*
X238785825Y-118211180D01*
X238785826Y-118211181D01*
X238828501Y-118227477D01*
X238989692Y-118289030D01*
X238994760Y-118290061D01*
X238994763Y-118290062D01*
X239099604Y-118311392D01*
X239208597Y-118333567D01*
X239213772Y-118333757D01*
X239213774Y-118333757D01*
X239426673Y-118341564D01*
X239426677Y-118341564D01*
X239431837Y-118341753D01*
X239436957Y-118341097D01*
X239436959Y-118341097D01*
X239648288Y-118314025D01*
X239648289Y-118314025D01*
X239653416Y-118313368D01*
X239658366Y-118311883D01*
X239862429Y-118250661D01*
X239862434Y-118250659D01*
X239867384Y-118249174D01*
X240067994Y-118150896D01*
X240249860Y-118021173D01*
X240408096Y-117863489D01*
X240467594Y-117780689D01*
X240538453Y-117682077D01*
X240539776Y-117683028D01*
X240586645Y-117639857D01*
X240656580Y-117627625D01*
X240722026Y-117655144D01*
X240749875Y-117686994D01*
X240809987Y-117785088D01*
X240956250Y-117953938D01*
X241128126Y-118096632D01*
X241321000Y-118209338D01*
X241325825Y-118211180D01*
X241325826Y-118211181D01*
X241368501Y-118227477D01*
X241529692Y-118289030D01*
X241534760Y-118290061D01*
X241534763Y-118290062D01*
X241639604Y-118311392D01*
X241748597Y-118333567D01*
X241753772Y-118333757D01*
X241753774Y-118333757D01*
X241966673Y-118341564D01*
X241966677Y-118341564D01*
X241971837Y-118341753D01*
X241976957Y-118341097D01*
X241976959Y-118341097D01*
X242188288Y-118314025D01*
X242188289Y-118314025D01*
X242193416Y-118313368D01*
X242198366Y-118311883D01*
X242402429Y-118250661D01*
X242402434Y-118250659D01*
X242407384Y-118249174D01*
X242607994Y-118150896D01*
X242672544Y-118104853D01*
X243689977Y-118104853D01*
X243695258Y-118111907D01*
X243856756Y-118206279D01*
X243866042Y-118210729D01*
X244065001Y-118286703D01*
X244074899Y-118289579D01*
X244283595Y-118332038D01*
X244293823Y-118333257D01*
X244506650Y-118341062D01*
X244516936Y-118340595D01*
X244728185Y-118313534D01*
X244738262Y-118311392D01*
X244942255Y-118250191D01*
X244951842Y-118246433D01*
X245143098Y-118152738D01*
X245151944Y-118147465D01*
X245199247Y-118113723D01*
X245207648Y-118103023D01*
X245200660Y-118089870D01*
X244462812Y-117352022D01*
X244448868Y-117344408D01*
X244447035Y-117344539D01*
X244440420Y-117348790D01*
X243696737Y-118092473D01*
X243689977Y-118104853D01*
X242672544Y-118104853D01*
X242789860Y-118021173D01*
X242948096Y-117863489D01*
X243007594Y-117780689D01*
X243078453Y-117682077D01*
X243079640Y-117682930D01*
X243126960Y-117639362D01*
X243196897Y-117627145D01*
X243262338Y-117654678D01*
X243290166Y-117686512D01*
X243316459Y-117729419D01*
X243326916Y-117738880D01*
X243335694Y-117735096D01*
X244077978Y-116992812D01*
X244084356Y-116981132D01*
X244814408Y-116981132D01*
X244814539Y-116982965D01*
X244818790Y-116989580D01*
X245560474Y-117731264D01*
X245565887Y-117734220D01*
X245616088Y-117784423D01*
X245631500Y-117844807D01*
X245631500Y-117878134D01*
X245638255Y-117940316D01*
X245689385Y-118076705D01*
X245776739Y-118193261D01*
X245893295Y-118280615D01*
X246029684Y-118331745D01*
X246091866Y-118338500D01*
X247888134Y-118338500D01*
X247950316Y-118331745D01*
X248086705Y-118280615D01*
X248203261Y-118193261D01*
X248290615Y-118076705D01*
X248341745Y-117940316D01*
X248348500Y-117878134D01*
X248348500Y-116081866D01*
X248341745Y-116019684D01*
X248290615Y-115883295D01*
X248203261Y-115766739D01*
X248086705Y-115679385D01*
X247950316Y-115628255D01*
X247888134Y-115621500D01*
X246091866Y-115621500D01*
X246029684Y-115628255D01*
X245893295Y-115679385D01*
X245776739Y-115766739D01*
X245689385Y-115883295D01*
X245638255Y-116019684D01*
X245631500Y-116081866D01*
X245631500Y-116114072D01*
X245611498Y-116182193D01*
X245576209Y-116212863D01*
X245576427Y-116213096D01*
X245571689Y-116217521D01*
X244822022Y-116967188D01*
X244814408Y-116981132D01*
X244084356Y-116981132D01*
X244085592Y-116978868D01*
X244085461Y-116977035D01*
X244081210Y-116970420D01*
X243339849Y-116229059D01*
X243328313Y-116222759D01*
X243316031Y-116232382D01*
X243283499Y-116280072D01*
X243228587Y-116325075D01*
X243158063Y-116333246D01*
X243094316Y-116301992D01*
X243073618Y-116277508D01*
X242992822Y-116152617D01*
X242992820Y-116152614D01*
X242990014Y-116148277D01*
X242839670Y-115983051D01*
X242835619Y-115979852D01*
X242835615Y-115979848D01*
X242679338Y-115856427D01*
X243691223Y-115856427D01*
X243697968Y-115868758D01*
X244437188Y-116607978D01*
X244451132Y-116615592D01*
X244452965Y-116615461D01*
X244459580Y-116611210D01*
X245203389Y-115867401D01*
X245210410Y-115854544D01*
X245203611Y-115845213D01*
X245199554Y-115842518D01*
X245013117Y-115739599D01*
X245003705Y-115735369D01*
X244802959Y-115664280D01*
X244792989Y-115661646D01*
X244583327Y-115624301D01*
X244573073Y-115623331D01*
X244360116Y-115620728D01*
X244349832Y-115621448D01*
X244139321Y-115653661D01*
X244129293Y-115656050D01*
X243926868Y-115722212D01*
X243917359Y-115726209D01*
X243728466Y-115824540D01*
X243719734Y-115830039D01*
X243699677Y-115845099D01*
X243691223Y-115856427D01*
X242679338Y-115856427D01*
X242668414Y-115847800D01*
X242668410Y-115847798D01*
X242664359Y-115844598D01*
X242637986Y-115830039D01*
X242548805Y-115780809D01*
X242498834Y-115730376D01*
X242484062Y-115660933D01*
X242509178Y-115594528D01*
X242566209Y-115552243D01*
X242609698Y-115544500D01*
X242808134Y-115544500D01*
X242870316Y-115537745D01*
X243006705Y-115486615D01*
X243123261Y-115399261D01*
X243210615Y-115282705D01*
X243261745Y-115146316D01*
X243268500Y-115084134D01*
X243268500Y-113287866D01*
X243261745Y-113225684D01*
X243210615Y-113089295D01*
X243123261Y-112972739D01*
X243006705Y-112885385D01*
X242998303Y-112882235D01*
X242991490Y-112878505D01*
X242941344Y-112828247D01*
X242926000Y-112767986D01*
X242926000Y-104980815D01*
X242949677Y-104907289D01*
X243075435Y-104732277D01*
X243078453Y-104728077D01*
X243081152Y-104722617D01*
X243175136Y-104532453D01*
X243175137Y-104532451D01*
X243177430Y-104527811D01*
X243211827Y-104414598D01*
X243240865Y-104319023D01*
X243240865Y-104319021D01*
X243242370Y-104314069D01*
X243271529Y-104092590D01*
X243273156Y-104026000D01*
X243254852Y-103803361D01*
X243200431Y-103586702D01*
X243111354Y-103381840D01*
X243069333Y-103316885D01*
X242992822Y-103198617D01*
X242992820Y-103198614D01*
X242990014Y-103194277D01*
X242839670Y-103029051D01*
X242835619Y-103025852D01*
X242835615Y-103025848D01*
X242668414Y-102893800D01*
X242668410Y-102893798D01*
X242664359Y-102890598D01*
X242468789Y-102782638D01*
X242463920Y-102780914D01*
X242463916Y-102780912D01*
X242263087Y-102709795D01*
X242263083Y-102709794D01*
X242258212Y-102708069D01*
X242253119Y-102707162D01*
X242253116Y-102707161D01*
X242043373Y-102669800D01*
X242043367Y-102669799D01*
X242038284Y-102668894D01*
X241964452Y-102667992D01*
X241820081Y-102666228D01*
X241820079Y-102666228D01*
X241814911Y-102666165D01*
X241594091Y-102699955D01*
X241381756Y-102769357D01*
X241306690Y-102808434D01*
X241245365Y-102840358D01*
X241183607Y-102872507D01*
X241179474Y-102875610D01*
X241179471Y-102875612D01*
X241009100Y-103003530D01*
X241004965Y-103006635D01*
X240850629Y-103168138D01*
X240743201Y-103325621D01*
X240688293Y-103370621D01*
X240617768Y-103378792D01*
X240554021Y-103347538D01*
X240533324Y-103323054D01*
X240452822Y-103198617D01*
X240452820Y-103198614D01*
X240450014Y-103194277D01*
X240299670Y-103029051D01*
X240295619Y-103025852D01*
X240295615Y-103025848D01*
X240128414Y-102893800D01*
X240128410Y-102893798D01*
X240124359Y-102890598D01*
X239928789Y-102782638D01*
X239923920Y-102780914D01*
X239923916Y-102780912D01*
X239723087Y-102709795D01*
X239723083Y-102709794D01*
X239718212Y-102708069D01*
X239713119Y-102707162D01*
X239713116Y-102707161D01*
X239503373Y-102669800D01*
X239503367Y-102669799D01*
X239498284Y-102668894D01*
X239424452Y-102667992D01*
X239280081Y-102666228D01*
X239280079Y-102666228D01*
X239274911Y-102666165D01*
X239054091Y-102699955D01*
X238841756Y-102769357D01*
X238766690Y-102808434D01*
X238705365Y-102840358D01*
X238643607Y-102872507D01*
X238639474Y-102875610D01*
X238639471Y-102875612D01*
X238469100Y-103003530D01*
X238464965Y-103006635D01*
X238310629Y-103168138D01*
X238203201Y-103325621D01*
X238148293Y-103370621D01*
X238077768Y-103378792D01*
X238014021Y-103347538D01*
X237993324Y-103323054D01*
X237912822Y-103198617D01*
X237912820Y-103198614D01*
X237910014Y-103194277D01*
X237759670Y-103029051D01*
X237755619Y-103025852D01*
X237755615Y-103025848D01*
X237588414Y-102893800D01*
X237588410Y-102893798D01*
X237584359Y-102890598D01*
X237388789Y-102782638D01*
X237383920Y-102780914D01*
X237383916Y-102780912D01*
X237183087Y-102709795D01*
X237183083Y-102709794D01*
X237178212Y-102708069D01*
X237173119Y-102707162D01*
X237173116Y-102707161D01*
X236963373Y-102669800D01*
X236963367Y-102669799D01*
X236958284Y-102668894D01*
X236884452Y-102667992D01*
X236740081Y-102666228D01*
X236740079Y-102666228D01*
X236734911Y-102666165D01*
X236514091Y-102699955D01*
X236301756Y-102769357D01*
X236226690Y-102808434D01*
X236165365Y-102840358D01*
X236103607Y-102872507D01*
X236099474Y-102875610D01*
X236099471Y-102875612D01*
X235929100Y-103003530D01*
X235924965Y-103006635D01*
X235770629Y-103168138D01*
X235663204Y-103325618D01*
X235662898Y-103326066D01*
X235607987Y-103371069D01*
X235537462Y-103379240D01*
X235473715Y-103347986D01*
X235453017Y-103323501D01*
X235423062Y-103277197D01*
X235412377Y-103267995D01*
X235402812Y-103272398D01*
X234423637Y-104251573D01*
X234361325Y-104285599D01*
X234330945Y-104288427D01*
X234239239Y-104285807D01*
X234171718Y-104263867D01*
X234153743Y-104248953D01*
X233179849Y-103275059D01*
X233168313Y-103268759D01*
X233156031Y-103278382D01*
X233123499Y-103326072D01*
X233068587Y-103371075D01*
X232998063Y-103379246D01*
X232934316Y-103347992D01*
X232913618Y-103323508D01*
X232832822Y-103198617D01*
X232832820Y-103198614D01*
X232830014Y-103194277D01*
X232679670Y-103029051D01*
X232675619Y-103025852D01*
X232675615Y-103025848D01*
X232519338Y-102902427D01*
X233531223Y-102902427D01*
X233537968Y-102914758D01*
X234277188Y-103653978D01*
X234291132Y-103661592D01*
X234292965Y-103661461D01*
X234299580Y-103657210D01*
X235043389Y-102913401D01*
X235050410Y-102900544D01*
X235043611Y-102891213D01*
X235039554Y-102888518D01*
X234853117Y-102785599D01*
X234843705Y-102781369D01*
X234642959Y-102710280D01*
X234632989Y-102707646D01*
X234423327Y-102670301D01*
X234413073Y-102669331D01*
X234200116Y-102666728D01*
X234189832Y-102667448D01*
X233979321Y-102699661D01*
X233969293Y-102702050D01*
X233766868Y-102768212D01*
X233757359Y-102772209D01*
X233568466Y-102870540D01*
X233559734Y-102876039D01*
X233539677Y-102891099D01*
X233531223Y-102902427D01*
X232519338Y-102902427D01*
X232508414Y-102893800D01*
X232508410Y-102893798D01*
X232504359Y-102890598D01*
X232308789Y-102782638D01*
X232303920Y-102780914D01*
X232303916Y-102780912D01*
X232103087Y-102709795D01*
X232103083Y-102709794D01*
X232098212Y-102708069D01*
X232093119Y-102707162D01*
X232093116Y-102707161D01*
X231883373Y-102669800D01*
X231883367Y-102669799D01*
X231878284Y-102668894D01*
X231804452Y-102667992D01*
X231660081Y-102666228D01*
X231660079Y-102666228D01*
X231654911Y-102666165D01*
X231434091Y-102699955D01*
X231221756Y-102769357D01*
X231146690Y-102808434D01*
X231085365Y-102840358D01*
X231023607Y-102872507D01*
X231019474Y-102875610D01*
X231019471Y-102875612D01*
X230849100Y-103003530D01*
X230844965Y-103006635D01*
X230690629Y-103168138D01*
X230583201Y-103325621D01*
X230528293Y-103370621D01*
X230457768Y-103378792D01*
X230394021Y-103347538D01*
X230373324Y-103323054D01*
X230292822Y-103198617D01*
X230292820Y-103198614D01*
X230290014Y-103194277D01*
X230139670Y-103029051D01*
X230135619Y-103025852D01*
X230135615Y-103025848D01*
X229968414Y-102893800D01*
X229968410Y-102893798D01*
X229964359Y-102890598D01*
X229768789Y-102782638D01*
X229763920Y-102780914D01*
X229763916Y-102780912D01*
X229563087Y-102709795D01*
X229563083Y-102709794D01*
X229558212Y-102708069D01*
X229553119Y-102707162D01*
X229553116Y-102707161D01*
X229343373Y-102669800D01*
X229343367Y-102669799D01*
X229338284Y-102668894D01*
X229264452Y-102667992D01*
X229120081Y-102666228D01*
X229120079Y-102666228D01*
X229114911Y-102666165D01*
X228894091Y-102699955D01*
X228681756Y-102769357D01*
X228606690Y-102808434D01*
X228545365Y-102840358D01*
X228483607Y-102872507D01*
X228479474Y-102875610D01*
X228479471Y-102875612D01*
X228309100Y-103003530D01*
X228304965Y-103006635D01*
X228150629Y-103168138D01*
X228147720Y-103172403D01*
X228147714Y-103172411D01*
X228083174Y-103267023D01*
X228024743Y-103352680D01*
X228009622Y-103385255D01*
X227956360Y-103500000D01*
X227930688Y-103555305D01*
X227870989Y-103770570D01*
X227847251Y-103992695D01*
X227847548Y-103997848D01*
X227847548Y-103997851D01*
X227853622Y-104103187D01*
X227860110Y-104215715D01*
X227861247Y-104220761D01*
X227861248Y-104220767D01*
X227879260Y-104300689D01*
X227909222Y-104433639D01*
X227970673Y-104584976D01*
X227987217Y-104625718D01*
X227993266Y-104640616D01*
X228109987Y-104831088D01*
X228256250Y-104999938D01*
X228428126Y-105142632D01*
X228491417Y-105179616D01*
X228539070Y-105207462D01*
X228587794Y-105259100D01*
X228601500Y-105316250D01*
X228601500Y-107735649D01*
X228581498Y-107803770D01*
X228527842Y-107850263D01*
X228467200Y-107859728D01*
X228467193Y-107860760D01*
X228460872Y-107860716D01*
X228460577Y-107860762D01*
X228460148Y-107860711D01*
X228460147Y-107860711D01*
X228453153Y-107859877D01*
X228446150Y-107860613D01*
X228446149Y-107860613D01*
X228402935Y-107865155D01*
X228289495Y-107877078D01*
X228282827Y-107879348D01*
X228140382Y-107927840D01*
X228140379Y-107927841D01*
X228133715Y-107930110D01*
X227993555Y-108016337D01*
X227988522Y-108021266D01*
X227883543Y-108124069D01*
X227875982Y-108131473D01*
X227786838Y-108269797D01*
X227784427Y-108276420D01*
X227784426Y-108276423D01*
X227742802Y-108390785D01*
X227730556Y-108424432D01*
X227729886Y-108429739D01*
X227696856Y-108488595D01*
X221193766Y-114991685D01*
X221181375Y-115002552D01*
X221156013Y-115022013D01*
X221131526Y-115053925D01*
X221131523Y-115053928D01*
X221131517Y-115053936D01*
X221081346Y-115119320D01*
X221058476Y-115149124D01*
X220997162Y-115297149D01*
X220997162Y-115297150D01*
X220995414Y-115310426D01*
X220987262Y-115372347D01*
X220981500Y-115416115D01*
X220981500Y-115416120D01*
X220976250Y-115456000D01*
X220977328Y-115464188D01*
X220980422Y-115487690D01*
X220981500Y-115504136D01*
X220981500Y-115688678D01*
X220961498Y-115756799D01*
X220913683Y-115800439D01*
X220863607Y-115826507D01*
X220859474Y-115829610D01*
X220859471Y-115829612D01*
X220717437Y-115936254D01*
X220684965Y-115960635D01*
X220530629Y-116122138D01*
X220423201Y-116279621D01*
X220368293Y-116324621D01*
X220297768Y-116332792D01*
X220234021Y-116301538D01*
X220213324Y-116277054D01*
X220132822Y-116152617D01*
X220132820Y-116152614D01*
X220130014Y-116148277D01*
X219979670Y-115983051D01*
X219975619Y-115979852D01*
X219975615Y-115979848D01*
X219808414Y-115847800D01*
X219808410Y-115847798D01*
X219804359Y-115844598D01*
X219608789Y-115736638D01*
X219603920Y-115734914D01*
X219603916Y-115734912D01*
X219403087Y-115663795D01*
X219403083Y-115663794D01*
X219398212Y-115662069D01*
X219393119Y-115661162D01*
X219393116Y-115661161D01*
X219183373Y-115623800D01*
X219183367Y-115623799D01*
X219178284Y-115622894D01*
X219104452Y-115621992D01*
X218960081Y-115620228D01*
X218960079Y-115620228D01*
X218954911Y-115620165D01*
X218734091Y-115653955D01*
X218521756Y-115723357D01*
X218470856Y-115749854D01*
X218388500Y-115792726D01*
X218323607Y-115826507D01*
X218319474Y-115829610D01*
X218319471Y-115829612D01*
X218190642Y-115926340D01*
X218124157Y-115951246D01*
X218054762Y-115936254D01*
X218004488Y-115886123D01*
X217988989Y-115825580D01*
X217988989Y-105798000D01*
X218008991Y-105729879D01*
X218062647Y-105683386D01*
X218132921Y-105673282D01*
X218159218Y-105680018D01*
X218233782Y-105707971D01*
X218233788Y-105707973D01*
X218241184Y-105710745D01*
X218303366Y-105717500D01*
X220304634Y-105717500D01*
X220366816Y-105710745D01*
X220503205Y-105659615D01*
X220619761Y-105572261D01*
X220707115Y-105455705D01*
X220714758Y-105435317D01*
X220757401Y-105378553D01*
X220823962Y-105353854D01*
X220893311Y-105369062D01*
X220910832Y-105380666D01*
X221028944Y-105473945D01*
X221037531Y-105479650D01*
X221238722Y-105590714D01*
X221248134Y-105594944D01*
X221464768Y-105671659D01*
X221474739Y-105674293D01*
X221572163Y-105691647D01*
X221585460Y-105690187D01*
X221589543Y-105677096D01*
X222098000Y-105677096D01*
X222101918Y-105690440D01*
X222116194Y-105692427D01*
X222178515Y-105682890D01*
X222188543Y-105680501D01*
X222406988Y-105609102D01*
X222416497Y-105605105D01*
X222620344Y-105498989D01*
X222629069Y-105493495D01*
X222812852Y-105355507D01*
X222820559Y-105348664D01*
X222979339Y-105182509D01*
X222985823Y-105174502D01*
X223008237Y-105141644D01*
X223063148Y-105096641D01*
X223133672Y-105088468D01*
X223197420Y-105119722D01*
X223218116Y-105144204D01*
X223222498Y-105150977D01*
X223384186Y-105328670D01*
X223435331Y-105369062D01*
X223568670Y-105474367D01*
X223568675Y-105474370D01*
X223572724Y-105477568D01*
X223577240Y-105480061D01*
X223577243Y-105480063D01*
X223778526Y-105591177D01*
X223778530Y-105591179D01*
X223783050Y-105593674D01*
X223787919Y-105595398D01*
X223787923Y-105595400D01*
X224004640Y-105672144D01*
X224004644Y-105672145D01*
X224009515Y-105673870D01*
X224014608Y-105674777D01*
X224014611Y-105674778D01*
X224240948Y-105715095D01*
X224240954Y-105715096D01*
X224246037Y-105716001D01*
X224333400Y-105717068D01*
X224481093Y-105718873D01*
X224481095Y-105718873D01*
X224486263Y-105718936D01*
X224723744Y-105682596D01*
X224835997Y-105645906D01*
X224947183Y-105609566D01*
X224947189Y-105609563D01*
X224952101Y-105607958D01*
X224956687Y-105605571D01*
X224956691Y-105605569D01*
X225160607Y-105499416D01*
X225165200Y-105497025D01*
X225247387Y-105435317D01*
X225353185Y-105355882D01*
X225353188Y-105355880D01*
X225357320Y-105352777D01*
X225523301Y-105179088D01*
X225643257Y-105003240D01*
X225655774Y-104984891D01*
X225655775Y-104984890D01*
X225658686Y-104980622D01*
X225673243Y-104949263D01*
X225757658Y-104767405D01*
X225757659Y-104767401D01*
X225759837Y-104762710D01*
X225824040Y-104531202D01*
X225830577Y-104470031D01*
X225844644Y-104338407D01*
X225844644Y-104338399D01*
X225845000Y-104335072D01*
X225845000Y-104100598D01*
X225844615Y-104095908D01*
X225830746Y-103927224D01*
X225830322Y-103922063D01*
X225771794Y-103689056D01*
X225705855Y-103537406D01*
X225678057Y-103473474D01*
X225678055Y-103473471D01*
X225675997Y-103468737D01*
X225565716Y-103298269D01*
X225548310Y-103271363D01*
X225548308Y-103271360D01*
X225545502Y-103267023D01*
X225383814Y-103089330D01*
X225267770Y-102997684D01*
X225199330Y-102943633D01*
X225199325Y-102943630D01*
X225195276Y-102940432D01*
X225190760Y-102937939D01*
X225190757Y-102937937D01*
X224989474Y-102826823D01*
X224989470Y-102826821D01*
X224984950Y-102824326D01*
X224980081Y-102822602D01*
X224980077Y-102822600D01*
X224763360Y-102745856D01*
X224763356Y-102745855D01*
X224758485Y-102744130D01*
X224753392Y-102743223D01*
X224753389Y-102743222D01*
X224527052Y-102702905D01*
X224527046Y-102702904D01*
X224521963Y-102701999D01*
X224429474Y-102700869D01*
X224286907Y-102699127D01*
X224286905Y-102699127D01*
X224281737Y-102699064D01*
X224044256Y-102735404D01*
X223945293Y-102767750D01*
X223820817Y-102808434D01*
X223820811Y-102808437D01*
X223815899Y-102810042D01*
X223811313Y-102812429D01*
X223811309Y-102812431D01*
X223665950Y-102888101D01*
X223602800Y-102920975D01*
X223598657Y-102924085D01*
X223598658Y-102924085D01*
X223433867Y-103047814D01*
X223410680Y-103065223D01*
X223407108Y-103068961D01*
X223255237Y-103227885D01*
X223244699Y-103238912D01*
X223219160Y-103276351D01*
X223164249Y-103321352D01*
X223093725Y-103329523D01*
X223029978Y-103298269D01*
X223009284Y-103273790D01*
X223007915Y-103271674D01*
X223001622Y-103263502D01*
X222846950Y-103093520D01*
X222839417Y-103086494D01*
X222659056Y-102944055D01*
X222650469Y-102938350D01*
X222449278Y-102827286D01*
X222439866Y-102823056D01*
X222223232Y-102746341D01*
X222213261Y-102743707D01*
X222115837Y-102726353D01*
X222102540Y-102727813D01*
X222098000Y-102742370D01*
X222098000Y-105677096D01*
X221589543Y-105677096D01*
X221590000Y-105675630D01*
X221590000Y-102740904D01*
X221586082Y-102727560D01*
X221571806Y-102725573D01*
X221509485Y-102735110D01*
X221499457Y-102737499D01*
X221281012Y-102808898D01*
X221271503Y-102812895D01*
X221067656Y-102919011D01*
X221058939Y-102924500D01*
X220907901Y-103037902D01*
X220841416Y-103062807D01*
X220772020Y-103047814D01*
X220721747Y-102997684D01*
X220714268Y-102981375D01*
X220707115Y-102962295D01*
X220619761Y-102845739D01*
X220503205Y-102758385D01*
X220366816Y-102707255D01*
X220304634Y-102700500D01*
X218303366Y-102700500D01*
X218241184Y-102707255D01*
X218233788Y-102710027D01*
X218233782Y-102710029D01*
X218159218Y-102737982D01*
X218088411Y-102743165D01*
X218026042Y-102709244D01*
X217991913Y-102646988D01*
X217988989Y-102620000D01*
X217988989Y-100199194D01*
X218008991Y-100131073D01*
X218062647Y-100084580D01*
X218132921Y-100074476D01*
X218150144Y-100078198D01*
X218154891Y-100079577D01*
X218258250Y-100100606D01*
X218272299Y-100099410D01*
X218276000Y-100089065D01*
X218276000Y-98642000D01*
X218296002Y-98573879D01*
X218349658Y-98527386D01*
X218402000Y-98516000D01*
X218658000Y-98516000D01*
X218726121Y-98536002D01*
X218772614Y-98589658D01*
X218784000Y-98642000D01*
X218784000Y-100088517D01*
X218788064Y-100102359D01*
X218801478Y-100104393D01*
X218808184Y-100103534D01*
X218818262Y-100101392D01*
X219022255Y-100040191D01*
X219031842Y-100036433D01*
X219223095Y-99942739D01*
X219231945Y-99937464D01*
X219405328Y-99813792D01*
X219413200Y-99807139D01*
X219564052Y-99656812D01*
X219570730Y-99648965D01*
X219698022Y-99471819D01*
X219699279Y-99472722D01*
X219746373Y-99429362D01*
X219816311Y-99417145D01*
X219881751Y-99444678D01*
X219909579Y-99476511D01*
X219969987Y-99575088D01*
X220116250Y-99743938D01*
X220288126Y-99886632D01*
X220481000Y-99999338D01*
X220689692Y-100079030D01*
X220694760Y-100080061D01*
X220694763Y-100080062D01*
X220789862Y-100099410D01*
X220908597Y-100123567D01*
X220913772Y-100123757D01*
X220913774Y-100123757D01*
X221126673Y-100131564D01*
X221126677Y-100131564D01*
X221131837Y-100131753D01*
X221136957Y-100131097D01*
X221136959Y-100131097D01*
X221348288Y-100104025D01*
X221348289Y-100104025D01*
X221353416Y-100103368D01*
X221358706Y-100101781D01*
X221562429Y-100040661D01*
X221562434Y-100040659D01*
X221567384Y-100039174D01*
X221767994Y-99940896D01*
X221949860Y-99811173D01*
X222108096Y-99653489D01*
X222238453Y-99472077D01*
X222239776Y-99473028D01*
X222286645Y-99429857D01*
X222356580Y-99417625D01*
X222422026Y-99445144D01*
X222449875Y-99476994D01*
X222509987Y-99575088D01*
X222656250Y-99743938D01*
X222828126Y-99886632D01*
X223021000Y-99999338D01*
X223229692Y-100079030D01*
X223234760Y-100080061D01*
X223234763Y-100080062D01*
X223329862Y-100099410D01*
X223448597Y-100123567D01*
X223453772Y-100123757D01*
X223453774Y-100123757D01*
X223666673Y-100131564D01*
X223666677Y-100131564D01*
X223671837Y-100131753D01*
X223676957Y-100131097D01*
X223676959Y-100131097D01*
X223888288Y-100104025D01*
X223888289Y-100104025D01*
X223893416Y-100103368D01*
X223898706Y-100101781D01*
X224102429Y-100040661D01*
X224102434Y-100040659D01*
X224107384Y-100039174D01*
X224307994Y-99940896D01*
X224489860Y-99811173D01*
X224648096Y-99653489D01*
X224778453Y-99472077D01*
X224779776Y-99473028D01*
X224826645Y-99429857D01*
X224896580Y-99417625D01*
X224962026Y-99445144D01*
X224989875Y-99476994D01*
X225049987Y-99575088D01*
X225196250Y-99743938D01*
X225368126Y-99886632D01*
X225561000Y-99999338D01*
X225769692Y-100079030D01*
X225774760Y-100080061D01*
X225774763Y-100080062D01*
X225869862Y-100099410D01*
X225988597Y-100123567D01*
X225993772Y-100123757D01*
X225993774Y-100123757D01*
X226206673Y-100131564D01*
X226206677Y-100131564D01*
X226211837Y-100131753D01*
X226216957Y-100131097D01*
X226216959Y-100131097D01*
X226428288Y-100104025D01*
X226428289Y-100104025D01*
X226433416Y-100103368D01*
X226438706Y-100101781D01*
X226642429Y-100040661D01*
X226642434Y-100040659D01*
X226647384Y-100039174D01*
X226847994Y-99940896D01*
X227029860Y-99811173D01*
X227188096Y-99653489D01*
X227318453Y-99472077D01*
X227319776Y-99473028D01*
X227366645Y-99429857D01*
X227436580Y-99417625D01*
X227502026Y-99445144D01*
X227529875Y-99476994D01*
X227589987Y-99575088D01*
X227736250Y-99743938D01*
X227908126Y-99886632D01*
X228101000Y-99999338D01*
X228309692Y-100079030D01*
X228314760Y-100080061D01*
X228314763Y-100080062D01*
X228409862Y-100099410D01*
X228528597Y-100123567D01*
X228533772Y-100123757D01*
X228533774Y-100123757D01*
X228746673Y-100131564D01*
X228746677Y-100131564D01*
X228751837Y-100131753D01*
X228756957Y-100131097D01*
X228756959Y-100131097D01*
X228968288Y-100104025D01*
X228968289Y-100104025D01*
X228973416Y-100103368D01*
X228978706Y-100101781D01*
X229182429Y-100040661D01*
X229182434Y-100040659D01*
X229187384Y-100039174D01*
X229387994Y-99940896D01*
X229569860Y-99811173D01*
X229728096Y-99653489D01*
X229858453Y-99472077D01*
X229859776Y-99473028D01*
X229906645Y-99429857D01*
X229976580Y-99417625D01*
X230042026Y-99445144D01*
X230069875Y-99476994D01*
X230129987Y-99575088D01*
X230276250Y-99743938D01*
X230448126Y-99886632D01*
X230641000Y-99999338D01*
X230849692Y-100079030D01*
X230854760Y-100080061D01*
X230854763Y-100080062D01*
X230949862Y-100099410D01*
X231068597Y-100123567D01*
X231073772Y-100123757D01*
X231073774Y-100123757D01*
X231286673Y-100131564D01*
X231286677Y-100131564D01*
X231291837Y-100131753D01*
X231296957Y-100131097D01*
X231296959Y-100131097D01*
X231508288Y-100104025D01*
X231508289Y-100104025D01*
X231513416Y-100103368D01*
X231518706Y-100101781D01*
X231722429Y-100040661D01*
X231722434Y-100040659D01*
X231727384Y-100039174D01*
X231927994Y-99940896D01*
X232109860Y-99811173D01*
X232268096Y-99653489D01*
X232398453Y-99472077D01*
X232399776Y-99473028D01*
X232446645Y-99429857D01*
X232516580Y-99417625D01*
X232582026Y-99445144D01*
X232609875Y-99476994D01*
X232669987Y-99575088D01*
X232816250Y-99743938D01*
X232988126Y-99886632D01*
X233181000Y-99999338D01*
X233389692Y-100079030D01*
X233394760Y-100080061D01*
X233394763Y-100080062D01*
X233489862Y-100099410D01*
X233608597Y-100123567D01*
X233613772Y-100123757D01*
X233613774Y-100123757D01*
X233826673Y-100131564D01*
X233826677Y-100131564D01*
X233831837Y-100131753D01*
X233836957Y-100131097D01*
X233836959Y-100131097D01*
X234048288Y-100104025D01*
X234048289Y-100104025D01*
X234053416Y-100103368D01*
X234058706Y-100101781D01*
X234262429Y-100040661D01*
X234262434Y-100040659D01*
X234267384Y-100039174D01*
X234467994Y-99940896D01*
X234649860Y-99811173D01*
X234808096Y-99653489D01*
X234938453Y-99472077D01*
X234939776Y-99473028D01*
X234986645Y-99429857D01*
X235056580Y-99417625D01*
X235122026Y-99445144D01*
X235149875Y-99476994D01*
X235209987Y-99575088D01*
X235356250Y-99743938D01*
X235528126Y-99886632D01*
X235721000Y-99999338D01*
X235929692Y-100079030D01*
X235934760Y-100080061D01*
X235934763Y-100080062D01*
X236029862Y-100099410D01*
X236148597Y-100123567D01*
X236153772Y-100123757D01*
X236153774Y-100123757D01*
X236366673Y-100131564D01*
X236366677Y-100131564D01*
X236371837Y-100131753D01*
X236376957Y-100131097D01*
X236376959Y-100131097D01*
X236588288Y-100104025D01*
X236588289Y-100104025D01*
X236593416Y-100103368D01*
X236598706Y-100101781D01*
X236802429Y-100040661D01*
X236802434Y-100040659D01*
X236807384Y-100039174D01*
X237007994Y-99940896D01*
X237189860Y-99811173D01*
X237348096Y-99653489D01*
X237478453Y-99472077D01*
X237479640Y-99472930D01*
X237526960Y-99429362D01*
X237596897Y-99417145D01*
X237662338Y-99444678D01*
X237690166Y-99476511D01*
X237747694Y-99570388D01*
X237753777Y-99578699D01*
X237893213Y-99739667D01*
X237900580Y-99746883D01*
X238064434Y-99882916D01*
X238072881Y-99888831D01*
X238256756Y-99996279D01*
X238266042Y-100000729D01*
X238465001Y-100076703D01*
X238474899Y-100079579D01*
X238578250Y-100100606D01*
X238592299Y-100099410D01*
X238596000Y-100089065D01*
X238596000Y-98642000D01*
X238616002Y-98573879D01*
X238669658Y-98527386D01*
X238722000Y-98516000D01*
X238978000Y-98516000D01*
X239046121Y-98536002D01*
X239092614Y-98589658D01*
X239104000Y-98642000D01*
X239104000Y-100088517D01*
X239108064Y-100102359D01*
X239121478Y-100104393D01*
X239128184Y-100103534D01*
X239138262Y-100101392D01*
X239342255Y-100040191D01*
X239351842Y-100036433D01*
X239543095Y-99942739D01*
X239551945Y-99937464D01*
X239725328Y-99813792D01*
X239733200Y-99807139D01*
X239884052Y-99656812D01*
X239890730Y-99648965D01*
X240018022Y-99471819D01*
X240019279Y-99472722D01*
X240066373Y-99429362D01*
X240136311Y-99417145D01*
X240201751Y-99444678D01*
X240229579Y-99476511D01*
X240289987Y-99575088D01*
X240436250Y-99743938D01*
X240608126Y-99886632D01*
X240801000Y-99999338D01*
X241009692Y-100079030D01*
X241014760Y-100080061D01*
X241014763Y-100080062D01*
X241109862Y-100099410D01*
X241228597Y-100123567D01*
X241233772Y-100123757D01*
X241233774Y-100123757D01*
X241446673Y-100131564D01*
X241446677Y-100131564D01*
X241451837Y-100131753D01*
X241456957Y-100131097D01*
X241456959Y-100131097D01*
X241668288Y-100104025D01*
X241668289Y-100104025D01*
X241673416Y-100103368D01*
X241678706Y-100101781D01*
X241882429Y-100040661D01*
X241882434Y-100040659D01*
X241887384Y-100039174D01*
X242087994Y-99940896D01*
X242269860Y-99811173D01*
X242428096Y-99653489D01*
X242558453Y-99472077D01*
X242559776Y-99473028D01*
X242606645Y-99429857D01*
X242676580Y-99417625D01*
X242742026Y-99445144D01*
X242769875Y-99476994D01*
X242829987Y-99575088D01*
X242976250Y-99743938D01*
X243148126Y-99886632D01*
X243341000Y-99999338D01*
X243549692Y-100079030D01*
X243554760Y-100080061D01*
X243554763Y-100080062D01*
X243649862Y-100099410D01*
X243768597Y-100123567D01*
X243773772Y-100123757D01*
X243773774Y-100123757D01*
X243986673Y-100131564D01*
X243986677Y-100131564D01*
X243991837Y-100131753D01*
X243996957Y-100131097D01*
X243996959Y-100131097D01*
X244208288Y-100104025D01*
X244208289Y-100104025D01*
X244213416Y-100103368D01*
X244218706Y-100101781D01*
X244422429Y-100040661D01*
X244422434Y-100040659D01*
X244427384Y-100039174D01*
X244627994Y-99940896D01*
X244809860Y-99811173D01*
X244968096Y-99653489D01*
X245098453Y-99472077D01*
X245099776Y-99473028D01*
X245146645Y-99429857D01*
X245216580Y-99417625D01*
X245282026Y-99445144D01*
X245309875Y-99476994D01*
X245369987Y-99575088D01*
X245516250Y-99743938D01*
X245688126Y-99886632D01*
X245881000Y-99999338D01*
X246089692Y-100079030D01*
X246094760Y-100080061D01*
X246094763Y-100080062D01*
X246189862Y-100099410D01*
X246308597Y-100123567D01*
X246313772Y-100123757D01*
X246313774Y-100123757D01*
X246526673Y-100131564D01*
X246526677Y-100131564D01*
X246531837Y-100131753D01*
X246536957Y-100131097D01*
X246536959Y-100131097D01*
X246748288Y-100104025D01*
X246748289Y-100104025D01*
X246753416Y-100103368D01*
X246758706Y-100101781D01*
X246962429Y-100040661D01*
X246962434Y-100040659D01*
X246967384Y-100039174D01*
X247167994Y-99940896D01*
X247349860Y-99811173D01*
X247508096Y-99653489D01*
X247638453Y-99472077D01*
X247639776Y-99473028D01*
X247686645Y-99429857D01*
X247756580Y-99417625D01*
X247822026Y-99445144D01*
X247849875Y-99476994D01*
X247909987Y-99575088D01*
X248056250Y-99743938D01*
X248228126Y-99886632D01*
X248421000Y-99999338D01*
X248629692Y-100079030D01*
X248634760Y-100080061D01*
X248634763Y-100080062D01*
X248729862Y-100099410D01*
X248848597Y-100123567D01*
X248853772Y-100123757D01*
X248853774Y-100123757D01*
X249066673Y-100131564D01*
X249066677Y-100131564D01*
X249071837Y-100131753D01*
X249076957Y-100131097D01*
X249076959Y-100131097D01*
X249288288Y-100104025D01*
X249288289Y-100104025D01*
X249293416Y-100103368D01*
X249298706Y-100101781D01*
X249502429Y-100040661D01*
X249502434Y-100040659D01*
X249507384Y-100039174D01*
X249707994Y-99940896D01*
X249889860Y-99811173D01*
X250048096Y-99653489D01*
X250178453Y-99472077D01*
X250179776Y-99473028D01*
X250226645Y-99429857D01*
X250296580Y-99417625D01*
X250362026Y-99445144D01*
X250389875Y-99476994D01*
X250449987Y-99575088D01*
X250596250Y-99743938D01*
X250768126Y-99886632D01*
X250961000Y-99999338D01*
X251169692Y-100079030D01*
X251174760Y-100080061D01*
X251174763Y-100080062D01*
X251269862Y-100099410D01*
X251388597Y-100123567D01*
X251393772Y-100123757D01*
X251393774Y-100123757D01*
X251606673Y-100131564D01*
X251606677Y-100131564D01*
X251611837Y-100131753D01*
X251616957Y-100131097D01*
X251616959Y-100131097D01*
X251828288Y-100104025D01*
X251828289Y-100104025D01*
X251833416Y-100103368D01*
X251838706Y-100101781D01*
X252042429Y-100040661D01*
X252042434Y-100040659D01*
X252047384Y-100039174D01*
X252247994Y-99940896D01*
X252429860Y-99811173D01*
X252588096Y-99653489D01*
X252718453Y-99472077D01*
X252719776Y-99473028D01*
X252766645Y-99429857D01*
X252836580Y-99417625D01*
X252902026Y-99445144D01*
X252929875Y-99476994D01*
X252989987Y-99575088D01*
X253136250Y-99743938D01*
X253308126Y-99886632D01*
X253501000Y-99999338D01*
X253709692Y-100079030D01*
X253714760Y-100080061D01*
X253714763Y-100080062D01*
X253809862Y-100099410D01*
X253928597Y-100123567D01*
X253933772Y-100123757D01*
X253933774Y-100123757D01*
X254146673Y-100131564D01*
X254146677Y-100131564D01*
X254151837Y-100131753D01*
X254156957Y-100131097D01*
X254156959Y-100131097D01*
X254368288Y-100104025D01*
X254368289Y-100104025D01*
X254373416Y-100103368D01*
X254378706Y-100101781D01*
X254582429Y-100040661D01*
X254582434Y-100040659D01*
X254587384Y-100039174D01*
X254787994Y-99940896D01*
X254969860Y-99811173D01*
X255128096Y-99653489D01*
X255258453Y-99472077D01*
X255259640Y-99472930D01*
X255306960Y-99429362D01*
X255376897Y-99417145D01*
X255442338Y-99444678D01*
X255470166Y-99476511D01*
X255527694Y-99570388D01*
X255533777Y-99578699D01*
X255673213Y-99739667D01*
X255680580Y-99746883D01*
X255844434Y-99882916D01*
X255852881Y-99888831D01*
X256036756Y-99996279D01*
X256046042Y-100000729D01*
X256245001Y-100076703D01*
X256254899Y-100079579D01*
X256358250Y-100100606D01*
X256372299Y-100099410D01*
X256376000Y-100089065D01*
X256376000Y-100088517D01*
X256884000Y-100088517D01*
X256888064Y-100102359D01*
X256901478Y-100104393D01*
X256908184Y-100103534D01*
X256918262Y-100101392D01*
X257122255Y-100040191D01*
X257131842Y-100036433D01*
X257323095Y-99942739D01*
X257331945Y-99937464D01*
X257505328Y-99813792D01*
X257513200Y-99807139D01*
X257664052Y-99656812D01*
X257670730Y-99648965D01*
X257795003Y-99476020D01*
X257800313Y-99467183D01*
X257894670Y-99276267D01*
X257898469Y-99266672D01*
X257960377Y-99062910D01*
X257962555Y-99052837D01*
X257963986Y-99041962D01*
X257961775Y-99027778D01*
X257948617Y-99024000D01*
X256902115Y-99024000D01*
X256886876Y-99028475D01*
X256885671Y-99029865D01*
X256884000Y-99037548D01*
X256884000Y-100088517D01*
X256376000Y-100088517D01*
X256376000Y-98642000D01*
X256396002Y-98573879D01*
X256449658Y-98527386D01*
X256502000Y-98516000D01*
X257948344Y-98516000D01*
X257961875Y-98512027D01*
X257963180Y-98502947D01*
X257921214Y-98335875D01*
X257917894Y-98326124D01*
X257832972Y-98130814D01*
X257828105Y-98121739D01*
X257712426Y-97942926D01*
X257706136Y-97934757D01*
X257562806Y-97777240D01*
X257555273Y-97770215D01*
X257388139Y-97638222D01*
X257379556Y-97632520D01*
X257342602Y-97612120D01*
X257292631Y-97561687D01*
X257288502Y-97542277D01*
X259637009Y-97542277D01*
X259662625Y-97810769D01*
X259663710Y-97815203D01*
X259663711Y-97815209D01*
X259725337Y-98067054D01*
X259726731Y-98072750D01*
X259827985Y-98322733D01*
X259830294Y-98326676D01*
X259933505Y-98502947D01*
X259964265Y-98555482D01*
X260033455Y-98642000D01*
X260084686Y-98706060D01*
X260132716Y-98766119D01*
X260329809Y-98950234D01*
X260551416Y-99103968D01*
X260555499Y-99105999D01*
X260555502Y-99106001D01*
X260671013Y-99163466D01*
X260792894Y-99224101D01*
X260797228Y-99225522D01*
X260797231Y-99225523D01*
X261044853Y-99306698D01*
X261044859Y-99306699D01*
X261049186Y-99308118D01*
X261053677Y-99308898D01*
X261053678Y-99308898D01*
X261311140Y-99353601D01*
X261311148Y-99353602D01*
X261314921Y-99354257D01*
X261318758Y-99354448D01*
X261398578Y-99358422D01*
X261398586Y-99358422D01*
X261400149Y-99358500D01*
X261568512Y-99358500D01*
X261570780Y-99358335D01*
X261570792Y-99358335D01*
X261701884Y-99348823D01*
X261769004Y-99343953D01*
X261773459Y-99342969D01*
X261773462Y-99342969D01*
X262027912Y-99286791D01*
X262027916Y-99286790D01*
X262032372Y-99285806D01*
X262158480Y-99238028D01*
X262280318Y-99191868D01*
X262280321Y-99191867D01*
X262284588Y-99190250D01*
X262520368Y-99059286D01*
X262734773Y-98895657D01*
X262923312Y-98702792D01*
X263082034Y-98484730D01*
X263165190Y-98326676D01*
X263205490Y-98250079D01*
X263205493Y-98250073D01*
X263207615Y-98246039D01*
X263248306Y-98130814D01*
X263295902Y-97996033D01*
X263295902Y-97996032D01*
X263297425Y-97991720D01*
X263330129Y-97825791D01*
X263348700Y-97731572D01*
X263348701Y-97731566D01*
X263349581Y-97727100D01*
X263351841Y-97681703D01*
X263362764Y-97462292D01*
X263362764Y-97462286D01*
X263362991Y-97457723D01*
X263337375Y-97189231D01*
X263319655Y-97116812D01*
X263274355Y-96931688D01*
X263273269Y-96927250D01*
X263172015Y-96677267D01*
X263035735Y-96444518D01*
X262917434Y-96296590D01*
X262870136Y-96237447D01*
X262870135Y-96237445D01*
X262867284Y-96233881D01*
X262670191Y-96049766D01*
X262448584Y-95896032D01*
X262444501Y-95894001D01*
X262444498Y-95893999D01*
X262279606Y-95811967D01*
X262207106Y-95775899D01*
X262202772Y-95774478D01*
X262202769Y-95774477D01*
X261955147Y-95693302D01*
X261955141Y-95693301D01*
X261950814Y-95691882D01*
X261946322Y-95691102D01*
X261688860Y-95646399D01*
X261688852Y-95646398D01*
X261685079Y-95645743D01*
X261673817Y-95645182D01*
X261601422Y-95641578D01*
X261601414Y-95641578D01*
X261599851Y-95641500D01*
X261431488Y-95641500D01*
X261429220Y-95641665D01*
X261429208Y-95641665D01*
X261298116Y-95651177D01*
X261230996Y-95656047D01*
X261226541Y-95657031D01*
X261226538Y-95657031D01*
X260972088Y-95713209D01*
X260972084Y-95713210D01*
X260967628Y-95714194D01*
X260895803Y-95741406D01*
X260719682Y-95808132D01*
X260719679Y-95808133D01*
X260715412Y-95809750D01*
X260479632Y-95940714D01*
X260265227Y-96104343D01*
X260262034Y-96107609D01*
X260262032Y-96107611D01*
X260192067Y-96179182D01*
X260076688Y-96297208D01*
X259917966Y-96515270D01*
X259915844Y-96519304D01*
X259794510Y-96749921D01*
X259794507Y-96749927D01*
X259792385Y-96753961D01*
X259790865Y-96758266D01*
X259790863Y-96758270D01*
X259704098Y-97003967D01*
X259702575Y-97008280D01*
X259695348Y-97044947D01*
X259651478Y-97267529D01*
X259650419Y-97272900D01*
X259650192Y-97277453D01*
X259650192Y-97277456D01*
X259637788Y-97526638D01*
X259637009Y-97542277D01*
X257288502Y-97542277D01*
X257277859Y-97492245D01*
X257302975Y-97425839D01*
X257330327Y-97399232D01*
X257357975Y-97379511D01*
X257509860Y-97271173D01*
X257668096Y-97113489D01*
X257697453Y-97072635D01*
X257795435Y-96936277D01*
X257798453Y-96932077D01*
X257803910Y-96921037D01*
X257895136Y-96736453D01*
X257895137Y-96736451D01*
X257897430Y-96731811D01*
X257962370Y-96518069D01*
X257991529Y-96296590D01*
X257993156Y-96230000D01*
X257974852Y-96007361D01*
X257920431Y-95790702D01*
X257831354Y-95585840D01*
X257710014Y-95398277D01*
X257559670Y-95233051D01*
X257555619Y-95229852D01*
X257555615Y-95229848D01*
X257388414Y-95097800D01*
X257388410Y-95097798D01*
X257384359Y-95094598D01*
X257348028Y-95074542D01*
X257295972Y-95045806D01*
X257188789Y-94986638D01*
X257183920Y-94984914D01*
X257183916Y-94984912D01*
X256983087Y-94913795D01*
X256983083Y-94913794D01*
X256978212Y-94912069D01*
X256973119Y-94911162D01*
X256973116Y-94911161D01*
X256763373Y-94873800D01*
X256763367Y-94873799D01*
X256758284Y-94872894D01*
X256684452Y-94871992D01*
X256540081Y-94870228D01*
X256540079Y-94870228D01*
X256534911Y-94870165D01*
X256314091Y-94903955D01*
X256101756Y-94973357D01*
X255903607Y-95076507D01*
X255899474Y-95079610D01*
X255899471Y-95079612D01*
X255875247Y-95097800D01*
X255724965Y-95210635D01*
X255721393Y-95214373D01*
X255588126Y-95353829D01*
X255570629Y-95372138D01*
X255463201Y-95529621D01*
X255408293Y-95574621D01*
X255337768Y-95582792D01*
X255274021Y-95551538D01*
X255253324Y-95527054D01*
X255172822Y-95402617D01*
X255172820Y-95402614D01*
X255170014Y-95398277D01*
X255019670Y-95233051D01*
X255015619Y-95229852D01*
X255015615Y-95229848D01*
X254848414Y-95097800D01*
X254848410Y-95097798D01*
X254844359Y-95094598D01*
X254808028Y-95074542D01*
X254755972Y-95045806D01*
X254648789Y-94986638D01*
X254643920Y-94984914D01*
X254643916Y-94984912D01*
X254443087Y-94913795D01*
X254443083Y-94913794D01*
X254438212Y-94912069D01*
X254433119Y-94911162D01*
X254433116Y-94911161D01*
X254223373Y-94873800D01*
X254223367Y-94873799D01*
X254218284Y-94872894D01*
X254144452Y-94871992D01*
X254000081Y-94870228D01*
X254000079Y-94870228D01*
X253994911Y-94870165D01*
X253774091Y-94903955D01*
X253561756Y-94973357D01*
X253363607Y-95076507D01*
X253359474Y-95079610D01*
X253359471Y-95079612D01*
X253335247Y-95097800D01*
X253184965Y-95210635D01*
X253181393Y-95214373D01*
X253048126Y-95353829D01*
X253030629Y-95372138D01*
X252923201Y-95529621D01*
X252868293Y-95574621D01*
X252797768Y-95582792D01*
X252734021Y-95551538D01*
X252713324Y-95527054D01*
X252632822Y-95402617D01*
X252632820Y-95402614D01*
X252630014Y-95398277D01*
X252479670Y-95233051D01*
X252475619Y-95229852D01*
X252475615Y-95229848D01*
X252308414Y-95097800D01*
X252308410Y-95097798D01*
X252304359Y-95094598D01*
X252268028Y-95074542D01*
X252215972Y-95045806D01*
X252108789Y-94986638D01*
X252103920Y-94984914D01*
X252103916Y-94984912D01*
X251903087Y-94913795D01*
X251903083Y-94913794D01*
X251898212Y-94912069D01*
X251893119Y-94911162D01*
X251893116Y-94911161D01*
X251683373Y-94873800D01*
X251683367Y-94873799D01*
X251678284Y-94872894D01*
X251604452Y-94871992D01*
X251460081Y-94870228D01*
X251460079Y-94870228D01*
X251454911Y-94870165D01*
X251234091Y-94903955D01*
X251021756Y-94973357D01*
X250823607Y-95076507D01*
X250819474Y-95079610D01*
X250819471Y-95079612D01*
X250795247Y-95097800D01*
X250644965Y-95210635D01*
X250641393Y-95214373D01*
X250508126Y-95353829D01*
X250490629Y-95372138D01*
X250383204Y-95529618D01*
X250382898Y-95530066D01*
X250327987Y-95575069D01*
X250257462Y-95583240D01*
X250193715Y-95551986D01*
X250173018Y-95527502D01*
X250092426Y-95402926D01*
X250086136Y-95394757D01*
X249942806Y-95237240D01*
X249935273Y-95230215D01*
X249768139Y-95098222D01*
X249759552Y-95092517D01*
X249573117Y-94989599D01*
X249563705Y-94985369D01*
X249362959Y-94914280D01*
X249352988Y-94911646D01*
X249281837Y-94898972D01*
X249268540Y-94900432D01*
X249264000Y-94914989D01*
X249264000Y-96358000D01*
X249243998Y-96426121D01*
X249190342Y-96472614D01*
X249138000Y-96484000D01*
X248882000Y-96484000D01*
X248813879Y-96463998D01*
X248767386Y-96410342D01*
X248756000Y-96358000D01*
X248756000Y-94913102D01*
X248752082Y-94899758D01*
X248737806Y-94897771D01*
X248699324Y-94903660D01*
X248689288Y-94906051D01*
X248486868Y-94972212D01*
X248477359Y-94976209D01*
X248288463Y-95074542D01*
X248279738Y-95080036D01*
X248109433Y-95207905D01*
X248101726Y-95214748D01*
X247954590Y-95368717D01*
X247948109Y-95376722D01*
X247843498Y-95530074D01*
X247788587Y-95575076D01*
X247718062Y-95583247D01*
X247654315Y-95551993D01*
X247633618Y-95527509D01*
X247552822Y-95402617D01*
X247552820Y-95402614D01*
X247550014Y-95398277D01*
X247399670Y-95233051D01*
X247395619Y-95229852D01*
X247395615Y-95229848D01*
X247228414Y-95097800D01*
X247228410Y-95097798D01*
X247224359Y-95094598D01*
X247188028Y-95074542D01*
X247135972Y-95045806D01*
X247028789Y-94986638D01*
X247023920Y-94984914D01*
X247023916Y-94984912D01*
X246823087Y-94913795D01*
X246823083Y-94913794D01*
X246818212Y-94912069D01*
X246813119Y-94911162D01*
X246813116Y-94911161D01*
X246603373Y-94873800D01*
X246603367Y-94873799D01*
X246598284Y-94872894D01*
X246524452Y-94871992D01*
X246380081Y-94870228D01*
X246380079Y-94870228D01*
X246374911Y-94870165D01*
X246154091Y-94903955D01*
X245941756Y-94973357D01*
X245743607Y-95076507D01*
X245739474Y-95079610D01*
X245739471Y-95079612D01*
X245715247Y-95097800D01*
X245564965Y-95210635D01*
X245561393Y-95214373D01*
X245428126Y-95353829D01*
X245410629Y-95372138D01*
X245303204Y-95529618D01*
X245302898Y-95530066D01*
X245247987Y-95575069D01*
X245177462Y-95583240D01*
X245113715Y-95551986D01*
X245093018Y-95527502D01*
X245012426Y-95402926D01*
X245006136Y-95394757D01*
X244862806Y-95237240D01*
X244855273Y-95230215D01*
X244688139Y-95098222D01*
X244679552Y-95092517D01*
X244493117Y-94989599D01*
X244483705Y-94985369D01*
X244282959Y-94914280D01*
X244272988Y-94911646D01*
X244201837Y-94898972D01*
X244188540Y-94900432D01*
X244184000Y-94914989D01*
X244184000Y-96358000D01*
X244163998Y-96426121D01*
X244110342Y-96472614D01*
X244058000Y-96484000D01*
X243802000Y-96484000D01*
X243733879Y-96463998D01*
X243687386Y-96410342D01*
X243676000Y-96358000D01*
X243676000Y-94913102D01*
X243672082Y-94899758D01*
X243657806Y-94897771D01*
X243619324Y-94903660D01*
X243609288Y-94906051D01*
X243406868Y-94972212D01*
X243397359Y-94976209D01*
X243208463Y-95074542D01*
X243199738Y-95080036D01*
X243029433Y-95207905D01*
X243021726Y-95214748D01*
X242874590Y-95368717D01*
X242868109Y-95376722D01*
X242763498Y-95530074D01*
X242708587Y-95575076D01*
X242638062Y-95583247D01*
X242574315Y-95551993D01*
X242553618Y-95527509D01*
X242472822Y-95402617D01*
X242472820Y-95402614D01*
X242470014Y-95398277D01*
X242319670Y-95233051D01*
X242315619Y-95229852D01*
X242315615Y-95229848D01*
X242148414Y-95097800D01*
X242148410Y-95097798D01*
X242144359Y-95094598D01*
X242108028Y-95074542D01*
X242055972Y-95045806D01*
X241948789Y-94986638D01*
X241943920Y-94984914D01*
X241943916Y-94984912D01*
X241743087Y-94913795D01*
X241743083Y-94913794D01*
X241738212Y-94912069D01*
X241733119Y-94911162D01*
X241733116Y-94911161D01*
X241523373Y-94873800D01*
X241523367Y-94873799D01*
X241518284Y-94872894D01*
X241444452Y-94871992D01*
X241300081Y-94870228D01*
X241300079Y-94870228D01*
X241294911Y-94870165D01*
X241074091Y-94903955D01*
X240861756Y-94973357D01*
X240663607Y-95076507D01*
X240659474Y-95079610D01*
X240659471Y-95079612D01*
X240635247Y-95097800D01*
X240484965Y-95210635D01*
X240481393Y-95214373D01*
X240348126Y-95353829D01*
X240330629Y-95372138D01*
X240223201Y-95529621D01*
X240168293Y-95574621D01*
X240097768Y-95582792D01*
X240034021Y-95551538D01*
X240013324Y-95527054D01*
X239932822Y-95402617D01*
X239932820Y-95402614D01*
X239930014Y-95398277D01*
X239779670Y-95233051D01*
X239775619Y-95229852D01*
X239775615Y-95229848D01*
X239608414Y-95097800D01*
X239608410Y-95097798D01*
X239604359Y-95094598D01*
X239568028Y-95074542D01*
X239515972Y-95045806D01*
X239408789Y-94986638D01*
X239403920Y-94984914D01*
X239403916Y-94984912D01*
X239203087Y-94913795D01*
X239203083Y-94913794D01*
X239198212Y-94912069D01*
X239193119Y-94911162D01*
X239193116Y-94911161D01*
X238983373Y-94873800D01*
X238983367Y-94873799D01*
X238978284Y-94872894D01*
X238904452Y-94871992D01*
X238760081Y-94870228D01*
X238760079Y-94870228D01*
X238754911Y-94870165D01*
X238534091Y-94903955D01*
X238321756Y-94973357D01*
X238123607Y-95076507D01*
X238119474Y-95079610D01*
X238119471Y-95079612D01*
X238095247Y-95097800D01*
X237944965Y-95210635D01*
X237941393Y-95214373D01*
X237808126Y-95353829D01*
X237790629Y-95372138D01*
X237683201Y-95529621D01*
X237628293Y-95574621D01*
X237557768Y-95582792D01*
X237494021Y-95551538D01*
X237473324Y-95527054D01*
X237392822Y-95402617D01*
X237392820Y-95402614D01*
X237390014Y-95398277D01*
X237239670Y-95233051D01*
X237235619Y-95229852D01*
X237235615Y-95229848D01*
X237068414Y-95097800D01*
X237068410Y-95097798D01*
X237064359Y-95094598D01*
X237028028Y-95074542D01*
X236975972Y-95045806D01*
X236868789Y-94986638D01*
X236863920Y-94984914D01*
X236863916Y-94984912D01*
X236663087Y-94913795D01*
X236663083Y-94913794D01*
X236658212Y-94912069D01*
X236653119Y-94911162D01*
X236653116Y-94911161D01*
X236443373Y-94873800D01*
X236443367Y-94873799D01*
X236438284Y-94872894D01*
X236364452Y-94871992D01*
X236220081Y-94870228D01*
X236220079Y-94870228D01*
X236214911Y-94870165D01*
X235994091Y-94903955D01*
X235781756Y-94973357D01*
X235583607Y-95076507D01*
X235579474Y-95079610D01*
X235579471Y-95079612D01*
X235555247Y-95097800D01*
X235404965Y-95210635D01*
X235401393Y-95214373D01*
X235268126Y-95353829D01*
X235250629Y-95372138D01*
X235143201Y-95529621D01*
X235088293Y-95574621D01*
X235017768Y-95582792D01*
X234954021Y-95551538D01*
X234933324Y-95527054D01*
X234852822Y-95402617D01*
X234852820Y-95402614D01*
X234850014Y-95398277D01*
X234699670Y-95233051D01*
X234695619Y-95229852D01*
X234695615Y-95229848D01*
X234528414Y-95097800D01*
X234528410Y-95097798D01*
X234524359Y-95094598D01*
X234488028Y-95074542D01*
X234435972Y-95045806D01*
X234328789Y-94986638D01*
X234323920Y-94984914D01*
X234323916Y-94984912D01*
X234123087Y-94913795D01*
X234123083Y-94913794D01*
X234118212Y-94912069D01*
X234113119Y-94911162D01*
X234113116Y-94911161D01*
X233903373Y-94873800D01*
X233903367Y-94873799D01*
X233898284Y-94872894D01*
X233824452Y-94871992D01*
X233680081Y-94870228D01*
X233680079Y-94870228D01*
X233674911Y-94870165D01*
X233454091Y-94903955D01*
X233241756Y-94973357D01*
X233043607Y-95076507D01*
X233039474Y-95079610D01*
X233039471Y-95079612D01*
X233015247Y-95097800D01*
X232864965Y-95210635D01*
X232861393Y-95214373D01*
X232728126Y-95353829D01*
X232710629Y-95372138D01*
X232603204Y-95529618D01*
X232602898Y-95530066D01*
X232547987Y-95575069D01*
X232477462Y-95583240D01*
X232413715Y-95551986D01*
X232393018Y-95527502D01*
X232312426Y-95402926D01*
X232306136Y-95394757D01*
X232162806Y-95237240D01*
X232155273Y-95230215D01*
X231988139Y-95098222D01*
X231979552Y-95092517D01*
X231793117Y-94989599D01*
X231783705Y-94985369D01*
X231582959Y-94914280D01*
X231572988Y-94911646D01*
X231501837Y-94898972D01*
X231488540Y-94900432D01*
X231484000Y-94914989D01*
X231484000Y-96358000D01*
X231463998Y-96426121D01*
X231410342Y-96472614D01*
X231358000Y-96484000D01*
X231102000Y-96484000D01*
X231033879Y-96463998D01*
X230987386Y-96410342D01*
X230976000Y-96358000D01*
X230976000Y-94913102D01*
X230972082Y-94899758D01*
X230957806Y-94897771D01*
X230919324Y-94903660D01*
X230909288Y-94906051D01*
X230706868Y-94972212D01*
X230697359Y-94976209D01*
X230508463Y-95074542D01*
X230499738Y-95080036D01*
X230329433Y-95207905D01*
X230321726Y-95214748D01*
X230174590Y-95368717D01*
X230168109Y-95376722D01*
X230063498Y-95530074D01*
X230008587Y-95575076D01*
X229938062Y-95583247D01*
X229874315Y-95551993D01*
X229853618Y-95527509D01*
X229772822Y-95402617D01*
X229772820Y-95402614D01*
X229770014Y-95398277D01*
X229619670Y-95233051D01*
X229615619Y-95229852D01*
X229615615Y-95229848D01*
X229448414Y-95097800D01*
X229448410Y-95097798D01*
X229444359Y-95094598D01*
X229408028Y-95074542D01*
X229355972Y-95045806D01*
X229248789Y-94986638D01*
X229243920Y-94984914D01*
X229243916Y-94984912D01*
X229043087Y-94913795D01*
X229043083Y-94913794D01*
X229038212Y-94912069D01*
X229033119Y-94911162D01*
X229033116Y-94911161D01*
X228823373Y-94873800D01*
X228823367Y-94873799D01*
X228818284Y-94872894D01*
X228744452Y-94871992D01*
X228600081Y-94870228D01*
X228600079Y-94870228D01*
X228594911Y-94870165D01*
X228374091Y-94903955D01*
X228161756Y-94973357D01*
X227963607Y-95076507D01*
X227959474Y-95079610D01*
X227959471Y-95079612D01*
X227935247Y-95097800D01*
X227784965Y-95210635D01*
X227781393Y-95214373D01*
X227648126Y-95353829D01*
X227630629Y-95372138D01*
X227523201Y-95529621D01*
X227468293Y-95574621D01*
X227397768Y-95582792D01*
X227334021Y-95551538D01*
X227313324Y-95527054D01*
X227232822Y-95402617D01*
X227232820Y-95402614D01*
X227230014Y-95398277D01*
X227079670Y-95233051D01*
X227075619Y-95229852D01*
X227075615Y-95229848D01*
X226908414Y-95097800D01*
X226908410Y-95097798D01*
X226904359Y-95094598D01*
X226868028Y-95074542D01*
X226815972Y-95045806D01*
X226708789Y-94986638D01*
X226703920Y-94984914D01*
X226703916Y-94984912D01*
X226503087Y-94913795D01*
X226503083Y-94913794D01*
X226498212Y-94912069D01*
X226493119Y-94911162D01*
X226493116Y-94911161D01*
X226283373Y-94873800D01*
X226283367Y-94873799D01*
X226278284Y-94872894D01*
X226204452Y-94871992D01*
X226060081Y-94870228D01*
X226060079Y-94870228D01*
X226054911Y-94870165D01*
X225834091Y-94903955D01*
X225621756Y-94973357D01*
X225423607Y-95076507D01*
X225419474Y-95079610D01*
X225419471Y-95079612D01*
X225395247Y-95097800D01*
X225244965Y-95210635D01*
X225241393Y-95214373D01*
X225108126Y-95353829D01*
X225090629Y-95372138D01*
X224983204Y-95529618D01*
X224982898Y-95530066D01*
X224927987Y-95575069D01*
X224857462Y-95583240D01*
X224793715Y-95551986D01*
X224773018Y-95527502D01*
X224692426Y-95402926D01*
X224686136Y-95394757D01*
X224542806Y-95237240D01*
X224535273Y-95230215D01*
X224368139Y-95098222D01*
X224359552Y-95092517D01*
X224173117Y-94989599D01*
X224163705Y-94985369D01*
X223962959Y-94914280D01*
X223952988Y-94911646D01*
X223881837Y-94898972D01*
X223868540Y-94900432D01*
X223864000Y-94914989D01*
X223864000Y-96358000D01*
X223843998Y-96426121D01*
X223790342Y-96472614D01*
X223738000Y-96484000D01*
X223482000Y-96484000D01*
X223413879Y-96463998D01*
X223367386Y-96410342D01*
X223356000Y-96358000D01*
X223356000Y-94913102D01*
X223352082Y-94899758D01*
X223337806Y-94897771D01*
X223299324Y-94903660D01*
X223289288Y-94906051D01*
X223086868Y-94972212D01*
X223077359Y-94976209D01*
X222888463Y-95074542D01*
X222879738Y-95080036D01*
X222709433Y-95207905D01*
X222701726Y-95214748D01*
X222554590Y-95368717D01*
X222548109Y-95376722D01*
X222443498Y-95530074D01*
X222388587Y-95575076D01*
X222318062Y-95583247D01*
X222254315Y-95551993D01*
X222233618Y-95527509D01*
X222152822Y-95402617D01*
X222152820Y-95402614D01*
X222150014Y-95398277D01*
X221999670Y-95233051D01*
X221995619Y-95229852D01*
X221995615Y-95229848D01*
X221828414Y-95097800D01*
X221828410Y-95097798D01*
X221824359Y-95094598D01*
X221788028Y-95074542D01*
X221735972Y-95045806D01*
X221628789Y-94986638D01*
X221623920Y-94984914D01*
X221623916Y-94984912D01*
X221423087Y-94913795D01*
X221423083Y-94913794D01*
X221418212Y-94912069D01*
X221413119Y-94911162D01*
X221413116Y-94911161D01*
X221203373Y-94873800D01*
X221203367Y-94873799D01*
X221198284Y-94872894D01*
X221124452Y-94871992D01*
X220980081Y-94870228D01*
X220980079Y-94870228D01*
X220974911Y-94870165D01*
X220754091Y-94903955D01*
X220541756Y-94973357D01*
X220343607Y-95076507D01*
X220339474Y-95079610D01*
X220339471Y-95079612D01*
X220315247Y-95097800D01*
X220164965Y-95210635D01*
X220161393Y-95214373D01*
X220028126Y-95353829D01*
X220010629Y-95372138D01*
X219903201Y-95529621D01*
X219848293Y-95574621D01*
X219777768Y-95582792D01*
X219714021Y-95551538D01*
X219693324Y-95527054D01*
X219612822Y-95402617D01*
X219612820Y-95402614D01*
X219610014Y-95398277D01*
X219459670Y-95233051D01*
X219455619Y-95229852D01*
X219455615Y-95229848D01*
X219288414Y-95097800D01*
X219288410Y-95097798D01*
X219284359Y-95094598D01*
X219248028Y-95074542D01*
X219195972Y-95045806D01*
X219088789Y-94986638D01*
X219083920Y-94984914D01*
X219083916Y-94984912D01*
X218883087Y-94913795D01*
X218883083Y-94913794D01*
X218878212Y-94912069D01*
X218873119Y-94911162D01*
X218873116Y-94911161D01*
X218663373Y-94873800D01*
X218663367Y-94873799D01*
X218658284Y-94872894D01*
X218584452Y-94871992D01*
X218440081Y-94870228D01*
X218440079Y-94870228D01*
X218434911Y-94870165D01*
X218214091Y-94903955D01*
X218001756Y-94973357D01*
X217803607Y-95076507D01*
X217799474Y-95079610D01*
X217799471Y-95079612D01*
X217775247Y-95097800D01*
X217624965Y-95210635D01*
X217621393Y-95214373D01*
X217488126Y-95353829D01*
X217470629Y-95372138D01*
X217363201Y-95529621D01*
X217308293Y-95574621D01*
X217237768Y-95582792D01*
X217174021Y-95551538D01*
X217153324Y-95527054D01*
X217072822Y-95402617D01*
X217072820Y-95402614D01*
X217070014Y-95398277D01*
X216919670Y-95233051D01*
X216915619Y-95229852D01*
X216915615Y-95229848D01*
X216748414Y-95097800D01*
X216748410Y-95097798D01*
X216744359Y-95094598D01*
X216708028Y-95074542D01*
X216655972Y-95045806D01*
X216548789Y-94986638D01*
X216543920Y-94984914D01*
X216543916Y-94984912D01*
X216343087Y-94913795D01*
X216343083Y-94913794D01*
X216338212Y-94912069D01*
X216333119Y-94911162D01*
X216333116Y-94911161D01*
X216123373Y-94873800D01*
X216123367Y-94873799D01*
X216118284Y-94872894D01*
X216044452Y-94871992D01*
X215900081Y-94870228D01*
X215900079Y-94870228D01*
X215894911Y-94870165D01*
X215674091Y-94903955D01*
X215461756Y-94973357D01*
X215263607Y-95076507D01*
X215259474Y-95079610D01*
X215259471Y-95079612D01*
X215235247Y-95097800D01*
X215084965Y-95210635D01*
X215081393Y-95214373D01*
X214948126Y-95353829D01*
X214930629Y-95372138D01*
X214823204Y-95529618D01*
X214822898Y-95530066D01*
X214767987Y-95575069D01*
X214697462Y-95583240D01*
X214633715Y-95551986D01*
X214613018Y-95527502D01*
X214532426Y-95402926D01*
X214526136Y-95394757D01*
X214382806Y-95237240D01*
X214375273Y-95230215D01*
X214208139Y-95098222D01*
X214199552Y-95092517D01*
X214013117Y-94989599D01*
X214003705Y-94985369D01*
X213802959Y-94914280D01*
X213792988Y-94911646D01*
X213721837Y-94898972D01*
X213708540Y-94900432D01*
X213704000Y-94914989D01*
X213704000Y-96358000D01*
X213683998Y-96426121D01*
X213630342Y-96472614D01*
X213578000Y-96484000D01*
X213322000Y-96484000D01*
X213253879Y-96463998D01*
X213207386Y-96410342D01*
X213196000Y-96358000D01*
X213196000Y-94913102D01*
X213192082Y-94899758D01*
X213177806Y-94897771D01*
X213139324Y-94903660D01*
X213129288Y-94906051D01*
X212926868Y-94972212D01*
X212917359Y-94976209D01*
X212728463Y-95074542D01*
X212719738Y-95080036D01*
X212549433Y-95207905D01*
X212541726Y-95214748D01*
X212394590Y-95368717D01*
X212388109Y-95376722D01*
X212283498Y-95530074D01*
X212228587Y-95575076D01*
X212158062Y-95583247D01*
X212094315Y-95551993D01*
X212073618Y-95527509D01*
X211992822Y-95402617D01*
X211992820Y-95402614D01*
X211990014Y-95398277D01*
X211839670Y-95233051D01*
X211835619Y-95229852D01*
X211835615Y-95229848D01*
X211668414Y-95097800D01*
X211668410Y-95097798D01*
X211664359Y-95094598D01*
X211628028Y-95074542D01*
X211575972Y-95045806D01*
X211468789Y-94986638D01*
X211463920Y-94984914D01*
X211463916Y-94984912D01*
X211263087Y-94913795D01*
X211263083Y-94913794D01*
X211258212Y-94912069D01*
X211253119Y-94911162D01*
X211253116Y-94911161D01*
X211043373Y-94873800D01*
X211043367Y-94873799D01*
X211038284Y-94872894D01*
X210964452Y-94871992D01*
X210820081Y-94870228D01*
X210820079Y-94870228D01*
X210814911Y-94870165D01*
X210594091Y-94903955D01*
X210381756Y-94973357D01*
X210183607Y-95076507D01*
X210179474Y-95079610D01*
X210179471Y-95079612D01*
X210155247Y-95097800D01*
X210004965Y-95210635D01*
X210001393Y-95214373D01*
X209868126Y-95353829D01*
X209850629Y-95372138D01*
X209743201Y-95529621D01*
X209688293Y-95574621D01*
X209617768Y-95582792D01*
X209554021Y-95551538D01*
X209533324Y-95527054D01*
X209452822Y-95402617D01*
X209452820Y-95402614D01*
X209450014Y-95398277D01*
X209299670Y-95233051D01*
X209295619Y-95229852D01*
X209295615Y-95229848D01*
X209128414Y-95097800D01*
X209128410Y-95097798D01*
X209124359Y-95094598D01*
X209088028Y-95074542D01*
X209035972Y-95045806D01*
X208928789Y-94986638D01*
X208923920Y-94984914D01*
X208923916Y-94984912D01*
X208723087Y-94913795D01*
X208723083Y-94913794D01*
X208718212Y-94912069D01*
X208713119Y-94911162D01*
X208713116Y-94911161D01*
X208503373Y-94873800D01*
X208503367Y-94873799D01*
X208498284Y-94872894D01*
X208424452Y-94871992D01*
X208280081Y-94870228D01*
X208280079Y-94870228D01*
X208274911Y-94870165D01*
X208054091Y-94903955D01*
X207841756Y-94973357D01*
X207643607Y-95076507D01*
X207639474Y-95079610D01*
X207639471Y-95079612D01*
X207615247Y-95097800D01*
X207464965Y-95210635D01*
X207461393Y-95214373D01*
X207328126Y-95353829D01*
X207310629Y-95372138D01*
X207184743Y-95556680D01*
X207145371Y-95641500D01*
X207110877Y-95715812D01*
X207090688Y-95759305D01*
X207030989Y-95974570D01*
X207007251Y-96196695D01*
X207007548Y-96201848D01*
X207007548Y-96201851D01*
X207012858Y-96293940D01*
X207020110Y-96419715D01*
X207021247Y-96424761D01*
X207021248Y-96424767D01*
X207042275Y-96518069D01*
X207069222Y-96637639D01*
X207153266Y-96844616D01*
X207200097Y-96921037D01*
X207267291Y-97030688D01*
X207269987Y-97035088D01*
X207416250Y-97203938D01*
X207420230Y-97207242D01*
X207424981Y-97211187D01*
X207464616Y-97270090D01*
X207466113Y-97341071D01*
X207428997Y-97401593D01*
X207388725Y-97426112D01*
X207347913Y-97441412D01*
X207273295Y-97469385D01*
X207156739Y-97556739D01*
X207069385Y-97673295D01*
X207018255Y-97809684D01*
X207011500Y-97871866D01*
X207011500Y-99668134D01*
X207018255Y-99730316D01*
X207069385Y-99866705D01*
X207156739Y-99983261D01*
X207273295Y-100070615D01*
X207409684Y-100121745D01*
X207471866Y-100128500D01*
X209268134Y-100128500D01*
X209330316Y-100121745D01*
X209466705Y-100070615D01*
X209583261Y-99983261D01*
X209670615Y-99866705D01*
X209692799Y-99807529D01*
X209714598Y-99749382D01*
X209757240Y-99692618D01*
X209823802Y-99667918D01*
X209893150Y-99683126D01*
X209927817Y-99711114D01*
X209956250Y-99743938D01*
X210128126Y-99886632D01*
X210321000Y-99999338D01*
X210529692Y-100079030D01*
X210534760Y-100080061D01*
X210534763Y-100080062D01*
X210629862Y-100099410D01*
X210748597Y-100123567D01*
X210753772Y-100123757D01*
X210753774Y-100123757D01*
X210966673Y-100131564D01*
X210966677Y-100131564D01*
X210971837Y-100131753D01*
X210976957Y-100131097D01*
X210976959Y-100131097D01*
X211188288Y-100104025D01*
X211188289Y-100104025D01*
X211193416Y-100103368D01*
X211198706Y-100101781D01*
X211402429Y-100040661D01*
X211402434Y-100040659D01*
X211407384Y-100039174D01*
X211607994Y-99940896D01*
X211789860Y-99811173D01*
X211948096Y-99653489D01*
X212078453Y-99472077D01*
X212079776Y-99473028D01*
X212126645Y-99429857D01*
X212196580Y-99417625D01*
X212262026Y-99445144D01*
X212289875Y-99476994D01*
X212349987Y-99575088D01*
X212496250Y-99743938D01*
X212668126Y-99886632D01*
X212861000Y-99999338D01*
X213069692Y-100079030D01*
X213074760Y-100080061D01*
X213074763Y-100080062D01*
X213169862Y-100099410D01*
X213288597Y-100123567D01*
X213293772Y-100123757D01*
X213293774Y-100123757D01*
X213506673Y-100131564D01*
X213506677Y-100131564D01*
X213511837Y-100131753D01*
X213516957Y-100131097D01*
X213516959Y-100131097D01*
X213728288Y-100104025D01*
X213728289Y-100104025D01*
X213733416Y-100103368D01*
X213738706Y-100101781D01*
X213942429Y-100040661D01*
X213942434Y-100040659D01*
X213947384Y-100039174D01*
X214034943Y-99996279D01*
X214050557Y-99988630D01*
X214120531Y-99976623D01*
X214185888Y-100004353D01*
X214225878Y-100063016D01*
X214231989Y-100101781D01*
X214231989Y-113992353D01*
X214230911Y-114008796D01*
X214226739Y-114040489D01*
X214231989Y-114080369D01*
X214231989Y-114080374D01*
X214242264Y-114158417D01*
X214247651Y-114199340D01*
X214308965Y-114347365D01*
X214313992Y-114353916D01*
X214313993Y-114353918D01*
X214382009Y-114442558D01*
X214382015Y-114442564D01*
X214406502Y-114474476D01*
X214413057Y-114479506D01*
X214431868Y-114493941D01*
X214444259Y-114504808D01*
X214715084Y-114775633D01*
X214749110Y-114837945D01*
X214751989Y-114864728D01*
X214751989Y-115646371D01*
X214731987Y-115714492D01*
X214678331Y-115760985D01*
X214608057Y-115771089D01*
X214565097Y-115756680D01*
X214533321Y-115739139D01*
X214533313Y-115739136D01*
X214528789Y-115736638D01*
X214523920Y-115734914D01*
X214523916Y-115734912D01*
X214323087Y-115663795D01*
X214323083Y-115663794D01*
X214318212Y-115662069D01*
X214313119Y-115661162D01*
X214313116Y-115661161D01*
X214103373Y-115623800D01*
X214103367Y-115623799D01*
X214098284Y-115622894D01*
X214024452Y-115621992D01*
X213880081Y-115620228D01*
X213880079Y-115620228D01*
X213874911Y-115620165D01*
X213654091Y-115653955D01*
X213441756Y-115723357D01*
X213390856Y-115749854D01*
X213308500Y-115792726D01*
X213243607Y-115826507D01*
X213239474Y-115829610D01*
X213239471Y-115829612D01*
X213097437Y-115936254D01*
X213064965Y-115960635D01*
X212910629Y-116122138D01*
X212803201Y-116279621D01*
X212748293Y-116324621D01*
X212677768Y-116332792D01*
X212614021Y-116301538D01*
X212593324Y-116277054D01*
X212512822Y-116152617D01*
X212512820Y-116152614D01*
X212510014Y-116148277D01*
X212359670Y-115983051D01*
X212355619Y-115979852D01*
X212355615Y-115979848D01*
X212188414Y-115847800D01*
X212188410Y-115847798D01*
X212184359Y-115844598D01*
X211988789Y-115736638D01*
X211983920Y-115734914D01*
X211983916Y-115734912D01*
X211783087Y-115663795D01*
X211783083Y-115663794D01*
X211778212Y-115662069D01*
X211773119Y-115661162D01*
X211773116Y-115661161D01*
X211563373Y-115623800D01*
X211563367Y-115623799D01*
X211558284Y-115622894D01*
X211484452Y-115621992D01*
X211340081Y-115620228D01*
X211340079Y-115620228D01*
X211334911Y-115620165D01*
X211114091Y-115653955D01*
X210901756Y-115723357D01*
X210850856Y-115749854D01*
X210768500Y-115792726D01*
X210703607Y-115826507D01*
X210699474Y-115829610D01*
X210699471Y-115829612D01*
X210557437Y-115936254D01*
X210524965Y-115960635D01*
X210370629Y-116122138D01*
X210244743Y-116306680D01*
X210150688Y-116509305D01*
X210090989Y-116724570D01*
X210067251Y-116946695D01*
X210067548Y-116951848D01*
X210067548Y-116951851D01*
X210069910Y-116992812D01*
X210080110Y-117169715D01*
X210081247Y-117174761D01*
X210081248Y-117174767D01*
X210102275Y-117268069D01*
X210129222Y-117387639D01*
X210213266Y-117594616D01*
X210264942Y-117678944D01*
X210327291Y-117780688D01*
X210329987Y-117785088D01*
X210476250Y-117953938D01*
X210648126Y-118096632D01*
X210841000Y-118209338D01*
X210845825Y-118211180D01*
X210845826Y-118211181D01*
X210888501Y-118227477D01*
X211049692Y-118289030D01*
X211054760Y-118290061D01*
X211054763Y-118290062D01*
X211159604Y-118311392D01*
X211268597Y-118333567D01*
X211273772Y-118333757D01*
X211273774Y-118333757D01*
X211486673Y-118341564D01*
X211486677Y-118341564D01*
X211491837Y-118341753D01*
X211496957Y-118341097D01*
X211496959Y-118341097D01*
X211708288Y-118314025D01*
X211708289Y-118314025D01*
X211713416Y-118313368D01*
X211718366Y-118311883D01*
X211922429Y-118250661D01*
X211922434Y-118250659D01*
X211927384Y-118249174D01*
X212127994Y-118150896D01*
X212309860Y-118021173D01*
X212468096Y-117863489D01*
X212527594Y-117780689D01*
X212598453Y-117682077D01*
X212599776Y-117683028D01*
X212646645Y-117639857D01*
X212716580Y-117627625D01*
X212782026Y-117655144D01*
X212809875Y-117686994D01*
X212869987Y-117785088D01*
X213016250Y-117953938D01*
X213188126Y-118096632D01*
X213381000Y-118209338D01*
X213385825Y-118211180D01*
X213385826Y-118211181D01*
X213428501Y-118227477D01*
X213589692Y-118289030D01*
X213594760Y-118290061D01*
X213594763Y-118290062D01*
X213699604Y-118311392D01*
X213808597Y-118333567D01*
X213813772Y-118333757D01*
X213813774Y-118333757D01*
X214026673Y-118341564D01*
X214026677Y-118341564D01*
X214031837Y-118341753D01*
X214036957Y-118341097D01*
X214036959Y-118341097D01*
X214248288Y-118314025D01*
X214248289Y-118314025D01*
X214253416Y-118313368D01*
X214258366Y-118311883D01*
X214462429Y-118250661D01*
X214462434Y-118250659D01*
X214467384Y-118249174D01*
X214667994Y-118150896D01*
X214849860Y-118021173D01*
X214853517Y-118017529D01*
X214853522Y-118017525D01*
X214868505Y-118002593D01*
X214930875Y-117968675D01*
X215001682Y-117973861D01*
X215046542Y-118002746D01*
X227644540Y-130600744D01*
X227655407Y-130613135D01*
X227674868Y-130638497D01*
X227681418Y-130643523D01*
X227706780Y-130662984D01*
X227706786Y-130662990D01*
X227795426Y-130731006D01*
X227801979Y-130736034D01*
X227950004Y-130797348D01*
X227958191Y-130798426D01*
X227958192Y-130798426D01*
X227969397Y-130799901D01*
X228000593Y-130804008D01*
X228068970Y-130813010D01*
X228068973Y-130813010D01*
X228068981Y-130813011D01*
X228100666Y-130817182D01*
X228108855Y-130818260D01*
X228140548Y-130814088D01*
X228156991Y-130813010D01*
X230810172Y-130813011D01*
X233463353Y-130813011D01*
X233479796Y-130814089D01*
X233511489Y-130818261D01*
X233519678Y-130817183D01*
X233551363Y-130813012D01*
X233551373Y-130813011D01*
X233551374Y-130813011D01*
X233650946Y-130799902D01*
X233650954Y-130799901D01*
X233662153Y-130798427D01*
X233662155Y-130798426D01*
X233670340Y-130797349D01*
X233818365Y-130736035D01*
X233849992Y-130711767D01*
X233913561Y-130662988D01*
X233913562Y-130662989D01*
X233913566Y-130662983D01*
X233945476Y-130638498D01*
X233953470Y-130628080D01*
X233964941Y-130613132D01*
X233975808Y-130600741D01*
X234686234Y-129890315D01*
X234698625Y-129879448D01*
X234717437Y-129865013D01*
X234723987Y-129859987D01*
X234729013Y-129853437D01*
X234734854Y-129847596D01*
X234736915Y-129849657D01*
X234782884Y-129816096D01*
X234853755Y-129811879D01*
X234915656Y-129846648D01*
X234948932Y-129909363D01*
X234951500Y-129934670D01*
X234951500Y-130899761D01*
X234931498Y-130967882D01*
X234914595Y-130988856D01*
X234328856Y-131574595D01*
X234266544Y-131608621D01*
X234239761Y-131611500D01*
X225846753Y-131611500D01*
X225779238Y-131591885D01*
X225762874Y-131581500D01*
X225723580Y-131556563D01*
X225674447Y-131539068D01*
X225575189Y-131503723D01*
X225575187Y-131503722D01*
X225568555Y-131501361D01*
X225561569Y-131500528D01*
X225561565Y-131500527D01*
X225447071Y-131486875D01*
X225405153Y-131481877D01*
X225398150Y-131482613D01*
X225398149Y-131482613D01*
X225354935Y-131487155D01*
X225241495Y-131499078D01*
X225234827Y-131501348D01*
X225092382Y-131549840D01*
X225092379Y-131549841D01*
X225085715Y-131552110D01*
X224945555Y-131638337D01*
X224883066Y-131699531D01*
X224838430Y-131743242D01*
X224827982Y-131753473D01*
X224738838Y-131891797D01*
X224736427Y-131898420D01*
X224736426Y-131898423D01*
X224684966Y-132039809D01*
X224684965Y-132039814D01*
X224682556Y-132046432D01*
X224661931Y-132209694D01*
X224677989Y-132373468D01*
X224707768Y-132462988D01*
X224721986Y-132505728D01*
X224724509Y-132576680D01*
X224688272Y-132637732D01*
X224624780Y-132669502D01*
X224602428Y-132671500D01*
X214825500Y-132671500D01*
X214757379Y-132651498D01*
X214710886Y-132597842D01*
X214699500Y-132545500D01*
X214699500Y-132277928D01*
X214693148Y-132216707D01*
X214689419Y-132180765D01*
X214689418Y-132180761D01*
X214688707Y-132173907D01*
X214685334Y-132163795D01*
X214635972Y-132015841D01*
X214633654Y-132008893D01*
X214542116Y-131860969D01*
X214536934Y-131855796D01*
X214424184Y-131743242D01*
X214424179Y-131743238D01*
X214419003Y-131738071D01*
X214412772Y-131734230D01*
X214277150Y-131650631D01*
X214277148Y-131650630D01*
X214270920Y-131646791D01*
X214105809Y-131592026D01*
X214098973Y-131591326D01*
X214098970Y-131591325D01*
X214047474Y-131586049D01*
X214003072Y-131581500D01*
X213915582Y-131581500D01*
X213847461Y-131561498D01*
X213826487Y-131544595D01*
X209481405Y-127199513D01*
X209447379Y-127137201D01*
X209444500Y-127110418D01*
X209444500Y-114195164D01*
X209444507Y-114193845D01*
X209445376Y-114110826D01*
X209445450Y-114103779D01*
X209436290Y-114061414D01*
X209434230Y-114048835D01*
X209430182Y-114012741D01*
X209430181Y-114012738D01*
X209429397Y-114005745D01*
X209418366Y-113974068D01*
X209414204Y-113959258D01*
X209408609Y-113933378D01*
X209408608Y-113933374D01*
X209407119Y-113926489D01*
X209404142Y-113920105D01*
X209404140Y-113920099D01*
X209388796Y-113887193D01*
X209384000Y-113875383D01*
X209372061Y-113841100D01*
X209369745Y-113834448D01*
X209366013Y-113828476D01*
X209366010Y-113828469D01*
X209351973Y-113806005D01*
X209344634Y-113792488D01*
X209333439Y-113768481D01*
X209333437Y-113768477D01*
X209330462Y-113762098D01*
X209303892Y-113727844D01*
X209296598Y-113717388D01*
X209273626Y-113680624D01*
X209246944Y-113653755D01*
X209245017Y-113651815D01*
X209244434Y-113651192D01*
X209243921Y-113650530D01*
X209218074Y-113624683D01*
X209145815Y-113551918D01*
X209144777Y-113551259D01*
X209143544Y-113550153D01*
X206312487Y-110719095D01*
X206278461Y-110656783D01*
X206283526Y-110585967D01*
X206312487Y-110540905D01*
X211574146Y-105279246D01*
X211636458Y-105245220D01*
X211662168Y-105242729D01*
X211663830Y-105242927D01*
X211669965Y-105242455D01*
X211669968Y-105242455D01*
X211845105Y-105228979D01*
X211845109Y-105228978D01*
X211851247Y-105228506D01*
X211936378Y-105204737D01*
X212026350Y-105179616D01*
X212026353Y-105179615D01*
X212032294Y-105177956D01*
X212037798Y-105175176D01*
X212037800Y-105175175D01*
X212194574Y-105095983D01*
X212194576Y-105095982D01*
X212200075Y-105093204D01*
X212348199Y-104977477D01*
X212372553Y-104949263D01*
X212466994Y-104839852D01*
X212466995Y-104839850D01*
X212471023Y-104835184D01*
X212563870Y-104671744D01*
X212623203Y-104493382D01*
X212646762Y-104306892D01*
X212647138Y-104280000D01*
X212628795Y-104092926D01*
X212625777Y-104082928D01*
X212576246Y-103918877D01*
X212574465Y-103912977D01*
X212486218Y-103747008D01*
X212367415Y-103601340D01*
X212290132Y-103537406D01*
X212227329Y-103485450D01*
X212227324Y-103485447D01*
X212222580Y-103481522D01*
X212217161Y-103478592D01*
X212217158Y-103478590D01*
X212140937Y-103437378D01*
X212057231Y-103392119D01*
X211877666Y-103336534D01*
X211871541Y-103335890D01*
X211871540Y-103335890D01*
X211696852Y-103317529D01*
X211696851Y-103317529D01*
X211690724Y-103316885D01*
X211622941Y-103323054D01*
X211509665Y-103333363D01*
X211509662Y-103333364D01*
X211503526Y-103333922D01*
X211497620Y-103335660D01*
X211497616Y-103335661D01*
X211439791Y-103352680D01*
X211323202Y-103386994D01*
X211156621Y-103474080D01*
X211151820Y-103477940D01*
X211151814Y-103477944D01*
X211046305Y-103562776D01*
X211020608Y-103578772D01*
X211006098Y-103585538D01*
X211000536Y-103589852D01*
X211000535Y-103589853D01*
X210971847Y-103612106D01*
X210961388Y-103619402D01*
X210930596Y-103638642D01*
X210930593Y-103638644D01*
X210924624Y-103642374D01*
X210919629Y-103647334D01*
X210919628Y-103647335D01*
X210895821Y-103670976D01*
X210895196Y-103671561D01*
X210894530Y-103672078D01*
X210868540Y-103698068D01*
X210795918Y-103770185D01*
X210795260Y-103771222D01*
X210794157Y-103772451D01*
X204782013Y-109784595D01*
X204719701Y-109818621D01*
X204692918Y-109821500D01*
X204021291Y-109821500D01*
X203953170Y-109801498D01*
X203906677Y-109747842D01*
X203896028Y-109709108D01*
X203892598Y-109677540D01*
X203891745Y-109669684D01*
X203840615Y-109533295D01*
X203753261Y-109416739D01*
X203636705Y-109329385D01*
X203500316Y-109278255D01*
X203438134Y-109271500D01*
X201641866Y-109271500D01*
X201579684Y-109278255D01*
X201443295Y-109329385D01*
X201326739Y-109416739D01*
X201239385Y-109533295D01*
X201188255Y-109669684D01*
X201181500Y-109731866D01*
X201181500Y-111528134D01*
X201188255Y-111590316D01*
X201239385Y-111726705D01*
X201326739Y-111843261D01*
X201443295Y-111930615D01*
X201579684Y-111981745D01*
X201641866Y-111988500D01*
X203438134Y-111988500D01*
X203500316Y-111981745D01*
X203636705Y-111930615D01*
X203753261Y-111843261D01*
X203840615Y-111726705D01*
X203891745Y-111590316D01*
X203896028Y-111550892D01*
X203923270Y-111485330D01*
X203981634Y-111444904D01*
X204021291Y-111438500D01*
X204692918Y-111438500D01*
X204761039Y-111458502D01*
X204782013Y-111475405D01*
X207790595Y-114483987D01*
X207824621Y-114546299D01*
X207827500Y-114573082D01*
X207827500Y-127488286D01*
X207827493Y-127489606D01*
X207826549Y-127579721D01*
X207835711Y-127622097D01*
X207837769Y-127634663D01*
X207842603Y-127677755D01*
X207844919Y-127684406D01*
X207844920Y-127684410D01*
X207853633Y-127709430D01*
X207857796Y-127724242D01*
X207864881Y-127757010D01*
X207883208Y-127796313D01*
X207887990Y-127808089D01*
X207902255Y-127849052D01*
X207905989Y-127855027D01*
X207905990Y-127855030D01*
X207920027Y-127877495D01*
X207927366Y-127891012D01*
X207938559Y-127915014D01*
X207941538Y-127921402D01*
X207945855Y-127926967D01*
X207945856Y-127926969D01*
X207968106Y-127955653D01*
X207975402Y-127966112D01*
X207998374Y-128002876D01*
X208003334Y-128007871D01*
X208003335Y-128007872D01*
X208026976Y-128031679D01*
X208027561Y-128032304D01*
X208028078Y-128032970D01*
X208054068Y-128058960D01*
X208126185Y-128131582D01*
X208127222Y-128132240D01*
X208128451Y-128133343D01*
X212451513Y-132456405D01*
X212485539Y-132518717D01*
X212480474Y-132589532D01*
X212437927Y-132646368D01*
X212371407Y-132671179D01*
X212362418Y-132671500D01*
X202991850Y-132671500D01*
X202923729Y-132651498D01*
X202898656Y-132630299D01*
X202768151Y-132486876D01*
X202768148Y-132486873D01*
X202764670Y-132483051D01*
X202760619Y-132479852D01*
X202760615Y-132479848D01*
X202593414Y-132347800D01*
X202593410Y-132347798D01*
X202589359Y-132344598D01*
X202393789Y-132236638D01*
X202388920Y-132234914D01*
X202388916Y-132234912D01*
X202188087Y-132163795D01*
X202188083Y-132163794D01*
X202183212Y-132162069D01*
X202178119Y-132161162D01*
X202178116Y-132161161D01*
X201968373Y-132123800D01*
X201968367Y-132123799D01*
X201963284Y-132122894D01*
X201889452Y-132121992D01*
X201745081Y-132120228D01*
X201745079Y-132120228D01*
X201739911Y-132120165D01*
X201519091Y-132153955D01*
X201306756Y-132223357D01*
X201108607Y-132326507D01*
X201104474Y-132329610D01*
X201104471Y-132329612D01*
X200934100Y-132457530D01*
X200929965Y-132460635D01*
X200775629Y-132622138D01*
X200772715Y-132626410D01*
X200772714Y-132626411D01*
X200738588Y-132676438D01*
X200683677Y-132721441D01*
X200613152Y-132729612D01*
X200549405Y-132698358D01*
X200512675Y-132637601D01*
X200508500Y-132605434D01*
X200508500Y-131134501D01*
X200528502Y-131066380D01*
X200582158Y-131019887D01*
X200634500Y-131008501D01*
X204088544Y-131008500D01*
X204446750Y-131008500D01*
X204467655Y-131010246D01*
X204482656Y-131012770D01*
X204482659Y-131012770D01*
X204487448Y-131013576D01*
X204493525Y-131013650D01*
X204495135Y-131013670D01*
X204495139Y-131013670D01*
X204500000Y-131013729D01*
X204504814Y-131013040D01*
X204504824Y-131013039D01*
X204521280Y-131010682D01*
X204528149Y-131009889D01*
X204675793Y-130996972D01*
X204681107Y-130995548D01*
X204681108Y-130995548D01*
X204840935Y-130952723D01*
X204840937Y-130952722D01*
X204846245Y-130951300D01*
X204872972Y-130938837D01*
X205001189Y-130879049D01*
X205001194Y-130879046D01*
X205006176Y-130876723D01*
X205095628Y-130814088D01*
X205146216Y-130778666D01*
X205146219Y-130778664D01*
X205150727Y-130775507D01*
X205275507Y-130650727D01*
X205280552Y-130643523D01*
X205373566Y-130510684D01*
X205376723Y-130506176D01*
X205379046Y-130501194D01*
X205379049Y-130501189D01*
X205448977Y-130351227D01*
X205448978Y-130351226D01*
X205451300Y-130346245D01*
X205496972Y-130175793D01*
X205508302Y-130046288D01*
X205509569Y-130036368D01*
X205512770Y-130017344D01*
X205512770Y-130017342D01*
X205513576Y-130012552D01*
X205513729Y-130000000D01*
X205509773Y-129972376D01*
X205508500Y-129954514D01*
X205508500Y-114053250D01*
X205510246Y-114032345D01*
X205512770Y-114017344D01*
X205512770Y-114017341D01*
X205513576Y-114012552D01*
X205513729Y-114000000D01*
X205513040Y-113995186D01*
X205513039Y-113995176D01*
X205510682Y-113978720D01*
X205509888Y-113971839D01*
X205509447Y-113966797D01*
X205496972Y-113824207D01*
X205488473Y-113792488D01*
X205452723Y-113659065D01*
X205452722Y-113659063D01*
X205451300Y-113653755D01*
X205437744Y-113624683D01*
X205379049Y-113498811D01*
X205379046Y-113498806D01*
X205376723Y-113493824D01*
X205275507Y-113349273D01*
X205150727Y-113224493D01*
X205146219Y-113221336D01*
X205146216Y-113221334D01*
X205081176Y-113175793D01*
X205006176Y-113123277D01*
X205001194Y-113120954D01*
X205001189Y-113120951D01*
X204851227Y-113051023D01*
X204851226Y-113051022D01*
X204846245Y-113048700D01*
X204840937Y-113047278D01*
X204840935Y-113047277D01*
X204681108Y-113004452D01*
X204681107Y-113004452D01*
X204675793Y-113003028D01*
X204546288Y-112991698D01*
X204536374Y-112990432D01*
X204525444Y-112988593D01*
X204517344Y-112987230D01*
X204517342Y-112987230D01*
X204512552Y-112986424D01*
X204506276Y-112986348D01*
X204504860Y-112986330D01*
X204504857Y-112986330D01*
X204500000Y-112986271D01*
X204474058Y-112989986D01*
X204472376Y-112990227D01*
X204454514Y-112991500D01*
X200634500Y-112991500D01*
X200566379Y-112971498D01*
X200519886Y-112917842D01*
X200508500Y-112865500D01*
X200508500Y-105516695D01*
X201177251Y-105516695D01*
X201177548Y-105521848D01*
X201177548Y-105521851D01*
X201186862Y-105683378D01*
X201190110Y-105739715D01*
X201191247Y-105744761D01*
X201191248Y-105744767D01*
X201203245Y-105798000D01*
X201239222Y-105957639D01*
X201323266Y-106164616D01*
X201439987Y-106355088D01*
X201586250Y-106523938D01*
X201758126Y-106666632D01*
X201951000Y-106779338D01*
X202159692Y-106859030D01*
X202164760Y-106860061D01*
X202164763Y-106860062D01*
X202272017Y-106881883D01*
X202378597Y-106903567D01*
X202383772Y-106903757D01*
X202383774Y-106903757D01*
X202596673Y-106911564D01*
X202596677Y-106911564D01*
X202601837Y-106911753D01*
X202606957Y-106911097D01*
X202606959Y-106911097D01*
X202818288Y-106884025D01*
X202818289Y-106884025D01*
X202823416Y-106883368D01*
X202873690Y-106868285D01*
X203032429Y-106820661D01*
X203032434Y-106820659D01*
X203037384Y-106819174D01*
X203237994Y-106720896D01*
X203419860Y-106591173D01*
X203431718Y-106579357D01*
X203535207Y-106476228D01*
X203578096Y-106433489D01*
X203637594Y-106350689D01*
X203705435Y-106256277D01*
X203708453Y-106252077D01*
X203807430Y-106051811D01*
X203872370Y-105838069D01*
X203901529Y-105616590D01*
X203902481Y-105577642D01*
X203903074Y-105553365D01*
X203903074Y-105553361D01*
X203903156Y-105550000D01*
X203884852Y-105327361D01*
X203830431Y-105110702D01*
X203741354Y-104905840D01*
X203690149Y-104826689D01*
X203622822Y-104722617D01*
X203622820Y-104722614D01*
X203620014Y-104718277D01*
X203616540Y-104714459D01*
X203616533Y-104714450D01*
X203472435Y-104556088D01*
X203441383Y-104492242D01*
X203449779Y-104421744D01*
X203494956Y-104366976D01*
X203521400Y-104353307D01*
X203628052Y-104313325D01*
X203643649Y-104304786D01*
X203745724Y-104228285D01*
X203758285Y-104215724D01*
X203834786Y-104113649D01*
X203843324Y-104098054D01*
X203888478Y-103977606D01*
X203892105Y-103962351D01*
X203897631Y-103911486D01*
X203898000Y-103904672D01*
X203898000Y-103282115D01*
X203893525Y-103266876D01*
X203892135Y-103265671D01*
X203884452Y-103264000D01*
X201200116Y-103264000D01*
X201184877Y-103268475D01*
X201183672Y-103269865D01*
X201182001Y-103277548D01*
X201182001Y-103904669D01*
X201182371Y-103911490D01*
X201187895Y-103962352D01*
X201191521Y-103977604D01*
X201236676Y-104098054D01*
X201245214Y-104113649D01*
X201321715Y-104215724D01*
X201334276Y-104228285D01*
X201436351Y-104304786D01*
X201451946Y-104313324D01*
X201560827Y-104354142D01*
X201617591Y-104396784D01*
X201642291Y-104463345D01*
X201627083Y-104532694D01*
X201607691Y-104559175D01*
X201494993Y-104677107D01*
X201480629Y-104692138D01*
X201477715Y-104696410D01*
X201477714Y-104696411D01*
X201456113Y-104728077D01*
X201354743Y-104876680D01*
X201260688Y-105079305D01*
X201200989Y-105294570D01*
X201177251Y-105516695D01*
X200508500Y-105516695D01*
X200508500Y-102737885D01*
X201182000Y-102737885D01*
X201186475Y-102753124D01*
X201187865Y-102754329D01*
X201195548Y-102756000D01*
X202267885Y-102756000D01*
X202283124Y-102751525D01*
X202284329Y-102750135D01*
X202286000Y-102742452D01*
X202286000Y-102737885D01*
X202794000Y-102737885D01*
X202798475Y-102753124D01*
X202799865Y-102754329D01*
X202807548Y-102756000D01*
X203879884Y-102756000D01*
X203895123Y-102751525D01*
X203896328Y-102750135D01*
X203897999Y-102742452D01*
X203897999Y-102115331D01*
X203897629Y-102108510D01*
X203892105Y-102057648D01*
X203888479Y-102042396D01*
X203843324Y-101921946D01*
X203834786Y-101906351D01*
X203758285Y-101804276D01*
X203745724Y-101791715D01*
X203643649Y-101715214D01*
X203628054Y-101706676D01*
X203507606Y-101661522D01*
X203492351Y-101657895D01*
X203441486Y-101652369D01*
X203434672Y-101652000D01*
X202812115Y-101652000D01*
X202796876Y-101656475D01*
X202795671Y-101657865D01*
X202794000Y-101665548D01*
X202794000Y-102737885D01*
X202286000Y-102737885D01*
X202286000Y-101670116D01*
X202281525Y-101654877D01*
X202280135Y-101653672D01*
X202272452Y-101652001D01*
X201645331Y-101652001D01*
X201638510Y-101652371D01*
X201587648Y-101657895D01*
X201572396Y-101661521D01*
X201451946Y-101706676D01*
X201436351Y-101715214D01*
X201334276Y-101791715D01*
X201321715Y-101804276D01*
X201245214Y-101906351D01*
X201236676Y-101921946D01*
X201191522Y-102042394D01*
X201187895Y-102057649D01*
X201182369Y-102108514D01*
X201182000Y-102115328D01*
X201182000Y-102737885D01*
X200508500Y-102737885D01*
X200508500Y-97542277D01*
X201637009Y-97542277D01*
X201662625Y-97810769D01*
X201663710Y-97815203D01*
X201663711Y-97815209D01*
X201725337Y-98067054D01*
X201726731Y-98072750D01*
X201827985Y-98322733D01*
X201830294Y-98326676D01*
X201933505Y-98502947D01*
X201964265Y-98555482D01*
X202033455Y-98642000D01*
X202084686Y-98706060D01*
X202132716Y-98766119D01*
X202329809Y-98950234D01*
X202551416Y-99103968D01*
X202555499Y-99105999D01*
X202555502Y-99106001D01*
X202671013Y-99163466D01*
X202792894Y-99224101D01*
X202797228Y-99225522D01*
X202797231Y-99225523D01*
X203044853Y-99306698D01*
X203044859Y-99306699D01*
X203049186Y-99308118D01*
X203053677Y-99308898D01*
X203053678Y-99308898D01*
X203311140Y-99353601D01*
X203311148Y-99353602D01*
X203314921Y-99354257D01*
X203318758Y-99354448D01*
X203398578Y-99358422D01*
X203398586Y-99358422D01*
X203400149Y-99358500D01*
X203568512Y-99358500D01*
X203570780Y-99358335D01*
X203570792Y-99358335D01*
X203701884Y-99348823D01*
X203769004Y-99343953D01*
X203773459Y-99342969D01*
X203773462Y-99342969D01*
X204027912Y-99286791D01*
X204027916Y-99286790D01*
X204032372Y-99285806D01*
X204158480Y-99238028D01*
X204280318Y-99191868D01*
X204280321Y-99191867D01*
X204284588Y-99190250D01*
X204520368Y-99059286D01*
X204734773Y-98895657D01*
X204923312Y-98702792D01*
X205082034Y-98484730D01*
X205165190Y-98326676D01*
X205205490Y-98250079D01*
X205205493Y-98250073D01*
X205207615Y-98246039D01*
X205248306Y-98130814D01*
X205295902Y-97996033D01*
X205295902Y-97996032D01*
X205297425Y-97991720D01*
X205330129Y-97825791D01*
X205348700Y-97731572D01*
X205348701Y-97731566D01*
X205349581Y-97727100D01*
X205351841Y-97681703D01*
X205362764Y-97462292D01*
X205362764Y-97462286D01*
X205362991Y-97457723D01*
X205337375Y-97189231D01*
X205319655Y-97116812D01*
X205274355Y-96931688D01*
X205273269Y-96927250D01*
X205172015Y-96677267D01*
X205035735Y-96444518D01*
X204917434Y-96296590D01*
X204870136Y-96237447D01*
X204870135Y-96237445D01*
X204867284Y-96233881D01*
X204670191Y-96049766D01*
X204448584Y-95896032D01*
X204444501Y-95894001D01*
X204444498Y-95893999D01*
X204279606Y-95811967D01*
X204207106Y-95775899D01*
X204202772Y-95774478D01*
X204202769Y-95774477D01*
X203955147Y-95693302D01*
X203955141Y-95693301D01*
X203950814Y-95691882D01*
X203946322Y-95691102D01*
X203688860Y-95646399D01*
X203688852Y-95646398D01*
X203685079Y-95645743D01*
X203673817Y-95645182D01*
X203601422Y-95641578D01*
X203601414Y-95641578D01*
X203599851Y-95641500D01*
X203431488Y-95641500D01*
X203429220Y-95641665D01*
X203429208Y-95641665D01*
X203298116Y-95651177D01*
X203230996Y-95656047D01*
X203226541Y-95657031D01*
X203226538Y-95657031D01*
X202972088Y-95713209D01*
X202972084Y-95713210D01*
X202967628Y-95714194D01*
X202895803Y-95741406D01*
X202719682Y-95808132D01*
X202719679Y-95808133D01*
X202715412Y-95809750D01*
X202479632Y-95940714D01*
X202265227Y-96104343D01*
X202262034Y-96107609D01*
X202262032Y-96107611D01*
X202192067Y-96179182D01*
X202076688Y-96297208D01*
X201917966Y-96515270D01*
X201915844Y-96519304D01*
X201794510Y-96749921D01*
X201794507Y-96749927D01*
X201792385Y-96753961D01*
X201790865Y-96758266D01*
X201790863Y-96758270D01*
X201704098Y-97003967D01*
X201702575Y-97008280D01*
X201695348Y-97044947D01*
X201651478Y-97267529D01*
X201650419Y-97272900D01*
X201650192Y-97277453D01*
X201650192Y-97277456D01*
X201637788Y-97526638D01*
X201637009Y-97542277D01*
X200508500Y-97542277D01*
X200508500Y-97053250D01*
X200510246Y-97032345D01*
X200512770Y-97017344D01*
X200512770Y-97017341D01*
X200513576Y-97012552D01*
X200513650Y-97006475D01*
X200513670Y-97004865D01*
X200513670Y-97004861D01*
X200513729Y-97000000D01*
X200513040Y-96995186D01*
X200513039Y-96995177D01*
X200511869Y-96987006D01*
X200510827Y-96961540D01*
X200526206Y-96707290D01*
X200528040Y-96692186D01*
X200559721Y-96519304D01*
X200579525Y-96411240D01*
X200583164Y-96396473D01*
X200633991Y-96233365D01*
X200668142Y-96123769D01*
X200673534Y-96109555D01*
X200790758Y-95849092D01*
X200797828Y-95835621D01*
X200812128Y-95811967D01*
X200846801Y-95754610D01*
X200945595Y-95591187D01*
X200954238Y-95578666D01*
X201130385Y-95353829D01*
X201140475Y-95342440D01*
X201342440Y-95140475D01*
X201353829Y-95130385D01*
X201578666Y-94954238D01*
X201591187Y-94945595D01*
X201835621Y-94797828D01*
X201849094Y-94790757D01*
X201926881Y-94755748D01*
X202109555Y-94673534D01*
X202123769Y-94668142D01*
X202396474Y-94583164D01*
X202411240Y-94579525D01*
X202620214Y-94541229D01*
X202692186Y-94528040D01*
X202707290Y-94526206D01*
X202957904Y-94511047D01*
X202984716Y-94512308D01*
X202984852Y-94512310D01*
X202993724Y-94513691D01*
X203025274Y-94509565D01*
X203041604Y-94508502D01*
X233266231Y-94510107D01*
G37*
%TD.AperFunction*%
%TA.AperFunction,Conductor*%
G36*
X225482026Y-117655144D02*
G01*
X225509875Y-117686994D01*
X225569987Y-117785088D01*
X225716250Y-117953938D01*
X225888126Y-118096632D01*
X226081000Y-118209338D01*
X226085825Y-118211180D01*
X226085826Y-118211181D01*
X226128501Y-118227477D01*
X226289692Y-118289030D01*
X226294760Y-118290061D01*
X226294763Y-118290062D01*
X226399604Y-118311392D01*
X226508597Y-118333567D01*
X226513772Y-118333757D01*
X226513774Y-118333757D01*
X226726673Y-118341564D01*
X226726677Y-118341564D01*
X226731837Y-118341753D01*
X226736957Y-118341097D01*
X226736959Y-118341097D01*
X226948288Y-118314025D01*
X226948289Y-118314025D01*
X226953416Y-118313368D01*
X226960003Y-118311392D01*
X227167384Y-118249174D01*
X227167950Y-118251059D01*
X227230233Y-118245563D01*
X227293102Y-118278548D01*
X227328158Y-118340286D01*
X227331500Y-118369112D01*
X227331500Y-127144761D01*
X227311498Y-127212882D01*
X227257842Y-127259375D01*
X227187568Y-127269479D01*
X227122988Y-127239985D01*
X227116405Y-127233856D01*
X218304916Y-118422367D01*
X218270890Y-118360055D01*
X218268011Y-118333272D01*
X218268011Y-118316128D01*
X218288013Y-118248007D01*
X218341669Y-118201514D01*
X218411943Y-118191410D01*
X218451524Y-118205227D01*
X218451874Y-118204496D01*
X218456539Y-118206731D01*
X218461000Y-118209338D01*
X218465825Y-118211180D01*
X218465826Y-118211181D01*
X218508501Y-118227477D01*
X218669692Y-118289030D01*
X218674760Y-118290061D01*
X218674763Y-118290062D01*
X218779604Y-118311392D01*
X218888597Y-118333567D01*
X218893772Y-118333757D01*
X218893774Y-118333757D01*
X219106673Y-118341564D01*
X219106677Y-118341564D01*
X219111837Y-118341753D01*
X219116957Y-118341097D01*
X219116959Y-118341097D01*
X219328288Y-118314025D01*
X219328289Y-118314025D01*
X219333416Y-118313368D01*
X219338366Y-118311883D01*
X219542429Y-118250661D01*
X219542434Y-118250659D01*
X219547384Y-118249174D01*
X219747994Y-118150896D01*
X219929860Y-118021173D01*
X220088096Y-117863489D01*
X220147594Y-117780689D01*
X220218453Y-117682077D01*
X220219776Y-117683028D01*
X220266645Y-117639857D01*
X220336580Y-117627625D01*
X220402026Y-117655144D01*
X220429875Y-117686994D01*
X220489987Y-117785088D01*
X220636250Y-117953938D01*
X220808126Y-118096632D01*
X221001000Y-118209338D01*
X221005825Y-118211180D01*
X221005826Y-118211181D01*
X221048501Y-118227477D01*
X221209692Y-118289030D01*
X221214760Y-118290061D01*
X221214763Y-118290062D01*
X221319604Y-118311392D01*
X221428597Y-118333567D01*
X221433772Y-118333757D01*
X221433774Y-118333757D01*
X221646673Y-118341564D01*
X221646677Y-118341564D01*
X221651837Y-118341753D01*
X221656957Y-118341097D01*
X221656959Y-118341097D01*
X221868288Y-118314025D01*
X221868289Y-118314025D01*
X221873416Y-118313368D01*
X221878366Y-118311883D01*
X222082429Y-118250661D01*
X222082434Y-118250659D01*
X222087384Y-118249174D01*
X222287994Y-118150896D01*
X222469860Y-118021173D01*
X222628096Y-117863489D01*
X222687594Y-117780689D01*
X222758453Y-117682077D01*
X222759776Y-117683028D01*
X222806645Y-117639857D01*
X222876580Y-117627625D01*
X222942026Y-117655144D01*
X222969875Y-117686994D01*
X223029987Y-117785088D01*
X223176250Y-117953938D01*
X223348126Y-118096632D01*
X223541000Y-118209338D01*
X223545825Y-118211180D01*
X223545826Y-118211181D01*
X223588501Y-118227477D01*
X223749692Y-118289030D01*
X223754760Y-118290061D01*
X223754763Y-118290062D01*
X223859604Y-118311392D01*
X223968597Y-118333567D01*
X223973772Y-118333757D01*
X223973774Y-118333757D01*
X224186673Y-118341564D01*
X224186677Y-118341564D01*
X224191837Y-118341753D01*
X224196957Y-118341097D01*
X224196959Y-118341097D01*
X224408288Y-118314025D01*
X224408289Y-118314025D01*
X224413416Y-118313368D01*
X224418366Y-118311883D01*
X224622429Y-118250661D01*
X224622434Y-118250659D01*
X224627384Y-118249174D01*
X224827994Y-118150896D01*
X225009860Y-118021173D01*
X225168096Y-117863489D01*
X225227594Y-117780689D01*
X225298453Y-117682077D01*
X225299776Y-117683028D01*
X225346645Y-117639857D01*
X225416580Y-117627625D01*
X225482026Y-117655144D01*
G37*
%TD.AperFunction*%
M02*
