%TF.GenerationSoftware,KiCad,Pcbnew,(6.0.7)*%
%TF.CreationDate,2022-09-16T22:58:04+02:00*%
%TF.ProjectId,peugeot_projekt,70657567-656f-4745-9f70-726f6a656b74,rev?*%
%TF.SameCoordinates,Original*%
%TF.FileFunction,Soldermask,Bot*%
%TF.FilePolarity,Negative*%
%FSLAX46Y46*%
G04 Gerber Fmt 4.6, Leading zero omitted, Abs format (unit mm)*
G04 Created by KiCad (PCBNEW (6.0.7)) date 2022-09-16 22:58:04*
%MOMM*%
%LPD*%
G01*
G04 APERTURE LIST*
G04 Aperture macros list*
%AMRoundRect*
0 Rectangle with rounded corners*
0 $1 Rounding radius*
0 $2 $3 $4 $5 $6 $7 $8 $9 X,Y pos of 4 corners*
0 Add a 4 corners polygon primitive as box body*
4,1,4,$2,$3,$4,$5,$6,$7,$8,$9,$2,$3,0*
0 Add four circle primitives for the rounded corners*
1,1,$1+$1,$2,$3*
1,1,$1+$1,$4,$5*
1,1,$1+$1,$6,$7*
1,1,$1+$1,$8,$9*
0 Add four rect primitives between the rounded corners*
20,1,$1+$1,$2,$3,$4,$5,0*
20,1,$1+$1,$4,$5,$6,$7,0*
20,1,$1+$1,$6,$7,$8,$9,0*
20,1,$1+$1,$8,$9,$2,$3,0*%
G04 Aperture macros list end*
%TA.AperFunction,Profile*%
%ADD10C,0.100000*%
%TD*%
%ADD11C,2.700000*%
%ADD12R,1.905000X2.000000*%
%ADD13O,1.905000X2.000000*%
%ADD14C,1.700000*%
%ADD15O,1.700000X1.700000*%
%ADD16R,1.700000X1.700000*%
%ADD17C,1.500000*%
%ADD18RoundRect,0.237500X-0.237500X0.250000X-0.237500X-0.250000X0.237500X-0.250000X0.237500X0.250000X0*%
G04 APERTURE END LIST*
D10*
X265000000Y-149286000D02*
X265024000Y-131458000D01*
X268579958Y-97003320D02*
G75*
G03*
X265532000Y-94003320I-3000358J20D01*
G01*
X204500000Y-130500000D02*
X200499127Y-130500001D01*
X200000000Y-131000000D02*
X200000000Y-149286000D01*
X205000000Y-114000000D02*
X205000000Y-130000000D01*
X265532000Y-94003320D02*
X203000000Y-94000000D01*
X200499127Y-130500001D02*
G75*
G03*
X200000000Y-131000000I873J-499999D01*
G01*
X204500000Y-130500000D02*
G75*
G03*
X205000000Y-130000000I0J500000D01*
G01*
X203000000Y-152286000D02*
X262000000Y-152286000D01*
X203000000Y-94000000D02*
G75*
G03*
X200000000Y-97000000I0J-3000000D01*
G01*
X200000000Y-113000000D02*
G75*
G03*
X200500000Y-113500000I500000J0D01*
G01*
X266040000Y-130442000D02*
X267564000Y-130442000D01*
X200000000Y-149286000D02*
G75*
G03*
X203000000Y-152286000I3000000J0D01*
G01*
X205000000Y-114000000D02*
G75*
G03*
X204500000Y-113500000I-500000J0D01*
G01*
X262000000Y-152286000D02*
G75*
G03*
X265000000Y-149286000I0J3000000D01*
G01*
X268580000Y-129426000D02*
X268580000Y-97003320D01*
X266040000Y-130442000D02*
G75*
G03*
X265024000Y-131458000I0J-1016000D01*
G01*
X267564000Y-130442000D02*
G75*
G03*
X268580000Y-129426000I0J1016000D01*
G01*
X200000000Y-97000000D02*
X200000000Y-113000000D01*
X200500000Y-113500000D02*
X204500000Y-113500000D01*
D11*
X203500000Y-97500000D03*
X261500000Y-97500000D03*
X203500000Y-146500000D03*
X261500000Y-146500000D03*
D12*
X219304000Y-104209000D03*
D13*
X221844000Y-104209000D03*
X224384000Y-104209000D03*
D14*
X211430000Y-142380000D03*
X213970000Y-142380000D03*
X216510000Y-142380000D03*
X219050000Y-142380000D03*
X221590000Y-142380000D03*
X224130000Y-142380000D03*
X226670000Y-142380000D03*
X229210000Y-142380000D03*
X231750000Y-142380000D03*
X234290000Y-142380000D03*
X236830000Y-142380000D03*
X239370000Y-142380000D03*
X241910000Y-142380000D03*
X244450000Y-142380000D03*
X246990000Y-142380000D03*
X211430000Y-116980000D03*
X213970000Y-116980000D03*
X216510000Y-116980000D03*
X219050000Y-116980000D03*
X221590000Y-116980000D03*
D15*
X224130000Y-116980000D03*
D14*
X226670000Y-116980000D03*
X229210000Y-116980000D03*
X231750000Y-116980000D03*
X234290000Y-116980000D03*
X236830000Y-116980000D03*
X239370000Y-116980000D03*
X241910000Y-116980000D03*
X244450000Y-116980000D03*
D16*
X246990000Y-116980000D03*
X251054000Y-107836000D03*
D15*
X253594000Y-107836000D03*
X256134000Y-107836000D03*
D16*
X202540000Y-110630000D03*
X201835000Y-141100000D03*
D15*
X201835000Y-138560000D03*
X201835000Y-136020000D03*
X201835000Y-133480000D03*
D16*
X202540000Y-103010000D03*
D15*
X202540000Y-105550000D03*
D14*
X241910000Y-104026000D03*
X239370000Y-104026000D03*
X236830000Y-104026000D03*
X234290000Y-104026000D03*
X231750000Y-104026000D03*
X229210000Y-104026000D03*
D16*
X241910000Y-114186000D03*
D14*
X239370000Y-114186000D03*
X236830000Y-114186000D03*
X234290000Y-114186000D03*
X231750000Y-114186000D03*
X229210000Y-114186000D03*
D17*
X238354000Y-147714000D03*
X233454000Y-147714000D03*
D16*
X208370000Y-98770000D03*
D15*
X208370000Y-96230000D03*
X210910000Y-98770000D03*
X210910000Y-96230000D03*
X213450000Y-98770000D03*
X213450000Y-96230000D03*
X215990000Y-98770000D03*
X215990000Y-96230000D03*
X218530000Y-98770000D03*
X218530000Y-96230000D03*
X221070000Y-98770000D03*
X221070000Y-96230000D03*
X223610000Y-98770000D03*
X223610000Y-96230000D03*
X226150000Y-98770000D03*
X226150000Y-96230000D03*
X228690000Y-98770000D03*
X228690000Y-96230000D03*
X231230000Y-98770000D03*
X231230000Y-96230000D03*
X233770000Y-98770000D03*
X233770000Y-96230000D03*
X236310000Y-98770000D03*
X236310000Y-96230000D03*
X238850000Y-98770000D03*
X238850000Y-96230000D03*
X241390000Y-98770000D03*
X241390000Y-96230000D03*
X243930000Y-98770000D03*
X243930000Y-96230000D03*
X246470000Y-98770000D03*
X246470000Y-96230000D03*
X249010000Y-98770000D03*
X249010000Y-96230000D03*
X251550000Y-98770000D03*
X251550000Y-96230000D03*
X254090000Y-98770000D03*
X254090000Y-96230000D03*
X256630000Y-98770000D03*
X256630000Y-96230000D03*
D18*
X213716000Y-137149500D03*
X213716000Y-138974500D03*
D16*
X262770000Y-103500000D03*
D15*
X260230000Y-103500000D03*
D18*
X213716000Y-132577500D03*
X213716000Y-134402500D03*
M02*
