%TF.GenerationSoftware,KiCad,Pcbnew,(6.0.7)*%
%TF.CreationDate,2022-09-16T22:58:04+02:00*%
%TF.ProjectId,peugeot_projekt,70657567-656f-4745-9f70-726f6a656b74,rev?*%
%TF.SameCoordinates,Original*%
%TF.FileFunction,Legend,Top*%
%TF.FilePolarity,Positive*%
%FSLAX46Y46*%
G04 Gerber Fmt 4.6, Leading zero omitted, Abs format (unit mm)*
G04 Created by KiCad (PCBNEW (6.0.7)) date 2022-09-16 22:58:04*
%MOMM*%
%LPD*%
G01*
G04 APERTURE LIST*
%TA.AperFunction,Profile*%
%ADD10C,0.100000*%
%TD*%
%ADD11C,0.100000*%
%ADD12C,0.150000*%
%ADD13C,0.250000*%
%ADD14C,0.096520*%
%ADD15C,0.120000*%
%ADD16C,0.152400*%
G04 APERTURE END LIST*
D10*
X265000000Y-149286000D02*
X265024000Y-131458000D01*
X268579958Y-97003320D02*
G75*
G03*
X265532000Y-94003320I-3000358J20D01*
G01*
X204500000Y-130500000D02*
X200499127Y-130500001D01*
X200000000Y-131000000D02*
X200000000Y-149286000D01*
X205000000Y-114000000D02*
X205000000Y-130000000D01*
X265532000Y-94003320D02*
X203000000Y-94000000D01*
X200499127Y-130500001D02*
G75*
G03*
X200000000Y-131000000I873J-499999D01*
G01*
X204500000Y-130500000D02*
G75*
G03*
X205000000Y-130000000I0J500000D01*
G01*
X203000000Y-152286000D02*
X262000000Y-152286000D01*
X203000000Y-94000000D02*
G75*
G03*
X200000000Y-97000000I0J-3000000D01*
G01*
X200000000Y-113000000D02*
G75*
G03*
X200500000Y-113500000I500000J0D01*
G01*
X266040000Y-130442000D02*
X267564000Y-130442000D01*
X200000000Y-149286000D02*
G75*
G03*
X203000000Y-152286000I3000000J0D01*
G01*
X205000000Y-114000000D02*
G75*
G03*
X204500000Y-113500000I-500000J0D01*
G01*
X262000000Y-152286000D02*
G75*
G03*
X265000000Y-149286000I0J3000000D01*
G01*
X268580000Y-129426000D02*
X268580000Y-97003320D01*
X266040000Y-130442000D02*
G75*
G03*
X265024000Y-131458000I0J-1016000D01*
G01*
X267564000Y-130442000D02*
G75*
G03*
X268580000Y-129426000I0J1016000D01*
G01*
X200000000Y-97000000D02*
X200000000Y-113000000D01*
X200500000Y-113500000D02*
X204500000Y-113500000D01*
D11*
X204314000Y-140729047D02*
X204337809Y-140681428D01*
X204337809Y-140610000D01*
X204314000Y-140538571D01*
X204266380Y-140490952D01*
X204218761Y-140467142D01*
X204123523Y-140443333D01*
X204052095Y-140443333D01*
X203956857Y-140467142D01*
X203909238Y-140490952D01*
X203861619Y-140538571D01*
X203837809Y-140610000D01*
X203837809Y-140657619D01*
X203861619Y-140729047D01*
X203885428Y-140752857D01*
X204052095Y-140752857D01*
X204052095Y-140657619D01*
X203837809Y-140967142D02*
X204337809Y-140967142D01*
X203837809Y-141252857D01*
X204337809Y-141252857D01*
X203837809Y-141490952D02*
X204337809Y-141490952D01*
X204337809Y-141610000D01*
X204314000Y-141681428D01*
X204266380Y-141729047D01*
X204218761Y-141752857D01*
X204123523Y-141776666D01*
X204052095Y-141776666D01*
X203956857Y-141752857D01*
X203909238Y-141729047D01*
X203861619Y-141681428D01*
X203837809Y-141610000D01*
X203837809Y-141490952D01*
X204337809Y-132319333D02*
X204337809Y-132081238D01*
X204099714Y-132057428D01*
X204123523Y-132081238D01*
X204147333Y-132128857D01*
X204147333Y-132247904D01*
X204123523Y-132295523D01*
X204099714Y-132319333D01*
X204052095Y-132343142D01*
X203933047Y-132343142D01*
X203885428Y-132319333D01*
X203861619Y-132295523D01*
X203837809Y-132247904D01*
X203837809Y-132128857D01*
X203861619Y-132081238D01*
X203885428Y-132057428D01*
X204337809Y-132486000D02*
X203837809Y-132652666D01*
X204337809Y-132819333D01*
X203837809Y-133366952D02*
X204337809Y-133366952D01*
X204314000Y-133866952D02*
X204337809Y-133819333D01*
X204337809Y-133747904D01*
X204314000Y-133676476D01*
X204266380Y-133628857D01*
X204218761Y-133605047D01*
X204123523Y-133581238D01*
X204052095Y-133581238D01*
X203956857Y-133605047D01*
X203909238Y-133628857D01*
X203861619Y-133676476D01*
X203837809Y-133747904D01*
X203837809Y-133795523D01*
X203861619Y-133866952D01*
X203885428Y-133890761D01*
X204052095Y-133890761D01*
X204052095Y-133795523D01*
X203837809Y-134105047D02*
X204337809Y-134105047D01*
X203837809Y-134390761D01*
X204337809Y-134390761D01*
D12*
X255213333Y-109796571D02*
X255356190Y-109844190D01*
X255403809Y-109891809D01*
X255451428Y-109987047D01*
X255451428Y-110129904D01*
X255403809Y-110225142D01*
X255356190Y-110272761D01*
X255260952Y-110320380D01*
X254880000Y-110320380D01*
X254880000Y-109320380D01*
X255213333Y-109320380D01*
X255308571Y-109368000D01*
X255356190Y-109415619D01*
X255403809Y-109510857D01*
X255403809Y-109606095D01*
X255356190Y-109701333D01*
X255308571Y-109748952D01*
X255213333Y-109796571D01*
X254880000Y-109796571D01*
X256308571Y-110320380D02*
X256308571Y-109796571D01*
X256260952Y-109701333D01*
X256165714Y-109653714D01*
X255975238Y-109653714D01*
X255880000Y-109701333D01*
X256308571Y-110272761D02*
X256213333Y-110320380D01*
X255975238Y-110320380D01*
X255880000Y-110272761D01*
X255832380Y-110177523D01*
X255832380Y-110082285D01*
X255880000Y-109987047D01*
X255975238Y-109939428D01*
X256213333Y-109939428D01*
X256308571Y-109891809D01*
X256641904Y-109653714D02*
X257022857Y-109653714D01*
X256784761Y-109320380D02*
X256784761Y-110177523D01*
X256832380Y-110272761D01*
X256927619Y-110320380D01*
X257022857Y-110320380D01*
D13*
X205874952Y-150706380D02*
X205874952Y-149706380D01*
X206255904Y-149706380D01*
X206351142Y-149754000D01*
X206398761Y-149801619D01*
X206446380Y-149896857D01*
X206446380Y-150039714D01*
X206398761Y-150134952D01*
X206351142Y-150182571D01*
X206255904Y-150230190D01*
X205874952Y-150230190D01*
X207255904Y-150658761D02*
X207160666Y-150706380D01*
X206970190Y-150706380D01*
X206874952Y-150658761D01*
X206827333Y-150563523D01*
X206827333Y-150182571D01*
X206874952Y-150087333D01*
X206970190Y-150039714D01*
X207160666Y-150039714D01*
X207255904Y-150087333D01*
X207303523Y-150182571D01*
X207303523Y-150277809D01*
X206827333Y-150373047D01*
X208160666Y-150039714D02*
X208160666Y-150706380D01*
X207732095Y-150039714D02*
X207732095Y-150563523D01*
X207779714Y-150658761D01*
X207874952Y-150706380D01*
X208017809Y-150706380D01*
X208113047Y-150658761D01*
X208160666Y-150611142D01*
X209065428Y-150039714D02*
X209065428Y-150849238D01*
X209017809Y-150944476D01*
X208970190Y-150992095D01*
X208874952Y-151039714D01*
X208732095Y-151039714D01*
X208636857Y-150992095D01*
X209065428Y-150658761D02*
X208970190Y-150706380D01*
X208779714Y-150706380D01*
X208684476Y-150658761D01*
X208636857Y-150611142D01*
X208589238Y-150515904D01*
X208589238Y-150230190D01*
X208636857Y-150134952D01*
X208684476Y-150087333D01*
X208779714Y-150039714D01*
X208970190Y-150039714D01*
X209065428Y-150087333D01*
X209922571Y-150658761D02*
X209827333Y-150706380D01*
X209636857Y-150706380D01*
X209541619Y-150658761D01*
X209494000Y-150563523D01*
X209494000Y-150182571D01*
X209541619Y-150087333D01*
X209636857Y-150039714D01*
X209827333Y-150039714D01*
X209922571Y-150087333D01*
X209970190Y-150182571D01*
X209970190Y-150277809D01*
X209494000Y-150373047D01*
X210541619Y-150706380D02*
X210446380Y-150658761D01*
X210398761Y-150611142D01*
X210351142Y-150515904D01*
X210351142Y-150230190D01*
X210398761Y-150134952D01*
X210446380Y-150087333D01*
X210541619Y-150039714D01*
X210684476Y-150039714D01*
X210779714Y-150087333D01*
X210827333Y-150134952D01*
X210874952Y-150230190D01*
X210874952Y-150515904D01*
X210827333Y-150611142D01*
X210779714Y-150658761D01*
X210684476Y-150706380D01*
X210541619Y-150706380D01*
X211160666Y-150039714D02*
X211541619Y-150039714D01*
X211303523Y-149706380D02*
X211303523Y-150563523D01*
X211351142Y-150658761D01*
X211446380Y-150706380D01*
X211541619Y-150706380D01*
X212636857Y-150706380D02*
X212636857Y-149706380D01*
X213017809Y-149706380D01*
X213113047Y-149754000D01*
X213160666Y-149801619D01*
X213208285Y-149896857D01*
X213208285Y-150039714D01*
X213160666Y-150134952D01*
X213113047Y-150182571D01*
X213017809Y-150230190D01*
X212636857Y-150230190D01*
X213636857Y-150706380D02*
X213636857Y-150039714D01*
X213636857Y-150230190D02*
X213684476Y-150134952D01*
X213732095Y-150087333D01*
X213827333Y-150039714D01*
X213922571Y-150039714D01*
X214398761Y-150706380D02*
X214303523Y-150658761D01*
X214255904Y-150611142D01*
X214208285Y-150515904D01*
X214208285Y-150230190D01*
X214255904Y-150134952D01*
X214303523Y-150087333D01*
X214398761Y-150039714D01*
X214541619Y-150039714D01*
X214636857Y-150087333D01*
X214684476Y-150134952D01*
X214732095Y-150230190D01*
X214732095Y-150515904D01*
X214684476Y-150611142D01*
X214636857Y-150658761D01*
X214541619Y-150706380D01*
X214398761Y-150706380D01*
X215160666Y-150039714D02*
X215160666Y-150896857D01*
X215113047Y-150992095D01*
X215017809Y-151039714D01*
X214970190Y-151039714D01*
X215160666Y-149706380D02*
X215113047Y-149754000D01*
X215160666Y-149801619D01*
X215208285Y-149754000D01*
X215160666Y-149706380D01*
X215160666Y-149801619D01*
X216017809Y-150658761D02*
X215922571Y-150706380D01*
X215732095Y-150706380D01*
X215636857Y-150658761D01*
X215589238Y-150563523D01*
X215589238Y-150182571D01*
X215636857Y-150087333D01*
X215732095Y-150039714D01*
X215922571Y-150039714D01*
X216017809Y-150087333D01*
X216065428Y-150182571D01*
X216065428Y-150277809D01*
X215589238Y-150373047D01*
X216922571Y-150658761D02*
X216827333Y-150706380D01*
X216636857Y-150706380D01*
X216541619Y-150658761D01*
X216494000Y-150611142D01*
X216446380Y-150515904D01*
X216446380Y-150230190D01*
X216494000Y-150134952D01*
X216541619Y-150087333D01*
X216636857Y-150039714D01*
X216827333Y-150039714D01*
X216922571Y-150087333D01*
X217208285Y-150039714D02*
X217589238Y-150039714D01*
X217351142Y-149706380D02*
X217351142Y-150563523D01*
X217398761Y-150658761D01*
X217494000Y-150706380D01*
X217589238Y-150706380D01*
X218684476Y-150706380D02*
X218684476Y-149706380D01*
X219065428Y-149706380D01*
X219160666Y-149754000D01*
X219208285Y-149801619D01*
X219255904Y-149896857D01*
X219255904Y-150039714D01*
X219208285Y-150134952D01*
X219160666Y-150182571D01*
X219065428Y-150230190D01*
X218684476Y-150230190D01*
X220255904Y-150611142D02*
X220208285Y-150658761D01*
X220065428Y-150706380D01*
X219970190Y-150706380D01*
X219827333Y-150658761D01*
X219732095Y-150563523D01*
X219684476Y-150468285D01*
X219636857Y-150277809D01*
X219636857Y-150134952D01*
X219684476Y-149944476D01*
X219732095Y-149849238D01*
X219827333Y-149754000D01*
X219970190Y-149706380D01*
X220065428Y-149706380D01*
X220208285Y-149754000D01*
X220255904Y-149801619D01*
X221017809Y-150182571D02*
X221160666Y-150230190D01*
X221208285Y-150277809D01*
X221255904Y-150373047D01*
X221255904Y-150515904D01*
X221208285Y-150611142D01*
X221160666Y-150658761D01*
X221065428Y-150706380D01*
X220684476Y-150706380D01*
X220684476Y-149706380D01*
X221017809Y-149706380D01*
X221113047Y-149754000D01*
X221160666Y-149801619D01*
X221208285Y-149896857D01*
X221208285Y-149992095D01*
X221160666Y-150087333D01*
X221113047Y-150134952D01*
X221017809Y-150182571D01*
X220684476Y-150182571D01*
X222351142Y-150039714D02*
X222589238Y-150706380D01*
X222827333Y-150039714D01*
X223398761Y-149706380D02*
X223494000Y-149706380D01*
X223589238Y-149754000D01*
X223636857Y-149801619D01*
X223684476Y-149896857D01*
X223732095Y-150087333D01*
X223732095Y-150325428D01*
X223684476Y-150515904D01*
X223636857Y-150611142D01*
X223589238Y-150658761D01*
X223494000Y-150706380D01*
X223398761Y-150706380D01*
X223303523Y-150658761D01*
X223255904Y-150611142D01*
X223208285Y-150515904D01*
X223160666Y-150325428D01*
X223160666Y-150087333D01*
X223208285Y-149896857D01*
X223255904Y-149801619D01*
X223303523Y-149754000D01*
X223398761Y-149706380D01*
X224160666Y-150611142D02*
X224208285Y-150658761D01*
X224160666Y-150706380D01*
X224113047Y-150658761D01*
X224160666Y-150611142D01*
X224160666Y-150706380D01*
X224589238Y-149801619D02*
X224636857Y-149754000D01*
X224732095Y-149706380D01*
X224970190Y-149706380D01*
X225065428Y-149754000D01*
X225113047Y-149801619D01*
X225160666Y-149896857D01*
X225160666Y-149992095D01*
X225113047Y-150134952D01*
X224541619Y-150706380D01*
X225160666Y-150706380D01*
D11*
X203837809Y-135280000D02*
X204337809Y-135280000D01*
X204337809Y-135399047D01*
X204314000Y-135470476D01*
X204266380Y-135518095D01*
X204218761Y-135541904D01*
X204123523Y-135565714D01*
X204052095Y-135565714D01*
X203956857Y-135541904D01*
X203909238Y-135518095D01*
X203861619Y-135470476D01*
X203837809Y-135399047D01*
X203837809Y-135280000D01*
X203980666Y-135756190D02*
X203980666Y-135994285D01*
X203837809Y-135708571D02*
X204337809Y-135875238D01*
X203837809Y-136041904D01*
X204337809Y-136137142D02*
X204337809Y-136422857D01*
X203837809Y-136280000D02*
X204337809Y-136280000D01*
X203980666Y-136565714D02*
X203980666Y-136803809D01*
X203837809Y-136518095D02*
X204337809Y-136684761D01*
X203837809Y-136851428D01*
X205076000Y-102629047D02*
X205099809Y-102581428D01*
X205099809Y-102510000D01*
X205076000Y-102438571D01*
X205028380Y-102390952D01*
X204980761Y-102367142D01*
X204885523Y-102343333D01*
X204814095Y-102343333D01*
X204718857Y-102367142D01*
X204671238Y-102390952D01*
X204623619Y-102438571D01*
X204599809Y-102510000D01*
X204599809Y-102557619D01*
X204623619Y-102629047D01*
X204647428Y-102652857D01*
X204814095Y-102652857D01*
X204814095Y-102557619D01*
X204599809Y-102867142D02*
X205099809Y-102867142D01*
X204599809Y-103152857D01*
X205099809Y-103152857D01*
X204599809Y-103390952D02*
X205099809Y-103390952D01*
X205099809Y-103510000D01*
X205076000Y-103581428D01*
X205028380Y-103629047D01*
X204980761Y-103652857D01*
X204885523Y-103676666D01*
X204814095Y-103676666D01*
X204718857Y-103652857D01*
X204671238Y-103629047D01*
X204623619Y-103581428D01*
X204599809Y-103510000D01*
X204599809Y-103390952D01*
X203837809Y-137570000D02*
X204337809Y-137570000D01*
X204337809Y-137689047D01*
X204314000Y-137760476D01*
X204266380Y-137808095D01*
X204218761Y-137831904D01*
X204123523Y-137855714D01*
X204052095Y-137855714D01*
X203956857Y-137831904D01*
X203909238Y-137808095D01*
X203861619Y-137760476D01*
X203837809Y-137689047D01*
X203837809Y-137570000D01*
X203980666Y-138046190D02*
X203980666Y-138284285D01*
X203837809Y-137998571D02*
X204337809Y-138165238D01*
X203837809Y-138331904D01*
X204337809Y-138427142D02*
X204337809Y-138712857D01*
X203837809Y-138570000D02*
X204337809Y-138570000D01*
X203980666Y-138855714D02*
X203980666Y-139093809D01*
X203837809Y-138808095D02*
X204337809Y-138974761D01*
X203837809Y-139141428D01*
X204099714Y-139474761D02*
X204075904Y-139546190D01*
X204052095Y-139570000D01*
X204004476Y-139593809D01*
X203933047Y-139593809D01*
X203885428Y-139570000D01*
X203861619Y-139546190D01*
X203837809Y-139498571D01*
X203837809Y-139308095D01*
X204337809Y-139308095D01*
X204337809Y-139474761D01*
X204314000Y-139522380D01*
X204290190Y-139546190D01*
X204242571Y-139570000D01*
X204194952Y-139570000D01*
X204147333Y-139546190D01*
X204123523Y-139522380D01*
X204099714Y-139474761D01*
X204099714Y-139308095D01*
X205615809Y-103077619D02*
X205615809Y-102839523D01*
X206115809Y-102839523D01*
X205663428Y-103530000D02*
X205639619Y-103506190D01*
X205615809Y-103434761D01*
X205615809Y-103387142D01*
X205639619Y-103315714D01*
X205687238Y-103268095D01*
X205734857Y-103244285D01*
X205830095Y-103220476D01*
X205901523Y-103220476D01*
X205996761Y-103244285D01*
X206044380Y-103268095D01*
X206092000Y-103315714D01*
X206115809Y-103387142D01*
X206115809Y-103434761D01*
X206092000Y-103506190D01*
X206068190Y-103530000D01*
X205615809Y-103744285D02*
X206115809Y-103744285D01*
X206115809Y-103863333D01*
X206092000Y-103934761D01*
X206044380Y-103982380D01*
X205996761Y-104006190D01*
X205901523Y-104030000D01*
X205830095Y-104030000D01*
X205734857Y-104006190D01*
X205687238Y-103982380D01*
X205639619Y-103934761D01*
X205615809Y-103863333D01*
X205615809Y-103744285D01*
X205615809Y-104625238D02*
X206115809Y-104625238D01*
X206115809Y-104815714D01*
X206092000Y-104863333D01*
X206068190Y-104887142D01*
X206020571Y-104910952D01*
X205949142Y-104910952D01*
X205901523Y-104887142D01*
X205877714Y-104863333D01*
X205853904Y-104815714D01*
X205853904Y-104625238D01*
X205949142Y-105077619D02*
X205615809Y-105172857D01*
X205853904Y-105268095D01*
X205615809Y-105363333D01*
X205949142Y-105458571D01*
X205615809Y-105649047D02*
X205949142Y-105649047D01*
X205853904Y-105649047D02*
X205901523Y-105672857D01*
X205925333Y-105696666D01*
X205949142Y-105744285D01*
X205949142Y-105791904D01*
D12*
X224542857Y-101836428D02*
X225304761Y-101836428D01*
X224923809Y-102217380D02*
X224923809Y-101455476D01*
X226257142Y-101217380D02*
X225780952Y-101217380D01*
X225733333Y-101693571D01*
X225780952Y-101645952D01*
X225876190Y-101598333D01*
X226114285Y-101598333D01*
X226209523Y-101645952D01*
X226257142Y-101693571D01*
X226304761Y-101788809D01*
X226304761Y-102026904D01*
X226257142Y-102122142D01*
X226209523Y-102169761D01*
X226114285Y-102217380D01*
X225876190Y-102217380D01*
X225780952Y-102169761D01*
X225733333Y-102122142D01*
X216954666Y-101811428D02*
X217716571Y-101811428D01*
X217335619Y-102192380D02*
X217335619Y-101430476D01*
X218716571Y-102192380D02*
X218145142Y-102192380D01*
X218430857Y-102192380D02*
X218430857Y-101192380D01*
X218335619Y-101335238D01*
X218240380Y-101430476D01*
X218145142Y-101478095D01*
X219097523Y-101287619D02*
X219145142Y-101240000D01*
X219240380Y-101192380D01*
X219478476Y-101192380D01*
X219573714Y-101240000D01*
X219621333Y-101287619D01*
X219668952Y-101382857D01*
X219668952Y-101478095D01*
X219621333Y-101620952D01*
X219049904Y-102192380D01*
X219668952Y-102192380D01*
D11*
X204599809Y-108205238D02*
X204599809Y-107919523D01*
X204599809Y-108062380D02*
X205099809Y-108062380D01*
X205028380Y-108014761D01*
X204980761Y-107967142D01*
X204956952Y-107919523D01*
X205052190Y-108395714D02*
X205076000Y-108419523D01*
X205099809Y-108467142D01*
X205099809Y-108586190D01*
X205076000Y-108633809D01*
X205052190Y-108657619D01*
X205004571Y-108681428D01*
X204956952Y-108681428D01*
X204885523Y-108657619D01*
X204599809Y-108371904D01*
X204599809Y-108681428D01*
X205099809Y-108824285D02*
X204599809Y-108990952D01*
X205099809Y-109157619D01*
X204861714Y-109871904D02*
X204837904Y-109943333D01*
X204814095Y-109967142D01*
X204766476Y-109990952D01*
X204695047Y-109990952D01*
X204647428Y-109967142D01*
X204623619Y-109943333D01*
X204599809Y-109895714D01*
X204599809Y-109705238D01*
X205099809Y-109705238D01*
X205099809Y-109871904D01*
X205076000Y-109919523D01*
X205052190Y-109943333D01*
X205004571Y-109967142D01*
X204956952Y-109967142D01*
X204909333Y-109943333D01*
X204885523Y-109919523D01*
X204861714Y-109871904D01*
X204861714Y-109705238D01*
X204742666Y-110181428D02*
X204742666Y-110419523D01*
X204599809Y-110133809D02*
X205099809Y-110300476D01*
X204599809Y-110467142D01*
X205099809Y-110562380D02*
X205099809Y-110848095D01*
X204599809Y-110705238D02*
X205099809Y-110705238D01*
D12*
X249895238Y-110828380D02*
X249895238Y-109828380D01*
X250800000Y-110161714D02*
X250800000Y-110971238D01*
X250752380Y-111066476D01*
X250704761Y-111114095D01*
X250609523Y-111161714D01*
X250466666Y-111161714D01*
X250371428Y-111114095D01*
X250800000Y-110780761D02*
X250704761Y-110828380D01*
X250514285Y-110828380D01*
X250419047Y-110780761D01*
X250371428Y-110733142D01*
X250323809Y-110637904D01*
X250323809Y-110352190D01*
X250371428Y-110256952D01*
X250419047Y-110209333D01*
X250514285Y-110161714D01*
X250704761Y-110161714D01*
X250800000Y-110209333D01*
X251276190Y-110161714D02*
X251276190Y-110828380D01*
X251276190Y-110256952D02*
X251323809Y-110209333D01*
X251419047Y-110161714D01*
X251561904Y-110161714D01*
X251657142Y-110209333D01*
X251704761Y-110304571D01*
X251704761Y-110828380D01*
D11*
X205099809Y-105454761D02*
X205099809Y-105216666D01*
X204861714Y-105192857D01*
X204885523Y-105216666D01*
X204909333Y-105264285D01*
X204909333Y-105383333D01*
X204885523Y-105430952D01*
X204861714Y-105454761D01*
X204814095Y-105478571D01*
X204695047Y-105478571D01*
X204647428Y-105454761D01*
X204623619Y-105430952D01*
X204599809Y-105383333D01*
X204599809Y-105264285D01*
X204623619Y-105216666D01*
X204647428Y-105192857D01*
X205099809Y-105621428D02*
X204599809Y-105788095D01*
X205099809Y-105954761D01*
D12*
X244791333Y-149501142D02*
X244743714Y-149548761D01*
X244600857Y-149596380D01*
X244505619Y-149596380D01*
X244362761Y-149548761D01*
X244267523Y-149453523D01*
X244219904Y-149358285D01*
X244172285Y-149167809D01*
X244172285Y-149024952D01*
X244219904Y-148834476D01*
X244267523Y-148739238D01*
X244362761Y-148644000D01*
X244505619Y-148596380D01*
X244600857Y-148596380D01*
X244743714Y-148644000D01*
X244791333Y-148691619D01*
X245172285Y-148691619D02*
X245219904Y-148644000D01*
X245315142Y-148596380D01*
X245553238Y-148596380D01*
X245648476Y-148644000D01*
X245696095Y-148691619D01*
X245743714Y-148786857D01*
X245743714Y-148882095D01*
X245696095Y-149024952D01*
X245124666Y-149596380D01*
X245743714Y-149596380D01*
X221082095Y-106018380D02*
X221082095Y-106827904D01*
X221129714Y-106923142D01*
X221177333Y-106970761D01*
X221272571Y-107018380D01*
X221463047Y-107018380D01*
X221558285Y-106970761D01*
X221605904Y-106923142D01*
X221653523Y-106827904D01*
X221653523Y-106018380D01*
X222605904Y-106018380D02*
X222129714Y-106018380D01*
X222082095Y-106494571D01*
X222129714Y-106446952D01*
X222224952Y-106399333D01*
X222463047Y-106399333D01*
X222558285Y-106446952D01*
X222605904Y-106494571D01*
X222653523Y-106589809D01*
X222653523Y-106827904D01*
X222605904Y-106923142D01*
X222558285Y-106970761D01*
X222463047Y-107018380D01*
X222224952Y-107018380D01*
X222129714Y-106970761D01*
X222082095Y-106923142D01*
X219411904Y-119977142D02*
X219030952Y-120243809D01*
X219411904Y-120434285D02*
X218611904Y-120434285D01*
X218611904Y-120129523D01*
X218650000Y-120053333D01*
X218688095Y-120015237D01*
X218764285Y-119977142D01*
X218878571Y-119977142D01*
X218954761Y-120015237D01*
X218992857Y-120053333D01*
X219030952Y-120129523D01*
X219030952Y-120434285D01*
X218611904Y-119710476D02*
X219411904Y-119177142D01*
X218611904Y-119177142D02*
X219411904Y-119710476D01*
X218611904Y-118719999D02*
X218611904Y-118643809D01*
X218650000Y-118567618D01*
X218688095Y-118529523D01*
X218764285Y-118491428D01*
X218916666Y-118453333D01*
X219107142Y-118453333D01*
X219259523Y-118491428D01*
X219335714Y-118529523D01*
X219373809Y-118567618D01*
X219411904Y-118643809D01*
X219411904Y-118719999D01*
X219373809Y-118796190D01*
X219335714Y-118834285D01*
X219259523Y-118872380D01*
X219107142Y-118910476D01*
X218916666Y-118910476D01*
X218764285Y-118872380D01*
X218688095Y-118834285D01*
X218650000Y-118796190D01*
X218611904Y-118719999D01*
X237191904Y-140868570D02*
X236391904Y-140868570D01*
X236391904Y-140678094D01*
X236430000Y-140563808D01*
X236506190Y-140487618D01*
X236582380Y-140449522D01*
X236734761Y-140411427D01*
X236849047Y-140411427D01*
X237001428Y-140449522D01*
X237077619Y-140487618D01*
X237153809Y-140563808D01*
X237191904Y-140678094D01*
X237191904Y-140868570D01*
X237191904Y-139649522D02*
X237191904Y-140106665D01*
X237191904Y-139878094D02*
X236391904Y-139878094D01*
X236506190Y-139954284D01*
X236582380Y-140030475D01*
X236620476Y-140106665D01*
X236658571Y-138963808D02*
X237191904Y-138963808D01*
X236353809Y-139154284D02*
X236925238Y-139344761D01*
X236925238Y-138849522D01*
X221951904Y-140868570D02*
X221151904Y-140868570D01*
X221151904Y-140678094D01*
X221190000Y-140563808D01*
X221266190Y-140487618D01*
X221342380Y-140449522D01*
X221494761Y-140411427D01*
X221609047Y-140411427D01*
X221761428Y-140449522D01*
X221837619Y-140487618D01*
X221913809Y-140563808D01*
X221951904Y-140678094D01*
X221951904Y-140868570D01*
X221151904Y-140144761D02*
X221151904Y-139649522D01*
X221456666Y-139916189D01*
X221456666Y-139801903D01*
X221494761Y-139725713D01*
X221532857Y-139687618D01*
X221609047Y-139649522D01*
X221799523Y-139649522D01*
X221875714Y-139687618D01*
X221913809Y-139725713D01*
X221951904Y-139801903D01*
X221951904Y-140030475D01*
X221913809Y-140106665D01*
X221875714Y-140144761D01*
X221151904Y-138925713D02*
X221151904Y-139306665D01*
X221532857Y-139344761D01*
X221494761Y-139306665D01*
X221456666Y-139230475D01*
X221456666Y-139039999D01*
X221494761Y-138963808D01*
X221532857Y-138925713D01*
X221609047Y-138887618D01*
X221799523Y-138887618D01*
X221875714Y-138925713D01*
X221913809Y-138963808D01*
X221951904Y-139039999D01*
X221951904Y-139230475D01*
X221913809Y-139306665D01*
X221875714Y-139344761D01*
X231311904Y-120358095D02*
X231311904Y-119900952D01*
X232111904Y-120129523D02*
X231311904Y-120129523D01*
X231311904Y-119710476D02*
X232111904Y-119177142D01*
X231311904Y-119177142D02*
X232111904Y-119710476D01*
X231388095Y-118910476D02*
X231350000Y-118872380D01*
X231311904Y-118796190D01*
X231311904Y-118605714D01*
X231350000Y-118529523D01*
X231388095Y-118491428D01*
X231464285Y-118453333D01*
X231540476Y-118453333D01*
X231654761Y-118491428D01*
X232111904Y-118948571D01*
X232111904Y-118453333D01*
X219411904Y-140868570D02*
X218611904Y-140868570D01*
X218611904Y-140678094D01*
X218650000Y-140563808D01*
X218726190Y-140487618D01*
X218802380Y-140449522D01*
X218954761Y-140411427D01*
X219069047Y-140411427D01*
X219221428Y-140449522D01*
X219297619Y-140487618D01*
X219373809Y-140563808D01*
X219411904Y-140678094D01*
X219411904Y-140868570D01*
X218611904Y-140144761D02*
X218611904Y-139649522D01*
X218916666Y-139916189D01*
X218916666Y-139801903D01*
X218954761Y-139725713D01*
X218992857Y-139687618D01*
X219069047Y-139649522D01*
X219259523Y-139649522D01*
X219335714Y-139687618D01*
X219373809Y-139725713D01*
X219411904Y-139801903D01*
X219411904Y-140030475D01*
X219373809Y-140106665D01*
X219335714Y-140144761D01*
X218878571Y-138963808D02*
X219411904Y-138963808D01*
X218573809Y-139154284D02*
X219145238Y-139344761D01*
X219145238Y-138849522D01*
X234651904Y-119977142D02*
X234270952Y-120243809D01*
X234651904Y-120434285D02*
X233851904Y-120434285D01*
X233851904Y-120129523D01*
X233890000Y-120053333D01*
X233928095Y-120015237D01*
X234004285Y-119977142D01*
X234118571Y-119977142D01*
X234194761Y-120015237D01*
X234232857Y-120053333D01*
X234270952Y-120129523D01*
X234270952Y-120434285D01*
X233851904Y-119710476D02*
X234651904Y-119177142D01*
X233851904Y-119177142D02*
X234651904Y-119710476D01*
X233928095Y-118910476D02*
X233890000Y-118872380D01*
X233851904Y-118796190D01*
X233851904Y-118605714D01*
X233890000Y-118529523D01*
X233928095Y-118491428D01*
X234004285Y-118453333D01*
X234080476Y-118453333D01*
X234194761Y-118491428D01*
X234651904Y-118948571D01*
X234651904Y-118453333D01*
X221951904Y-120434285D02*
X221151904Y-120434285D01*
X221151904Y-120243809D01*
X221190000Y-120129523D01*
X221266190Y-120053333D01*
X221342380Y-120015237D01*
X221494761Y-119977142D01*
X221609047Y-119977142D01*
X221761428Y-120015237D01*
X221837619Y-120053333D01*
X221913809Y-120129523D01*
X221951904Y-120243809D01*
X221951904Y-120434285D01*
X221228095Y-119672380D02*
X221190000Y-119634285D01*
X221151904Y-119558095D01*
X221151904Y-119367618D01*
X221190000Y-119291428D01*
X221228095Y-119253333D01*
X221304285Y-119215237D01*
X221380476Y-119215237D01*
X221494761Y-119253333D01*
X221951904Y-119710476D01*
X221951904Y-119215237D01*
X221951904Y-118453333D02*
X221951904Y-118910476D01*
X221951904Y-118681904D02*
X221151904Y-118681904D01*
X221266190Y-118758095D01*
X221342380Y-118834285D01*
X221380476Y-118910476D01*
X239731904Y-140868570D02*
X238931904Y-140868570D01*
X238931904Y-140678094D01*
X238970000Y-140563808D01*
X239046190Y-140487618D01*
X239122380Y-140449522D01*
X239274761Y-140411427D01*
X239389047Y-140411427D01*
X239541428Y-140449522D01*
X239617619Y-140487618D01*
X239693809Y-140563808D01*
X239731904Y-140678094D01*
X239731904Y-140868570D01*
X239731904Y-139649522D02*
X239731904Y-140106665D01*
X239731904Y-139878094D02*
X238931904Y-139878094D01*
X239046190Y-139954284D01*
X239122380Y-140030475D01*
X239160476Y-140106665D01*
X239008095Y-139344761D02*
X238970000Y-139306665D01*
X238931904Y-139230475D01*
X238931904Y-139039999D01*
X238970000Y-138963808D01*
X239008095Y-138925713D01*
X239084285Y-138887618D01*
X239160476Y-138887618D01*
X239274761Y-138925713D01*
X239731904Y-139382856D01*
X239731904Y-138887618D01*
X239731904Y-119672381D02*
X238931904Y-119672381D01*
X238931904Y-119481905D01*
X238970000Y-119367619D01*
X239046190Y-119291428D01*
X239122380Y-119253333D01*
X239274761Y-119215238D01*
X239389047Y-119215238D01*
X239541428Y-119253333D01*
X239617619Y-119291428D01*
X239693809Y-119367619D01*
X239731904Y-119481905D01*
X239731904Y-119672381D01*
X239008095Y-118910476D02*
X238970000Y-118872381D01*
X238931904Y-118796190D01*
X238931904Y-118605714D01*
X238970000Y-118529524D01*
X239008095Y-118491428D01*
X239084285Y-118453333D01*
X239160476Y-118453333D01*
X239274761Y-118491428D01*
X239731904Y-118948571D01*
X239731904Y-118453333D01*
X234651904Y-140868570D02*
X233851904Y-140868570D01*
X233851904Y-140678094D01*
X233890000Y-140563808D01*
X233966190Y-140487618D01*
X234042380Y-140449522D01*
X234194761Y-140411427D01*
X234309047Y-140411427D01*
X234461428Y-140449522D01*
X234537619Y-140487618D01*
X234613809Y-140563808D01*
X234651904Y-140678094D01*
X234651904Y-140868570D01*
X233928095Y-140106665D02*
X233890000Y-140068570D01*
X233851904Y-139992380D01*
X233851904Y-139801903D01*
X233890000Y-139725713D01*
X233928095Y-139687618D01*
X234004285Y-139649522D01*
X234080476Y-139649522D01*
X234194761Y-139687618D01*
X234651904Y-140144761D01*
X234651904Y-139649522D01*
X233851904Y-139382856D02*
X233851904Y-138849522D01*
X234651904Y-139192380D01*
X229571904Y-140868570D02*
X228771904Y-140868570D01*
X228771904Y-140678094D01*
X228810000Y-140563808D01*
X228886190Y-140487618D01*
X228962380Y-140449522D01*
X229114761Y-140411427D01*
X229229047Y-140411427D01*
X229381428Y-140449522D01*
X229457619Y-140487618D01*
X229533809Y-140563808D01*
X229571904Y-140678094D01*
X229571904Y-140868570D01*
X228848095Y-140106665D02*
X228810000Y-140068570D01*
X228771904Y-139992380D01*
X228771904Y-139801903D01*
X228810000Y-139725713D01*
X228848095Y-139687618D01*
X228924285Y-139649522D01*
X229000476Y-139649522D01*
X229114761Y-139687618D01*
X229571904Y-140144761D01*
X229571904Y-139649522D01*
X228771904Y-138925713D02*
X228771904Y-139306665D01*
X229152857Y-139344761D01*
X229114761Y-139306665D01*
X229076666Y-139230475D01*
X229076666Y-139039999D01*
X229114761Y-138963808D01*
X229152857Y-138925713D01*
X229229047Y-138887618D01*
X229419523Y-138887618D01*
X229495714Y-138925713D01*
X229533809Y-138963808D01*
X229571904Y-139039999D01*
X229571904Y-139230475D01*
X229533809Y-139306665D01*
X229495714Y-139344761D01*
X246551904Y-120396190D02*
X246551904Y-119900952D01*
X246856666Y-120167618D01*
X246856666Y-120053333D01*
X246894761Y-119977142D01*
X246932857Y-119939047D01*
X247009047Y-119900952D01*
X247199523Y-119900952D01*
X247275714Y-119939047D01*
X247313809Y-119977142D01*
X247351904Y-120053333D01*
X247351904Y-120281904D01*
X247313809Y-120358094D01*
X247275714Y-120396190D01*
X246551904Y-119672380D02*
X247351904Y-119405714D01*
X246551904Y-119139047D01*
X246551904Y-118948571D02*
X246551904Y-118453333D01*
X246856666Y-118719999D01*
X246856666Y-118605714D01*
X246894761Y-118529523D01*
X246932857Y-118491428D01*
X247009047Y-118453333D01*
X247199523Y-118453333D01*
X247275714Y-118491428D01*
X247313809Y-118529523D01*
X247351904Y-118605714D01*
X247351904Y-118834285D01*
X247313809Y-118910475D01*
X247275714Y-118948571D01*
X224491904Y-120434285D02*
X223691904Y-120434285D01*
X223691904Y-120243809D01*
X223730000Y-120129523D01*
X223806190Y-120053333D01*
X223882380Y-120015237D01*
X224034761Y-119977142D01*
X224149047Y-119977142D01*
X224301428Y-120015237D01*
X224377619Y-120053333D01*
X224453809Y-120129523D01*
X224491904Y-120243809D01*
X224491904Y-120434285D01*
X224491904Y-119215237D02*
X224491904Y-119672380D01*
X224491904Y-119443809D02*
X223691904Y-119443809D01*
X223806190Y-119519999D01*
X223882380Y-119596190D01*
X223920476Y-119672380D01*
X224491904Y-118834285D02*
X224491904Y-118681904D01*
X224453809Y-118605714D01*
X224415714Y-118567618D01*
X224301428Y-118491428D01*
X224149047Y-118453333D01*
X223844285Y-118453333D01*
X223768095Y-118491428D01*
X223730000Y-118529523D01*
X223691904Y-118605714D01*
X223691904Y-118758095D01*
X223730000Y-118834285D01*
X223768095Y-118872380D01*
X223844285Y-118910476D01*
X224034761Y-118910476D01*
X224110952Y-118872380D01*
X224149047Y-118834285D01*
X224187142Y-118758095D01*
X224187142Y-118605714D01*
X224149047Y-118529523D01*
X224110952Y-118491428D01*
X224034761Y-118453333D01*
X229571904Y-119672381D02*
X228771904Y-119672381D01*
X228771904Y-119481905D01*
X228810000Y-119367619D01*
X228886190Y-119291428D01*
X228962380Y-119253333D01*
X229114761Y-119215238D01*
X229229047Y-119215238D01*
X229381428Y-119253333D01*
X229457619Y-119291428D01*
X229533809Y-119367619D01*
X229571904Y-119481905D01*
X229571904Y-119672381D01*
X228771904Y-118491428D02*
X228771904Y-118872381D01*
X229152857Y-118910476D01*
X229114761Y-118872381D01*
X229076666Y-118796190D01*
X229076666Y-118605714D01*
X229114761Y-118529524D01*
X229152857Y-118491428D01*
X229229047Y-118453333D01*
X229419523Y-118453333D01*
X229495714Y-118491428D01*
X229533809Y-118529524D01*
X229571904Y-118605714D01*
X229571904Y-118796190D01*
X229533809Y-118872381D01*
X229495714Y-118910476D01*
X211791904Y-120434285D02*
X210991904Y-120434285D01*
X210991904Y-120243809D01*
X211030000Y-120129523D01*
X211106190Y-120053333D01*
X211182380Y-120015237D01*
X211334761Y-119977142D01*
X211449047Y-119977142D01*
X211601428Y-120015237D01*
X211677619Y-120053333D01*
X211753809Y-120129523D01*
X211791904Y-120243809D01*
X211791904Y-120434285D01*
X211068095Y-119672380D02*
X211030000Y-119634285D01*
X210991904Y-119558095D01*
X210991904Y-119367618D01*
X211030000Y-119291428D01*
X211068095Y-119253333D01*
X211144285Y-119215237D01*
X211220476Y-119215237D01*
X211334761Y-119253333D01*
X211791904Y-119710476D01*
X211791904Y-119215237D01*
X210991904Y-118948571D02*
X210991904Y-118453333D01*
X211296666Y-118719999D01*
X211296666Y-118605714D01*
X211334761Y-118529523D01*
X211372857Y-118491428D01*
X211449047Y-118453333D01*
X211639523Y-118453333D01*
X211715714Y-118491428D01*
X211753809Y-118529523D01*
X211791904Y-118605714D01*
X211791904Y-118834285D01*
X211753809Y-118910476D01*
X211715714Y-118948571D01*
X244050000Y-140449523D02*
X244011904Y-140525714D01*
X244011904Y-140640000D01*
X244050000Y-140754285D01*
X244126190Y-140830476D01*
X244202380Y-140868571D01*
X244354761Y-140906666D01*
X244469047Y-140906666D01*
X244621428Y-140868571D01*
X244697619Y-140830476D01*
X244773809Y-140754285D01*
X244811904Y-140640000D01*
X244811904Y-140563809D01*
X244773809Y-140449523D01*
X244735714Y-140411428D01*
X244469047Y-140411428D01*
X244469047Y-140563809D01*
X244811904Y-140068571D02*
X244011904Y-140068571D01*
X244811904Y-139611428D01*
X244011904Y-139611428D01*
X244811904Y-139230476D02*
X244011904Y-139230476D01*
X244011904Y-139040000D01*
X244050000Y-138925714D01*
X244126190Y-138849523D01*
X244202380Y-138811428D01*
X244354761Y-138773333D01*
X244469047Y-138773333D01*
X244621428Y-138811428D01*
X244697619Y-138849523D01*
X244773809Y-138925714D01*
X244811904Y-139040000D01*
X244811904Y-139230476D01*
X246551904Y-140982856D02*
X247351904Y-140716189D01*
X246551904Y-140449523D01*
X247351904Y-140182856D02*
X246551904Y-140182856D01*
X247351904Y-139801904D02*
X246551904Y-139801904D01*
X247351904Y-139344761D01*
X246551904Y-139344761D01*
X211372857Y-140868571D02*
X211372857Y-140601904D01*
X211791904Y-140487618D02*
X211791904Y-140868571D01*
X210991904Y-140868571D01*
X210991904Y-140487618D01*
X211791904Y-140144761D02*
X210991904Y-140144761D01*
X211791904Y-139687618D01*
X210991904Y-139687618D01*
X216071904Y-140982856D02*
X216871904Y-140716189D01*
X216071904Y-140449522D01*
X216871904Y-140182856D02*
X216071904Y-140182856D01*
X216871904Y-139725713D01*
X216071904Y-139725713D01*
X213531904Y-140982856D02*
X214331904Y-140716190D01*
X213531904Y-140449523D01*
X214331904Y-140182856D02*
X213531904Y-140182856D01*
X213531904Y-139878094D01*
X213570000Y-139801904D01*
X213608095Y-139763809D01*
X213684285Y-139725713D01*
X213798571Y-139725713D01*
X213874761Y-139763809D01*
X213912857Y-139801904D01*
X213950952Y-139878094D01*
X213950952Y-140182856D01*
X227031904Y-120434285D02*
X226231904Y-120434285D01*
X226231904Y-120243809D01*
X226270000Y-120129523D01*
X226346190Y-120053333D01*
X226422380Y-120015237D01*
X226574761Y-119977142D01*
X226689047Y-119977142D01*
X226841428Y-120015237D01*
X226917619Y-120053333D01*
X226993809Y-120129523D01*
X227031904Y-120243809D01*
X227031904Y-120434285D01*
X227031904Y-119215237D02*
X227031904Y-119672380D01*
X227031904Y-119443809D02*
X226231904Y-119443809D01*
X226346190Y-119519999D01*
X226422380Y-119596190D01*
X226460476Y-119672380D01*
X226574761Y-118758095D02*
X226536666Y-118834285D01*
X226498571Y-118872380D01*
X226422380Y-118910476D01*
X226384285Y-118910476D01*
X226308095Y-118872380D01*
X226270000Y-118834285D01*
X226231904Y-118758095D01*
X226231904Y-118605714D01*
X226270000Y-118529523D01*
X226308095Y-118491428D01*
X226384285Y-118453333D01*
X226422380Y-118453333D01*
X226498571Y-118491428D01*
X226536666Y-118529523D01*
X226574761Y-118605714D01*
X226574761Y-118758095D01*
X226612857Y-118834285D01*
X226650952Y-118872380D01*
X226727142Y-118910476D01*
X226879523Y-118910476D01*
X226955714Y-118872380D01*
X226993809Y-118834285D01*
X227031904Y-118758095D01*
X227031904Y-118605714D01*
X226993809Y-118529523D01*
X226955714Y-118491428D01*
X226879523Y-118453333D01*
X226727142Y-118453333D01*
X226650952Y-118491428D01*
X226612857Y-118529523D01*
X226574761Y-118605714D01*
X242271904Y-120434285D02*
X241471904Y-120434285D01*
X241471904Y-120243809D01*
X241510000Y-120129523D01*
X241586190Y-120053333D01*
X241662380Y-120015237D01*
X241814761Y-119977142D01*
X241929047Y-119977142D01*
X242081428Y-120015237D01*
X242157619Y-120053333D01*
X242233809Y-120129523D01*
X242271904Y-120243809D01*
X242271904Y-120434285D01*
X242271904Y-119215237D02*
X242271904Y-119672380D01*
X242271904Y-119443809D02*
X241471904Y-119443809D01*
X241586190Y-119519999D01*
X241662380Y-119596190D01*
X241700476Y-119672380D01*
X241471904Y-118491428D02*
X241471904Y-118872380D01*
X241852857Y-118910476D01*
X241814761Y-118872380D01*
X241776666Y-118796190D01*
X241776666Y-118605714D01*
X241814761Y-118529523D01*
X241852857Y-118491428D01*
X241929047Y-118453333D01*
X242119523Y-118453333D01*
X242195714Y-118491428D01*
X242233809Y-118529523D01*
X242271904Y-118605714D01*
X242271904Y-118796190D01*
X242233809Y-118872380D01*
X242195714Y-118910476D01*
X224491904Y-140868570D02*
X223691904Y-140868570D01*
X223691904Y-140678094D01*
X223730000Y-140563808D01*
X223806190Y-140487618D01*
X223882380Y-140449522D01*
X224034761Y-140411427D01*
X224149047Y-140411427D01*
X224301428Y-140449522D01*
X224377619Y-140487618D01*
X224453809Y-140563808D01*
X224491904Y-140678094D01*
X224491904Y-140868570D01*
X223691904Y-140144761D02*
X223691904Y-139649522D01*
X223996666Y-139916189D01*
X223996666Y-139801903D01*
X224034761Y-139725713D01*
X224072857Y-139687618D01*
X224149047Y-139649522D01*
X224339523Y-139649522D01*
X224415714Y-139687618D01*
X224453809Y-139725713D01*
X224491904Y-139801903D01*
X224491904Y-140030475D01*
X224453809Y-140106665D01*
X224415714Y-140144761D01*
X223768095Y-139344761D02*
X223730000Y-139306665D01*
X223691904Y-139230475D01*
X223691904Y-139039999D01*
X223730000Y-138963808D01*
X223768095Y-138925713D01*
X223844285Y-138887618D01*
X223920476Y-138887618D01*
X224034761Y-138925713D01*
X224491904Y-139382856D01*
X224491904Y-138887618D01*
X214331904Y-120434285D02*
X213531904Y-120434285D01*
X213531904Y-120243809D01*
X213570000Y-120129523D01*
X213646190Y-120053333D01*
X213722380Y-120015237D01*
X213874761Y-119977142D01*
X213989047Y-119977142D01*
X214141428Y-120015237D01*
X214217619Y-120053333D01*
X214293809Y-120129523D01*
X214331904Y-120243809D01*
X214331904Y-120434285D01*
X213608095Y-119672380D02*
X213570000Y-119634285D01*
X213531904Y-119558095D01*
X213531904Y-119367618D01*
X213570000Y-119291428D01*
X213608095Y-119253333D01*
X213684285Y-119215237D01*
X213760476Y-119215237D01*
X213874761Y-119253333D01*
X214331904Y-119710476D01*
X214331904Y-119215237D01*
X213608095Y-118910476D02*
X213570000Y-118872380D01*
X213531904Y-118796190D01*
X213531904Y-118605714D01*
X213570000Y-118529523D01*
X213608095Y-118491428D01*
X213684285Y-118453333D01*
X213760476Y-118453333D01*
X213874761Y-118491428D01*
X214331904Y-118948571D01*
X214331904Y-118453333D01*
X244050000Y-120129523D02*
X244011904Y-120205714D01*
X244011904Y-120320000D01*
X244050000Y-120434285D01*
X244126190Y-120510476D01*
X244202380Y-120548571D01*
X244354761Y-120586666D01*
X244469047Y-120586666D01*
X244621428Y-120548571D01*
X244697619Y-120510476D01*
X244773809Y-120434285D01*
X244811904Y-120320000D01*
X244811904Y-120243809D01*
X244773809Y-120129523D01*
X244735714Y-120091428D01*
X244469047Y-120091428D01*
X244469047Y-120243809D01*
X244811904Y-119748571D02*
X244011904Y-119748571D01*
X244811904Y-119291428D01*
X244011904Y-119291428D01*
X244811904Y-118910476D02*
X244011904Y-118910476D01*
X244011904Y-118720000D01*
X244050000Y-118605714D01*
X244126190Y-118529523D01*
X244202380Y-118491428D01*
X244354761Y-118453333D01*
X244469047Y-118453333D01*
X244621428Y-118491428D01*
X244697619Y-118529523D01*
X244773809Y-118605714D01*
X244811904Y-118720000D01*
X244811904Y-118910476D01*
X237191904Y-119672381D02*
X236391904Y-119672381D01*
X236391904Y-119481905D01*
X236430000Y-119367619D01*
X236506190Y-119291428D01*
X236582380Y-119253333D01*
X236734761Y-119215238D01*
X236849047Y-119215238D01*
X237001428Y-119253333D01*
X237077619Y-119291428D01*
X237153809Y-119367619D01*
X237191904Y-119481905D01*
X237191904Y-119672381D01*
X236658571Y-118529524D02*
X237191904Y-118529524D01*
X236353809Y-118720000D02*
X236925238Y-118910476D01*
X236925238Y-118415238D01*
X227031904Y-140868570D02*
X226231904Y-140868570D01*
X226231904Y-140678094D01*
X226270000Y-140563808D01*
X226346190Y-140487618D01*
X226422380Y-140449522D01*
X226574761Y-140411427D01*
X226689047Y-140411427D01*
X226841428Y-140449522D01*
X226917619Y-140487618D01*
X226993809Y-140563808D01*
X227031904Y-140678094D01*
X227031904Y-140868570D01*
X226231904Y-140144761D02*
X226231904Y-139649522D01*
X226536666Y-139916189D01*
X226536666Y-139801903D01*
X226574761Y-139725713D01*
X226612857Y-139687618D01*
X226689047Y-139649522D01*
X226879523Y-139649522D01*
X226955714Y-139687618D01*
X226993809Y-139725713D01*
X227031904Y-139801903D01*
X227031904Y-140030475D01*
X226993809Y-140106665D01*
X226955714Y-140144761D01*
X226231904Y-139382856D02*
X226231904Y-138887618D01*
X226536666Y-139154284D01*
X226536666Y-139039999D01*
X226574761Y-138963808D01*
X226612857Y-138925713D01*
X226689047Y-138887618D01*
X226879523Y-138887618D01*
X226955714Y-138925713D01*
X226993809Y-138963808D01*
X227031904Y-139039999D01*
X227031904Y-139268570D01*
X226993809Y-139344761D01*
X226955714Y-139382856D01*
X232111904Y-140868570D02*
X231311904Y-140868570D01*
X231311904Y-140678094D01*
X231350000Y-140563808D01*
X231426190Y-140487618D01*
X231502380Y-140449522D01*
X231654761Y-140411427D01*
X231769047Y-140411427D01*
X231921428Y-140449522D01*
X231997619Y-140487618D01*
X232073809Y-140563808D01*
X232111904Y-140678094D01*
X232111904Y-140868570D01*
X231388095Y-140106665D02*
X231350000Y-140068570D01*
X231311904Y-139992380D01*
X231311904Y-139801903D01*
X231350000Y-139725713D01*
X231388095Y-139687618D01*
X231464285Y-139649522D01*
X231540476Y-139649522D01*
X231654761Y-139687618D01*
X232111904Y-140144761D01*
X232111904Y-139649522D01*
X231311904Y-138963808D02*
X231311904Y-139116189D01*
X231350000Y-139192380D01*
X231388095Y-139230475D01*
X231502380Y-139306665D01*
X231654761Y-139344761D01*
X231959523Y-139344761D01*
X232035714Y-139306665D01*
X232073809Y-139268570D01*
X232111904Y-139192380D01*
X232111904Y-139039999D01*
X232073809Y-138963808D01*
X232035714Y-138925713D01*
X231959523Y-138887618D01*
X231769047Y-138887618D01*
X231692857Y-138925713D01*
X231654761Y-138963808D01*
X231616666Y-139039999D01*
X231616666Y-139192380D01*
X231654761Y-139268570D01*
X231692857Y-139306665D01*
X231769047Y-139344761D01*
X216071904Y-120358095D02*
X216071904Y-119900952D01*
X216871904Y-120129523D02*
X216071904Y-120129523D01*
X216071904Y-119710476D02*
X216871904Y-119177142D01*
X216071904Y-119177142D02*
X216871904Y-119710476D01*
X216071904Y-118719999D02*
X216071904Y-118643809D01*
X216110000Y-118567619D01*
X216148095Y-118529523D01*
X216224285Y-118491428D01*
X216376666Y-118453333D01*
X216567142Y-118453333D01*
X216719523Y-118491428D01*
X216795714Y-118529523D01*
X216833809Y-118567619D01*
X216871904Y-118643809D01*
X216871904Y-118719999D01*
X216833809Y-118796190D01*
X216795714Y-118834285D01*
X216719523Y-118872380D01*
X216567142Y-118910476D01*
X216376666Y-118910476D01*
X216224285Y-118872380D01*
X216148095Y-118834285D01*
X216110000Y-118796190D01*
X216071904Y-118719999D01*
X242271904Y-140868570D02*
X241471904Y-140868570D01*
X241471904Y-140678094D01*
X241510000Y-140563808D01*
X241586190Y-140487618D01*
X241662380Y-140449522D01*
X241814761Y-140411427D01*
X241929047Y-140411427D01*
X242081428Y-140449522D01*
X242157619Y-140487618D01*
X242233809Y-140563808D01*
X242271904Y-140678094D01*
X242271904Y-140868570D01*
X242271904Y-139649522D02*
X242271904Y-140106665D01*
X242271904Y-139878094D02*
X241471904Y-139878094D01*
X241586190Y-139954284D01*
X241662380Y-140030475D01*
X241700476Y-140106665D01*
X241471904Y-139382856D02*
X241471904Y-138887618D01*
X241776666Y-139154284D01*
X241776666Y-139039999D01*
X241814761Y-138963808D01*
X241852857Y-138925713D01*
X241929047Y-138887618D01*
X242119523Y-138887618D01*
X242195714Y-138925713D01*
X242233809Y-138963808D01*
X242271904Y-139039999D01*
X242271904Y-139268570D01*
X242233809Y-139344761D01*
X242195714Y-139382856D01*
X219558095Y-132532380D02*
X219558095Y-133341904D01*
X219605714Y-133437142D01*
X219653333Y-133484761D01*
X219748571Y-133532380D01*
X219939047Y-133532380D01*
X220034285Y-133484761D01*
X220081904Y-133437142D01*
X220129523Y-133341904D01*
X220129523Y-132532380D01*
X221034285Y-132865714D02*
X221034285Y-133532380D01*
X220796190Y-132484761D02*
X220558095Y-133199047D01*
X221177142Y-133199047D01*
X248176380Y-108169333D02*
X248890666Y-108169333D01*
X249033523Y-108216952D01*
X249128761Y-108312190D01*
X249176380Y-108455047D01*
X249176380Y-108550285D01*
X249176380Y-107169333D02*
X249176380Y-107740761D01*
X249176380Y-107455047D02*
X248176380Y-107455047D01*
X248319238Y-107550285D01*
X248414476Y-107645523D01*
X248462095Y-107740761D01*
X221169333Y-124797142D02*
X221121714Y-124844761D01*
X220978857Y-124892380D01*
X220883619Y-124892380D01*
X220740761Y-124844761D01*
X220645523Y-124749523D01*
X220597904Y-124654285D01*
X220550285Y-124463809D01*
X220550285Y-124320952D01*
X220597904Y-124130476D01*
X220645523Y-124035238D01*
X220740761Y-123940000D01*
X220883619Y-123892380D01*
X220978857Y-123892380D01*
X221121714Y-123940000D01*
X221169333Y-123987619D01*
X221502666Y-123892380D02*
X222121714Y-123892380D01*
X221788380Y-124273333D01*
X221931238Y-124273333D01*
X222026476Y-124320952D01*
X222074095Y-124368571D01*
X222121714Y-124463809D01*
X222121714Y-124701904D01*
X222074095Y-124797142D01*
X222026476Y-124844761D01*
X221931238Y-124892380D01*
X221645523Y-124892380D01*
X221550285Y-124844761D01*
X221502666Y-124797142D01*
X204746666Y-111352380D02*
X204746666Y-112066666D01*
X204699047Y-112209523D01*
X204603809Y-112304761D01*
X204460952Y-112352380D01*
X204365714Y-112352380D01*
X205175238Y-111447619D02*
X205222857Y-111400000D01*
X205318095Y-111352380D01*
X205556190Y-111352380D01*
X205651428Y-111400000D01*
X205699047Y-111447619D01*
X205746666Y-111542857D01*
X205746666Y-111638095D01*
X205699047Y-111780952D01*
X205127619Y-112352380D01*
X205746666Y-112352380D01*
X210612380Y-135434666D02*
X210136190Y-135768000D01*
X210612380Y-136006095D02*
X209612380Y-136006095D01*
X209612380Y-135625142D01*
X209660000Y-135529904D01*
X209707619Y-135482285D01*
X209802857Y-135434666D01*
X209945714Y-135434666D01*
X210040952Y-135482285D01*
X210088571Y-135529904D01*
X210136190Y-135625142D01*
X210136190Y-136006095D01*
X209707619Y-135053714D02*
X209660000Y-135006095D01*
X209612380Y-134910857D01*
X209612380Y-134672761D01*
X209660000Y-134577523D01*
X209707619Y-134529904D01*
X209802857Y-134482285D01*
X209898095Y-134482285D01*
X210040952Y-134529904D01*
X210612380Y-135101333D01*
X210612380Y-134482285D01*
D14*
X231523661Y-129176838D02*
X232075204Y-129176838D01*
X231799433Y-130142038D02*
X231799433Y-129176838D01*
X232350976Y-130096076D02*
X232488861Y-130142038D01*
X232718671Y-130142038D01*
X232810595Y-130096076D01*
X232856557Y-130050114D01*
X232902518Y-129958190D01*
X232902518Y-129866266D01*
X232856557Y-129774342D01*
X232810595Y-129728380D01*
X232718671Y-129682419D01*
X232534823Y-129636457D01*
X232442899Y-129590495D01*
X232396938Y-129544533D01*
X232350976Y-129452609D01*
X232350976Y-129360685D01*
X232396938Y-129268761D01*
X232442899Y-129222800D01*
X232534823Y-129176838D01*
X232764633Y-129176838D01*
X232902518Y-129222800D01*
X233270214Y-130096076D02*
X233408099Y-130142038D01*
X233637909Y-130142038D01*
X233729833Y-130096076D01*
X233775795Y-130050114D01*
X233821757Y-129958190D01*
X233821757Y-129866266D01*
X233775795Y-129774342D01*
X233729833Y-129728380D01*
X233637909Y-129682419D01*
X233454061Y-129636457D01*
X233362138Y-129590495D01*
X233316176Y-129544533D01*
X233270214Y-129452609D01*
X233270214Y-129360685D01*
X233316176Y-129268761D01*
X233362138Y-129222800D01*
X233454061Y-129176838D01*
X233683871Y-129176838D01*
X233821757Y-129222800D01*
X234649071Y-129498571D02*
X234649071Y-130142038D01*
X234419261Y-129130876D02*
X234189452Y-129820304D01*
X234786957Y-129820304D01*
X235568309Y-129176838D02*
X235384461Y-129176838D01*
X235292538Y-129222800D01*
X235246576Y-129268761D01*
X235154652Y-129406647D01*
X235108690Y-129590495D01*
X235108690Y-129958190D01*
X235154652Y-130050114D01*
X235200614Y-130096076D01*
X235292538Y-130142038D01*
X235476385Y-130142038D01*
X235568309Y-130096076D01*
X235614271Y-130050114D01*
X235660233Y-129958190D01*
X235660233Y-129728380D01*
X235614271Y-129636457D01*
X235568309Y-129590495D01*
X235476385Y-129544533D01*
X235292538Y-129544533D01*
X235200614Y-129590495D01*
X235154652Y-129636457D01*
X235108690Y-129728380D01*
X235981966Y-129176838D02*
X236579471Y-129176838D01*
X236257738Y-129544533D01*
X236395623Y-129544533D01*
X236487547Y-129590495D01*
X236533509Y-129636457D01*
X236579471Y-129728380D01*
X236579471Y-129958190D01*
X236533509Y-130050114D01*
X236487547Y-130096076D01*
X236395623Y-130142038D01*
X236119852Y-130142038D01*
X236027928Y-130096076D01*
X235981966Y-130050114D01*
X237544671Y-130050114D02*
X237498709Y-130096076D01*
X237360823Y-130142038D01*
X237268899Y-130142038D01*
X237131014Y-130096076D01*
X237039090Y-130004152D01*
X236993128Y-129912228D01*
X236947166Y-129728380D01*
X236947166Y-129590495D01*
X236993128Y-129406647D01*
X237039090Y-129314723D01*
X237131014Y-129222800D01*
X237268899Y-129176838D01*
X237360823Y-129176838D01*
X237498709Y-129222800D01*
X237544671Y-129268761D01*
D12*
X207563142Y-142800666D02*
X207610761Y-142848285D01*
X207658380Y-142991142D01*
X207658380Y-143086380D01*
X207610761Y-143229238D01*
X207515523Y-143324476D01*
X207420285Y-143372095D01*
X207229809Y-143419714D01*
X207086952Y-143419714D01*
X206896476Y-143372095D01*
X206801238Y-143324476D01*
X206706000Y-143229238D01*
X206658380Y-143086380D01*
X206658380Y-142991142D01*
X206706000Y-142848285D01*
X206753619Y-142800666D01*
X206658380Y-141895904D02*
X206658380Y-142372095D01*
X207134571Y-142419714D01*
X207086952Y-142372095D01*
X207039333Y-142276857D01*
X207039333Y-142038761D01*
X207086952Y-141943523D01*
X207134571Y-141895904D01*
X207229809Y-141848285D01*
X207467904Y-141848285D01*
X207563142Y-141895904D01*
X207610761Y-141943523D01*
X207658380Y-142038761D01*
X207658380Y-142276857D01*
X207610761Y-142372095D01*
X207563142Y-142419714D01*
X201501666Y-142882380D02*
X201501666Y-143596666D01*
X201454047Y-143739523D01*
X201358809Y-143834761D01*
X201215952Y-143882380D01*
X201120714Y-143882380D01*
X201882619Y-142882380D02*
X202501666Y-142882380D01*
X202168333Y-143263333D01*
X202311190Y-143263333D01*
X202406428Y-143310952D01*
X202454047Y-143358571D01*
X202501666Y-143453809D01*
X202501666Y-143691904D01*
X202454047Y-143787142D01*
X202406428Y-143834761D01*
X202311190Y-143882380D01*
X202025476Y-143882380D01*
X201930238Y-143834761D01*
X201882619Y-143787142D01*
X226503333Y-146641142D02*
X226455714Y-146688761D01*
X226312857Y-146736380D01*
X226217619Y-146736380D01*
X226074761Y-146688761D01*
X225979523Y-146593523D01*
X225931904Y-146498285D01*
X225884285Y-146307809D01*
X225884285Y-146164952D01*
X225931904Y-145974476D01*
X225979523Y-145879238D01*
X226074761Y-145784000D01*
X226217619Y-145736380D01*
X226312857Y-145736380D01*
X226455714Y-145784000D01*
X226503333Y-145831619D01*
X227455714Y-146736380D02*
X226884285Y-146736380D01*
X227170000Y-146736380D02*
X227170000Y-145736380D01*
X227074761Y-145879238D01*
X226979523Y-145974476D01*
X226884285Y-146022095D01*
X221091142Y-108764666D02*
X221138761Y-108812285D01*
X221186380Y-108955142D01*
X221186380Y-109050380D01*
X221138761Y-109193238D01*
X221043523Y-109288476D01*
X220948285Y-109336095D01*
X220757809Y-109383714D01*
X220614952Y-109383714D01*
X220424476Y-109336095D01*
X220329238Y-109288476D01*
X220234000Y-109193238D01*
X220186380Y-109050380D01*
X220186380Y-108955142D01*
X220234000Y-108812285D01*
X220281619Y-108764666D01*
X220186380Y-107907523D02*
X220186380Y-108098000D01*
X220234000Y-108193238D01*
X220281619Y-108240857D01*
X220424476Y-108336095D01*
X220614952Y-108383714D01*
X220995904Y-108383714D01*
X221091142Y-108336095D01*
X221138761Y-108288476D01*
X221186380Y-108193238D01*
X221186380Y-108002761D01*
X221138761Y-107907523D01*
X221091142Y-107859904D01*
X220995904Y-107812285D01*
X220757809Y-107812285D01*
X220662571Y-107859904D01*
X220614952Y-107907523D01*
X220567333Y-108002761D01*
X220567333Y-108193238D01*
X220614952Y-108288476D01*
X220662571Y-108336095D01*
X220757809Y-108383714D01*
X219662380Y-135688666D02*
X219186190Y-136022000D01*
X219662380Y-136260095D02*
X218662380Y-136260095D01*
X218662380Y-135879142D01*
X218710000Y-135783904D01*
X218757619Y-135736285D01*
X218852857Y-135688666D01*
X218995714Y-135688666D01*
X219090952Y-135736285D01*
X219138571Y-135783904D01*
X219186190Y-135879142D01*
X219186190Y-136260095D01*
X219662380Y-134736285D02*
X219662380Y-135307714D01*
X219662380Y-135022000D02*
X218662380Y-135022000D01*
X218805238Y-135117238D01*
X218900476Y-135212476D01*
X218948095Y-135307714D01*
X210518380Y-139498666D02*
X210042190Y-139832000D01*
X210518380Y-140070095D02*
X209518380Y-140070095D01*
X209518380Y-139689142D01*
X209566000Y-139593904D01*
X209613619Y-139546285D01*
X209708857Y-139498666D01*
X209851714Y-139498666D01*
X209946952Y-139546285D01*
X209994571Y-139593904D01*
X210042190Y-139689142D01*
X210042190Y-140070095D01*
X209518380Y-139165333D02*
X209518380Y-138546285D01*
X209899333Y-138879619D01*
X209899333Y-138736761D01*
X209946952Y-138641523D01*
X209994571Y-138593904D01*
X210089809Y-138546285D01*
X210327904Y-138546285D01*
X210423142Y-138593904D01*
X210470761Y-138641523D01*
X210518380Y-138736761D01*
X210518380Y-139022476D01*
X210470761Y-139117714D01*
X210423142Y-139165333D01*
X204746666Y-106272380D02*
X204746666Y-106986666D01*
X204699047Y-107129523D01*
X204603809Y-107224761D01*
X204460952Y-107272380D01*
X204365714Y-107272380D01*
X205651428Y-106605714D02*
X205651428Y-107272380D01*
X205413333Y-106224761D02*
X205175238Y-106939047D01*
X205794285Y-106939047D01*
X226171142Y-108764666D02*
X226218761Y-108812285D01*
X226266380Y-108955142D01*
X226266380Y-109050380D01*
X226218761Y-109193238D01*
X226123523Y-109288476D01*
X226028285Y-109336095D01*
X225837809Y-109383714D01*
X225694952Y-109383714D01*
X225504476Y-109336095D01*
X225409238Y-109288476D01*
X225314000Y-109193238D01*
X225266380Y-109050380D01*
X225266380Y-108955142D01*
X225314000Y-108812285D01*
X225361619Y-108764666D01*
X225266380Y-108431333D02*
X225266380Y-107764666D01*
X226266380Y-108193238D01*
X234512380Y-110121904D02*
X235321904Y-110121904D01*
X235417142Y-110074285D01*
X235464761Y-110026666D01*
X235512380Y-109931428D01*
X235512380Y-109740952D01*
X235464761Y-109645714D01*
X235417142Y-109598095D01*
X235321904Y-109550476D01*
X234512380Y-109550476D01*
X234607619Y-109121904D02*
X234560000Y-109074285D01*
X234512380Y-108979047D01*
X234512380Y-108740952D01*
X234560000Y-108645714D01*
X234607619Y-108598095D01*
X234702857Y-108550476D01*
X234798095Y-108550476D01*
X234940952Y-108598095D01*
X235512380Y-109169523D01*
X235512380Y-108550476D01*
X237191904Y-113106380D02*
X236391904Y-113106380D01*
X236772857Y-113106380D02*
X236772857Y-112649237D01*
X237191904Y-112649237D02*
X236391904Y-112649237D01*
X236391904Y-112382571D02*
X237191904Y-112115904D01*
X236391904Y-111849237D01*
X229571904Y-113106380D02*
X228771904Y-113106380D01*
X229152857Y-113106380D02*
X229152857Y-112649238D01*
X229571904Y-112649238D02*
X228771904Y-112649238D01*
X228771904Y-112382571D02*
X229571904Y-112115904D01*
X228771904Y-111849238D01*
X229038571Y-111239714D02*
X229571904Y-111239714D01*
X228733809Y-111430190D02*
X229305238Y-111620666D01*
X229305238Y-111125428D01*
X233890000Y-112687332D02*
X233851904Y-112763523D01*
X233851904Y-112877809D01*
X233890000Y-112992094D01*
X233966190Y-113068285D01*
X234042380Y-113106380D01*
X234194761Y-113144475D01*
X234309047Y-113144475D01*
X234461428Y-113106380D01*
X234537619Y-113068285D01*
X234613809Y-112992094D01*
X234651904Y-112877809D01*
X234651904Y-112801618D01*
X234613809Y-112687332D01*
X234575714Y-112649237D01*
X234309047Y-112649237D01*
X234309047Y-112801618D01*
X234651904Y-112306380D02*
X233851904Y-112306380D01*
X234651904Y-111849237D01*
X233851904Y-111849237D01*
X234651904Y-111468285D02*
X233851904Y-111468285D01*
X233851904Y-111277809D01*
X233890000Y-111163523D01*
X233966190Y-111087332D01*
X234042380Y-111049237D01*
X234194761Y-111011142D01*
X234309047Y-111011142D01*
X234461428Y-111049237D01*
X234537619Y-111087332D01*
X234613809Y-111163523D01*
X234651904Y-111277809D01*
X234651904Y-111468285D01*
X232111904Y-106407143D02*
X232111904Y-106788095D01*
X231311904Y-106788095D01*
X231311904Y-106254762D02*
X232111904Y-105988095D01*
X231311904Y-105721429D01*
X231311904Y-105530953D02*
X231311904Y-105035714D01*
X231616666Y-105302381D01*
X231616666Y-105188095D01*
X231654761Y-105111905D01*
X231692857Y-105073810D01*
X231769047Y-105035714D01*
X231959523Y-105035714D01*
X232035714Y-105073810D01*
X232073809Y-105111905D01*
X232111904Y-105188095D01*
X232111904Y-105416667D01*
X232073809Y-105492857D01*
X232035714Y-105530953D01*
X242271904Y-106407143D02*
X242271904Y-106788095D01*
X241471904Y-106788095D01*
X241471904Y-106254762D02*
X242271904Y-105988095D01*
X241471904Y-105721429D01*
X242271904Y-105035714D02*
X242271904Y-105492857D01*
X242271904Y-105264286D02*
X241471904Y-105264286D01*
X241586190Y-105340476D01*
X241662380Y-105416667D01*
X241700476Y-105492857D01*
X239731904Y-113106380D02*
X238931904Y-113106380D01*
X239312857Y-113106380D02*
X239312857Y-112649238D01*
X239731904Y-112649238D02*
X238931904Y-112649238D01*
X238931904Y-112382571D02*
X239731904Y-112115904D01*
X238931904Y-111849238D01*
X239008095Y-111620666D02*
X238970000Y-111582571D01*
X238931904Y-111506380D01*
X238931904Y-111315904D01*
X238970000Y-111239714D01*
X239008095Y-111201619D01*
X239084285Y-111163523D01*
X239160476Y-111163523D01*
X239274761Y-111201619D01*
X239731904Y-111658761D01*
X239731904Y-111163523D01*
X233890000Y-106711904D02*
X233851904Y-106788095D01*
X233851904Y-106902381D01*
X233890000Y-107016666D01*
X233966190Y-107092857D01*
X234042380Y-107130952D01*
X234194761Y-107169047D01*
X234309047Y-107169047D01*
X234461428Y-107130952D01*
X234537619Y-107092857D01*
X234613809Y-107016666D01*
X234651904Y-106902381D01*
X234651904Y-106826190D01*
X234613809Y-106711904D01*
X234575714Y-106673809D01*
X234309047Y-106673809D01*
X234309047Y-106826190D01*
X234651904Y-106330952D02*
X233851904Y-106330952D01*
X234651904Y-105873809D01*
X233851904Y-105873809D01*
X234651904Y-105492857D02*
X233851904Y-105492857D01*
X233851904Y-105302381D01*
X233890000Y-105188095D01*
X233966190Y-105111904D01*
X234042380Y-105073809D01*
X234194761Y-105035714D01*
X234309047Y-105035714D01*
X234461428Y-105073809D01*
X234537619Y-105111904D01*
X234613809Y-105188095D01*
X234651904Y-105302381D01*
X234651904Y-105492857D01*
X242271904Y-113106380D02*
X241471904Y-113106380D01*
X241852857Y-113106380D02*
X241852857Y-112649238D01*
X242271904Y-112649238D02*
X241471904Y-112649238D01*
X241471904Y-112382571D02*
X242271904Y-112115904D01*
X241471904Y-111849238D01*
X242271904Y-111163523D02*
X242271904Y-111620666D01*
X242271904Y-111392095D02*
X241471904Y-111392095D01*
X241586190Y-111468285D01*
X241662380Y-111544476D01*
X241700476Y-111620666D01*
X232111904Y-113106380D02*
X231311904Y-113106380D01*
X231692857Y-113106380D02*
X231692857Y-112649238D01*
X232111904Y-112649238D02*
X231311904Y-112649238D01*
X231311904Y-112382571D02*
X232111904Y-112115904D01*
X231311904Y-111849238D01*
X231311904Y-111658761D02*
X231311904Y-111163523D01*
X231616666Y-111430190D01*
X231616666Y-111315904D01*
X231654761Y-111239714D01*
X231692857Y-111201619D01*
X231769047Y-111163523D01*
X231959523Y-111163523D01*
X232035714Y-111201619D01*
X232073809Y-111239714D01*
X232111904Y-111315904D01*
X232111904Y-111544476D01*
X232073809Y-111620666D01*
X232035714Y-111658761D01*
X239731904Y-106407143D02*
X239731904Y-106788095D01*
X238931904Y-106788095D01*
X238931904Y-106254762D02*
X239731904Y-105988095D01*
X238931904Y-105721429D01*
X239008095Y-105492857D02*
X238970000Y-105454762D01*
X238931904Y-105378572D01*
X238931904Y-105188095D01*
X238970000Y-105111905D01*
X239008095Y-105073810D01*
X239084285Y-105035714D01*
X239160476Y-105035714D01*
X239274761Y-105073810D01*
X239731904Y-105530953D01*
X239731904Y-105035714D01*
X237191904Y-105645238D02*
X237191904Y-106026190D01*
X236391904Y-106026190D01*
X236391904Y-105492857D02*
X237191904Y-105226190D01*
X236391904Y-104959523D01*
X229571904Y-106407143D02*
X229571904Y-106788095D01*
X228771904Y-106788095D01*
X228771904Y-106254762D02*
X229571904Y-105988095D01*
X228771904Y-105721429D01*
X229038571Y-105111905D02*
X229571904Y-105111905D01*
X228733809Y-105302381D02*
X229305238Y-105492857D01*
X229305238Y-104997619D01*
X210423142Y-132132666D02*
X210470761Y-132180285D01*
X210518380Y-132323142D01*
X210518380Y-132418380D01*
X210470761Y-132561238D01*
X210375523Y-132656476D01*
X210280285Y-132704095D01*
X210089809Y-132751714D01*
X209946952Y-132751714D01*
X209756476Y-132704095D01*
X209661238Y-132656476D01*
X209566000Y-132561238D01*
X209518380Y-132418380D01*
X209518380Y-132323142D01*
X209566000Y-132180285D01*
X209613619Y-132132666D01*
X209851714Y-131275523D02*
X210518380Y-131275523D01*
X209470761Y-131513619D02*
X210185047Y-131751714D01*
X210185047Y-131132666D01*
X235427809Y-151215190D02*
X235427809Y-151691380D01*
X235094476Y-150691380D02*
X235427809Y-151215190D01*
X235761142Y-150691380D01*
X236618285Y-151691380D02*
X236046857Y-151691380D01*
X236332571Y-151691380D02*
X236332571Y-150691380D01*
X236237333Y-150834238D01*
X236142095Y-150929476D01*
X236046857Y-150977095D01*
D15*
X245104267Y-147204000D02*
X244811733Y-147204000D01*
X245104267Y-148224000D02*
X244811733Y-148224000D01*
X226964000Y-100939000D02*
X226964000Y-105580000D01*
X223695000Y-100939000D02*
X223695000Y-102449000D01*
X216724000Y-105580000D02*
X226964000Y-105580000D01*
X216724000Y-100939000D02*
X216724000Y-105580000D01*
X216724000Y-100939000D02*
X226964000Y-100939000D01*
X219994000Y-100939000D02*
X219994000Y-102449000D01*
X216724000Y-102449000D02*
X226964000Y-102449000D01*
X220320000Y-127120000D02*
X222270000Y-127120000D01*
X220320000Y-132240000D02*
X218370000Y-132240000D01*
X220320000Y-132240000D02*
X223770000Y-132240000D01*
X220320000Y-127120000D02*
X218370000Y-127120000D01*
X252324000Y-109166000D02*
X257464000Y-109166000D01*
X252324000Y-109166000D02*
X252324000Y-106506000D01*
X257464000Y-109166000D02*
X257464000Y-106506000D01*
X249724000Y-109166000D02*
X249724000Y-107836000D01*
X252324000Y-106506000D02*
X257464000Y-106506000D01*
X251054000Y-109166000D02*
X249724000Y-109166000D01*
X221189733Y-125360000D02*
X221482267Y-125360000D01*
X221189733Y-126380000D02*
X221482267Y-126380000D01*
X203870000Y-110630000D02*
X203870000Y-111960000D01*
X203870000Y-109360000D02*
X203870000Y-109300000D01*
X201210000Y-109360000D02*
X201210000Y-109300000D01*
X203870000Y-111960000D02*
X202540000Y-111960000D01*
X203870000Y-109360000D02*
X201210000Y-109360000D01*
X203870000Y-109300000D02*
X201210000Y-109300000D01*
X209158500Y-135522724D02*
X209158500Y-135013276D01*
X208113500Y-135522724D02*
X208113500Y-135013276D01*
D16*
X229718000Y-126327200D02*
X229718000Y-133032800D01*
X230099000Y-133413800D02*
X240170313Y-133413800D01*
X230099000Y-125946200D02*
X240170313Y-125946200D01*
X240502000Y-133032800D02*
X240502000Y-126327200D01*
X229718000Y-130950000D02*
G75*
G03*
X229718000Y-128410000I0J1270000D01*
G01*
X240502000Y-126327200D02*
G75*
G03*
X240121000Y-125946200I-381000J0D01*
G01*
X230099000Y-125946200D02*
G75*
G03*
X229718000Y-126327200I-1J-380999D01*
G01*
X229718000Y-133032800D02*
G75*
G03*
X230099000Y-133413800I380999J-1D01*
G01*
X240121000Y-133413800D02*
G75*
G03*
X240502000Y-133032800I0J381000D01*
G01*
G36*
X238354000Y-125946200D02*
G01*
X237846000Y-125946200D01*
X237846000Y-125819200D01*
X238354000Y-125819200D01*
X238354000Y-125946200D01*
G37*
G36*
X237084000Y-125946200D02*
G01*
X236576000Y-125946200D01*
X236576000Y-125819200D01*
X237084000Y-125819200D01*
X237084000Y-125946200D01*
G37*
G36*
X233274000Y-125946200D02*
G01*
X232766000Y-125946200D01*
X232766000Y-125819200D01*
X233274000Y-125819200D01*
X233274000Y-125946200D01*
G37*
G36*
X238354000Y-133540800D02*
G01*
X237846000Y-133540800D01*
X237846000Y-133413800D01*
X238354000Y-133413800D01*
X238354000Y-133540800D01*
G37*
G36*
X233274000Y-133540800D02*
G01*
X232766000Y-133540800D01*
X232766000Y-133413800D01*
X233274000Y-133413800D01*
X233274000Y-133540800D01*
G37*
G36*
X234544000Y-125946200D02*
G01*
X234036000Y-125946200D01*
X234036000Y-125819200D01*
X234544000Y-125819200D01*
X234544000Y-125946200D01*
G37*
G36*
X232004000Y-133540800D02*
G01*
X231496000Y-133540800D01*
X231496000Y-133413800D01*
X232004000Y-133413800D01*
X232004000Y-133540800D01*
G37*
G36*
X230734000Y-133540800D02*
G01*
X230226000Y-133540800D01*
X230226000Y-133413800D01*
X230734000Y-133413800D01*
X230734000Y-133540800D01*
G37*
G36*
X239624000Y-125946200D02*
G01*
X239116000Y-125946200D01*
X239116000Y-125819200D01*
X239624000Y-125819200D01*
X239624000Y-125946200D01*
G37*
G36*
X234544000Y-133540800D02*
G01*
X234036000Y-133540800D01*
X234036000Y-133413800D01*
X234544000Y-133413800D01*
X234544000Y-133540800D01*
G37*
G36*
X239624000Y-133540800D02*
G01*
X239116000Y-133540800D01*
X239116000Y-133413800D01*
X239624000Y-133413800D01*
X239624000Y-133540800D01*
G37*
G36*
X232004000Y-125946200D02*
G01*
X231496000Y-125946200D01*
X231496000Y-125819200D01*
X232004000Y-125819200D01*
X232004000Y-125946200D01*
G37*
G36*
X237084000Y-133540800D02*
G01*
X236576000Y-133540800D01*
X236576000Y-133413800D01*
X237084000Y-133413800D01*
X237084000Y-133540800D01*
G37*
G36*
X230734000Y-125946200D02*
G01*
X230226000Y-125946200D01*
X230226000Y-125819200D01*
X230734000Y-125819200D01*
X230734000Y-125946200D01*
G37*
G36*
X235814000Y-125946200D02*
G01*
X235306000Y-125946200D01*
X235306000Y-125819200D01*
X235814000Y-125819200D01*
X235814000Y-125946200D01*
G37*
G36*
X235814000Y-133540800D02*
G01*
X235306000Y-133540800D01*
X235306000Y-133413800D01*
X235814000Y-133413800D01*
X235814000Y-133540800D01*
G37*
D15*
X209146000Y-142780267D02*
X209146000Y-142487733D01*
X208126000Y-142780267D02*
X208126000Y-142487733D01*
X203165000Y-139830000D02*
X200505000Y-139830000D01*
X203165000Y-142430000D02*
X201835000Y-142430000D01*
X203165000Y-139830000D02*
X203165000Y-132150000D01*
X200505000Y-139830000D02*
X200505000Y-132150000D01*
X203165000Y-132150000D02*
X200505000Y-132150000D01*
X203165000Y-141100000D02*
X203165000Y-142430000D01*
G36*
X265079583Y-117013537D02*
G01*
X265170536Y-117117105D01*
X265260202Y-117219214D01*
X265348438Y-117319703D01*
X265435102Y-117418408D01*
X265520052Y-117515168D01*
X265603145Y-117609820D01*
X265684238Y-117702201D01*
X265763189Y-117792150D01*
X265839856Y-117879503D01*
X265914096Y-117964099D01*
X265985767Y-118045774D01*
X266054726Y-118124368D01*
X266120831Y-118199716D01*
X266183939Y-118271657D01*
X266243908Y-118340029D01*
X266300596Y-118404668D01*
X266353860Y-118465413D01*
X266403557Y-118522101D01*
X266449545Y-118574570D01*
X266491682Y-118622657D01*
X266529826Y-118666201D01*
X266563833Y-118705037D01*
X266593562Y-118739005D01*
X266618869Y-118767942D01*
X266639613Y-118791685D01*
X266655651Y-118810071D01*
X266666840Y-118822940D01*
X266673039Y-118830127D01*
X266674323Y-118831674D01*
X266674865Y-118833319D01*
X266674758Y-118835954D01*
X266673827Y-118839939D01*
X266671895Y-118845634D01*
X266668784Y-118853398D01*
X266664317Y-118863590D01*
X266658319Y-118876570D01*
X266650611Y-118892697D01*
X266641018Y-118912330D01*
X266629363Y-118935830D01*
X266615468Y-118963555D01*
X266599157Y-118995864D01*
X266580252Y-119033118D01*
X266558578Y-119075675D01*
X266533957Y-119123895D01*
X266506213Y-119178138D01*
X266475169Y-119238762D01*
X266446747Y-119294227D01*
X266213909Y-119748505D01*
X264396668Y-119748505D01*
X263942391Y-119294216D01*
X263488115Y-118839927D01*
X263490103Y-115203673D01*
X265079583Y-117013537D01*
G37*
G36*
X263026648Y-116792961D02*
G01*
X263027317Y-116793727D01*
X263027936Y-116795509D01*
X263028507Y-116798588D01*
X263029033Y-116803247D01*
X263029514Y-116809768D01*
X263029953Y-116818433D01*
X263030353Y-116829525D01*
X263030714Y-116843326D01*
X263031038Y-116860117D01*
X263031329Y-116880182D01*
X263031586Y-116903803D01*
X263031814Y-116931261D01*
X263032012Y-116962840D01*
X263032184Y-116998820D01*
X263032331Y-117039485D01*
X263032455Y-117085117D01*
X263032558Y-117135998D01*
X263032642Y-117192410D01*
X263032709Y-117254636D01*
X263032760Y-117322957D01*
X263032798Y-117397657D01*
X263032825Y-117479017D01*
X263032842Y-117567319D01*
X263032852Y-117662846D01*
X263032855Y-117765880D01*
X263032856Y-117815335D01*
X263032856Y-118839961D01*
X262124286Y-119748505D01*
X260759732Y-119748505D01*
X260532871Y-119519881D01*
X260491407Y-119478065D01*
X260455218Y-119441492D01*
X260423975Y-119409814D01*
X260397347Y-119382682D01*
X260375004Y-119359748D01*
X260356618Y-119340662D01*
X260341858Y-119325076D01*
X260330395Y-119312641D01*
X260321898Y-119303008D01*
X260316039Y-119295828D01*
X260312487Y-119290753D01*
X260310913Y-119287434D01*
X260310986Y-119285522D01*
X260311132Y-119285319D01*
X260314120Y-119281978D01*
X260322219Y-119272952D01*
X260335247Y-119258443D01*
X260353023Y-119238653D01*
X260375364Y-119213785D01*
X260402088Y-119184042D01*
X260433013Y-119149627D01*
X260467957Y-119110741D01*
X260506737Y-119067588D01*
X260549173Y-119020371D01*
X260595081Y-118969290D01*
X260644280Y-118914550D01*
X260696588Y-118856353D01*
X260751822Y-118794901D01*
X260809800Y-118730397D01*
X260870341Y-118663044D01*
X260933263Y-118593043D01*
X260998382Y-118520599D01*
X261065518Y-118445912D01*
X261134488Y-118369187D01*
X261205110Y-118290624D01*
X261277202Y-118210428D01*
X261332307Y-118149129D01*
X262348361Y-117018876D01*
X262683680Y-116907012D01*
X262733338Y-116890447D01*
X262780928Y-116874574D01*
X262825903Y-116859574D01*
X262867717Y-116845631D01*
X262905823Y-116832927D01*
X262939674Y-116821643D01*
X262968724Y-116811962D01*
X262992424Y-116804067D01*
X263010230Y-116798139D01*
X263021593Y-116794361D01*
X263025928Y-116792928D01*
X263026648Y-116792961D01*
G37*
X226523733Y-147204000D02*
X226816267Y-147204000D01*
X226523733Y-148224000D02*
X226816267Y-148224000D01*
X219814000Y-108451733D02*
X219814000Y-108744267D01*
X218794000Y-108451733D02*
X218794000Y-108744267D01*
X218302500Y-135267276D02*
X218302500Y-135776724D01*
X217257500Y-135267276D02*
X217257500Y-135776724D01*
X208113500Y-139077276D02*
X208113500Y-139586724D01*
X209158500Y-139077276D02*
X209158500Y-139586724D01*
X201210000Y-106880000D02*
X203870000Y-106880000D01*
X201210000Y-104280000D02*
X203870000Y-104280000D01*
X201210000Y-104280000D02*
X201210000Y-106880000D01*
X201210000Y-101680000D02*
X202540000Y-101680000D01*
X201210000Y-103010000D02*
X201210000Y-101680000D01*
X203870000Y-104280000D02*
X203870000Y-106880000D01*
D12*
X263606000Y-112562000D02*
X263516000Y-112582000D01*
X262746000Y-110362000D02*
X262826000Y-110272000D01*
X262636000Y-110382000D02*
X262696000Y-110402000D01*
X264696000Y-109912000D02*
X264736000Y-109982000D01*
X264686000Y-110412000D02*
X264656000Y-110402000D01*
X264846000Y-109422000D02*
X264806000Y-109472000D01*
X262396000Y-109142000D02*
X262466000Y-109102000D01*
X260956000Y-111302000D02*
X260886000Y-111332000D01*
X262836000Y-110242000D02*
X262896000Y-110142000D01*
X262786000Y-109952000D02*
X262706000Y-109962000D01*
X264696000Y-109812000D02*
X264696000Y-109912000D01*
X264106000Y-111232000D02*
X264436000Y-111622000D01*
X264216000Y-113972000D02*
X264236000Y-113752000D01*
X262596000Y-110012000D02*
X262556000Y-110012000D01*
X262676000Y-109442000D02*
X262616000Y-109432000D01*
X264986000Y-111502000D02*
X265076000Y-111402000D01*
X261906000Y-110002000D02*
X262636000Y-110382000D01*
X260946000Y-110192000D02*
X260906000Y-110062000D01*
X264596000Y-113162000D02*
X264506000Y-113142000D01*
X260906000Y-110922000D02*
X261036000Y-110872000D01*
X264816000Y-109242000D02*
X264886000Y-109222000D01*
X264036000Y-110862000D02*
X263996000Y-110922000D01*
X264376000Y-109462000D02*
X264456000Y-109522000D01*
X265236000Y-109952000D02*
X265166000Y-109812000D01*
X264656000Y-110402000D02*
X264636000Y-110392000D01*
X265036000Y-109392000D02*
X264996000Y-109392000D01*
X261506000Y-110402000D02*
X261436000Y-110372000D01*
X260776000Y-111122000D02*
X260816000Y-111032000D01*
X264586000Y-110492000D02*
X264566000Y-110602000D01*
X264636000Y-110392000D02*
X264596000Y-110392000D01*
X262536000Y-110002000D02*
X262476000Y-109942000D01*
X264666000Y-113462000D02*
X264726000Y-113422000D01*
X262716000Y-111572000D02*
X262586000Y-111472000D01*
X262796000Y-109482000D02*
X262746000Y-109462000D01*
X262396000Y-109822000D02*
X262446000Y-109802000D01*
X262476000Y-109942000D02*
X262396000Y-109822000D01*
X260886000Y-111332000D02*
X260836000Y-111362000D01*
X264846000Y-112052000D02*
X264866000Y-112122000D01*
X262606000Y-109822000D02*
X262676000Y-109822000D01*
X265266000Y-112732000D02*
X265336000Y-112862000D01*
X261496000Y-113512000D02*
X261606000Y-113482000D01*
X264996000Y-109392000D02*
X264926000Y-109392000D01*
X264326000Y-113552000D02*
X264416000Y-113522000D01*
X260906000Y-110062000D02*
X260916000Y-110032000D01*
X263976000Y-110972000D02*
X263996000Y-111062000D01*
X264716000Y-113192000D02*
X264596000Y-113162000D01*
X262696000Y-110402000D02*
X262746000Y-110362000D01*
X265266000Y-109332000D02*
X265276000Y-109332000D01*
X265236000Y-109322000D02*
X265216000Y-109302000D01*
X265056000Y-111842000D02*
X264936000Y-111922000D01*
X263046000Y-108812000D02*
X263166000Y-108792000D01*
X264876000Y-109402000D02*
X264846000Y-109422000D01*
X264766000Y-109542000D02*
X264746000Y-109592000D01*
X265096000Y-111302000D02*
X265096000Y-111232000D01*
X264726000Y-113422000D02*
X264766000Y-113352000D01*
X264456000Y-109522000D02*
X264546000Y-109522000D01*
X265296000Y-109332000D02*
X265266000Y-109312000D01*
X264766000Y-113282000D02*
X264716000Y-113192000D01*
X261346000Y-113952000D02*
X261366000Y-113662000D01*
X263446000Y-112672000D02*
X262726000Y-113482000D01*
X262106000Y-109272000D02*
X262196000Y-109222000D01*
X262726000Y-113482000D02*
X262716000Y-113602000D01*
X265306000Y-109352000D02*
X265566000Y-110262000D01*
X262186000Y-109402000D02*
X262106000Y-109282000D01*
X265116000Y-109512000D02*
X265096000Y-109452000D01*
X260916000Y-110032000D02*
X260986000Y-109972000D01*
X262916000Y-110042000D02*
X262886000Y-110002000D01*
X262616000Y-109432000D02*
X262556000Y-109432000D01*
X262556000Y-110012000D02*
X262536000Y-110002000D01*
X264746000Y-111662000D02*
X264836000Y-111602000D01*
X262876000Y-109592000D02*
X262846000Y-109532000D01*
X260776000Y-111202000D02*
X260776000Y-111122000D01*
X264276000Y-113642000D02*
X264286000Y-113602000D01*
X261436000Y-110372000D02*
X261356000Y-110362000D01*
X265366000Y-110092000D02*
X265286000Y-110012000D01*
X264096000Y-109092000D02*
X264166000Y-109212000D01*
X265136000Y-109662000D02*
X265116000Y-109512000D01*
X265076000Y-111402000D02*
X265096000Y-111302000D01*
X262936000Y-108832000D02*
X263046000Y-108812000D01*
X262146000Y-112892000D02*
X262166000Y-112772000D01*
X262246000Y-109482000D02*
X262186000Y-109402000D01*
X264706000Y-110392000D02*
X264666000Y-110382000D01*
X265276000Y-111582000D02*
X265166000Y-111732000D01*
X262716000Y-113602000D02*
X262726000Y-113982000D01*
X264566000Y-111702000D02*
X264636000Y-111702000D01*
X261216000Y-110252000D02*
X261196000Y-110232000D01*
X260856000Y-110972000D02*
X260906000Y-110922000D01*
X264496000Y-111672000D02*
X264566000Y-111702000D01*
X265496000Y-113882000D02*
X265446000Y-113962000D01*
X264636000Y-111702000D02*
X264746000Y-111662000D01*
X265146000Y-112552000D02*
X265266000Y-112732000D01*
X262586000Y-111472000D02*
X262476000Y-111392000D01*
X262476000Y-111392000D02*
X262266000Y-111332000D01*
X261036000Y-111282000D02*
X260956000Y-111302000D01*
X262516000Y-109042000D02*
X262576000Y-108972000D01*
X261556000Y-110432000D02*
X261506000Y-110402000D01*
X264096000Y-110832000D02*
X264036000Y-110862000D01*
X262436000Y-109472000D02*
X262356000Y-109562000D01*
X260816000Y-111032000D02*
X260856000Y-110972000D01*
X265446000Y-113962000D02*
X264456000Y-113952000D01*
X262246000Y-112602000D02*
X262736000Y-111742000D01*
X264546000Y-110642000D02*
X264506000Y-110662000D01*
X265296000Y-111482000D02*
X265276000Y-111582000D01*
X262676000Y-109822000D02*
X262756000Y-109802000D01*
X262746000Y-111672000D02*
X262736000Y-111612000D01*
X265076000Y-109232000D02*
X265126000Y-109252000D01*
X261406000Y-113562000D02*
X261496000Y-113512000D01*
X264936000Y-111922000D02*
X264846000Y-112052000D01*
X262826000Y-109962000D02*
X262786000Y-109952000D01*
X262286000Y-109522000D02*
X262246000Y-109482000D01*
X262726000Y-113982000D02*
X261346000Y-113952000D01*
X265046000Y-112402000D02*
X265146000Y-112552000D01*
X262826000Y-110272000D02*
X262836000Y-110242000D01*
X264716000Y-109672000D02*
X264696000Y-109742000D01*
X262886000Y-109662000D02*
X262876000Y-109592000D01*
X261626000Y-110492000D02*
X261596000Y-110462000D01*
X261096000Y-111282000D02*
X261036000Y-111282000D01*
X262166000Y-113232000D02*
X262156000Y-113092000D01*
X265126000Y-109252000D02*
X265176000Y-109272000D01*
X262466000Y-109102000D02*
X262516000Y-109042000D01*
X261016000Y-110182000D02*
X260946000Y-110192000D01*
X264646000Y-109382000D02*
X264686000Y-109322000D01*
X264236000Y-109322000D02*
X264306000Y-109392000D01*
X262756000Y-109802000D02*
X262836000Y-109762000D01*
X263516000Y-112582000D02*
X263446000Y-112672000D01*
X264766000Y-113352000D02*
X264766000Y-113282000D01*
X262846000Y-109532000D02*
X262796000Y-109482000D01*
X262746000Y-111712000D02*
X262746000Y-111672000D01*
X264956000Y-109212000D02*
X265026000Y-109222000D01*
X263166000Y-108792000D02*
X263256000Y-108822000D01*
X262106000Y-113352000D02*
X262136000Y-113322000D01*
X262896000Y-110142000D02*
X262906000Y-110102000D01*
X261106000Y-109912000D02*
X261226000Y-109882000D01*
X264686000Y-110392000D02*
X264706000Y-110392000D01*
X261316000Y-109862000D02*
X261416000Y-109862000D01*
X264236000Y-113752000D02*
X264276000Y-113642000D01*
X262886000Y-110002000D02*
X262826000Y-109962000D01*
X261496000Y-110762000D02*
X261686000Y-110732000D01*
X261596000Y-110462000D02*
X261556000Y-110432000D01*
X265186000Y-111002000D02*
X265276000Y-111252000D01*
X262736000Y-111612000D02*
X262716000Y-111572000D01*
X261366000Y-113662000D02*
X261376000Y-113612000D01*
X262156000Y-113282000D02*
X262166000Y-113232000D01*
X262556000Y-109432000D02*
X262506000Y-109442000D01*
X265096000Y-111232000D02*
X265046000Y-111092000D01*
X262706000Y-109962000D02*
X262596000Y-110012000D01*
X264306000Y-109392000D02*
X264376000Y-109462000D01*
X261056000Y-110182000D02*
X261016000Y-110182000D01*
X261226000Y-109882000D02*
X261316000Y-109862000D01*
X261196000Y-110232000D02*
X261166000Y-110202000D01*
X261966000Y-113412000D02*
X262056000Y-113382000D01*
X264696000Y-109742000D02*
X264696000Y-109812000D01*
X261106000Y-110182000D02*
X261056000Y-110182000D01*
X264746000Y-109272000D02*
X264816000Y-109242000D01*
X264836000Y-111602000D02*
X264986000Y-111502000D01*
X265276000Y-111252000D02*
X265296000Y-111482000D01*
X262106000Y-109282000D02*
X262106000Y-109272000D01*
X261756000Y-110632000D02*
X261746000Y-110702000D01*
X264866000Y-112122000D02*
X264936000Y-112262000D01*
X265276000Y-109332000D02*
X265296000Y-109332000D01*
X261356000Y-110362000D02*
X261286000Y-110362000D01*
X261206000Y-111312000D02*
X261146000Y-111282000D01*
X263746000Y-112612000D02*
X263676000Y-112582000D01*
X263256000Y-108822000D02*
X264096000Y-109092000D01*
X262156000Y-113092000D02*
X262146000Y-112892000D01*
X265026000Y-109222000D02*
X265076000Y-109232000D01*
X264566000Y-110602000D02*
X264546000Y-110642000D01*
X264586000Y-110432000D02*
X264586000Y-110492000D01*
X265166000Y-111732000D02*
X265056000Y-111842000D01*
X261726000Y-110592000D02*
X261756000Y-110632000D01*
X263996000Y-110922000D02*
X263976000Y-110972000D01*
X261826000Y-109972000D02*
X261906000Y-110002000D01*
X264776000Y-109492000D02*
X264766000Y-109542000D01*
X261606000Y-113482000D02*
X261966000Y-113412000D01*
X264886000Y-109222000D02*
X264956000Y-109212000D01*
X264726000Y-110422000D02*
X264686000Y-110412000D01*
X261706000Y-110722000D02*
X261746000Y-110672000D01*
X264746000Y-109592000D02*
X264716000Y-109672000D01*
X260986000Y-109972000D02*
X261106000Y-109912000D01*
X262196000Y-109222000D02*
X262396000Y-109142000D01*
X263996000Y-111062000D02*
X264046000Y-111162000D01*
X264686000Y-109322000D02*
X264746000Y-109272000D01*
X262056000Y-113382000D02*
X262106000Y-113352000D01*
X261536000Y-109882000D02*
X261666000Y-109912000D01*
X261746000Y-110702000D02*
X261706000Y-110722000D01*
X260786000Y-111252000D02*
X260776000Y-111202000D01*
X262656000Y-108912000D02*
X262746000Y-108882000D01*
X264456000Y-113952000D02*
X264216000Y-113972000D01*
X261376000Y-113612000D02*
X261406000Y-113562000D01*
X264286000Y-113602000D02*
X264326000Y-113552000D01*
X264936000Y-112262000D02*
X265046000Y-112402000D01*
X261146000Y-111282000D02*
X261096000Y-111282000D01*
X265216000Y-109302000D02*
X265246000Y-109322000D01*
X263676000Y-112582000D02*
X263606000Y-112562000D01*
X262906000Y-110102000D02*
X262916000Y-110042000D01*
X262506000Y-109442000D02*
X262436000Y-109472000D01*
X262866000Y-109712000D02*
X262886000Y-109662000D01*
X262856000Y-108852000D02*
X262936000Y-108832000D01*
X261246000Y-110292000D02*
X261216000Y-110252000D01*
X264506000Y-113142000D02*
X263746000Y-112612000D01*
X265166000Y-109812000D02*
X265136000Y-109662000D01*
X265046000Y-111092000D02*
X264726000Y-110422000D01*
X264656000Y-110382000D02*
X264686000Y-110392000D01*
X260836000Y-111362000D02*
X260786000Y-111252000D01*
X265216000Y-109292000D02*
X265196000Y-109282000D01*
X264166000Y-109212000D02*
X264236000Y-109322000D01*
X262526000Y-109812000D02*
X262606000Y-109822000D01*
X261756000Y-110622000D02*
X261626000Y-110492000D01*
X262166000Y-112772000D02*
X262246000Y-112602000D01*
X262266000Y-111332000D02*
X261266000Y-111352000D01*
X262356000Y-109562000D02*
X262286000Y-109522000D01*
X264546000Y-109522000D02*
X264606000Y-109452000D01*
X265726000Y-113692000D02*
X265496000Y-113882000D01*
X262136000Y-113322000D02*
X262156000Y-113282000D01*
X261416000Y-109862000D02*
X261536000Y-109882000D01*
X264806000Y-109472000D02*
X264776000Y-109492000D01*
X265286000Y-110012000D02*
X265236000Y-109952000D01*
X262746000Y-109462000D02*
X262676000Y-109442000D01*
X264046000Y-111162000D02*
X264106000Y-111232000D01*
X265266000Y-109312000D02*
X265216000Y-109292000D01*
X264436000Y-111622000D02*
X264496000Y-111672000D01*
X264506000Y-110662000D02*
X264096000Y-110832000D01*
X262446000Y-109802000D02*
X262526000Y-109812000D01*
X264416000Y-113522000D02*
X264666000Y-113462000D01*
X261166000Y-110202000D02*
X261106000Y-110182000D01*
X261266000Y-111352000D02*
X261206000Y-111312000D01*
X262746000Y-108882000D02*
X262856000Y-108852000D01*
X262836000Y-109762000D02*
X262866000Y-109712000D01*
X261036000Y-110872000D02*
X261496000Y-110762000D01*
X264736000Y-109982000D02*
X265186000Y-111002000D01*
X262576000Y-108972000D02*
X262656000Y-108912000D01*
X264926000Y-109392000D02*
X264876000Y-109402000D01*
X261286000Y-110362000D02*
X261246000Y-110292000D01*
X261666000Y-109912000D02*
X261826000Y-109972000D01*
X262736000Y-111742000D02*
X262746000Y-111712000D01*
X265566000Y-110262000D02*
X265366000Y-110092000D01*
X265336000Y-112862000D02*
X265726000Y-113692000D01*
X264596000Y-110392000D02*
X264656000Y-110382000D01*
X265246000Y-109322000D02*
X265266000Y-109332000D01*
X264606000Y-109452000D02*
X264646000Y-109382000D01*
X265096000Y-109452000D02*
X265036000Y-109392000D01*
D15*
X224894000Y-108451733D02*
X224894000Y-108744267D01*
X223874000Y-108451733D02*
X223874000Y-108744267D01*
D12*
X228194000Y-103010000D02*
X242926000Y-103010000D01*
X228194000Y-115202000D02*
X228194000Y-103010000D01*
X242926000Y-103010000D02*
X242926000Y-115202000D01*
X242926000Y-115202000D02*
X228194000Y-115202000D01*
D15*
X209146000Y-131819733D02*
X209146000Y-132112267D01*
X208126000Y-131819733D02*
X208126000Y-132112267D01*
X239029000Y-150239000D02*
X232779000Y-150239000D01*
X239029000Y-145189000D02*
X232779000Y-145189000D01*
X239029000Y-150239000D02*
G75*
G03*
X239029000Y-145189000I0J2525000D01*
G01*
X232779000Y-145189000D02*
G75*
G03*
X232779000Y-150239000I0J-2525000D01*
G01*
M02*
