%TF.GenerationSoftware,KiCad,Pcbnew,(6.0.7)*%
%TF.CreationDate,2022-09-16T22:58:04+02:00*%
%TF.ProjectId,peugeot_projekt,70657567-656f-4745-9f70-726f6a656b74,rev?*%
%TF.SameCoordinates,Original*%
%TF.FileFunction,Profile,NP*%
%FSLAX46Y46*%
G04 Gerber Fmt 4.6, Leading zero omitted, Abs format (unit mm)*
G04 Created by KiCad (PCBNEW (6.0.7)) date 2022-09-16 22:58:04*
%MOMM*%
%LPD*%
G01*
G04 APERTURE LIST*
%TA.AperFunction,Profile*%
%ADD10C,0.100000*%
%TD*%
G04 APERTURE END LIST*
D10*
X265000000Y-149286000D02*
X265024000Y-131458000D01*
X268579958Y-97003320D02*
G75*
G03*
X265532000Y-94003320I-3000358J20D01*
G01*
X204500000Y-130500000D02*
X200499127Y-130500001D01*
X200000000Y-131000000D02*
X200000000Y-149286000D01*
X205000000Y-114000000D02*
X205000000Y-130000000D01*
X265532000Y-94003320D02*
X203000000Y-94000000D01*
X200499127Y-130500001D02*
G75*
G03*
X200000000Y-131000000I873J-499999D01*
G01*
X204500000Y-130500000D02*
G75*
G03*
X205000000Y-130000000I0J500000D01*
G01*
X203000000Y-152286000D02*
X262000000Y-152286000D01*
X203000000Y-94000000D02*
G75*
G03*
X200000000Y-97000000I0J-3000000D01*
G01*
X200000000Y-113000000D02*
G75*
G03*
X200500000Y-113500000I500000J0D01*
G01*
X266040000Y-130442000D02*
X267564000Y-130442000D01*
X200000000Y-149286000D02*
G75*
G03*
X203000000Y-152286000I3000000J0D01*
G01*
X205000000Y-114000000D02*
G75*
G03*
X204500000Y-113500000I-500000J0D01*
G01*
X262000000Y-152286000D02*
G75*
G03*
X265000000Y-149286000I0J3000000D01*
G01*
X268580000Y-129426000D02*
X268580000Y-97003320D01*
X266040000Y-130442000D02*
G75*
G03*
X265024000Y-131458000I0J-1016000D01*
G01*
X267564000Y-130442000D02*
G75*
G03*
X268580000Y-129426000I0J1016000D01*
G01*
X200000000Y-97000000D02*
X200000000Y-113000000D01*
X200500000Y-113500000D02*
X204500000Y-113500000D01*
M02*
